<?xml version="1.0" encoding="utf-8"?>
<!-- Generator: Adobe Illustrator 21.1.0, SVG Export Plug-In . SVG Version: 6.00 Build 0)  -->
<svg version="1.1" id="Capa_1" xmlns="http://www.w3.org/2000/svg" xmlns:xlink="http://www.w3.org/1999/xlink" x="0px" y="0px"
	 viewBox="0 0 415 415" style="enable-background:new 0 0 415 415;" xml:space="preserve">
<g>
	<path d="M1.7,169.5c1.2,1.2,2.4,2.4,3.7,3.7c-0.6,0.6-1.2,1.8-1.2,2.4c-1.8,10.4,2.4,22,4.9,31.8c2.4,9.2,4.3,19,6.7,28.8
		c-2.4,2.4-3.1,6.1,0,9.2c50.2,47.7,117.5,77.7,178.7,108.9c4.9,2.4,8.6-3.1,6.1-6.7c8-5.5,8-17.7,8.6-26.3c0.6-8,0.6-16.5,0.6-24.5
		c31.8,13.5,65.5,24.5,98.5,33.7c17.7,4.9,56.3,19,76.5,7.3c1.2,2.4,3.7,4.9,6.7,3.7c25.1-10.4,22-64.9,22.6-86.3
		c0.6-41,3.7-89.4-7.3-129.1c0-0.6,0-0.6-0.6-1.2c-1.8-8.6-8.6-17.7-12.9-24.5c-6.1-9.8-14.1-17.7-22-25.7c1.2-1.8,1.8-3.7,1.2-5.5
		c-1.2-4.9-6.7-4.3-9.2-1.2c-0.6,0-0.6,0-0.6,0c0-3.7-8,0.6-11.6,1.8c-7.3,2.4-14.1,4.3-21.4,6.1c-21.4,5.5-43.5,9.8-65.5,14.7
		c-32.4,7.3-66.1,12.9-96.7,25.1c3.7-16.5,3.7-33.7,0-50.2c-1.8-8.6-12.9-6.1-14.1,1.2c-0.6,0-1.8,0.6-3.1,1.2
		c-49,30-93.6,66.1-146.9,88.7C-0.8,158.5-0.8,165.8,1.7,169.5z M351.7,195.8c-3.7,26.9-14.1,62.4-8.6,90
		c-23.3-15.3-52.6-21.4-78.9-27.5c-31.8-7.3-63.6-15.9-95.5-25.7c0,0-0.6,0-1.2,0c-0.6-1.2-1.2-2.4-2.4-3.7c-3.1-2.4-7.3-2.4-9.8,0
		c-4.9,6.1-1.8,18.4-1.2,25.7c0.6,4.9,1.8,15.3,0,19.6c-1.2,0-1.8,0.6-2.4,1.2c-46.5-34.3-89.4-69.8-131-110.2
		c48.3-22,90.6-54.5,134-84.5c1.2,13.5,1.2,26.3,0,39.2c-0.6,5.5,7.3,6.7,10.4,3.1c20.8-3.1,146.3-18.4,190.9-38.6
		C361.5,122.4,357.2,157.9,351.7,195.8z M21.2,189.1c36.7,38.6,78.9,83.2,127.3,100.4c4.3,1.2,7.3-1.2,8-4.3
		c2.4,1.2,6.1,1.2,8.6-1.2c6.7-6.1,5.5-17.7,4.9-25.7c0-3.7-0.6-6.7-0.6-10.4c30.6,14.1,66.7,18.4,99.1,26.3
		c20.2,4.9,42.2,9.8,61.2,19c6.7,3.7,11,7.3,18.4,4.3c0.6-0.6,1.2-1.2,1.2-1.8V295c3.1,0.6,6.7-0.6,7.3-4.3
		c3.7-17.1,2.4-34.9,4.9-52c3.1-22.6,6.7-45.3,9.2-67.9c3.1-25.1,7.3-54.5,1.8-80.8c2.4,5.5,4.9,11,8,16.5
		c4.9,8.6,8.6,19.6,15.9,26.3c0.6,0.6,1.8,1.2,2.4,1.2c-5.5,31.2,0.6,66.7,0.6,97.3c0,22.6,0.6,45.9-3.7,67.9
		c-1.2,8.6-4.3,15.9-7.3,23.9c-1.2,0-3.1,0-4.3,0.6c-22.6,12.9-69.2-6.7-91.8-14.1c-28.8-9.2-57.5-20.8-86.3-30.6
		c-6.7-1.8-11,6.7-8,11c0,9.8-0.6,19.6-1.8,28.8c-0.6,6.7-4.3,14.1-4.3,20.8c-53.2-35.5-112-60.6-162.2-101.6
		c-0.6-11.6-3.7-23.9-6.1-35.5C23.1,198.3,22.5,193.4,21.2,189.1z"/>
</g>
</svg>
