<svg xmlns="http://www.w3.org/2000/svg" viewBox="0 0 666 278"><defs><style>.cls-1{font-size:48px;}.cls-1,.cls-2,.cls-3{font-family:FuturaHandwritten, FuturaHandwritten;}.cls-2{font-size:23px;}.cls-3{font-size:20px;}</style></defs><title>Artboard 1</title><g id="Layer_2" data-name="Layer 2"><path d="M543.45,24.71c5.38-5.2,17.33.5,21.58,4.41A18.19,18.19,0,0,1,571,39.55c.83,3.91,2.18,7.45,3.28,11.27,1.86,6.4,1.93,13.24,6,18.85S590,78.39,595,83.12l.3-2.36c-2.3,1.22-5,.21-7.31,1.66-1.77,1.14-3.36,3.29-4.67,4.91-3.55,4.42-6.2,10.32-8,15.68-4.45,13.25-.56,26.79-.64,40.35-.1,15.79,1.17,32.11-.79,47.81-.95,7.57-3.12,14.87-5.33,22.15-2.17,7.12-4.61,14.28-8.49,20.67-2.34,3.85-5,7.3-9.51,8.53-3.23.88-6.55,1-9.63,2.41-3.45,1.63-5.9,3.63-9.9,3.85-4.28.25-8.64,0-12.93,0a1.5,1.5,0,0,0,0,3c5.77,0,12.65,1.1,18.13-1,2.82-1.07,5.15-3.1,8.06-4,3.16-1,6.63-.87,9.67-2.24,4.89-2.2,8.1-7.7,10.46-12.24A112.55,112.55,0,0,0,572,212.45a129.94,129.94,0,0,0,4.9-20.87c1-7.65.77-15.36.77-23,0-8.08,0-16.16,0-24.24.06-7.77-.9-15.18-1.57-22.88-.75-8.59,1.37-16.58,5-24.27a39.68,39.68,0,0,1,6.17-9.77c2.76-3.12,6.19-2.25,9.52-4a1.51,1.51,0,0,0,.3-2.36c-6.74-6.37-14.72-10-17.47-19.7-1.19-4.18-1.55-8.61-3-12.71-1.59-4.53-2.22-9.31-3.81-13.8-2.1-5.92-8.07-10.88-13.9-12.87-5.43-1.86-12.93-3.87-17.62.67-1.39,1.34.73,3.46,2.12,2.12Z"/><path d="M544,20.55c-3.71.59-4.46,2.58-8.74,1.52A43.41,43.41,0,0,0,527.85,21c-4-.28-7.86.09-11.88-.41a45.8,45.8,0,0,0-9.39.08c-7.85.62-15.22,0-23-.64-3.95-.33-7.7-.13-11.66-.74a57.38,57.38,0,0,0-9.74-.27c-7,.12-13.88,1.23-20.82,1.55-7.36.34-14.76-.49-22.11.1-7.65.62-16.29,1.77-23.91.52-3.74-.62-7.08-1.68-10.92-1.72-2.67,0-7.77,1.16-10-.27-1.63-1-3.14,1.55-1.51,2.59,1.94,1.24,4.23.74,6.45.71a59.15,59.15,0,0,1,13.53,1.2c7.13,1.52,14.6.64,21.83.32,7.83-.35,15.57-.55,23.42-.47,7.48.08,14.85-1.26,22.33-1.49,15.14-.46,30,2.92,45.22,1.69a80,80,0,0,1,12.76.33c3.45.25,6.9-.34,10.35.05,2.82.32,5.55,1,8.37,1.3,3.54.38,4.48-1.48,7.67-2,1.9-.31,1.09-3.2-.8-2.89Z"/><path d="M374.16,19a71.63,71.63,0,0,0-18.37.56c-4.16.62-7.85.37-12,.41-3.85,0-7.65.79-11.47,1.16-6.77.65-13.79,1.33-20.59,1.39-3.86,0-7.73.06-11.59,0s-7-1.2-10.8-1.73c-15.85-2.25-32,1-47.62-2.82-5.81-1.43-13.23-2.49-19.21-2-3.69.31-7.39,1.62-11.09,2.11s-7.23.12-11-.07c-1.93-.1-1.92,2.91,0,3a63,63,0,0,0,11,.07c3.18-.36,6.23-.89,9.39-1.49,7.49-1.42,16.06.46,23.43,2.12a76,76,0,0,0,22.23,1.15,62.51,62.51,0,0,1,12.56,0c4.06.46,8.69.34,12.62,1.34,12.85,3.27,27.58,1.07,40.68-.07,3.82-.33,7.65-1.09,11.47-1.16,3.44-.06,6.81.48,10.23,0,6.77-.93,13.34-1.71,20.18-1,1.92.2,1.9-2.8,0-3Z"/><path d="M202.12,17.76c-9.66-.48-19.32-2.61-29-1-5.11.85-10.08.75-15.21,1.37S147.23,19.68,142,19.75c-9.62.14-19.1,2.68-28.75,2.48-4.19-.09-8.37-1.71-12.39-3.08-3.38-1.15-6.28.15-9.46,1.63-4.15,1.94-6.66,5.13-9.73,8.42-2.9,3.11-5.79,5.76-6.9,10s-.73,8.94-.7,13.33c0,5.39-1.37,10.45-1.38,15.78,0,4-.63,8.71.18,12.65.61,3,1.55,5,.91,8.21-.5,2.52-1.55,4.92-2,7.44-.8,4.31-.56,8.9-1.15,13.27-.66,4.89-1.34,9.71-1,14.65.41,5.38,2.07,10.67,3.18,15.93.65,3.06,2.07,5.82,2.83,8.82s.08,6.19-.34,9.12c-.81,5.65-.25,11.26-1,16.92-.41,3-1,6-1.42,9.06-.3,2.21.52,3.92.53,6.11a1.5,1.5,0,0,0,3,0c0-2-.73-3.94-.53-6s.76-4.12,1-6.16a120,120,0,0,0,.72-13.8c.12-4.39,1.6-8.85,1.36-13.26s-2.68-8.94-3.59-13.35c-1.1-5.34-2.68-10.43-2.86-15.93a65.85,65.85,0,0,1,1.33-13.27c.84-4.65.22-9.31,1.45-13.91.89-3.33,2.28-6.76,1.72-10.28-.43-2.7-1.43-5-1.38-7.81,0-2.2.09-4.38.05-6.58-.09-4.7,1.27-9,1.37-13.71.11-5-.59-10.17.33-15.08,1.06-5.64,5.75-9.76,9.64-13.75a19.42,19.42,0,0,1,7-4.73c2.75-1.14,5.05-.75,7.92-.12,3.88.85,6.43,2.55,10.49,2.47,8.64-.18,17.13-1.39,25.67-2.41,4.95-.59,10-.41,15-1.07,5.31-.69,10.73-.38,16-1.12a97.3,97.3,0,0,1,17-1.42c5.31.17,10.65,1.24,16,1.51,1.93.09,1.92-2.91,0-3Z"/><path d="M519.48,249.14c-6.06-2.27-13.07-1.34-19.43-1.33-6.82,0-13.43.88-20.27.71-7.8-.2-16-.62-23.73.11-7.14.66-13.87,1.74-21.06,1.75-7,0-14.3.1-21.25-1.13a100.4,100.4,0,0,0-20.64-1.55c-7.67.2-15.53.58-23.13-.33a112.81,112.81,0,0,0-21.51-.19c-1.92.13-1.93,3.13,0,3,4-.27,7.76-.82,11.75-.61,3.79.2,7.56.73,11.33,1.11,6.76.68,13.87.2,20.66,0,13.87-.33,27.26,2.88,41.14,2.68A165.36,165.36,0,0,0,453.07,252c7.63-1,15.52-.61,23.21-.55,6.8.06,13.37-.36,20.11-.63,6.9-.28,15.78-1.23,22.3,1.22,1.81.68,2.59-2.22.8-2.89Z"/><path d="M349.1,247.81c-3.34-.28-6-1.35-9.44-1.28-4.42.09-8.85,0-13.27,0-7.89,0-16.2-.79-24,0-4.5.48-8.91.58-13.43,1-3.16.3-6.48,1-9.62,1-7.77.1-15.76-2.48-23.42-3.41s-14.14-4.46-22.15-3.63c-4.13.43-8.36.71-12.46,1.25-3.73.49-7.28,1.61-11.05,1.86-7.42.49-13.75,4.78-21.12,5-3.9.14-7.75-.89-11.63-.67-4.59.27-9,.71-13.66.69a1.5,1.5,0,0,0,0,3c4.62,0,9.08-.46,13.66-.69,3.89-.19,7.73.78,11.63.67,7.2-.2,13.16-4.47,20.3-5.06,8.13-.67,16.17-2.26,24.34-3.08a25.46,25.46,0,0,1,13,1.93c3.66,1.5,7.35,1.32,11.23,2.08,6.87,1.34,14.31,3,21.34,3,3.2,0,6.43-.72,9.62-1,3.71-.34,7.39-.05,11.07-.41,8.75-.85,17.56-.65,26.4-.65,4.42,0,8.85.09,13.27,0,3.4-.07,6.16,1,9.44,1.28,1.92.16,1.91-2.84,0-3Z"/><path d="M76.65,198.4c-.47-.46-.12-1.56-.16-2.13a9.47,9.47,0,0,0-.4-1.69,18.54,18.54,0,0,1-.27-5.34c0-1.93-3-1.93-3,0,0,1.24-.17,2.49-.1,3.72A20.4,20.4,0,0,0,73.4,196c.36,1.76-.32,3.1,1.13,4.51s3.5-.77,2.12-2.12Z"/><path d="M166.34,249.73c-4-.19-7.87-1.1-12-.62-4.57.54-9.11.48-13.69,1s-9.29.24-13.89.25c-5,0-9.66,1-14.63,1.28-9.61.58-22.57.24-27.86-9-2.22-3.85-3.21-8.2-4.25-12.46-.6-2.46-1.6-4.8-2-7.3a47,47,0,0,1-.28-8.78,1.5,1.5,0,0,0-3,0,52.25,52.25,0,0,0,.2,9c.42,2.49,1.55,4.73,2.11,7.16.94,4,1.76,8.12,3.62,11.89,1.68,3.42,4,7.46,7.56,9.24,3.81,1.92,9,2.47,13.21,3a54.5,54.5,0,0,0,15.43-.36c5.87-1,11.78-.71,17.72-.72,5.22,0,10.4-.5,15.61-.64,2.35-.06,4.61-.75,7-.82,3.1-.08,6.1.67,9.18.82,1.93.09,1.93-2.91,0-3Z"/><path d="M77.93,213.1c-.51-.65.25-2.2.37-2.93a12.34,12.34,0,0,0,.15-3.3c-.3-2.81-2.07-5.17-2-8,.05-1.93-2.95-1.93-3,0-.09,3.43,2.23,6.31,2,9.69-.16,2.67-1.49,4.41.33,6.71,1.2,1.51,3.31-.62,2.12-2.12Z"/></g><g id="Layer_3" data-name="Layer 3"><text class="cls-1" transform="translate(608.82 93.54)">D</text><text class="cls-2" transform="translate(198.31 112.16)">Distance: 2 km<tspan x="-82.02" y="31">Estimated Time: 40min</tspan><tspan x="-71.99" y="62">Total Price: 21.5 RMB</tspan></text><text class="cls-3" transform="translate(393.27 207.32)">Fancy &amp; Boogie</text><path d="M433.43,168.51a10.75,10.75,0,0,0-20.24-2.89,9.14,9.14,0,0,0-1.1-.66V129.5a2.15,2.15,0,0,0-4.3,0v34.4a8.6,8.6,0,0,0,0,17.2h23.65a6.45,6.45,0,0,0,2-12.58Zm-2,8.29H407.79a4.3,4.3,0,1,1,0-8.6,4.67,4.67,0,0,1,4.43,2.9,2.15,2.15,0,0,0,4.16-.75,6.45,6.45,0,1,1,12.9,0,2.15,2.15,0,0,0,2.15,2.15,2.15,2.15,0,0,1,0,4.3Z"/><path d="M526,69.31H485.18a2.15,2.15,0,0,0,0,4.3h38.7V120L465.2,61.34a2.16,2.16,0,0,0-3.05,0L403.49,120V73.61h23.65a2.15,2.15,0,0,0,2.15-2.15v-8.6a2.15,2.15,0,0,0-2.15-2.15H425v-4.3h12.9v4.3h-2.15a2.15,2.15,0,0,0-2.15,2.15v8.6a2.15,2.15,0,0,0,2.15,2.15h6.45a2.15,2.15,0,1,0,0-4.3h-4.3V65H440a2.15,2.15,0,0,0,2.15-2.15v-8.6A2.15,2.15,0,0,0,440,52.11h-17.2a2.15,2.15,0,0,0-2.15,2.15v8.6A2.15,2.15,0,0,0,422.84,65H425v4.3H401.34a2.15,2.15,0,0,0-2.15,2.15v53.74a2.15,2.15,0,0,0,3.67,1.52L463.68,65.9l60.83,60.83a2.15,2.15,0,0,0,3.67-1.52V71.46A2.15,2.15,0,0,0,526,69.31Z"/><path d="M519.58,163.9V129.5a2.15,2.15,0,0,0-4.3,0V165a9.11,9.11,0,0,0-1.1.66,10.75,10.75,0,0,0-20.24,2.89,6.46,6.46,0,0,0-4.46,6.14,6.31,6.31,0,0,0,.4,2.15H452.94a2.15,2.15,0,1,0,0,4.3h66.64a8.6,8.6,0,1,0,0-17.2Zm0,12.9H495.93a2.15,2.15,0,1,1,0-4.3,2.15,2.15,0,0,0,2.15-2.15,6.45,6.45,0,1,1,12.9,0,2.15,2.15,0,0,0,4.16.75,4.67,4.67,0,0,1,4.43-2.9,4.3,4.3,0,1,1,0,8.6Z"/><path d="M472.28,95.11a8.6,8.6,0,1,0-8.6,8.6A8.61,8.61,0,0,0,472.28,95.11Zm-12.9,0a4.3,4.3,0,1,1,4.3,4.3A4.3,4.3,0,0,1,459.38,95.11Z"/><path d="M504.53,125.21h-17.2a2.15,2.15,0,0,0-2.15,2.15V151H483a2.15,2.15,0,1,0,0,4.3h25.8a2.15,2.15,0,0,0,0-4.3h-2.15V127.35A2.15,2.15,0,0,0,504.53,125.21ZM502.38,151h-12.9v-8.6h12.9Zm0-12.9h-12.9v-8.6h12.9Z"/><path d="M485.18,170.35A2.15,2.15,0,0,0,483,168.2h-6.45V127.36a2.15,2.15,0,0,0-2.15-2.15h-21.5a2.15,2.15,0,0,0-2.15,2.15V168.2h-6.45a2.15,2.15,0,0,0-2.15,2.15v8.6a2.15,2.15,0,0,0,4.3,0V172.5H483A2.15,2.15,0,0,0,485.18,170.35Zm-12.9-23.65h-2.15a2.15,2.15,0,1,0,0,4.3h2.15v17.2h-17.2V129.5h17.2Z"/><path d="M440,125.21h-17.2a2.15,2.15,0,0,0-2.15,2.15V151h-2.15a2.15,2.15,0,0,0,0,4.3h25.8a2.15,2.15,0,1,0,0-4.3h-2.15V127.36A2.15,2.15,0,0,0,440,125.21ZM437.89,151H425v-8.6h12.9Zm0-12.9H425v-8.6h12.9Z"/></g></svg>