<svg xmlns="http://www.w3.org/2000/svg" viewBox="0 0 666 278"><defs><style>.cls-1{font-size:48px;}.cls-1,.cls-2,.cls-3{font-family:FuturaHandwritten, FuturaHandwritten;}.cls-2{font-size:23px;}.cls-3{font-size:20px;}</style></defs><title>Artboard 1</title><g id="Layer_2" data-name="Layer 2"><text class="cls-1" transform="translate(22.54 96.42)">C</text><path d="M125.74,22.59c-4.51-4.37-11.58-2.62-16.89-.91-6.14,2-12.42,6.88-14.63,13.12-1.51,4.27-2,8.79-3.56,13.09-1.47,4.1-1.9,8.46-3,12.67a26.58,26.58,0,0,1-7.53,12.3C77,75.94,73.13,78,70,81a1.51,1.51,0,0,0,.3,2.36c2.45,1.3,5.61.61,7.88,2.21,2.78,2,4.94,5.78,6.46,8.74,3.52,6.87,6.11,13.81,6.46,21.61.33,7.33-1.52,14.6-1.65,21.94-.15,8,0,16.09,0,24.12,0,15.2-.28,29.92,4,44.67,3.4,11.8,6.83,27.56,16.64,36,2.37,2,5,2.72,8,3.29a36.77,36.77,0,0,1,10.74,4c6,3.14,13.57,1.93,20.17,1.94a1.5,1.5,0,0,0,0-3c-6.87,0-14.13,1.07-20.27-2.46-5.74-3.3-13.4-2.48-18.06-7.36-5.07-5.31-7.93-13-10.25-19.82a180.16,180.16,0,0,1-6.09-21.22c-3.27-15.66-1.79-32.23-1.85-48.13,0-8.16-.18-16.19,1-24.28a50.39,50.39,0,0,0-.31-17.2A55,55,0,0,0,85.26,89.4,30.22,30.22,0,0,0,79.83,83c-2.57-2.15-5.21-.78-8-2.28l.3,2.36c4.81-4.55,10.26-7.42,14.35-12.85,4.36-5.79,4.45-12.75,6.4-19.45,1-3.55,2.42-6.81,3.13-10.46.86-4.4,2.28-7.65,5.56-10.76,4.32-4.1,16.49-10.32,22.1-4.89,1.39,1.34,3.51-.78,2.12-2.12Z"/><path d="M122.25,23.45c2.74.44,3.93,2.2,6.9,2.07,2.78-.12,5.44-1,8.2-1.24,3.7-.27,7.39.08,11.08-.16,4.17-.27,7.85-.77,12.05-.44,15.53,1.22,30.66-2.08,46.12-1.61,7.2.22,14.32,1.58,21.52,1.5,7.81-.09,15.53,0,23.32.42,7.12.34,14.87,1.39,21.91-.09a63.34,63.34,0,0,1,13.52-1.39c2.42,0,5.16.65,7.29-.71,1.62-1,.12-3.64-1.51-2.59-2.12,1.36-7.52.23-10,.27-3.84.06-7.15,1.1-10.92,1.72-7.35,1.21-15.62.1-23-.42-7.67-.54-15.36.16-23-.2-6.94-.32-13.84-1.42-20.82-1.55-14.57-.26-28.88,2.91-43.48,1.73a49.33,49.33,0,0,0-10.29-.16c-4,.51-7.86.11-11.88.41a44.72,44.72,0,0,0-7.43,1.07,8.46,8.46,0,0,1-5.33.07c-1.33-.52-1.95-1.35-3.41-1.59-1.89-.3-2.7,2.59-.8,2.89Z"/><path d="M292.91,22c6.88-.73,13.37.14,20.18,1,3.43.42,6.79-.07,10.23,0,3.84.07,7.65.83,11.47,1.16,13.11,1.11,27.81,3.34,40.68.07,4-1,8.53-.87,12.62-1.34a61.59,61.59,0,0,1,12.36,0,76,76,0,0,0,22.43-1.13c7.36-1.66,16-3.54,23.43-2.12,3.15.6,6.21,1.13,9.39,1.49a63.13,63.13,0,0,0,11-.07c1.92-.09,1.93-3.1,0-3-3.76.19-7.23.56-11,.07S448.3,16.3,444.61,16c-3-.28-6.29.27-9.24.59a76.85,76.85,0,0,0-10,1.4c-15.63,3.82-31.78.56-47.62,2.82-3.73.53-7,1.68-10.8,1.73-3.59,0-7.19,0-10.79,0-7.07,0-14.34-.73-21.38-1.39C331,20.76,327.18,20,323.33,20c-4.2-.05-7.87.22-12-.41A71.6,71.6,0,0,0,292.91,19c-1.9.2-1.92,3.2,0,3Z"/><text class="cls-2" transform="translate(306.18 107.25)">Distance: 2.1 km<tspan x="0" y="31">Estimated Time: 40min</tspan><tspan x="0" y="62">Total Price: 26.5 RMB</tspan></text><text class="cls-3" transform="translate(126.24 221.04)">Organic &amp; Green</text><path d="M465,20.76c9.6-.47,19.42-2.7,29-1,9.18,1.67,18.78,1.78,28.07,2.85,4.19.48,8.45.39,12.67.87,4,.46,8,1.08,12,1.46,3.65.35,8.66,1.11,12.21,0,4.25-1.33,8.13-3.92,12.81-2.54,5.35,1.57,8.4,5.66,12.06,9.49,4.62,4.83,6.14,8.91,6.16,15.59,0,9.62,1.18,18.87,1.34,28.46.07,4.09-1.8,7.75-1.39,11.8.53,5.12,2.59,9.57,2.63,14.82.07,9.53,3,18,.85,27.64a158.24,158.24,0,0,1-4.32,16.57c-1.54,4.49-.9,8.6-.23,13.26s0,9.56.64,14.37c.36,2.91.9,5.79,1.29,8.69.35,2.58-.19,4.87-.21,7.4a1.5,1.5,0,0,0,3,0c0-1.87.78-3.35.66-5.22-.15-2.54-1-5.28-1.28-7.8-.67-5.19-.22-10.28-.7-15.44-.47-5-1.89-9.5-.29-14.45,1.77-5.46,3-11,4.32-16.57a39.78,39.78,0,0,0,1.15-12.88c-.55-4.86-1.7-9.82-1.9-14.72a53.85,53.85,0,0,0-1.91-12.6c-1.37-5.19.79-9.61.67-14.84-.1-4.6.2-9.09-.65-13.62-1-5.48-.56-10.87-.69-16.43-.21-9.54-5.68-15.93-12.63-22.1a23.75,23.75,0,0,0-9.06-4.74c-3.57-1-7,.37-10.45,1.65-4.58,1.71-9.17,1.76-14.1,1.25-5.3-.55-10.55-1.22-15.86-1.8C526,19.63,521,19.34,516,19c-2.85-.17-5.7-.86-8.55-1.11-3.16-.28-6.39.22-9.52-.27a101.11,101.11,0,0,0-15.31-1.42c-5.94,0-11.77,1.21-17.69,1.5-1.92.09-1.93,3.1,0,3Z"/><path d="M148.39,252c6.47-2.43,14.59-1.22,21.41-1.22,3.5,0,6.89.77,10.4.85s7.06-.18,10.59-.21c7.69-.07,15.58-.46,23.21.55a164.7,164.7,0,0,0,19.73,1.39c13.87.2,27.27-3,41.14-2.68,6.56.16,13.32.53,19.86.07,3.75-.26,7.49-.93,11.26-1.19,4.31-.3,8.36.29,12.63.57,1.93.13,1.92-2.87,0-3a113.7,113.7,0,0,0-21.51.19c-7.3.86-14.86.53-22.23.35-14.42-.34-28.37,2.67-42.79,2.66-7.18,0-13.93-1.1-21.06-1.75-7.48-.69-15.34-.31-22.85-.13-7.13.17-14-.68-21.15-.68-6.35,0-13.37-.94-19.43,1.33-1.79.67-1,3.57.8,2.89Z"/><path d="M318,250.81c3.28-.27,6-1.35,9.44-1.28,4.42.09,8.85,0,13.27,0,8.77,0,17.53-.28,26.2.62,3.75.39,7.5.08,11.27.44,3.2.31,6.41,1,9.62,1,7,0,14.45-1.69,21.34-3,3.88-.75,7.57-.57,11.23-2.08a25.64,25.64,0,0,1,13-1.93c7.87.79,15.67,2.6,23.52,3.1,7.45.48,13.66,4.83,21.12,5,3.9.11,7.75-.87,11.63-.67,4.59.25,9,.71,13.66.69a1.5,1.5,0,0,0,0-3c-4.62,0-9.07-.43-13.66-.69-3.89-.22-7.73.8-11.63.67-7.14-.25-13.15-4.59-20.3-5.06-8.1-.53-16.22-2.24-24.34-3.08s-14.39,2.69-22.15,3.63-15.66,3.51-23.42,3.41c-3.12,0-6.48-.72-9.62-1-4.28-.39-8.44-.28-12.68-.87-8-1.11-16.69-.19-24.79-.19-4.42,0-8.85.09-13.27,0-3.47-.07-6.1,1-9.44,1.28-1.91.16-1.93,3.16,0,3Z"/><path d="M592.54,200.52c1.43-1.41.77-2.77,1.13-4.51a24.45,24.45,0,0,0,.65-2.69,36.08,36.08,0,0,0-.07-4.08c0-1.93-3-1.93-3,0a17.82,17.82,0,0,1-.27,5.34,9,9,0,0,0-.4,1.69c0,.57.3,1.68-.16,2.13-1.38,1.35.74,3.47,2.12,2.12Z"/><path d="M500.74,252.73c2.8-.13,5.54-.82,8.36-.8,2.63,0,5.15.73,7.78.8,4.92.13,9.82.64,14.75.64,5.89,0,11.92-.39,17.74.56a56.76,56.76,0,0,0,16.28.51c4.14-.53,9.22-1.1,13-2.93,3.43-1.64,5.73-5.38,7.41-8.64,2.05-4,3-8.27,4-12.57.55-2.36,1.68-4.56,2.09-7a53.07,53.07,0,0,0,.23-9.18,1.5,1.5,0,0,0-3,0,68.62,68.62,0,0,1,0,7.32c-.28,2.81-1.48,5.34-2.21,8-1.16,4.27-1.88,8.57-4,12.52-2.8,5.21-6.36,7.14-11.92,8.44a57,57,0,0,1-16.3,1.19c-4.67-.28-9.05-1.28-13.77-1.28-4.49,0-9.11.3-13.58-.08-4.67-.4-9.49-.35-14.1-1-4.37-.64-8.37.25-12.71.46-1.92.09-1.93,3.09,0,3Z"/><path d="M591.27,215.22c1.83-2.3.5-4,.33-6.71-.2-3.39,2.12-6.25,2-9.69-.05-1.93-3.05-1.93-3,0,.08,2.88-1.69,5.24-2,8a12.21,12.21,0,0,0,.12,3.1c.11.76.9,2.49.39,3.13-1.19,1.5.92,3.63,2.12,2.12Z"/><path d="M162.06,140.7h30.32V119H162.06Zm4.33-4.33v-6.5H188v6.5Zm21.66-13v2.17H166.39v-2.17Z"/><path d="M162.06,149.36v26h30.32v-26Zm13,4.33v6.5h-8.66v-6.5Zm-8.66,10.83h8.66V171h-8.66Zm13,6.5v-6.5H188V171ZM188,160.19h-8.66v-6.5H188Z"/><path d="M201,140.7h30.32V119H201Zm4.33-4.33V134.2H227v2.17Zm21.66-13v6.5H205.38v-6.5Z"/><path d="M259.53,166.69a2.17,2.17,0,0,0-2.17,2.17V171H255.2v-2.17a2.17,2.17,0,1,0-4.33,0V171H248.7V127.26a8.64,8.64,0,0,0,12.15-8.58,8.7,8.7,0,0,0-3.3-6.14l-54.94-43-5.9-5.47L191,69.45l-55.08,43.1a8.66,8.66,0,0,0-1,12.72,8.6,8.6,0,0,0,9.86,2V171h-2.17v-2.17a2.17,2.17,0,1,0-4.33,0V171h-2.17v-2.17a2.17,2.17,0,0,0-4.33,0v19.49a2.17,2.17,0,0,0,4.33,0v-2.17h2.17v2.17a2.17,2.17,0,1,0,4.33,0v-2.17h2.17v4.33h104v-4.33h2.17v2.17a2.17,2.17,0,1,0,4.33,0v-2.17h2.17v2.17a2.17,2.17,0,1,0,4.33,0V168.86A2.17,2.17,0,0,0,259.53,166.69ZM138,122.31a4.33,4.33,0,0,1,.51-6.36l55.22-43.21L196.72,70l3.08,2.86L254.88,116a4.33,4.33,0,0,1-5.31,6.84l-.87-.67h0l-52-40.07-51.14,39.42h0l-1.71,1.32A4.31,4.31,0,0,1,138,122.31Zm-2,59.54v-6.5h2.17v6.5Zm6.5,0v-6.5h2.17v6.5Zm62.82,4.33V153.69H227v32.49Zm39,0h-13V149.36H201v36.82h-52V124.25l47.65-36.73,47.65,36.73Zm4.33-4.33v-6.5h2.17v6.5Zm6.5,0v-6.5h2.17v6.5Z"/></g></svg>