<?xml version="1.0" encoding="utf-8"?>
<!-- Generator: Adobe Illustrator 21.1.0, SVG Export Plug-In . SVG Version: 6.00 Build 0)  -->
<svg version="1.1" id="Capa_1" xmlns="http://www.w3.org/2000/svg" xmlns:xlink="http://www.w3.org/1999/xlink" x="0px" y="0px"
	 viewBox="0 0 512 512" style="enable-background:new 0 0 512 512;" xml:space="preserve">
<g>
	<g>
		<path d="M483,253.7h-7.1l-19.6-83.9c-6.1-26.1-29.1-44.4-56-44.4H111.7c-26.9,0-49.9,18.3-56,44.4l-19.6,83.9H29
			c-5.5,0-10,4.5-10,10s4.5,10,10,10h7.1l19.6,83.9c6.1,26.1,29.1,44.4,56,44.4h288.6c26.9,0,49.9-18.3,56-44.4l19.6-83.9h7.1
			c5.5,0,10-4.5,10-10C493,258.2,488.5,253.7,483,253.7z M60.4,237.6h303.1c5.5,0,10-4.5,10-10s-4.5-10-10-10H65l10.1-43.2
			c4-17.1,19-29,36.5-29h288.6c17.5,0,32.5,11.9,36.5,29l18.5,79.3H316.5h-121H56.6L60.4,237.6z M306.5,273.7l0,10.8
			c0,9.5-7.8,17.3-17.3,17.3h-66.4c-9.5,0-17.3-7.8-17.3-17.3v-10.8H306.5z M436.8,353c-4,17.1-19,29-36.5,29H111.7
			c-17.5,0-32.5-11.9-36.5-29l-18.5-79.3h128.9l0,10.8c0,20.6,16.7,37.3,37.3,37.3h66.4c20.6,0,37.3-16.7,37.3-37.3v-10.8h128.9
			L436.8,353z"/>
	</g>
</g>
<g>
	<g>
		<path d="M410.8,335.7c-0.1-0.6-0.3-1.3-0.6-1.9s-0.6-1.2-0.9-1.7c-0.4-0.5-0.8-1.1-1.2-1.5s-1-0.9-1.5-1.2
			c-0.5-0.4-1.1-0.7-1.7-0.9c-0.6-0.2-1.2-0.4-1.9-0.6c-1.3-0.3-2.6-0.3-3.9,0c-0.6,0.1-1.3,0.3-1.9,0.6c-0.6,0.2-1.2,0.6-1.7,0.9
			c-0.5,0.4-1.1,0.8-1.5,1.2s-0.9,1-1.2,1.5c-0.4,0.5-0.7,1.1-0.9,1.7s-0.4,1.2-0.6,1.9c-0.1,0.6-0.2,1.3-0.2,2c0,0.7,0.1,1.3,0.2,2
			c0.1,0.6,0.3,1.3,0.6,1.9s0.6,1.2,0.9,1.7c0.4,0.5,0.8,1.1,1.2,1.5s1,0.9,1.5,1.2c0.5,0.4,1.1,0.7,1.7,0.9
			c0.6,0.2,1.2,0.4,1.9,0.6c0.6,0.1,1.3,0.2,2,0.2c0.6,0,1.3-0.1,2-0.2c0.6-0.1,1.3-0.3,1.9-0.6s1.2-0.6,1.7-0.9
			c0.5-0.4,1.1-0.8,1.5-1.2s0.9-1,1.2-1.5c0.4-0.5,0.7-1.1,0.9-1.7s0.4-1.2,0.6-1.9c0.1-0.6,0.2-1.3,0.2-2
			C411,337,410.9,336.3,410.8,335.7z"/>
	</g>
</g>
</svg>
