<?xml version="1.0" encoding="iso-8859-1"?>
<!-- Generator: Adobe Illustrator 19.0.0, SVG Export Plug-In . SVG Version: 6.00 Build 0)  -->
<svg version="1.1" id="Capa_1" xmlns="http://www.w3.org/2000/svg" xmlns:xlink="http://www.w3.org/1999/xlink" x="0px" y="0px"
	 viewBox="0 0 511.999 511.999" style="enable-background:new 0 0 511.999 511.999;" xml:space="preserve">
<polygon style="fill:#C3FB3A;" points="148.91,435.327 201.491,487.909 263.556,425.844 212.116,374.404 "/>
<polygon style="fill:#65C27C;" points="178.238,464.656 241.445,403.733 212.116,374.404 148.91,435.327 "/>
<polygon style="fill:#FF5023;" points="132.287,418.704 193.21,355.498 156.501,318.789 93.295,379.713 "/>
<polygon style="fill:#C3FB3A;" points="137.595,299.884 85.553,247.841 23.488,309.905 76.672,363.09 "/>
<rect x="17.908" y="275.868" transform="matrix(0.7071 -0.7071 0.7071 0.7071 -184.2333 127.5028)" style="fill:#65C27C;" width="87.769" height="20.545"/>
<path style="fill:#FF5023;" d="M24.655,445.873l-14.144-14.144L414.747,12.346c6.154-6.38,16.344-6.471,22.612-0.203l6.883,6.883
	c6.268,6.268,6.177,16.458-0.203,22.612L24.655,445.873z"/>
<path style="fill:#D80029;" d="M446.311,21.573c-0.589-0.9-1.277-1.755-2.069-2.547l-6.883-6.883
	c-6.268-6.268-16.458-6.177-22.612,0.203L10.511,431.729l11.499,11.499L426.247,23.845C431.623,18.271,440.08,17.498,446.311,21.573
	z"/>
<polygon style="fill:#C3FB3A;" points="365.878,63.004 393.38,90.506 414.257,70.367 386.017,42.127 "/>
<path style="fill:#FF5023;" d="M80.27,501.488l-14.144-14.144L470.362,67.961c6.154-6.38,16.344-6.471,22.612-0.203l6.883,6.883
	c6.268,6.268,6.176,16.458-0.203,22.612L80.27,501.488z"/>
<g>
	<polygon style="fill:#C3FB3A;" points="421.492,118.619 448.995,146.122 469.872,125.982 441.632,97.742 	"/>
	<polygon style="fill:#C3FB3A;" points="430.726,163.691 403.924,136.889 322.776,221.076 346.538,244.838 	"/>
	<polygon style="fill:#C3FB3A;" points="267.162,165.462 290.923,189.222 375.111,108.075 348.309,81.273 	"/>
</g>
<g>
	<polygon style="fill:#65C27C;" points="397.494,53.604 386.017,42.127 365.878,63.004 377.354,74.481 	"/>
	<polygon style="fill:#65C27C;" points="359.786,92.751 348.309,81.273 267.162,165.462 278.638,176.939 	"/>
</g>
<path style="fill:#D80029;" d="M501.952,77.213c-0.589-0.9-1.277-1.755-2.069-2.547L493,67.783
	c-6.268-6.268-16.458-6.177-22.612,0.203L66.153,487.371l11.499,11.499L481.887,79.485
	C487.264,73.912,495.721,73.139,501.952,77.213z"/>
<g>
	<polygon style="fill:#65C27C;" points="453.136,109.245 441.658,97.768 421.518,118.645 432.995,130.122 	"/>
	<polygon style="fill:#65C27C;" points="415.427,148.392 403.95,136.915 322.803,221.103 334.279,232.579 	"/>
</g>
<polygon style="fill:#FEDA44;" points="179.064,341.352 170.647,332.935 156.501,318.789 93.295,379.713 107.441,393.858 
	118.141,404.558 132.287,418.704 193.21,355.498 "/>
<polygon style="fill:#FF9911;" points="179.064,341.352 170.647,332.935 156.501,318.789 93.295,379.713 107.441,393.858 
	118.141,404.558 "/>
<g>
	<polygon style="fill:#FEDA44;" points="137.595,299.884 123.449,285.737 62.526,348.943 76.672,363.09 	"/>
	<polygon style="fill:#FEDA44;" points="148.91,435.327 163.055,449.473 226.261,388.551 212.116,374.404 	"/>
</g>
<path d="M511.998,86.056c0.057-6.316-2.371-12.253-6.838-16.72l-6.883-6.883c-4.465-4.465-10.397-6.877-16.72-6.838
	c-6.316,0.057-12.209,2.591-16.597,7.139l-23.416,24.294l-0.01-0.01l-30.557,31.675l0.023,0.023L193.112,344.792l-25.905-25.904
	l123.62-119.154l0,0l94.991-91.559l0,0l7.446-7.177l0.023,0.023l31.674-30.557l-0.01-0.01l24.295-23.418
	c4.546-4.385,7.081-10.278,7.138-16.594s-2.372-12.253-6.838-16.72l-6.884-6.884c-4.466-4.465-10.448-6.903-16.72-6.837
	c-6.316,0.057-12.209,2.591-16.597,7.14l-23.416,24.293l-0.01-0.01l-30.557,31.676l0.023,0.023l-7.177,7.445l0,0l-66.961,69.472
	l-143.75,149.139l-14.146-14.147l0,0l-37.798-37.798l-72.672,72.672l39.134,39.134l0,0l14.147,14.146L0,431.826l24.558,24.558
	l68.64-66.16l28.577,28.578l-66.16,68.64l24.558,24.558l68.64-66.16l1.768,1.768l50.91,50.91l72.672-72.672l-46.482-46.482
	l-4.859-4.859l166.995-160.963l51.616-49.751l0,0l7.446-7.177l0.023,0.023l31.674-30.557l-0.01-0.01l24.296-23.418
	C509.407,98.265,511.942,92.372,511.998,86.056z M449.071,135.59l-17.047-17.047l9.719-10.083l17.411,17.411L449.071,135.59z
	 M387.629,194.812l-9.253-9.253l-10.607,10.607l9.058,9.058l-30.192,29.102l-13.346-13.346l70.735-73.385l15.997,15.997
	L387.629,194.812z M167.779,371.074l-35.591,36.924l-8.79-8.79l51.457-51.457l7.844,7.844L167.779,371.074z M104.002,379.811
	l52.403-50.511l7.844,7.844l-51.457,51.457L104.002,379.811z M283.884,158.921l64.523-66.941l15.997,15.997l-73.385,70.735
	l-13.346-13.346L283.884,158.921z M386.128,52.845l17.411,17.411l-10.083,9.719l-17.047-17.047L386.128,52.845z M420.145,17.553
	c1.568-1.625,3.674-2.531,5.933-2.551c2.292-0.016,4.38,0.848,5.977,2.444l6.884,6.884c1.597,1.597,2.464,3.719,2.444,5.978
	c-0.021,2.257-0.926,4.364-2.549,5.93l-24.492,23.607L396.54,42.043L420.145,17.553z M365.996,73.732l16.657,16.656l-7.446,7.177
	L358.82,81.176L365.996,73.732z M76.574,352.384l-3.536-3.536l50.51-52.403l3.536,3.536l-14.212,14.745L76.574,352.384z
	 M34.096,309.905l51.457-51.457l27.386,27.386l-50.511,52.403L34.096,309.905z M24.752,435.362l-3.729-3.729l55.748-57.837l0,0
	l71.335-74.008l0,0l93.776-97.29l6.609,6.609l10.607-10.607l-6.804-6.804l14.966-15.527l12.956,12.956l-154.92,149.325
	l-42.708,41.165l0,0L24.752,435.362z M159.616,435.426l26.201-25.255l26.202-25.255l3.536,3.536l-52.403,50.511L159.616,435.426z
	 M201.491,477.3l-27.729-27.729l52.404-50.511l26.782,26.783L201.491,477.3z M212.213,363.893l-37.004,35.668l-37.004,35.668l0,0
	l-57.837,55.748l-3.729-3.729l55.748-57.837l0,0l71.336-74.009l0,0l119.154-123.619l12.956,12.956L212.213,363.893L212.213,363.893z
	 M430.822,153.179l-16.388-16.388l7.177-7.446l16.657,16.657L430.822,153.179z M494.448,91.852l-24.492,23.607l-17.801-17.801
	l23.605-24.49c1.568-1.625,3.674-2.531,5.933-2.551c0.026,0,0.051,0,0.077,0c2.229,0,4.321,0.866,5.9,2.444l6.883,6.883
	c1.596,1.597,2.464,3.719,2.444,5.978C496.977,88.179,496.071,90.286,494.448,91.852z"/>
<g>
	
		<rect x="418.543" y="25.108" transform="matrix(-0.7071 -0.7071 0.7071 -0.7071 705.9637 352.7719)" style="fill:#FFFFFF;" width="15.002" height="10.137"/>
	
		<rect x="406.579" y="34.537" transform="matrix(-0.7071 -0.7071 0.7071 -0.7071 677.0126 364.8999)" style="fill:#FFFFFF;" width="15.002" height="15.398"/>
	
		<rect x="223.533" y="417.639" transform="matrix(0.7071 0.7071 -0.7071 0.7071 368.722 -38.6652)" style="fill:#FFFFFF;" width="15.002" height="16.23"/>
	
		<rect x="201.456" y="430.156" transform="matrix(0.7071 0.7071 -0.7071 0.7071 377.8678 -16.5873)" style="fill:#FFFFFF;" width="15.002" height="35.354"/>
	
		<rect x="85.703" y="279.045" transform="matrix(-0.7071 0.7071 -0.7071 -0.7071 362.7762 422.8256)" style="fill:#FFFFFF;" width="16.231" height="15.002"/>
	
		<rect x="64.246" y="290.929" transform="matrix(0.7071 0.7071 -0.7071 0.7071 239.2315 39.6557)" style="fill:#FFFFFF;" width="15.002" height="35.354"/>
	
		<rect x="474.729" y="78.45" transform="matrix(0.7071 0.7071 -0.7071 0.7071 200.298 -316.5259)" style="fill:#FFFFFF;" width="15.002" height="10.136"/>
	
		<rect x="462.772" y="87.88" transform="matrix(0.7071 0.7071 -0.7071 0.7071 205.3241 -304.5388)" style="fill:#FFFFFF;" width="15.002" height="15.397"/>
</g>
<g>
</g>
<g>
</g>
<g>
</g>
<g>
</g>
<g>
</g>
<g>
</g>
<g>
</g>
<g>
</g>
<g>
</g>
<g>
</g>
<g>
</g>
<g>
</g>
<g>
</g>
<g>
</g>
<g>
</g>
</svg>
