<?xml version="1.0" encoding="iso-8859-1"?>
<!-- Generator: Adobe Illustrator 19.0.0, SVG Export Plug-In . SVG Version: 6.00 Build 0)  -->
<svg version="1.1" id="Capa_1" xmlns="http://www.w3.org/2000/svg" xmlns:xlink="http://www.w3.org/1999/xlink" x="0px" y="0px"
	 viewBox="0 0 512.002 512.002" style="enable-background:new 0 0 512.002 512.002;" xml:space="preserve">
<g>
	<path style="fill:#FFFBEE;" d="M230.127,141.461h51.747V122.07c0-10.666-8.725-19.393-19.391-19.393h-12.965
		c-10.666,0-19.392,8.727-19.392,19.393L230.127,141.461L230.127,141.461z"/>
	<g>
		<path style="fill:#F4D99D;" d="M76.001,294.982H30.5c-11.274,0-20.5,9.225-20.5,20.5s9.226,20.5,20.5,20.5h45.501V294.982z"/>
		<path style="fill:#F4D99D;" d="M436.001,294.982v41h45.501c11.274,0,20.5-9.225,20.5-20.5s-9.226-20.5-20.5-20.5H436.001z"/>
		<path style="fill:#F4D99D;" d="M67.632,229.33H444.37c8.801,0,16-7.199,16-16s-7.199-16-16-16h-8.818
			c-3.74-31.352-30.604-55.869-62.92-55.869h-90.758h-51.747H139.37c-32.316,0-59.18,24.518-62.92,55.869h-8.818
			c-8.801,0-16,7.199-16,16C51.632,222.131,58.831,229.33,67.632,229.33z"/>
	</g>
	<path style="fill:#FFFBEE;" d="M444.37,229.33H67.632c-8.801,0-16,7.199-16,16s7.201,16.002,16,16.002h8.369v33.65v41V461.33
		c0,22,18.001,40,40,40h280c21.999,0,40-18.002,40-40V335.982v-41v-33.65h8.369c8.799,0,16-7.201,16-16.002
		S453.171,229.33,444.37,229.33z"/>
</g>
<path d="M481.502,284.982h-35.501v-13.701c13.58-0.845,24.369-12.161,24.369-25.951c0-6.031-2.07-11.584-5.529-16
	c3.459-4.416,5.529-9.969,5.529-16c0-14.336-11.664-26-26-26h-0.487c-7.939-32.403-37.143-55.869-71.251-55.869h-80.758v-9.391
	c0-16.207-13.185-29.393-29.391-29.393h-12.965c-16.207,0-29.392,13.186-29.392,29.393v9.391H139.37
	c-34.108,0-63.312,23.466-71.251,55.869h-0.487c-14.337,0-26,11.664-26,26c0,6.031,2.07,11.584,5.529,16
	c-3.459,4.416-5.529,9.969-5.529,16c0,13.79,10.79,25.106,24.369,25.951v13.701H30.5c-16.818,0-30.5,13.683-30.5,30.5
	s13.682,30.5,30.5,30.5h35.501V461.33c0,27.57,22.43,50,50,50h280c27.57,0,50-22.43,50-50V345.982h35.501
	c16.818,0,30.5-13.683,30.5-30.5S498.32,284.982,481.502,284.982z M240.127,122.07c0-5.179,4.213-9.393,9.392-9.393h12.965
	c5.178,0,9.391,4.214,9.391,9.393v9.391h-31.747v-9.391H240.127z M67.632,207.33h8.818c5.064,0,9.33-3.786,9.93-8.815
	c3.2-26.825,25.981-47.054,52.99-47.054h90.757h51.747h90.758c27.009,0,49.79,20.229,52.99,47.054c0.6,5.029,4.865,8.815,9.93,8.815
	h8.818c3.253,0,6,2.748,6,6s-2.747,6-6,6H67.632c-3.253,0-6-2.748-6-6C61.632,210.078,64.379,207.33,67.632,207.33z M30.5,325.982
	c-5.79,0-10.5-4.71-10.5-10.5s4.71-10.5,10.5-10.5h35.501v21H30.5z M426.001,461.33c0,16.542-13.458,30-30,30h-280
	c-16.542,0-30-13.458-30-30V335.982v-41v-33.65c0-5.522-4.477-10-10-10h-8.369c-3.253,0-6-2.748-6-6.002c0-3.252,2.748-6,6-6H444.37
	c3.253,0,6,2.748,6,6c0,3.254-2.747,6.002-6,6.002h-8.369c-5.523,0-10,4.478-10,10v33.65v41V461.33z M481.502,325.982h-35.501v-21
	h35.501c5.789,0,10.5,4.71,10.5,10.5S487.291,325.982,481.502,325.982z"/>
<path d="M245.878,65.51c-2.163,5.082,0.203,10.954,5.285,13.117c1.278,0.544,2.605,0.802,3.912,0.802
	c3.888,0,7.587-2.283,9.206-6.087c8.739-20.532,4.541-31.744,1.167-40.754c-2.356-6.293-4.058-10.84-2.042-19.69
	c1.227-5.385-2.144-10.745-7.528-11.972c-5.384-1.232-10.745,2.144-11.972,7.528c-3.348,14.694,0.067,23.816,2.811,31.147
	C249.589,47.269,251.485,52.334,245.878,65.51z"/>
<path d="M131.729,65.51c-2.163,5.082,0.203,10.954,5.285,13.117c1.278,0.544,2.605,0.802,3.912,0.802
	c3.888,0,7.586-2.283,9.206-6.087c8.739-20.532,4.54-31.744,1.167-40.754c-2.356-6.293-4.059-10.84-2.042-19.69
	c1.227-5.385-2.144-10.745-7.528-11.972c-5.384-1.232-10.745,2.144-11.972,7.528c-3.348,14.694,0.067,23.816,2.812,31.147
	C135.44,47.269,137.337,52.335,131.729,65.51z"/>
<path d="M360.028,65.51c-2.163,5.082,0.204,10.955,5.285,13.117c1.278,0.544,2.605,0.802,3.912,0.802
	c3.888,0,7.587-2.283,9.206-6.087c8.738-20.532,4.54-31.744,1.167-40.754c-2.357-6.293-4.059-10.84-2.042-19.69
	c1.227-5.385-2.144-10.745-7.528-11.972c-5.383-1.232-10.745,2.144-11.972,7.528c-3.348,14.694,0.067,23.816,2.812,31.147
	C363.739,47.269,365.635,52.335,360.028,65.51z"/>
<path d="M152.286,251.332h-41.035c-5.523,0-10,4.478-10,10c0,5.523,4.477,10,10,10h41.035c5.523,0,10-4.477,10-10
	C162.286,255.81,157.809,251.332,152.286,251.332z"/>
<path d="M181.279,251.334h-0.287c-5.523,0-10,4.477-10,10c0,5.522,4.477,10,10,10h0.287c5.523,0,10-4.478,10-10
	C191.279,255.812,186.802,251.334,181.279,251.334z"/>
<g>
</g>
<g>
</g>
<g>
</g>
<g>
</g>
<g>
</g>
<g>
</g>
<g>
</g>
<g>
</g>
<g>
</g>
<g>
</g>
<g>
</g>
<g>
</g>
<g>
</g>
<g>
</g>
<g>
</g>
</svg>
