<?xml version="1.0" encoding="iso-8859-1"?>
<!-- Generator: Adobe Illustrator 19.0.0, SVG Export Plug-In . SVG Version: 6.00 Build 0)  -->
<svg version="1.1" id="Capa_1" xmlns="http://www.w3.org/2000/svg" xmlns:xlink="http://www.w3.org/1999/xlink" x="0px" y="0px"
	 viewBox="0 0 512.001 512.001" style="enable-background:new 0 0 512.001 512.001;" xml:space="preserve">
<path style="fill:#E6BB00;" d="M399.852,362.267L217.842,149.733h76.314c106.198,0,194.204,77.889,210.006,179.658
	c2.68,17.257-10.534,32.876-27.998,32.876H399.852z"/>
<path style="fill:#F9545B;" d="M399.852,362.267h80.033c15.466-9.774,10.036-33.562-8.139-35.659
	c13.472-12.379,3.882-34.815-14.376-33.632l0,0l0,0c11.045-14.586-2.396-34.949-20.15-30.525l0,0
	c8.263-16.324-8.598-33.959-25.276-26.437l0,0c4.824-16.221-11.7-29.691-26.13-23.411l-4.121-5.862
	c-1.201-4.054-3.693-7.421-6.897-9.81l-0.001-0.001h-0.001c-6.548-4.882-16.042-5.694-23.417,0L399.852,362.267z"/>
<path style="fill:#FEDD00;" d="M427.85,329.391c-15.804-101.768-103.809-179.658-210.007-179.658S23.639,227.623,7.836,329.391
	c-2.68,17.257,10.534,32.876,27.998,32.876h364.016C417.315,362.267,430.529,346.649,427.85,329.391z"/>
<path style="fill:#FECE00;" d="M47.838,329.391c14.8-95.304,92.922-169.664,190.005-178.726c-6.584-0.614-13.256-0.932-20.001-0.932
	c-106.198,0-194.204,77.89-210.006,179.658c-2.68,17.257,10.534,32.876,27.998,32.876h40.002
	C58.372,362.267,45.158,346.648,47.838,329.391z"/>
<path d="M155.032,268.509v-12.725c0-4.142-3.357-7.5-7.5-7.5c-4.142,0-7.5,3.358-7.5,7.5v12.725c0,4.142,3.358,7.5,7.5,7.5
	C151.674,276.01,155.032,272.652,155.032,268.509z"/>
<path d="M295.642,268.509v-12.725c0-4.142-3.358-7.5-7.5-7.5c-4.142,0-7.5,3.358-7.5,7.5v12.725c0,4.142,3.358,7.5,7.5,7.5
	C292.284,276.01,295.642,272.652,295.642,268.509z"/>
<path d="M217.837,285.413c10.473,0,20.303-4.373,26.967-11.996c2.727-3.119,2.408-7.856-0.71-10.583
	c-3.119-2.727-7.857-2.408-10.583,0.71c-3.815,4.365-9.528,6.868-15.674,6.868c-6.145,0-11.857-2.503-15.673-6.868
	c-2.725-3.118-7.463-3.437-10.583-0.711c-3.12,2.726-3.437,7.464-0.711,10.583C197.535,281.04,207.363,285.413,217.837,285.413z"/>
<path d="M35.829,369.767c0,0,444.044,0,444.05,0c8.541,0,18.128-6.282,23.456-12.5c6.855-8.002,9.856-18.582,8.234-29.026
	c-7.968-51.316-34.111-98.379-73.613-132.516c-39.914-34.494-90.986-53.491-143.806-53.491h-76.314
	c-59.446,0-115.153,23.347-156.857,65.739c-2.905,2.953-2.866,7.701,0.087,10.606c2.953,2.905,7.702,2.866,10.606-0.087
	c38.862-39.503,90.771-61.258,146.163-61.258c46.997,0,92.498,16.148,128.888,45.585c32.141,25.999,56.049,61.661,67.775,101.304
	c3.728,12.602,11.072,31.779,1.129,43.385c-3.952,4.613-9.705,7.259-15.783,7.259c0,0-363.441,0-364.016,0
	c-12.738,0-22.531-11.705-20.588-24.225c5.029-32.389,18.023-63.499,37.575-89.969c2.461-3.332,1.756-8.027-1.576-10.488
	c-3.331-2.461-8.027-1.756-10.488,1.576C19.767,260.07,5.82,293.465,0.42,328.238C-2.916,349.72,14.062,369.767,35.829,369.767z
	 M368.296,201.724c0.722,0.35,1.396,0.761,2.01,1.218c1.489,1.11,2.661,2.499,3.458,4.082c-0.135-0.136-3.745-3.683-5.454-5.286
	C368.305,201.733,368.301,201.728,368.296,201.724z M428.979,354.767c0.08-0.111,0.152-0.227,0.23-0.339
	c2.932-4.202,5.011-9.223,5.911-14.272c1.32-7.413-0.192-14.674-1.667-21.938c-7.384-36.351-23.815-70.01-47.641-98.115
	c1.005,0,2.021-0.203,2.99-0.624c4.971-2.164,9.715-0.302,12.498,2.161c1.687,1.493,5.399,5.675,3.45,12.231
	c-1.799,6.053,4.514,11.574,10.272,8.978c5.656-2.551,10.675-0.318,13.487,2.622c2.81,2.939,4.816,8.052,2.017,13.586
	c-2.842,5.62,2.436,12.179,8.503,10.669c6.022-1.5,10.56,1.593,12.801,4.988c2.241,3.395,3.301,8.784-0.443,13.731
	c-3.784,4.999,0.215,12.421,6.463,12.014c6.188-0.401,10.105,3.453,11.704,7.193s1.679,9.232-2.887,13.43
	c-4.664,4.288-2.042,12.253,4.213,12.976c6.163,0.711,9.327,5.202,10.232,9.168c0.802,3.515,0.183,8.171-3.62,11.492
	C477.051,354.748,428.979,354.767,428.979,354.767z M297.79,157.266c47.922,0.85,94.086,18.461,130.359,49.808
	c36.812,31.814,61.174,75.663,68.598,123.468c0.532,3.427,0.214,6.877-0.873,10.07c-0.049-0.241-0.082-0.482-0.136-0.723
	c-1.686-7.385-6.167-13.427-12.288-17.086c2.801-6.558,2.876-14.08-0.101-21.045c-2.977-6.967-8.465-12.11-15.143-14.618
	c1.585-6.952,0.316-14.367-3.857-20.689s-10.491-10.403-17.509-11.678c0.318-7.124-2.254-14.192-7.489-19.668
	c-5.237-5.477-12.184-8.364-19.319-8.364c-0.844-6.196-3.869-11.976-8.789-16.333c-6.325-5.601-14.497-7.886-22.382-6.506
	l-0.392-0.557c-1.739-4.947-4.899-9.225-9.198-12.431c-8.167-6.089-18.527-7.094-27.289-3.056
	c-15.042-11.574-31.579-21.185-49.085-28.52c-1.462-0.612-2.928-1.254-4.417-1.796C298.25,157.452,298.021,157.356,297.79,157.266z"
	/>
<g>
</g>
<g>
</g>
<g>
</g>
<g>
</g>
<g>
</g>
<g>
</g>
<g>
</g>
<g>
</g>
<g>
</g>
<g>
</g>
<g>
</g>
<g>
</g>
<g>
</g>
<g>
</g>
<g>
</g>
</svg>
