<svg xmlns="http://www.w3.org/2000/svg" viewBox="0 0 800 200"><defs><style>.cls-1{fill:#81c784;}.cls-2{fill:#4caf50;}.cls-3{fill:#f4511e;}.cls-4{fill:#fdd844;}.cls-5{fill:#ffa733;}.cls-6{fill:#ce93d8;}.cls-7{fill:#616161;}.cls-8{fill:#b39a7c;}.cls-9{fill:#d8d7da;}.cls-10{fill:#fdab08;}.cls-11{fill:#ee8700;}.cls-12{fill:#ba68c8;}.cls-13{fill:#424242;}.cls-14{fill:#d84315;}.cls-15{fill:#fff;}.cls-16{font-size:19.16px;font-family:FuturaHandwritten, FuturaHandwritten;}</style></defs><title>Artboard 1</title><g id="Layer_2" data-name="Layer 2"><path class="cls-1" d="M443.19,127.47v2.74h2.29v8.23l2.38,2.1v17.92a2.74,2.74,0,0,0,2.74,2.74H466V127.47Z"/><path class="cls-2" d="M459.65,156.63a6.35,6.35,0,0,0,.62,2.74H450.6a2.74,2.74,0,0,1-2.74-2.74v1.83a2.74,2.74,0,0,0,2.74,2.74H466v-11A6.41,6.41,0,0,0,459.65,156.63Z"/><rect class="cls-1" x="468.79" y="127.47" width="2.74" height="18.29"/><polygon class="cls-3" points="463.66 122.97 464.75 125.31 463.97 127.47 457.16 127.47 458.74 123.12 461.08 122.03 462.64 117.73 465.22 118.67 463.66 122.97"/><polygon class="cls-4" points="451.23 121.96 448.13 116.59 445.75 117.96 448.19 122.19 451.23 121.96"/><polygon class="cls-5" points="453.42 123.84 455.99 123.4 458.11 124.84 458.74 123.12 459.9 122.58 459.37 120.84 456.45 119.19 453.06 119.19 451.59 122.02 453.42 123.84"/><polygon class="cls-6" points="453.34 123.86 452.24 125.96 452.99 127.47 446.09 127.47 445.11 125.23 447.85 122.21 451.51 121.94 453.42 123.84 453.34 123.86"/><polygon class="cls-7" points="458.11 124.84 457.16 127.47 452.99 127.47 452.24 125.96 453.34 123.86 455.99 123.4 458.11 124.84"/><circle class="cls-8" cx="466.05" cy="156.63" r="4.57"/><path class="cls-9" d="M466,158.46a1.83,1.83,0,1,1,1.83-1.83A1.83,1.83,0,0,1,466,158.46Z"/><polygon class="cls-10" points="450.21 120.2 447.18 120.43 448.19 122.19 451.23 121.96 450.21 120.2"/><polygon class="cls-11" points="459.37 120.84 459.34 120.82 457.27 121.78 457.19 122.01 456.4 121.47 454.04 121.88 452.48 120.32 451.59 122.02 453.42 123.84 455.99 123.4 458.11 124.84 458.74 123.12 459.9 122.58 459.37 120.84"/><polygon class="cls-12" points="453.42 123.84 452.01 122.44 450.35 125.64 445.29 125.64 446.09 127.47 452.99 127.47 452.24 125.96 453.34 123.86 453.42 123.84"/><polygon class="cls-13" points="456.55 123.78 455.87 125.64 452.41 125.64 452.24 125.96 452.99 127.47 457.16 127.47 458.11 124.84 456.55 123.78"/><polygon class="cls-14" points="457.82 125.64 457.16 127.47 463.97 127.47 464.63 125.64 457.82 125.64"/><rect class="cls-2" x="468.79" y="143.92" width="2.74" height="1.83"/><path class="cls-2" d="M459.19,145.48v-1.83a2.74,2.74,0,0,1,2.74-2.74h1.83Z"/><path class="cls-2" d="M453.61,140.91a2.29,2.29,0,0,0-2.29,2.29V145a2.29,2.29,0,0,1,4.57,0v-1.83A2.29,2.29,0,0,0,453.61,140.91Z"/><path d="M466,151.37a5.26,5.26,0,1,0,5.26,5.26A5.26,5.26,0,0,0,466,151.37Zm0,9.14a3.89,3.89,0,1,1,3.89-3.89A3.89,3.89,0,0,1,466,160.52Z"/><path d="M466,154.12a2.51,2.51,0,1,0,2.51,2.51A2.52,2.52,0,0,0,466,154.12Zm0,3.66a1.14,1.14,0,1,1,1.14-1.14A1.14,1.14,0,0,1,466,157.77Z"/><path d="M448.54,158.46V140.23l-2.38-2.1v-8.61h-2.29v-1.37h21.49v21.62h1.37v-23h-1.79l.55-1.5-1.09-2.34,1.7-4.67-3.87-1.41-1.7,4.67-.21.1-.38-1.24-3.32-1.87h-4l-1.24,2.39-3-5.25-3.56,2.06,2.41,4.18-2.92,3.21.74,1.68H442.5v4.11h2.29v7.85l2.38,2.1v17.61a3.43,3.43,0,0,0,3.43,3.43h10.35v-1.37H450.6A2.06,2.06,0,0,1,448.54,158.46ZM453,126l.78-1.49,2-.35,1.45,1-.61,1.68h-3.26Zm10-7.36,1.29.47L462.91,123l1.09,2.34-.52,1.44h-5.35l1.15-3.16,2.34-1.09Zm-9.57,1.27h2.79l2.53,1.42.27.91-.88.41-.42,1.16-1.62-1.1-2.5.43-1.22-1.22Zm-5.61-2.36,2.21,3.83-1.52.11-1.88-3.26Zm-2,7.84,2.26-2.49,3.07-.23,1.28,1.28-1.06,2,.41.83h-5.34Z"/><path d="M468.1,126.78v19.66h4.11V126.78Zm2.74,18.29h-1.37V128.15h1.37Z"/><path d="M456.58,153.71V143.19a3,3,0,1,0-5.94,0v12.34H452V143.19a1.6,1.6,0,0,1,3.2,0v10.51Z"/><path d="M458.5,143.65V150h1.37v-6.4a2.06,2.06,0,0,1,2.06-2.06h1.92v-1.37h-1.92A3.43,3.43,0,0,0,458.5,143.65Z"/><path class="cls-15" d="M457.91,159.15h-3.66v-1.37h3.66Zm-5,0h-1.37v-1.37h1.37Z"/><rect class="cls-15" x="447.53" y="136.43" width="1.37" height="1.37"/><rect class="cls-15" x="462.62" y="137.07" width="1.37" height="1.37"/><path class="cls-15" d="M464,150.32h-1.37V149H464Zm0-2.74h-1.37v-2.74H464Z"/><path class="cls-15" d="M463.67,130.89H462.3v-1.37h1.37Zm-2.74,0h-5.49v-1.37h5.49Zm-6.86,0h-3.2v-1.37h3.2Zm-4.57,0h-1.37v-1.37h1.37Z"/><path class="cls-15" d="M459.19,138.48h-1.37v-1.37h1.37Zm-2.74,0h-1.37v-1.37h1.37Zm-2.74,0h-1.37v-1.37h1.37v1.37Z"/><rect class="cls-15" x="448.58" y="124.04" width="1.37" height="1.37"/><rect class="cls-15" x="460.56" y="124.4" width="1.37" height="1.37"/><text class="cls-16" transform="translate(118.7 114.1)">Other people’s <tspan x="0" y="23">trash bin</tspan></text><text class="cls-16" transform="translate(523.11 119.95)">Your trash bin</text><path class="cls-1" d="M292.31,107.25v4.66h3.89v14l4,3.58V160a4.66,4.66,0,0,0,4.66,4.66h26.28V107.25Z"/><path class="cls-2" d="M320.3,156.85a10.81,10.81,0,0,0,1.05,4.66H304.91a4.66,4.66,0,0,1-4.66-4.66V160a4.66,4.66,0,0,0,4.66,4.66h26.28V146A10.9,10.9,0,0,0,320.3,156.85Z"/><rect class="cls-1" x="335.85" y="107.25" width="4.66" height="31.1"/><polygon class="cls-3" points="327.12 99.59 328.98 103.58 327.65 107.25 316.06 107.25 318.75 99.86 322.74 98 325.39 90.69 329.78 92.28 327.12 99.59"/><polygon class="cls-4" points="305.98 97.88 300.71 88.74 296.67 91.07 300.82 98.27 305.98 97.88"/><polygon class="cls-5" points="309.7 101.09 314.08 100.33 317.69 102.77 318.75 99.86 320.73 98.93 319.83 95.98 314.86 93.18 309.11 93.18 306.6 97.98 309.7 101.09"/><polygon class="cls-6" points="309.57 101.11 307.71 104.69 308.99 107.25 297.25 107.25 295.58 103.44 300.24 98.31 306.46 97.84 309.7 101.09 309.57 101.11"/><polygon class="cls-7" points="317.69 102.77 316.06 107.25 308.99 107.25 307.71 104.69 309.57 101.11 314.08 100.33 317.69 102.77"/><circle class="cls-8" cx="331.18" cy="156.85" r="7.77"/><path class="cls-9" d="M331.18,160a3.11,3.11,0,1,1,3.11-3.11A3.11,3.11,0,0,1,331.18,160Z"/><polygon class="cls-10" points="304.26 94.89 299.09 95.28 300.82 98.27 305.98 97.88 304.26 94.89"/><polygon class="cls-11" points="319.83 95.98 319.78 95.95 316.27 97.58 316.13 97.96 314.79 97.06 310.76 97.75 308.11 95.09 306.6 97.98 309.7 101.09 314.08 100.33 317.69 102.77 318.75 99.86 320.73 98.93 319.83 95.98"/><polygon class="cls-12" points="309.7 101.09 307.32 98.7 304.49 104.14 295.88 104.14 297.25 107.25 308.99 107.25 307.71 104.69 309.57 101.11 309.7 101.09"/><polygon class="cls-13" points="315.03 100.98 313.89 104.14 307.99 104.14 307.71 104.69 308.99 107.25 316.06 107.25 317.69 102.77 315.03 100.98"/><polygon class="cls-14" points="317.2 104.14 316.06 107.25 327.65 107.25 328.78 104.14 317.2 104.14"/><rect class="cls-2" x="335.85" y="135.23" width="4.66" height="3.11"/><path class="cls-2" d="M319.52,137.88v-3.11a4.66,4.66,0,0,1,4.66-4.66h3.11Z"/><path class="cls-2" d="M310,130.1a3.89,3.89,0,0,0-3.89,3.89v3.11a3.89,3.89,0,0,1,7.77,0V134A3.89,3.89,0,0,0,310,130.1Z"/><path d="M331.18,147.91a8.94,8.94,0,1,0,8.94,8.94A9,9,0,0,0,331.18,147.91Zm0,15.55a6.61,6.61,0,1,1,6.61-6.61A6.62,6.62,0,0,1,331.18,163.45Z"/><path d="M331.18,152.57a4.28,4.28,0,1,0,4.28,4.28A4.28,4.28,0,0,0,331.18,152.57Zm0,6.22a1.94,1.94,0,1,1,1.94-1.94A1.95,1.95,0,0,1,331.18,158.79Z"/><path d="M301.41,160V129l-4-3.58V110.74h-3.89v-2.33H330v36.77h2.33V106.08h-3l.93-2.56-1.86-4,2.89-7.95L324.7,89.2l-2.89,7.95-.35.16-.64-2.12L315.16,92H308.4l-2.11,4.06-5.15-8.92-6.06,3.5,4.1,7.1-5,5.47,1.26,2.86h-4.32v7H295v13.35l4,3.58v30a5.84,5.84,0,0,0,5.83,5.83H322.5v-2.33H304.91A3.5,3.5,0,0,1,301.41,160ZM309,104.7l1.32-2.54,3.48-.6,2.47,1.67-1,2.85h-5.54Zm17.07-12.51,2.19.8-2.42,6.67,1.86,4-.89,2.45h-9.1l2-5.37,4-1.86Zm-16.28,2.16h4.74l4.3,2.42.47,1.54-1.5.7-.71,2-2.76-1.87-4.24.73L308,97.76Zm-9.53-4L304,96.86l-2.58.19-3.2-5.55ZM297,103.67l3.84-4.23L306,99l2.18,2.18-1.8,3.45.7,1.4H298Z"/><path d="M334.68,106.08v33.43h7V106.08Zm4.66,31.1H337V108.41h2.33Z"/><path d="M315.09,151.87V134A5.05,5.05,0,1,0,305,134v21h2.33V134a2.72,2.72,0,1,1,5.44,0v17.88Z"/><path d="M318.36,134.77v10.88h2.33V134.77a3.5,3.5,0,0,1,3.5-3.5h3.27v-2.33h-3.27A5.84,5.84,0,0,0,318.36,134.77Z"/><path class="cls-15" d="M317.35,161.12h-6.22v-2.33h6.22Zm-8.55,0h-2.33v-2.33h2.33Z"/><rect class="cls-15" x="299.7" y="122.48" width="2.33" height="2.33"/><rect class="cls-15" x="325.35" y="123.57" width="2.33" height="2.33"/><path class="cls-15" d="M327.69,146.12h-2.33v-2.33h2.33Zm0-4.66h-2.33v-4.66h2.33Z"/><path class="cls-15" d="M327.14,113.08h-2.33v-2.33h2.33Zm-4.66,0h-9.33v-2.33h9.33Zm-11.66,0h-5.44v-2.33h5.44Zm-7.77,0h-2.33v-2.33H303Z"/><path class="cls-15" d="M319.52,126h-2.33v-2.33h2.33Zm-4.66,0h-2.33v-2.33h2.33Zm-4.66,0h-2.33v-2.33h2.33V126Z"/><rect class="cls-15" x="301.49" y="101.42" width="2.33" height="2.33"/><rect class="cls-15" x="321.86" y="102.04" width="2.33" height="2.33"/></g></svg>