<svg xmlns="http://www.w3.org/2000/svg" viewBox="0 0 800 200"><defs><style>.cls-1{fill:#81c784;}.cls-2{fill:#4caf50;}.cls-3{fill:#f4511e;}.cls-4{fill:#fdd844;}.cls-5{fill:#ffa733;}.cls-6{fill:#ce93d8;}.cls-7{fill:#616161;}.cls-8{fill:#b39a7c;}.cls-9{fill:#d8d7da;}.cls-10{fill:#fdab08;}.cls-11{fill:#ee8700;}.cls-12{fill:#ba68c8;}.cls-13{fill:#424242;}.cls-14{fill:#d84315;}.cls-15{fill:#fff;}.cls-16{font-size:19.16px;font-family:FuturaHandwritten, FuturaHandwritten;}</style></defs><title>Artboard 1</title><g id="Layer_2" data-name="Layer 2"><path class="cls-1" d="M257.37,142.31v2.88h2.4v8.65l2.5,2.21V174.9a2.88,2.88,0,0,0,2.88,2.88h16.25V142.31Z"/><path class="cls-2" d="M274.68,173a6.68,6.68,0,0,0,.65,2.88H265.16a2.88,2.88,0,0,1-2.88-2.88v1.92a2.88,2.88,0,0,0,2.88,2.88h16.25V166.25A6.74,6.74,0,0,0,274.68,173Z"/><rect class="cls-1" x="284.29" y="142.31" width="2.88" height="19.23"/><polygon class="cls-3" points="278.89 137.58 280.04 140.04 279.22 142.31 272.06 142.31 273.72 137.74 276.18 136.59 277.82 132.07 280.54 133.06 278.89 137.58"/><polygon class="cls-4" points="265.82 136.52 262.56 130.87 260.06 132.31 262.63 136.76 265.82 136.52"/><polygon class="cls-5" points="268.13 138.5 270.83 138.03 273.06 139.54 273.72 137.74 274.94 137.17 274.39 135.34 271.31 133.61 267.75 133.61 266.21 136.58 268.13 138.5"/><polygon class="cls-6" points="268.04 138.51 266.89 140.72 267.68 142.31 260.42 142.31 259.39 139.96 262.27 136.78 266.12 136.5 268.12 138.5 268.04 138.51"/><polygon class="cls-7" points="273.06 139.54 272.06 142.31 267.68 142.31 266.89 140.72 268.04 138.51 270.83 138.03 273.06 139.54"/><circle class="cls-8" cx="281.41" cy="172.98" r="4.81"/><path class="cls-9" d="M281.41,174.9a1.92,1.92,0,1,1,1.92-1.92A1.93,1.93,0,0,1,281.41,174.9Z"/><polygon class="cls-10" points="264.76 134.67 261.56 134.91 262.63 136.76 265.82 136.52 264.76 134.67"/><polygon class="cls-11" points="274.39 135.34 274.35 135.32 272.18 136.33 272.1 136.57 271.27 136.01 268.78 136.44 267.14 134.79 266.21 136.58 268.13 138.5 270.83 138.03 273.06 139.54 273.72 137.74 274.94 137.17 274.39 135.34"/><polygon class="cls-12" points="268.12 138.5 266.65 137.03 264.9 140.38 259.58 140.38 260.42 142.31 267.68 142.31 266.89 140.72 268.04 138.51 268.12 138.5"/><polygon class="cls-13" points="271.42 138.43 270.71 140.38 267.07 140.38 266.89 140.72 267.68 142.31 272.06 142.31 273.06 139.54 271.42 138.43"/><polygon class="cls-14" points="272.76 140.38 272.06 142.31 279.22 142.31 279.92 140.38 272.76 140.38"/><rect class="cls-2" x="284.29" y="159.61" width="2.88" height="1.92"/><path class="cls-2" d="M274.2,161.25v-1.92a2.88,2.88,0,0,1,2.88-2.88H279Z"/><path class="cls-2" d="M268.33,156.44a2.4,2.4,0,0,0-2.4,2.4v1.92a2.4,2.4,0,0,1,4.81,0v-1.92A2.4,2.4,0,0,0,268.33,156.44Z"/><path d="M281.41,167.45a5.53,5.53,0,1,0,5.53,5.53A5.53,5.53,0,0,0,281.41,167.45Zm0,9.61a4.09,4.09,0,1,1,4.09-4.09A4.09,4.09,0,0,1,281.41,177.06Z"/><path d="M281.41,170.33a2.64,2.64,0,1,0,2.64,2.64A2.65,2.65,0,0,0,281.41,170.33Zm0,3.85a1.2,1.2,0,1,1,1.2-1.2A1.2,1.2,0,0,1,281.41,174.18Z"/><path d="M263,174.9V155.73l-2.5-2.21v-9h-2.4V143h22.59v22.74h1.44V141.59h-1.88l.58-1.58-1.15-2.46,1.79-4.92-4.07-1.48-1.79,4.91-.22.1-.4-1.31-3.49-2h-4.18L266,135.4l-3.19-5.52L259.08,132l2.54,4.39-3.07,3.38.78,1.77h-2.67v4.33h2.4v8.26l2.5,2.21V174.9a3.61,3.61,0,0,0,3.61,3.61H276v-1.44H265.16A2.17,2.17,0,0,1,263,174.9Zm4.7-34.17.82-1.57,2.15-.37,1.53,1-.64,1.76h-3.43ZM278.26,133l1.36.49-1.5,4.12,1.15,2.46-.55,1.51h-5.63l1.21-3.32,2.46-1.15Zm-10.06,1.34h2.93l2.66,1.5.29,1-.93.43-.44,1.21L271,137.27l-2.62.45-1.28-1.28Zm-5.89-2.48,2.33,4L263,136l-2-3.43Zm-2.06,8.24,2.38-2.61,3.23-.24,1.35,1.35-1.11,2.13.43.87h-5.62Z"/><path d="M283.57,141.59v20.67h4.33V141.59Zm2.88,19.23H285V143h1.44Z"/><path d="M271.46,169.9V158.84a3.12,3.12,0,1,0-6.25,0v13h1.44v-13a1.68,1.68,0,0,1,3.36,0V169.9Z"/><path d="M273.47,159.33v6.73h1.44v-6.73a2.17,2.17,0,0,1,2.16-2.16h2v-1.44h-2A3.61,3.61,0,0,0,273.47,159.33Z"/><path class="cls-15" d="M272.85,175.62H269v-1.44h3.85Zm-5.29,0h-1.44v-1.44h1.44Z"/><rect class="cls-15" x="261.94" y="151.73" width="1.44" height="1.44"/><rect class="cls-15" x="277.8" y="152.4" width="1.44" height="1.44"/><path class="cls-15" d="M279.24,166.34H277.8V164.9h1.44Zm0-2.88H277.8v-2.88h1.44Z"/><path class="cls-15" d="M278.91,145.91h-1.44v-1.44h1.44Zm-2.88,0h-5.77v-1.44H276Zm-7.21,0h-3.36v-1.44h3.36Zm-4.81,0h-1.44v-1.44H264Z"/><path class="cls-15" d="M274.2,153.89h-1.44v-1.44h1.44Zm-2.88,0h-1.44v-1.44h1.44Zm-2.88,0H267v-1.44h1.44v1.44Z"/><rect class="cls-15" x="263.04" y="138.7" width="1.44" height="1.44"/><rect class="cls-15" x="275.64" y="139.09" width="1.44" height="1.44"/><path class="cls-1" d="M435.34,56.36V66.78H444V98l9,8v68a10.41,10.41,0,0,0,10.41,10.41h58.67V56.36Z"/><path class="cls-2" d="M497.83,167.1a24.12,24.12,0,0,0,2.36,10.41H463.46A10.41,10.41,0,0,1,453,167.1V174a10.41,10.41,0,0,0,10.41,10.41h58.67V142.8A24.33,24.33,0,0,0,497.83,167.1Z"/><rect class="cls-1" x="532.54" y="56.36" width="10.41" height="69.43"/><polygon class="cls-3" points="513.05 39.27 517.2 48.17 514.22 56.36 488.37 56.36 494.36 39.87 503.26 35.71 509.19 19.4 518.98 22.96 513.05 39.27"/><polygon class="cls-4" points="465.86 35.45 454.08 15.05 445.06 20.26 454.33 36.32 465.86 35.45"/><polygon class="cls-5" points="474.17 42.61 483.94 40.93 492 46.38 494.36 39.87 498.78 37.8 496.78 31.21 485.68 24.96 472.83 24.96 467.24 35.69 474.17 42.61"/><polygon class="cls-6" points="473.87 42.66 469.71 50.65 472.56 56.36 446.37 56.36 442.63 47.87 453.04 36.41 466.93 35.37 474.17 42.61 473.87 42.66"/><polygon class="cls-7" points="492 46.38 488.37 56.36 472.56 56.36 469.71 50.65 473.87 42.66 483.94 40.93 492 46.38"/><circle class="cls-8" cx="522.12" cy="167.1" r="17.36"/><path class="cls-9" d="M522.13,174a6.94,6.94,0,1,1,6.94-6.94A7,7,0,0,1,522.13,174Z"/><polygon class="cls-10" points="462 28.78 450.48 29.64 454.33 36.32 465.86 35.45 462 28.78"/><polygon class="cls-11" points="496.78 31.21 496.66 31.14 488.82 34.79 488.51 35.64 485.51 33.61 476.53 35.16 470.61 29.23 467.24 35.69 474.17 42.61 483.94 40.93 492 46.38 494.36 39.87 498.78 37.8 496.78 31.21"/><polygon class="cls-12" points="474.17 42.61 468.85 37.29 462.52 49.42 443.31 49.42 446.37 56.36 472.56 56.36 469.71 50.65 473.87 42.66 474.17 42.61"/><polygon class="cls-13" points="486.07 42.37 483.5 49.42 470.35 49.42 469.71 50.65 472.56 56.36 488.37 56.36 492 46.38 486.07 42.37"/><polygon class="cls-14" points="490.89 49.42 488.37 56.36 514.22 56.36 516.75 49.42 490.89 49.42"/><rect class="cls-2" x="532.54" y="118.85" width="10.41" height="6.94"/><path class="cls-2" d="M496.09,124.75v-6.94a10.41,10.41,0,0,1,10.41-10.41h6.94Z"/><path class="cls-2" d="M474.91,107.39a8.68,8.68,0,0,0-8.68,8.68V123a8.68,8.68,0,0,1,17.36,0v-6.94A8.68,8.68,0,0,0,474.91,107.39Z"/><path d="M522.13,147.14a20,20,0,1,0,20,20A20,20,0,0,0,522.13,147.14Zm0,34.71a14.75,14.75,0,1,1,14.75-14.75A14.77,14.77,0,0,1,522.13,181.85Z"/><path d="M522.13,157.55a9.55,9.55,0,1,0,9.55,9.55A9.56,9.56,0,0,0,522.13,157.55Zm0,13.89a4.34,4.34,0,1,1,4.34-4.34A4.34,4.34,0,0,1,522.13,171.44Z"/><path d="M455.65,174V104.83l-9-8V64.17h-8.68V59h81.58v82.1h5.21V53.76h-6.79L520,48l-4.16-8.9,6.45-17.75-14.68-5.34-6.45,17.75-.78.36L499,29.45l-12.61-7.1H471.25l-4.72,9.06L455,11.49,441.5,19.31l9.16,15.86-11.09,12.2,2.81,6.39h-9.64V69.38h8.68V99.19l9,8V174a13,13,0,0,0,13,13h39.28v-5.21H463.46A7.82,7.82,0,0,1,455.65,174Zm17-123.37,3-5.66,7.76-1.34,5.51,3.73-2.31,6.36H474.17Zm38.12-27.93,4.89,1.78L510.23,39.4l4.16,8.9-2,5.46H492.09l4.36-12,8.9-4.16Zm-36.34,4.82H485l9.6,5.4,1,3.44L492.29,38l-1.59,4.39-6.16-4.17-9.47,1.63-4.62-4.62Zm-21.29-9,8.41,14.56-5.76.43-7.15-12.39Zm-7.43,29.76,8.58-9.44,11.66-.87,4.87,4.87-4,7.7,1.57,3.14H448.06Z"/><path d="M529.94,53.76v74.64h15.62V53.76Zm10.41,69.43h-5.21V59h5.21Z"/><path d="M486.2,156V116.07a11.28,11.28,0,1,0-22.56,0v46.86h5.21V116.07a6.07,6.07,0,1,1,12.15,0V156Z"/><path d="M493.49,117.81v24.3h5.21v-24.3A7.82,7.82,0,0,1,506.5,110h7.29v-5.21H506.5A13,13,0,0,0,493.49,117.81Z"/><path class="cls-15" d="M491.23,176.65H477.34v-5.21h13.89Zm-19.09,0h-5.21v-5.21h5.21Z"/><rect class="cls-15" x="451.83" y="90.38" width="5.21" height="5.21"/><rect class="cls-15" x="509.11" y="92.81" width="5.21" height="5.21"/><path class="cls-15" d="M514.31,143.15h-5.21v-5.21h5.21Zm0-10.41h-5.21V122.32h5.21Z"/><path class="cls-15" d="M513.1,69.38h-5.21V64.17h5.21Zm-10.41,0H481.86V64.17h20.83Zm-26,0H464.5V64.17h12.15Zm-17.36,0h-5.21V64.17h5.21Z"/><path class="cls-15" d="M496.09,98.19h-5.21V93h5.21Zm-10.41,0h-5.21V93h5.21Zm-10.41,0h-5.21V93h5.21v5.21Z"/><rect class="cls-15" x="455.82" y="43.35" width="5.21" height="5.21"/><rect class="cls-15" x="501.3" y="44.73" width="5.21" height="5.21"/><text class="cls-16" transform="translate(118.7 134.1)">Other people’s <tspan x="0" y="23">trash bin</tspan></text><text class="cls-16" transform="translate(572.6 100.62)">Your trash bin</text></g></svg>