<svg xmlns="http://www.w3.org/2000/svg" viewBox="0 0 800 200"><defs><style>.cls-1{fill:#81c784;}.cls-2{fill:#4caf50;}.cls-3{fill:#f4511e;}.cls-4{fill:#fdd844;}.cls-5{fill:#ffa733;}.cls-6{fill:#ce93d8;}.cls-7{fill:#616161;}.cls-8{fill:#b39a7c;}.cls-9{fill:#d8d7da;}.cls-10{fill:#fdab08;}.cls-11{fill:#ee8700;}.cls-12{fill:#ba68c8;}.cls-13{fill:#424242;}.cls-14{fill:#d84315;}.cls-15{fill:#fff;}.cls-16{font-size:19.16px;font-family:FuturaHandwritten, FuturaHandwritten;}</style></defs><title>Artboard 1</title><g id="Layer_2" data-name="Layer 2"><path class="cls-1" d="M257.37,132.31v2.88h2.4v8.65l2.5,2.21V164.9a2.88,2.88,0,0,0,2.88,2.88h16.25V132.31Z"/><path class="cls-2" d="M274.68,163a6.68,6.68,0,0,0,.65,2.88H265.16a2.88,2.88,0,0,1-2.88-2.88v1.92a2.88,2.88,0,0,0,2.88,2.88h16.25V156.25A6.74,6.74,0,0,0,274.68,163Z"/><rect class="cls-1" x="284.29" y="132.31" width="2.88" height="19.23"/><polygon class="cls-3" points="278.89 127.58 280.04 130.04 279.22 132.31 272.06 132.31 273.72 127.74 276.18 126.59 277.82 122.07 280.54 123.06 278.89 127.58"/><polygon class="cls-4" points="265.82 126.52 262.56 120.87 260.06 122.31 262.63 126.76 265.82 126.52"/><polygon class="cls-5" points="268.13 128.5 270.83 128.03 273.06 129.54 273.72 127.74 274.94 127.17 274.39 125.34 271.31 123.61 267.75 123.61 266.21 126.58 268.13 128.5"/><polygon class="cls-6" points="268.04 128.51 266.89 130.72 267.68 132.31 260.42 132.31 259.39 129.96 262.27 126.78 266.12 126.5 268.12 128.5 268.04 128.51"/><polygon class="cls-7" points="273.06 129.54 272.06 132.31 267.68 132.31 266.89 130.72 268.04 128.51 270.83 128.03 273.06 129.54"/><circle class="cls-8" cx="281.41" cy="162.98" r="4.81"/><path class="cls-9" d="M281.41,164.9a1.92,1.92,0,1,1,1.92-1.92A1.93,1.93,0,0,1,281.41,164.9Z"/><polygon class="cls-10" points="264.76 124.67 261.56 124.91 262.63 126.76 265.82 126.52 264.76 124.67"/><polygon class="cls-11" points="274.39 125.34 274.35 125.32 272.18 126.33 272.1 126.57 271.27 126.01 268.78 126.44 267.14 124.79 266.21 126.58 268.13 128.5 270.83 128.03 273.06 129.54 273.72 127.74 274.94 127.17 274.39 125.34"/><polygon class="cls-12" points="268.12 128.5 266.65 127.03 264.9 130.38 259.58 130.38 260.42 132.31 267.68 132.31 266.89 130.72 268.04 128.51 268.12 128.5"/><polygon class="cls-13" points="271.42 128.43 270.71 130.38 267.07 130.38 266.89 130.72 267.68 132.31 272.06 132.31 273.06 129.54 271.42 128.43"/><polygon class="cls-14" points="272.76 130.38 272.06 132.31 279.22 132.31 279.92 130.38 272.76 130.38"/><rect class="cls-2" x="284.29" y="149.61" width="2.88" height="1.92"/><path class="cls-2" d="M274.2,151.25v-1.92a2.88,2.88,0,0,1,2.88-2.88H279Z"/><path class="cls-2" d="M268.33,146.44a2.4,2.4,0,0,0-2.4,2.4v1.92a2.4,2.4,0,0,1,4.81,0v-1.92A2.4,2.4,0,0,0,268.33,146.44Z"/><path d="M281.41,157.45a5.53,5.53,0,1,0,5.53,5.53A5.53,5.53,0,0,0,281.41,157.45Zm0,9.61a4.09,4.09,0,1,1,4.09-4.09A4.09,4.09,0,0,1,281.41,167.06Z"/><path d="M281.41,160.33a2.64,2.64,0,1,0,2.64,2.64A2.65,2.65,0,0,0,281.41,160.33Zm0,3.85a1.2,1.2,0,1,1,1.2-1.2A1.2,1.2,0,0,1,281.41,164.18Z"/><path d="M263,164.9V145.73l-2.5-2.21v-9h-2.4V133h22.59v22.74h1.44V131.59h-1.88l.58-1.58-1.15-2.46,1.79-4.92-4.07-1.48-1.79,4.91-.22.1-.4-1.31-3.49-2h-4.18L266,125.4l-3.19-5.52L259.08,122l2.54,4.39-3.07,3.38.78,1.77h-2.67v4.33h2.4v8.26l2.5,2.21V164.9a3.61,3.61,0,0,0,3.61,3.61H276v-1.44H265.16A2.17,2.17,0,0,1,263,164.9Zm4.7-34.17.82-1.57,2.15-.37,1.53,1-.64,1.76h-3.43ZM278.26,123l1.36.49-1.5,4.12,1.15,2.46-.55,1.51h-5.63l1.21-3.32,2.46-1.15Zm-10.06,1.34h2.93l2.66,1.5.29,1-.93.43-.44,1.21L271,127.27l-2.62.45-1.28-1.28Zm-5.89-2.48,2.33,4L263,126l-2-3.43Zm-2.06,8.24,2.38-2.61,3.23-.24,1.35,1.35-1.11,2.13.43.87h-5.62Z"/><path d="M283.57,131.59v20.67h4.33V131.59Zm2.88,19.23H285V133h1.44Z"/><path d="M271.46,159.9V148.84a3.12,3.12,0,1,0-6.25,0v13h1.44v-13a1.68,1.68,0,0,1,3.36,0V159.9Z"/><path d="M273.47,149.33v6.73h1.44v-6.73a2.17,2.17,0,0,1,2.16-2.16h2v-1.44h-2A3.61,3.61,0,0,0,273.47,149.33Z"/><path class="cls-15" d="M272.85,165.62H269v-1.44h3.85Zm-5.29,0h-1.44v-1.44h1.44Z"/><rect class="cls-15" x="261.94" y="141.73" width="1.44" height="1.44"/><rect class="cls-15" x="277.8" y="142.4" width="1.44" height="1.44"/><path class="cls-15" d="M279.24,156.34H277.8V154.9h1.44Zm0-2.88H277.8v-2.88h1.44Z"/><path class="cls-15" d="M278.91,135.91h-1.44v-1.44h1.44Zm-2.88,0h-5.77v-1.44H276Zm-7.21,0h-3.36v-1.44h3.36Zm-4.81,0h-1.44v-1.44H264Z"/><path class="cls-15" d="M274.2,143.89h-1.44v-1.44h1.44Zm-2.88,0h-1.44v-1.44h1.44Zm-2.88,0H267v-1.44h1.44v1.44Z"/><rect class="cls-15" x="263.04" y="128.7" width="1.44" height="1.44"/><rect class="cls-15" x="275.64" y="129.09" width="1.44" height="1.44"/><path class="cls-1" d="M436.06,84.82v7h5.8v20.88l6,5.34v45.47a7,7,0,0,0,7,7H494V84.82Z"/><path class="cls-2" d="M477.81,158.81a16.12,16.12,0,0,0,1.57,7H454.85a7,7,0,0,1-7-7v4.64a7,7,0,0,0,7,7H494V142.58A16.26,16.26,0,0,0,477.81,158.81Z"/><rect class="cls-1" x="501.01" y="84.82" width="6.96" height="46.39"/><polygon class="cls-3" points="487.98 73.4 490.76 79.34 488.77 84.82 471.49 84.82 475.5 73.8 481.44 71.02 485.41 60.12 491.95 62.5 487.98 73.4"/><polygon class="cls-4" points="456.45 70.84 448.58 57.21 442.55 60.69 448.75 71.42 456.45 70.84"/><polygon class="cls-5" points="462 75.63 468.53 74.5 473.92 78.14 475.5 73.8 478.45 72.42 477.12 68.01 469.69 63.83 461.11 63.83 457.38 71 462 75.63"/><polygon class="cls-6" points="461.81 75.66 459.02 81 460.93 84.82 443.42 84.82 440.93 79.14 447.89 71.49 457.17 70.79 462 75.63 461.81 75.66"/><polygon class="cls-7" points="473.92 78.14 471.49 84.82 460.93 84.82 459.02 81 461.81 75.66 468.53 74.5 473.92 78.14"/><circle class="cls-8" cx="494.05" cy="158.82" r="11.6"/><path class="cls-9" d="M494,163.45a4.64,4.64,0,1,1,4.64-4.64A4.64,4.64,0,0,1,494,163.45Z"/><polygon class="cls-10" points="453.88 66.39 446.17 66.96 448.75 71.42 456.45 70.84 453.88 66.39"/><polygon class="cls-11" points="477.12 68.01 477.03 67.96 471.8 70.4 471.59 70.97 469.58 69.61 463.58 70.65 459.62 66.69 457.38 71 462 75.63 468.53 74.5 473.92 78.14 475.5 73.8 478.45 72.42 477.12 68.01"/><polygon class="cls-12" points="462 75.63 458.45 72.07 454.22 80.18 441.38 80.18 443.42 84.82 460.93 84.82 459.02 81 461.81 75.66 462 75.63"/><polygon class="cls-13" points="469.95 75.47 468.24 80.18 459.45 80.18 459.02 81 460.93 84.82 471.49 84.82 473.92 78.14 469.95 75.47"/><polygon class="cls-14" points="473.18 80.18 471.49 84.82 488.77 84.82 490.46 80.18 473.18 80.18"/><rect class="cls-2" x="501.01" y="126.57" width="6.96" height="4.64"/><path class="cls-2" d="M476.65,130.51v-4.64a7,7,0,0,1,7-7h4.64Z"/><path class="cls-2" d="M462.5,118.92a5.8,5.8,0,0,0-5.8,5.8v4.64a5.8,5.8,0,0,1,11.6,0v-4.64A5.8,5.8,0,0,0,462.5,118.92Z"/><path d="M494,145.48a13.34,13.34,0,1,0,13.34,13.34A13.35,13.35,0,0,0,494,145.48Zm0,23.2a9.86,9.86,0,1,1,9.86-9.86A9.87,9.87,0,0,1,494,168.67Z"/><path d="M494,152.44a6.38,6.38,0,1,0,6.38,6.38A6.39,6.39,0,0,0,494,152.44Zm0,9.28a2.9,2.9,0,1,1,2.9-2.9A2.9,2.9,0,0,1,494,161.71Z"/><path d="M449.63,163.45V117.2l-6-5.34V90h-5.8V86.56h54.51v54.86h3.48V83.08h-4.54l1.39-3.82-2.78-5.95,4.31-11.86-9.81-3.57-4.31,11.86-.52.24-1-3.16-8.43-4.74H460.05l-3.15,6.05-7.68-13.31-9,5.22,6.12,10.6-7.41,8.16,1.88,4.27h-6.44V93.52h5.8v19.92l6,5.34v44.68a8.71,8.71,0,0,0,8.7,8.7h26.25v-3.48H454.85A5.22,5.22,0,0,1,449.63,163.45ZM461,81l2-3.78,5.19-.89,3.68,2.49-1.55,4.25H462Zm25.47-18.67,3.27,1.19-3.62,9.94,2.78,5.95-1.33,3.65H474l2.91-8,5.95-2.78Zm-24.28,3.22h7.07l6.42,3.61.7,2.3-2.24,1L473,75.45l-4.12-2.79-6.33,1.09-3.09-3.09Zm-14.22-6,5.62,9.73-3.85.29-4.78-8.28Zm-5,19.89,5.73-6.31,7.79-.58,3.25,3.25L457.07,81l1,2.1H444.56Z"/><path d="M499.27,83.08v49.87h10.44V83.08Zm7,46.39h-3.48V86.56h3.48Z"/><path d="M470,151.39V124.71a7.54,7.54,0,1,0-15.08,0V156h3.48V124.71a4.06,4.06,0,1,1,8.12,0v26.68Z"/><path d="M474.91,125.87v16.24h3.48V125.87a5.23,5.23,0,0,1,5.22-5.22h4.87v-3.48h-4.87A8.71,8.71,0,0,0,474.91,125.87Z"/><path class="cls-15" d="M473.4,165.19h-9.28v-3.48h9.28Zm-12.76,0h-3.48v-3.48h3.48Z"/><rect class="cls-15" x="447.07" y="107.55" width="3.48" height="3.48"/><rect class="cls-15" x="485.35" y="109.17" width="3.48" height="3.48"/><path class="cls-15" d="M488.83,142.81h-3.48v-3.48h3.48Zm0-7h-3.48v-7h3.48Z"/><path class="cls-15" d="M488,93.51h-3.48V90H488Zm-7,0H467.14V90h13.92Zm-17.4,0h-8.12V90h8.12Zm-11.6,0h-3.48V90h3.48Z"/><path class="cls-15" d="M476.65,112.77h-3.48v-3.48h3.48Zm-7,0h-3.48v-3.48h3.48Zm-7,0h-3.48v-3.48h3.48v3.48Z"/><rect class="cls-15" x="449.74" y="76.12" width="3.48" height="3.48"/><rect class="cls-15" x="480.13" y="77.05" width="3.48" height="3.48"/><text class="cls-16" transform="translate(118.7 124.1)">Other people’s <tspan x="0" y="23">trash bin</tspan></text><text class="cls-16" transform="translate(557.59 90.62)">Your trash bin</text></g></svg>