<svg xmlns="http://www.w3.org/2000/svg" viewBox="0 0 800 200"><defs><style>.cls-1{fill:#81c784;}.cls-2{fill:#4caf50;}.cls-3{fill:#f4511e;}.cls-4{fill:#fdd844;}.cls-5{fill:#ffa733;}.cls-6{fill:#ce93d8;}.cls-7{fill:#616161;}.cls-8{fill:#b39a7c;}.cls-9{fill:#d8d7da;}.cls-10{fill:#fdab08;}.cls-11{fill:#ee8700;}.cls-12{fill:#ba68c8;}.cls-13{fill:#424242;}.cls-14{fill:#d84315;}.cls-15{fill:#fff;}.cls-16{font-size:19.16px;font-family:FuturaHandwritten, FuturaHandwritten;}</style></defs><title>Artboard 1</title><g id="Layer_2" data-name="Layer 2"><path class="cls-1" d="M433.46,106.25v4.66h3.89v14l4,3.58V159a4.66,4.66,0,0,0,4.66,4.66h26.28V106.25Z"/><path class="cls-2" d="M461.45,155.86a10.81,10.81,0,0,0,1.05,4.66H446.06a4.66,4.66,0,0,1-4.66-4.66V159a4.66,4.66,0,0,0,4.66,4.66h26.28V145A10.9,10.9,0,0,0,461.45,155.86Z"/><rect class="cls-1" x="477" y="106.26" width="4.66" height="31.1"/><polygon class="cls-3" points="468.27 98.6 470.13 102.59 468.8 106.25 457.22 106.25 459.9 98.87 463.89 97.01 466.55 89.7 470.93 91.29 468.27 98.6"/><polygon class="cls-4" points="447.13 96.89 441.86 87.75 437.82 90.08 441.97 97.28 447.13 96.89"/><polygon class="cls-5" points="450.86 100.1 455.23 99.34 458.84 101.78 459.9 98.87 461.88 97.94 460.99 94.99 456.01 92.19 450.26 92.19 447.75 96.99 450.86 100.1"/><polygon class="cls-6" points="450.72 100.12 448.86 103.69 450.14 106.25 438.4 106.25 436.73 102.45 441.39 97.32 447.61 96.85 450.86 100.1 450.72 100.12"/><polygon class="cls-7" points="458.84 101.78 457.22 106.25 450.14 106.25 448.86 103.69 450.72 100.12 455.23 99.34 458.84 101.78"/><circle class="cls-8" cx="472.34" cy="155.86" r="7.77"/><path class="cls-9" d="M472.34,159a3.11,3.11,0,1,1,3.11-3.11A3.11,3.11,0,0,1,472.34,159Z"/><polygon class="cls-10" points="445.41 93.9 440.25 94.29 441.97 97.28 447.13 96.89 445.41 93.9"/><polygon class="cls-11" points="460.99 94.99 460.93 94.96 457.42 96.59 457.28 96.97 455.94 96.06 451.92 96.76 449.26 94.1 447.75 96.99 450.86 100.1 455.23 99.34 458.84 101.78 459.9 98.87 461.88 97.94 460.99 94.99"/><polygon class="cls-12" points="450.86 100.1 448.47 97.71 445.64 103.14 437.04 103.14 438.4 106.25 450.14 106.25 448.86 103.69 450.72 100.12 450.86 100.1"/><polygon class="cls-13" points="456.19 99.99 455.04 103.14 449.14 103.14 448.86 103.69 450.14 106.25 457.22 106.25 458.84 101.78 456.19 99.99"/><polygon class="cls-14" points="458.35 103.14 457.22 106.25 468.8 106.25 469.93 103.14 458.35 103.14"/><rect class="cls-2" x="477" y="134.24" width="4.66" height="3.11"/><path class="cls-2" d="M460.68,136.89v-3.11a4.66,4.66,0,0,1,4.66-4.66h3.11Z"/><path class="cls-2" d="M451.19,129.11A3.89,3.89,0,0,0,447.3,133v3.11a3.89,3.89,0,0,1,7.77,0V133A3.89,3.89,0,0,0,451.19,129.11Z"/><path d="M472.34,146.91a8.94,8.94,0,1,0,8.94,8.94A9,9,0,0,0,472.34,146.91Zm0,15.55a6.61,6.61,0,1,1,6.61-6.61A6.62,6.62,0,0,1,472.34,162.46Z"/><path d="M472.34,151.58a4.28,4.28,0,1,0,4.28,4.28A4.28,4.28,0,0,0,472.34,151.58Zm0,6.22a1.94,1.94,0,1,1,1.94-1.94A1.95,1.95,0,0,1,472.34,157.8Z"/><path d="M442.56,159V128l-4-3.58V109.75h-3.89v-2.33h36.54v36.77h2.33V105.09h-3l.93-2.56-1.86-4,2.89-7.95-6.58-2.39L463,96.15l-.35.16L462,94.2,456.32,91h-6.77l-2.11,4.06-5.15-8.92-6.06,3.5,4.1,7.1-5,5.47,1.26,2.86H432.3v7h3.89v13.35l4,3.58v30a5.84,5.84,0,0,0,5.83,5.83h17.59v-2.33H446.06A3.5,3.5,0,0,1,442.56,159Zm7.61-55.26,1.32-2.54,3.48-.6,2.47,1.67-1,2.85h-5.54Zm17.07-12.51,2.19.8L467,98.66l1.86,4-.89,2.45h-9.1l2-5.37,4-1.86ZM451,93.35h4.74l4.3,2.42.47,1.54L459,98l-.71,2-2.76-1.87-4.24.73-2.07-2.07Zm-9.53-4,3.76,6.52-2.58.19-3.2-5.55Zm-3.33,13.33,3.84-4.23,5.22-.39,2.18,2.18-1.8,3.45.7,1.4h-9.09Z"/><path d="M475.84,105.09v33.43h7V105.09Zm4.66,31.1h-2.33V107.42h2.33Z"/><path d="M456.24,150.88V133a5.05,5.05,0,1,0-10.11,0v21h2.33V133a2.72,2.72,0,1,1,5.44,0v17.88Z"/><path d="M459.51,133.78v10.88h2.33V133.78a3.5,3.5,0,0,1,3.5-3.5h3.27v-2.33h-3.27A5.84,5.84,0,0,0,459.51,133.78Z"/><path class="cls-15" d="M458.5,160.13h-6.22V157.8h6.22Zm-8.55,0h-2.33V157.8h2.33Z"/><rect class="cls-15" x="440.85" y="121.49" width="2.33" height="2.33"/><rect class="cls-15" x="466.51" y="122.58" width="2.33" height="2.33"/><path class="cls-15" d="M468.84,145.13h-2.33v-2.33h2.33Zm0-4.66h-2.33V135.8h2.33Z"/><path class="cls-15" d="M468.29,112.09H466v-2.33h2.33Zm-4.66,0H454.3v-2.33h9.33Zm-11.66,0h-5.44v-2.33H452Zm-7.77,0h-2.33v-2.33h2.33Z"/><path class="cls-15" d="M460.68,125h-2.33v-2.33h2.33ZM456,125h-2.33v-2.33H456Zm-4.66,0H449v-2.33h2.33V125Z"/><rect class="cls-15" x="442.64" y="100.42" width="2.33" height="2.33"/><rect class="cls-15" x="463.01" y="101.05" width="2.33" height="2.33"/><text class="cls-16" transform="translate(118.7 114.1)">Other people’s <tspan x="0" y="23">trash bin</tspan></text><text class="cls-16" transform="translate(523.11 119.95)">Your trash bin</text><path class="cls-1" d="M292.31,107.25v4.66h3.89v14l4,3.58V160a4.66,4.66,0,0,0,4.66,4.66h26.28V107.25Z"/><path class="cls-2" d="M320.3,156.85a10.81,10.81,0,0,0,1.05,4.66H304.91a4.66,4.66,0,0,1-4.66-4.66V160a4.66,4.66,0,0,0,4.66,4.66h26.28V146A10.9,10.9,0,0,0,320.3,156.85Z"/><rect class="cls-1" x="335.85" y="107.25" width="4.66" height="31.1"/><polygon class="cls-3" points="327.12 99.59 328.98 103.58 327.65 107.25 316.06 107.25 318.75 99.86 322.74 98 325.39 90.69 329.78 92.28 327.12 99.59"/><polygon class="cls-4" points="305.98 97.88 300.71 88.74 296.67 91.07 300.82 98.27 305.98 97.88"/><polygon class="cls-5" points="309.7 101.09 314.08 100.33 317.69 102.77 318.75 99.86 320.73 98.93 319.83 95.98 314.86 93.18 309.11 93.18 306.6 97.98 309.7 101.09"/><polygon class="cls-6" points="309.57 101.11 307.71 104.69 308.99 107.25 297.25 107.25 295.58 103.44 300.24 98.31 306.46 97.84 309.7 101.09 309.57 101.11"/><polygon class="cls-7" points="317.69 102.77 316.06 107.25 308.99 107.25 307.71 104.69 309.57 101.11 314.08 100.33 317.69 102.77"/><circle class="cls-8" cx="331.18" cy="156.85" r="7.77"/><path class="cls-9" d="M331.18,160a3.11,3.11,0,1,1,3.11-3.11A3.11,3.11,0,0,1,331.18,160Z"/><polygon class="cls-10" points="304.26 94.89 299.09 95.28 300.82 98.27 305.98 97.88 304.26 94.89"/><polygon class="cls-11" points="319.83 95.98 319.78 95.95 316.27 97.58 316.13 97.96 314.79 97.06 310.76 97.75 308.11 95.09 306.6 97.98 309.7 101.09 314.08 100.33 317.69 102.77 318.75 99.86 320.73 98.93 319.83 95.98"/><polygon class="cls-12" points="309.7 101.09 307.32 98.7 304.49 104.14 295.88 104.14 297.25 107.25 308.99 107.25 307.71 104.69 309.57 101.11 309.7 101.09"/><polygon class="cls-13" points="315.03 100.98 313.89 104.14 307.99 104.14 307.71 104.69 308.99 107.25 316.06 107.25 317.69 102.77 315.03 100.98"/><polygon class="cls-14" points="317.2 104.14 316.06 107.25 327.65 107.25 328.78 104.14 317.2 104.14"/><rect class="cls-2" x="335.85" y="135.23" width="4.66" height="3.11"/><path class="cls-2" d="M319.52,137.88v-3.11a4.66,4.66,0,0,1,4.66-4.66h3.11Z"/><path class="cls-2" d="M310,130.1a3.89,3.89,0,0,0-3.89,3.89v3.11a3.89,3.89,0,0,1,7.77,0V134A3.89,3.89,0,0,0,310,130.1Z"/><path d="M331.18,147.91a8.94,8.94,0,1,0,8.94,8.94A9,9,0,0,0,331.18,147.91Zm0,15.55a6.61,6.61,0,1,1,6.61-6.61A6.62,6.62,0,0,1,331.18,163.45Z"/><path d="M331.18,152.57a4.28,4.28,0,1,0,4.28,4.28A4.28,4.28,0,0,0,331.18,152.57Zm0,6.22a1.94,1.94,0,1,1,1.94-1.94A1.95,1.95,0,0,1,331.18,158.79Z"/><path d="M301.41,160V129l-4-3.58V110.74h-3.89v-2.33H330v36.77h2.33V106.08h-3l.93-2.56-1.86-4,2.89-7.95L324.7,89.2l-2.89,7.95-.35.16-.64-2.12L315.16,92H308.4l-2.11,4.06-5.15-8.92-6.06,3.5,4.1,7.1-5,5.47,1.26,2.86h-4.32v7H295v13.35l4,3.58v30a5.84,5.84,0,0,0,5.83,5.83H322.5v-2.33H304.91A3.5,3.5,0,0,1,301.41,160ZM309,104.7l1.32-2.54,3.48-.6,2.47,1.67-1,2.85h-5.54Zm17.07-12.51,2.19.8-2.42,6.67,1.86,4-.89,2.45h-9.1l2-5.37,4-1.86Zm-16.28,2.16h4.74l4.3,2.42.47,1.54-1.5.7-.71,2-2.76-1.87-4.24.73L308,97.76Zm-9.53-4L304,96.86l-2.58.19-3.2-5.55ZM297,103.67l3.84-4.23L306,99l2.18,2.18-1.8,3.45.7,1.4H298Z"/><path d="M334.68,106.08v33.43h7V106.08Zm4.66,31.1H337V108.41h2.33Z"/><path d="M315.09,151.87V134A5.05,5.05,0,1,0,305,134v21h2.33V134a2.72,2.72,0,1,1,5.44,0v17.88Z"/><path d="M318.36,134.77v10.88h2.33V134.77a3.5,3.5,0,0,1,3.5-3.5h3.27v-2.33h-3.27A5.84,5.84,0,0,0,318.36,134.77Z"/><path class="cls-15" d="M317.35,161.12h-6.22v-2.33h6.22Zm-8.55,0h-2.33v-2.33h2.33Z"/><rect class="cls-15" x="299.7" y="122.48" width="2.33" height="2.33"/><rect class="cls-15" x="325.35" y="123.57" width="2.33" height="2.33"/><path class="cls-15" d="M327.69,146.12h-2.33v-2.33h2.33Zm0-4.66h-2.33v-4.66h2.33Z"/><path class="cls-15" d="M327.14,113.08h-2.33v-2.33h2.33Zm-4.66,0h-9.33v-2.33h9.33Zm-11.66,0h-5.44v-2.33h5.44Zm-7.77,0h-2.33v-2.33H303Z"/><path class="cls-15" d="M319.52,126h-2.33v-2.33h2.33Zm-4.66,0h-2.33v-2.33h2.33Zm-4.66,0h-2.33v-2.33h2.33V126Z"/><rect class="cls-15" x="301.49" y="101.42" width="2.33" height="2.33"/><rect class="cls-15" x="321.86" y="102.04" width="2.33" height="2.33"/></g></svg>