<?xml version="1.0" encoding="utf-8"?>
<!-- Generator: Adobe Illustrator 21.1.0, SVG Export Plug-In . SVG Version: 6.00 Build 0)  -->
<svg version="1.1" id="Layer_1" xmlns="http://www.w3.org/2000/svg" xmlns:xlink="http://www.w3.org/1999/xlink" x="0px" y="0px"
	 viewBox="0 0 800 220" style="enable-background:new 0 0 800 220;" xml:space="preserve">
<style type="text/css">
	.st0{font-family:'FuturaHandwritten';}
	.st1{font-size:81.02px;}
	.st2{enable-background:new    ;}
	.st3{font-size:16.49px;}
	.st4{fill:#D9996F;}
	.st5{fill:#82C8D7;}
	.st6{fill:#F0F0FA;}
	.st7{fill:#FF6A66;}
	.st8{fill:#FF433E;}
	.st9{fill:#FFA28D;}
	.st10{fill:#F9B767;}
	.st11{fill:#F99830;}
	.st12{fill:#14C4BB;}
	.st13{fill:#00A094;}
	.st14{fill:#C6F4F2;}
	.st15{fill:#A0E0E8;}
	.st16{fill:#72F2EB;}
	.st17{fill:#C13D3D;}
	.st18{fill:#5E8DA7;}
	.st19{fill:#F5EFE6;}
	.st20{fill:#EBAA39;}
	.st21{fill:#1F2933;}
</style>
<title>Artboard 1</title>
<text transform="matrix(1 0 0 1 240.52 119.26)" class="st0 st1">+</text>
<text transform="matrix(1 0 0 1 491.55 119.26)" class="st0 st1">=</text>
<text transform="matrix(1 0 0 1 90.5225 164.0298)" class="st2"><tspan x="0" y="0" class="st0 st3">Louis XIV Royal </tspan><tspan x="21.2" y="19.8" class="st0 st3">Silverware</tspan></text>
<text transform="matrix(1 0 0 1 323.4542 177.8195)" class="st0 st3">Excessive Packaging</text>
<text transform="matrix(1 0 0 1 552.6096 177.8198)" class="st0 st3">You are King Too Much</text>
<g>
	<path class="st4" d="M107.9,137.5h-2.7V97.3h8.1l2.8,31.3C116.5,133.4,112.8,137.5,107.9,137.5z"/>
	<g>
		<path class="st5" d="M105.2,97.3V49.5l0,0c9,6,14.4,16.2,14.4,27v20.8H105.2z"/>
		<ellipse class="st5" cx="149.3" cy="65.7" rx="12.6" ry="16.5"/>
		<path class="st5" d="M193.5,70v0.9c0,3.6-3,6.6-6.6,6.6h-7.6c-3.6,0-6.6-3-6.6-6.6V70H193.5z"/>
	</g>
	<rect x="180.3" y="77.6" class="st6" width="5.7" height="19.7"/>
	<path class="st4" d="M183.1,137.5L183.1,137.5c-4.8,0-8.6-4.1-8.2-8.9l2.8-31.3h10.8l2.8,31.3C191.7,133.4,187.9,137.5,183.1,137.5
		z"/>
	<rect x="146.6" y="82.3" class="st6" width="5.7" height="15"/>
	<path class="st4" d="M149.3,137.5L149.3,137.5c-4.8,0-8.6-4.1-8.2-8.9l2.8-31.3h10.8l2.8,31.3C157.9,133.4,154.2,137.5,149.3,137.5
		z"/>
	<path d="M195.3,71V49.2c0-1-0.8-1.8-1.8-1.8s-1.8,0.8-1.8,1.8v19h-3.2v-19c0-1-0.8-1.8-1.8-1.8s-1.8,0.8-1.8,1.8v19h-3.6v-19
		c0-1-0.8-1.8-1.8-1.8s-1.8,0.8-1.8,1.8v19h-3.2v-19c0-1-0.8-1.8-1.8-1.8s-1.8,0.8-1.8,1.8V71c0,4.4,3.4,8,7.7,8.4v16.2h-0.9
		c-0.9,0-1.7,0.7-1.8,1.6l-2.8,31.3c-0.2,2.8,0.7,5.6,2.6,7.6s4.6,3.3,7.4,3.3c2.8,0,5.5-1.2,7.4-3.3c1.9-2.1,2.8-4.9,2.6-7.6
		l-2.8-31.3c-0.1-0.9-0.9-1.6-1.8-1.6h-0.6V79.3C192,78.8,195.3,75.3,195.3,71z M174.5,71.8h17.1c-0.4,2.2-2.4,3.9-4.7,3.9h-7.6
		C176.9,75.8,174.9,74.1,174.5,71.8z M189.5,128.7c0.2,1.8-0.4,3.6-1.7,4.9s-2.9,2.1-4.7,2.1s-3.5-0.7-4.7-2.1
		c-1.2-1.3-1.8-3.1-1.7-4.9l2.6-29.6h7.5L189.5,128.7z M182.1,95.5V79.4h2.2v16.1H182.1z"/>
	<path d="M139.1,55.9c0.3,0.2,0.7,0.3,1,0.3c0.6,0,1.1-0.3,1.5-0.8l0.1-0.1c0.6-0.8,0.4-1.9-0.4-2.5c-0.8-0.6-1.9-0.4-2.5,0.4
		l-0.1,0.1C138.1,54.2,138.3,55.3,139.1,55.9z"/>
	<path d="M149.3,47.4c-1.5,0-3,0.3-4.4,0.9c-0.9,0.4-1.4,1.4-1,2.3s1.4,1.4,2.3,1c1-0.4,2-0.6,3-0.6c5.9,0,10.8,6.6,10.8,14.7
		s-4.8,14.7-10.8,14.7c-5.9,0-10.8-6.6-10.8-14.7c0-1.5,0.2-3,0.5-4.4c0.2-1-0.4-1.9-1.3-2.2c-1-0.2-1.9,0.4-2.2,1.3
		c-0.4,1.7-0.6,3.4-0.6,5.2c0,4.8,1.4,9.3,4,12.8c1.6,2.1,3.6,3.7,5.8,4.6v12.4h-0.9c-0.9,0-1.7,0.7-1.8,1.6l-2.8,31.3
		c-0.2,2.8,0.7,5.6,2.6,7.6c1.9,2.1,4.6,3.3,7.4,3.3c2.8,0,5.5-1.2,7.4-3.3c1.9-2.1,2.8-4.9,2.6-7.6L156.3,97
		c-0.1-0.9-0.9-1.6-1.8-1.6h-0.6V82.9c2.1-0.9,3.9-2.4,5.5-4.5c2.6-3.4,4-8,4-12.8s-1.4-9.3-4-12.8
		C156.9,49.4,153.3,47.4,149.3,47.4z M155.7,128.7c0.2,1.8-0.4,3.6-1.7,4.9s-2.9,2.1-4.7,2.1s-3.5-0.7-4.7-2.1
		c-1.2-1.3-1.8-3.1-1.7-4.9l2.6-29.6h1h5.7h0.7L155.7,128.7z M150.5,95.5h-2.1V84c0.3,0,0.6,0,0.9,0c0.4,0,0.8,0,1.2-0.1L150.5,95.5
		L150.5,95.5z"/>
	<path d="M106.2,48.1c-0.6-0.4-1.3-0.4-1.8-0.1c-0.6,0.3-1,0.9-1,1.6v88c0,1,0.8,1.8,1.8,1.8h2.7c2.8,0,5.5-1.2,7.4-3.3
		c1.9-2.1,2.8-4.9,2.6-7.6l-2.6-29.3h4.3c1,0,1.8-0.8,1.8-1.8V76.6C121.3,65.1,115.7,54.4,106.2,48.1z M114.3,128.7
		c0.2,1.8-0.4,3.6-1.7,4.9c-1.2,1.3-2.9,2.1-4.7,2.1H107V99.1h4.7L114.3,128.7z M117.8,95.5H113V84.3c0-1-0.8-1.8-1.8-1.8
		s-1.8,0.8-1.8,1.8v11.2h-2.3V53.1c6.8,5.8,10.8,14.3,10.8,23.4L117.8,95.5L117.8,95.5z"/>
	<path d="M149.3,126c-0.5,0-0.9,0.2-1.3,0.5c-0.3,0.3-0.5,0.8-0.5,1.3s0.2,0.9,0.5,1.3c0.3,0.3,0.8,0.5,1.3,0.5s0.9-0.2,1.3-0.5
		c0.3-0.3,0.5-0.8,0.5-1.3s-0.2-0.9-0.5-1.3C150.3,126.2,149.8,126,149.3,126z"/>
	<path d="M183.3,126.5c-0.5,0-0.9,0.2-1.3,0.5c-0.3,0.3-0.5,0.8-0.5,1.3s0.2,0.9,0.5,1.3c0.3,0.3,0.8,0.5,1.3,0.5s0.9-0.2,1.3-0.5
		c0.3-0.3,0.5-0.8,0.5-1.3s-0.2-0.9-0.5-1.3C184.2,126.7,183.8,126.5,183.3,126.5z"/>
	<path d="M156.5,65.7c0-1-0.8-1.8-1.8-1.8s-1.8,0.8-1.8,1.8c0,4-1.9,6.7-3.6,6.7c-1,0-1.8,0.8-1.8,1.8s0.8,1.8,1.8,1.8
		C153.4,76.1,156.5,71.5,156.5,65.7z"/>
	<path d="M111.1,79.4c0.5,0,0.9-0.2,1.3-0.5c0.3-0.3,0.5-0.8,0.5-1.3s-0.2-0.9-0.5-1.3c-0.3-0.3-0.8-0.5-1.3-0.5s-0.9,0.2-1.3,0.5
		c-0.3,0.3-0.5,0.8-0.5,1.3s0.2,0.9,0.5,1.3C110.2,79.2,110.6,79.4,111.1,79.4z"/>
</g>
<g>
	<rect x="383.6" y="48" class="st7" width="51.1" height="87"/>
	<g>
		<path class="st8" d="M434.7,92.1v17.4h-23.4c-2.6,0-4.8-2.2-4.8-4.8v-5.7c0-3.8,3.1-6.9,6.9-6.9H434.7z"/>
		<rect x="383.6" y="48" class="st8" width="51.1" height="9.8"/>
		<path class="st8" d="M401.6,81.2v11c0,2.1-1.3,3.9-3.2,4.6v37.1c0,0.4,0,0.8-0.1,1.1h-14.7V57.1c0.3,0,0.7-0.1,1-0.1
			c4.1,0,7.3,3.3,7.3,7.4v11.9h4.7C399.3,76.3,401.6,78.5,401.6,81.2z"/>
		<rect x="399.9" y="50.2" class="st8" width="18.4" height="84.8"/>
	</g>
	<rect x="403.8" y="54.1" class="st9" width="10.7" height="81"/>
	<g>
		<rect x="409.1" y="95.9" class="st7" width="5.4" height="39.2"/>
		<path class="st7" d="M414.5,92.1v17.4h-3.2c-2.6,0-4.8-2.2-4.8-4.8v-5.7c0-3.8,3.1-6.9,6.9-6.9H414.5z"/>
		<rect x="403.8" y="54.1" class="st7" width="10.7" height="3.8"/>
		<rect x="380.9" y="44.3" class="st7" width="56.3" height="9.7"/>
	</g>
	<rect x="396.9" y="44.3" class="st8" width="24.5" height="9.7"/>
	<rect x="400.7" y="44.3" class="st9" width="16.8" height="9.7"/>
	<rect x="413" y="99.7" class="st10" width="51.1" height="35.3"/>
	<rect x="413" y="99.7" class="st11" width="51.1" height="9.8"/>
	<g>
		<polygon class="st12" points="439,135 429.6,135 413,118.4 413,109 		"/>
		<polygon class="st12" points="459.9,135 450.5,135 415.2,99.7 424.6,99.7 		"/>
		<polygon class="st12" points="464.1,118.2 464.1,127.6 436.1,99.7 445.5,99.7 		"/>
	</g>
	<path class="st10" d="M465.7,105.7h-54.4c-0.5,0-1-0.4-1-1v-5.7c0-1.7,1.4-3.1,3.1-3.1h50.1c1.7,0,3.1,1.4,3.1,3.1v5.7
		C466.7,105.3,466.2,105.7,465.7,105.7z"/>
	<path class="st12" d="M362,76.3c-0.2,0.9-0.6,1.7-1,2.2c-1.1,1.2-3.5,2.3-6.2,3.2c-4,1.3-9,2.2-12.4,2.7c-2.1,0.3-4.1-1.3-4.1-3.5
		V64.4c0-2.1,1.9-3.8,4-3.5c3.6,0.5,8.9,1.4,13.1,2.8c2.5,0.9,4.6,1.9,5.6,3.2C362.4,68.7,362.8,73.3,362,76.3z"/>
	<g>
		<path class="st13" d="M361,66.9c1.3,1.8,1.8,6.4,1,9.4c-0.2,0.9-0.6,1.7-1,2.2c-1.1,1.2-3.5,2.3-6.2,3.2c-0.2-0.2-0.4-0.4-0.5-0.6
			c-0.6-0.7-0.9-1.5-1.1-2.4c-0.4-1.7-0.6-3.6-0.6-5.6c0-2,0.1-4,0.4-5.7c0.3-1.4,1-2.6,2.1-3.5c0.1-0.1,0.3-0.2,0.4-0.3
			C358,64.6,360.1,65.6,361,66.9z"/>
		<path class="st13" d="M338.3,76.3H362c-0.2,0.9-0.6,1.7-1,2.2c-2.8,3.1-12.9,5-18.6,5.9c-2.1,0.3-4.1-1.3-4.1-3.5
			C338.3,80.9,338.3,76.3,338.3,76.3z"/>
	</g>
	<path class="st12" d="M388.1,64.4v16.5c0,2.2-1.9,3.8-4.1,3.5c-3.4-0.5-8.3-1.4-12.4-2.7c0,0,0,0,0,0c-2.8-0.9-5.1-1.9-6.2-3.2
		c-0.5-0.5-0.8-1.3-1-2.2c-0.8-3-0.3-7.6,1-9.4c1-1.3,3.1-2.3,5.6-3.2c4.1-1.4,9.5-2.3,13-2.8C386.2,60.6,388.1,62.3,388.1,64.4z"/>
	<g>
		<path class="st13" d="M373.5,78.4c-0.2,1.3-0.9,2.4-1.8,3.3c0,0,0,0,0,0c-2.8-0.9-5.1-1.9-6.2-3.2c-0.5-0.5-0.8-1.3-1-2.2
			c-0.8-3-0.3-7.6,1-9.4c1-1.3,3.1-2.3,5.6-3.2c0.4,0.3,0.8,0.7,1.1,1.1c0.6,0.7,0.9,1.5,1.1,2.4c0.4,1.7,0.6,3.6,0.6,5.6
			C373.9,74.8,373.8,76.7,373.5,78.4z"/>
		<path class="st13" d="M388.1,76.3v4.6c0,2.2-1.9,3.8-4.1,3.5c-5.7-0.9-15.8-2.8-18.6-5.9c-0.5-0.5-0.8-1.3-1-2.2L388.1,76.3
			L388.1,76.3z"/>
	</g>
	<path class="st14" d="M370.1,72.8c0,0.3,0,0.6,0,0.9c0,1.4-0.2,2.8-0.4,4c-0.1,0.5-0.3,0.9-0.7,1.2c-0.2,0.2-0.5,0.3-0.8,0.4
		c-1.4,0.3-3.1,0.5-4.9,0.5c-0.2,0-0.3,0-0.5,0c-1.6,0-3.1-0.1-4.4-0.4c-0.5-0.1-0.9-0.3-1.2-0.7c-0.2-0.2-0.3-0.5-0.4-0.8
		c-0.3-1.2-0.5-2.7-0.5-4.2c0-0.2,0-0.4,0-0.6c0-1.8,0.1-3.4,0.4-4.9c0.1-0.5,0.3-0.9,0.7-1.2c0.2-0.2,0.5-0.3,0.8-0.4
		c1.4-0.3,3.1-0.5,4.9-0.5c0.2,0,0.3,0,0.5,0c1.6,0,3.1,0.1,4.4,0.4c0.5,0.1,0.9,0.3,1.2,0.7c0.2,0.2,0.3,0.5,0.4,0.8
		C369.9,69.4,370.1,71.1,370.1,72.8z"/>
	<path class="st15" d="M370.1,73.7c0,1.4-0.2,2.8-0.4,4c-0.1,0.5-0.3,0.9-0.7,1.2c-0.2,0.2-0.5,0.3-0.8,0.4
		c-1.4,0.3-3.1,0.5-4.9,0.5c-0.2,0-0.3,0-0.5,0c-1.6,0-3.1-0.1-4.4-0.4c-0.5-0.1-0.9-0.3-1.2-0.7c-0.2-0.2-0.3-0.5-0.4-0.8
		c-0.3-1.2-0.5-2.7-0.5-4.2H370.1z"/>
	<path class="st14" d="M394.6,89.5v44.4c0,0.6-0.5,1.1-1.1,1.1H333c-0.6,0-1.1-0.5-1.1-1.1V89.5H394.6z"/>
	<g>
		<rect x="331.8" y="89.5" class="st15" width="62.7" height="7.7"/>
		<rect x="349.3" y="89.5" class="st15" width="27.8" height="45.5"/>
	</g>
	<path class="st16" d="M397.7,81.2v11c0,0.6-0.5,1.1-1.1,1.1h-66.8c-0.6,0-1.1-0.5-1.1-1.1v-11c0-0.6,0.5-1.1,1.1-1.1h66.8
		C397.2,80.1,397.7,80.6,397.7,81.2z"/>
	<g>
		<path class="st12" d="M377.1,80.4v12.9h-27.8V80.4c0-0.1,0-0.2,0-0.3h27.8C377.1,80.2,377.1,80.3,377.1,80.4z"/>
		<path class="st12" d="M373.3,80.4V135h-20.2V80.4c0-1.6,1.3-2.9,2.9-2.9h14.4C372,77.5,373.3,78.8,373.3,80.4z"/>
	</g>
	<path d="M463.6,93.7h-4.2c-1.2,0-2.2,1-2.2,2.2c0,1.2,1,2.2,2.2,2.2h4.2c0.5,0,0.9,0.4,0.9,0.9v4.4h-51.9v-4.4
		c0-0.5,0.4-0.9,0.9-0.9h35.9c1.2,0,2.2-1,2.2-2.2c0-1.2-1-2.2-2.2-2.2h-12.4V79.1c0-1.2-1-2.2-2.2-2.2c-1.2,0-2.2,1-2.2,2.2v14.7
		h-15.7V56.3h15.7v12.8c0,1.2,1,2.2,2.2,2.2c1.2,0,2.2-1,2.2-2.2V56.3h0.4c1.2,0,2.2-1,2.2-2.2v-9.7c0-1.2-1-2.2-2.2-2.2h-56.3
		c-1.2,0-2.2,1-2.2,2.2v9.7c0,1.2,1,2.2,2.2,2.2h0.4V59c-5.4,0.9-11.8,2.3-15.3,4.4c-0.2,0.1-0.3,0.2-0.5,0.4c-1.5-0.1-3-0.1-4.5,0
		c-4-2.8-12.1-4.4-18.4-5.2c-1.6-0.2-3.3,0.3-4.6,1.4c-1.3,1.1-2,2.7-2,4.3v13.5h-6.3c-1.8,0-3.3,1.5-3.3,3.3v11
		c0,1.8,1.4,3.2,3.2,3.3v38.3c0,1.8,1.5,3.3,3.3,3.3h131.1c1.2,0,2.2-1,2.2-2.2v-7.4c0,0,0,0,0,0v-9.4c0,0,0,0,0,0v-10.3
		c1.5-0.3,2.6-1.6,2.6-3.1v-5.7C468.9,96.1,466.5,93.7,463.6,93.7z M460.9,132.8L436,108h5.2l20.6,20.6v4.2L460.9,132.8L460.9,132.8
		z M451.5,132.8L426.6,108h3.1l24.8,24.8H451.5L451.5,132.8z M440,132.8L415.2,108V108h5.1l24.8,24.8H440L440,132.8z M430.6,132.8
		l-15.4-15.4v-3.1l18.5,18.5L430.6,132.8L430.6,132.8z M447.5,108h3.1l11.2,11.2v3.1L447.5,108z M456.9,108h4.9v4.9L456.9,108z
		 M412.2,93.9c-2.4,0.5-4.1,2.7-4.1,5.2v5.7c0,1.6,1.1,2.9,2.6,3.1v1.1c0,0,0,0,0,0v9.4c0,0,0,0,0,0v14.4H406V56.3h6.3L412.2,93.9
		L412.2,93.9z M402.9,51.8v-5.3h12.3v5.3H402.9z M435.1,51.8h-15.3v-5.3h15.3V51.8z M383.2,46.5h15.3v5.3h-15.3L383.2,46.5
		L383.2,46.5z M401.5,56.3v76.5h-4.7V95.6c1.8-0.1,3.2-1.6,3.2-3.3v-11c0-1.8-1.5-3.3-3.3-3.3h-6.3V64.4c0-1.7-0.7-3.2-2-4.3
		c-0.7-0.6-1.6-1.1-2.5-1.3v-2.5H401.5z M355.3,80.4c0-0.4,0.3-0.7,0.7-0.7h14.4c0.4,0,0.7,0.3,0.7,0.7v52.4h-15.7L355.3,80.4
		L355.3,80.4z M384.4,63.1c0.5-0.1,0.9,0.2,1,0.3c0.2,0.1,0.4,0.5,0.4,1v13.5h-11c-0.6-1-1.5-1.8-2.6-2.3c0-0.4,0.1-0.7,0.1-1.1
		l5.4-1.3c1.2-0.3,1.9-1.5,1.7-2.7c-0.3-1.2-1.5-1.9-2.7-1.7l-4.5,1.1c-0.1-0.9-0.2-1.7-0.4-2.5c-0.1-0.5-0.3-1-0.6-1.5
		C374.2,64.9,378.8,63.9,384.4,63.1z M375.5,82.4h12.5c0,0,0,0,0,0c0,0,0,0,0,0h7.4v8.8h-20V82.4L375.5,82.4z M363.1,68.3
		c1.5,0,3,0.1,4.3,0.3c0.3,1.2,0.4,2.8,0.4,4.3c0,0.8,0,1.6-0.1,2.4h-9.1c-0.1-0.7-0.1-1.5-0.1-2.3c0-1.5,0.1-3,0.3-4.3
		C360.1,68.5,361.6,68.3,363.1,68.3z M340.6,64.4c0-0.5,0.3-0.8,0.4-1c0.2-0.1,0.5-0.4,1-0.3c5.6,0.8,10.1,1.8,13.2,2.9
		c-0.4,0.5-0.6,1.1-0.8,1.7c-0.1,0.7-0.2,1.5-0.3,2.2l-4.4-1c-1.2-0.3-2.4,0.5-2.7,1.7c-0.3,1.2,0.5,2.4,1.7,2.7l5.4,1.3
		c0,0.4,0.1,0.7,0.1,1.1c-1.1,0.4-2.1,1.2-2.7,2.3h-11V64.4z M330.9,82.4h20v8.8h-20V82.4z M334.1,95.6h16.8v37.2h-16.8V95.6z
		 M375.5,132.8V95.6h16.8v37.2H375.5z M415.2,123.7l9.1,9.1h-9.1V123.7z"/>
</g>
<g>
	<path class="st17" d="M658.4,100.4l1.7,18.7c1-0.2,2.1-0.2,2.8-0.1c1.3,0.1,2.4,0.5,3.4,0.9l0.6,0.2c2.3,0.8,4.7,1.4,7.2,1.6
		c1.3,0.1,1.5-0.1,1.5-0.1c0,0,0.1-0.1,0.3-0.5c0.4-1.1,0.5-2.2,0.5-3.4c-0.4-7.2-2.9-13.8-7.4-19.6c-1.3-1.7-2.7-3.3-4.1-4.8
		c-2.3-2.5-4.6-5-6.3-8V100.4L658.4,100.4z"/>
	<path class="st18" d="M634.9,82.8v17.6l-3.7,41.1h7.8l3.7-35.4c0.1-1,0.9-1.8,1.9-1.8s1.8,0.8,1.9,1.8l3.7,35.4h7.8l-3.7-40.9
		l0-17.8c0-0.7,0.4-1.4,1.1-1.7l15.4-7.7L683,61.3l-5.1-5.1l-12.3,12.3c-0.2,0.2-0.4,0.4-0.7,0.4l-12.6,4.7l0,0l-5.9,15.6
		c-0.3,0.8-1,1.3-1.8,1.3c-0.8,0-1.5-0.5-1.8-1.3L637,73.7l0,0L624.5,69c-0.3-0.1-0.5-0.3-0.7-0.4l-12.3-12.3l-5.1,5.1l12.1,12.1
		l15.4,7.7C634.5,81.4,634.9,82.1,634.9,82.8z"/>
	<g>
		<path class="st17" d="M631,100.2l0-16.2l-0.1-0.1c-0.8,6.5-4.4,13.1-7.5,18.6l-0.8,1.4c-2.5,4.5-4.6,9.3-6.4,14.2
			c0.3-0.2,0.5-0.4,0.8-0.5c1.1-0.7,2.5-1.5,4.2-1.5c2.2,0.1,3.7,1.4,5,2.5c0.3,0.3,0.7,0.6,1,0.8c0.8,0.6,1.1,0.7,2,0.6L631,100.2z
			"/>
		<polygon class="st17" points="647.7,75 641.7,75 644.7,83.1 		"/>
	</g>
	<circle class="st19" cx="644.7" cy="55.4" r="7.8"/>
	<g>
		<path class="st20" d="M644.7,43.7c2.4,0,4.6,0.7,6.4,1.9l0.8-5.7l-2.2,1.5c-0.5,0.3-1,0.4-1.6,0.3c-0.5-0.1-1-0.5-1.2-1l-2.2-4.3
			l-2.2,4.3c-0.3,0.5-0.7,0.9-1.2,1c-0.5,0.1-1.1,0-1.6-0.3l-2.2-1.5l0.8,5.7C640.1,44.4,642.3,43.7,644.7,43.7z"/>
		<polygon class="st20" points="660.3,145.4 648.6,145.4 640.8,145.4 629.1,145.4 625.1,145.4 625.1,153.2 666.2,153.2 666.2,145.4 
					"/>
	</g>
	<g>
		<path class="st21" d="M644.7,67.2c6.5,0,11.7-5.3,11.7-11.7c0-2.3-0.7-4.5-1.9-6.3l1.8-12.9c0.1-0.8-0.2-1.5-0.9-1.9
			c-0.7-0.4-1.5-0.4-2.1,0l-4,2.7l-2.9-5.8c-0.7-1.3-2.8-1.3-3.5,0l-2.9,5.8l-4-2.7c-0.6-0.4-1.5-0.4-2.1,0c-0.7,0.4-1,1.2-0.9,1.9
			l1.8,12.9c-1.2,1.8-1.9,4-1.9,6.3C633,61.9,638.2,67.2,644.7,67.2z M639.7,41.4c0.5,0.3,1,0.4,1.6,0.3c0.5-0.1,1-0.5,1.2-1
			l2.2-4.3l2.2,4.3c0.3,0.5,0.7,0.9,1.2,1c0.5,0.1,1.1,0,1.6-0.3l2.2-1.5l-0.8,5.7c-1.8-1.2-4-1.9-6.4-1.9c-2.4,0-4.6,0.7-6.4,1.9
			l-0.8-5.7L639.7,41.4z M644.7,47.6c4.3,0,7.8,3.5,7.8,7.8s-3.5,7.8-7.8,7.8c-4.3,0-7.8-3.5-7.8-7.8S640.4,47.6,644.7,47.6z"/>
		<path class="st21" d="M670.1,143.4c0-1.1-0.9-2-2-2h-6l-1.7-18.4c0.5-0.1,1.3-0.2,2-0.1c0.8,0.1,1.6,0.4,2.5,0.7l0.6,0.2
			c2.6,0.9,5.3,1.5,8,1.8c0.3,0,0.7,0.1,1.2,0.1c1,0,2.4-0.2,3.5-1.2c0.7-0.6,1-1.4,1.2-2c0.5-1.6,0.8-3.2,0.7-4.9
			c-0.5-8-3.2-15.3-8.2-21.8c-1.4-1.8-2.9-3.5-4.4-5.1c-2.4-2.7-4.7-5.3-6.3-8.2l11.7-5.8c0.2-0.1,0.4-0.2,0.5-0.4l13.7-13.7
			c0.8-0.8,0.8-2,0-2.8l-7.8-7.8c-0.8-0.8-2-0.8-2.8,0l-13.4,13.4l-14.9,5.6h-7.1l-14.9-5.6l-13.4-13.4c-0.8-0.8-2-0.8-2.8,0
			l-7.8,7.8c-0.8,0.8-0.8,2,0,2.8l13.7,13.7c0.1,0.1,0.3,0.3,0.5,0.4l10.6,5.3c-0.2,6.1-3.8,12.7-7.1,18.6l-0.8,1.5
			c-3.9,7-6.9,14.6-9,22.3c-0.2,0.9,0.2,1.9,1,2.3c0.3,0.1,0.6,0.2,0.8,0.2c0.6,0,1.2-0.3,1.6-0.8c1.5-2,3.4-3.8,5.5-5.2
			c0.6-0.4,1.3-0.8,1.9-0.8c0.8,0,1.6,0.8,2.5,1.5c0.4,0.3,0.8,0.7,1.2,1c1.6,1.2,2.8,1.5,4,1.5l-1.6,17.4h-4.1c-1.1,0-2,0.9-2,2
			v7.8h-39.1v3.9h41.1c1.1,0,2-0.9,2-2v-7.8h3.9h11.7h7.8h11.7h5.9v7.8c0,1.1,0.9,2,2,2h39.1v-3.9h-37.2V143.4z M643,141.5l1.7-16.5
			l1.7,16.5L643,141.5L643,141.5z M664.7,93.4c1.4,1.6,2.9,3.2,4.1,4.8c4.5,5.8,6.9,12.4,7.4,19.6c0.1,1.1-0.1,2.3-0.5,3.4
			c-0.1,0.4-0.2,0.5-0.3,0.5c0,0-0.2,0.2-1.5,0.1c-2.4-0.3-4.9-0.8-7.2-1.6l-0.6-0.2c-1.1-0.4-2.2-0.8-3.4-0.9
			c-0.7-0.1-1.7-0.1-2.8,0.1l-1.7-18.7v-15C660.2,88.4,662.5,90.9,664.7,93.4z M647.7,75l-3,8.1l-3-8.1L647.7,75L647.7,75z
			 M618.5,73.4l-12.1-12.1l5.1-5.1l12.3,12.3c0.2,0.2,0.4,0.4,0.7,0.4l12.6,4.7l0,0l5.9,15.6c0.3,0.8,1,1.3,1.8,1.3
			c0.8,0,1.5-0.5,1.8-1.3l5.9-15.6l0,0l12.6-4.7c0.3-0.1,0.5-0.3,0.7-0.4l12.3-12.3l5.1,5.1l-12.1,12.1l-15.4,7.7
			c-0.7,0.3-1.1,1-1.1,1.8l0,17.8l3.7,40.9h-7.8l-3.7-35.4c-0.1-1-0.9-1.8-1.9-1.8s-1.8,0.8-1.9,1.8l-3.7,35.4h-7.8l3.7-41.1V82.8
			c0-0.7-0.4-1.4-1.1-1.7L618.5,73.4z M627.2,119.5c-0.3-0.3-0.7-0.5-1-0.8c-1.2-1.1-2.8-2.4-5-2.5c-1.7-0.1-3.1,0.8-4.2,1.5
			c-0.3,0.2-0.5,0.4-0.8,0.5c1.7-4.9,3.9-9.6,6.4-14.2l0.8-1.4c3-5.5,6.7-12.1,7.5-18.6L631,84l0,16.2l-1.8,19.9
			C628.3,120.2,628,120.1,627.2,119.5z"/>
		<path class="st21" d="M697.5,78.9V75c-9.7,0-17.6,7.9-17.6,17.6h3.9C683.8,85,689.9,78.9,697.5,78.9z"/>
		<path class="st21" d="M603.6,147.3h3.9c0-30.7-11.2-54.8-25.4-54.8v3.9C593.8,96.5,603.6,119.8,603.6,147.3z"/>
		<path class="st21" d="M597.8,75v3.9c7.5,0,13.7,7,13.7,15.6h3.9C615.4,83.8,607.5,75,597.8,75z"/>
		<path class="st21" d="M683.8,139.5h3.9c0-18.3,8.8-33.2,19.6-33.2v-3.9C694.1,102.4,683.8,118.7,683.8,139.5z"/>
		<path class="st21" d="M705.3,86.7v-3.9c-9.7,0-17.6,7-17.6,15.6h3.9C691.6,92,697.8,86.7,705.3,86.7z"/>
		<path class="st21" d="M589.9,143.4h3.9c0-6.5-5.3-11.7-11.7-11.7v3.9C586.4,135.6,589.9,139.1,589.9,143.4z"/>
		<rect x="693.6" y="35.9" class="st21" width="3.9" height="3.9"/>
		<rect x="670.1" y="82.8" class="st21" width="3.9" height="3.9"/>
		<rect x="689.7" y="47.6" class="st21" width="3.9" height="3.9"/>
		<rect x="701.4" y="47.6" class="st21" width="3.9" height="3.9"/>
		<rect x="697.5" y="65.2" class="st21" width="3.9" height="3.9"/>
		<rect x="701.4" y="75" class="st21" width="3.9" height="3.9"/>
		<rect x="697.5" y="131.7" class="st21" width="3.9" height="3.9"/>
		<rect x="683.8" y="104.3" class="st21" width="3.9" height="3.9"/>
		<rect x="683.8" y="143.4" class="st21" width="3.9" height="3.9"/>
		<rect x="674" y="39.8" class="st21" width="3.9" height="3.9"/>
		<rect x="605.6" y="39.8" class="st21" width="3.9" height="3.9"/>
		<rect x="593.9" y="51.5" class="st21" width="3.9" height="3.9"/>
		<rect x="589.9" y="39.8" class="st21" width="3.9" height="3.9"/>
		<rect x="611.5" y="98.4" class="st21" width="3.9" height="3.9"/>
		<rect x="595.8" y="86.7" class="st21" width="3.9" height="3.9"/>
		<rect x="584.1" y="65.2" class="st21" width="3.9" height="3.9"/>
		<rect x="584.1" y="112.1" class="st21" width="3.9" height="3.9"/>
	</g>
</g>
</svg>
