<svg id="Layer_1" data-name="Layer 1" xmlns="http://www.w3.org/2000/svg" viewBox="0 0 800 220"><defs><style>.cls-1{fill:#fb7686;}.cls-2{fill:#1f84ce;}.cls-3,.cls-5,.cls-9{fill:#fff;}.cls-3{opacity:0.15;}.cls-3,.cls-4,.cls-5{isolation:isolate;}.cls-4{fill:#145587;opacity:0.3;}.cls-5{opacity:0.1;}.cls-6{fill:#89bbe4;}.cls-7{fill:#633;}.cls-8{fill:#4ec8d8;}.cls-10{font-size:81.02px;}.cls-10,.cls-11{font-family:FuturaHandwritten, FuturaHandwritten;}.cls-11{font-size:16.49px;}.cls-12{fill:#d1d3d3;}.cls-13{fill:#cccece;}</style></defs><title>Artboard 1</title><path class="cls-1" d="M429.23,37.62C420.5,37.62,415.3,48,415.3,57a23.25,23.25,0,0,0,4.52,13.67,38.26,38.26,0,0,1,2.79,4.13c1.79,3.11,3.07,5.63,3,9.75l-1,33.73q-.06,5.51-.58,11v.52a5.2,5.2,0,0,0,5.2,5.2h0a5.2,5.2,0,0,0,5.2-5.2v-.52q-.52-5.49-.58-11l-1-33.73c0-4.11,1.24-6.64,3-9.75a38.29,38.29,0,0,1,2.79-4.13A23.25,23.25,0,0,0,443.16,57C443.16,48,438,37.62,429.23,37.62Z"/><path class="cls-2" d="M375.91,70.4a26.31,26.31,0,0,1-2.82,11.74,15.22,15.22,0,0,0-1.76,7.41l1,28.75q.06,5.51.58,11h0a5.22,5.22,0,0,1-5.2,5.72h0a5.22,5.22,0,0,1-5.2-5.72h0q.52-5.49.58-11l1-28.75c0-4.66,0-39.82,0-50.29a2.73,2.73,0,0,1,2.73-2.73h0a9,9,0,0,1,9,9V70.4Z"/><path class="cls-3" d="M374.23,40.32,364.15,50.4c0,8.92,0,20.3,0,28.58l11.74-11.74V45.57A9,9,0,0,0,374.23,40.32Z"/><path class="cls-4" d="M437.82,57.29c0-7.44-3.84-13.23-8.59-13.23s-8.59,5.79-8.59,13.23,3.84,13.46,8.59,13.46S437.82,64.73,437.82,57.29Z"/><path class="cls-5" d="M429.23,37.62q-.42,0-.82,0l-12,12A25.84,25.84,0,0,0,415.3,57a23.25,23.25,0,0,0,4.52,13.67q.9,1.18,1.73,2.42L442.65,52C441.14,44.55,436.37,37.62,429.23,37.62Z"/><path class="cls-6" d="M403.32,39a2,2,0,0,0-1.81,2v18.9a1.94,1.94,0,0,1-1.94,1.94h0a1.94,1.94,0,0,1-1.94-1.94V41A1.94,1.94,0,0,0,395.7,39h0A1.94,1.94,0,0,0,393.76,41v19a1.94,1.94,0,0,1-1.94,1.94h0a1.94,1.94,0,0,1-1.94-1.94V41a2,2,0,0,0-1.81-2A1.94,1.94,0,0,0,386,41V64.63h0c0,3.3.09,5.08,1.48,7.49,2.55,4.56,4.67,7.22,4.62,12.44l-1,33.73q-.06,5.51-.58,11h0a5.22,5.22,0,0,0,5.2,5.72h0a5.22,5.22,0,0,0,5.2-5.72h0q-.52-5.49-.58-11l-1-33.73c0-5.23,2-7.88,4.58-12.44h0c1.39-2.41,1.48-4.2,1.48-7.49h0V41A1.94,1.94,0,0,0,403.32,39Z"/><path class="cls-3" d="M405.19,40.13l-3.69,3.69V59.92a1.94,1.94,0,0,1-1.94,1.94h0a1.94,1.94,0,0,1-1.94-1.94V47.69l-3.87,3.87v8.36a1.94,1.94,0,0,1-1.94,1.94h0a1.94,1.94,0,0,1-1.94-1.94V55.44L386,59.31v5.32h0c0,3.3.09,5.08,1.48,7.49,2.09,3.74,3.9,6.21,4.45,9.86l13.21-13.21a24.57,24.57,0,0,0,.23-4.15h0V41A1.92,1.92,0,0,0,405.19,40.13Z"/><path d="M366.87,34.95a4.31,4.31,0,0,0-4.31,4.31v5.51c0,14.22,0,40.66,0,44.74l-1,28.73v0c0,3.61-.23,7.27-.57,10.87a6.8,6.8,0,1,0,13.55,0c-.34-3.6-.54-7.25-.57-10.87v0l-1-28.73a13.69,13.69,0,0,1,1.59-6.67,28.05,28.05,0,0,0,3-12.44V45.57A10.64,10.64,0,0,0,366.87,34.95Zm7.46,35.46a24.87,24.87,0,0,1-2.66,11,16.84,16.84,0,0,0-1.93,8.13v0l1,28.73c0,3.7.24,7.44.59,11.11a3.64,3.64,0,1,1-7.25,0c.35-3.68.55-7.42.59-11.11l1-28.73v0c0-4,0-30.55,0-44.8V39.26a1.15,1.15,0,0,1,1.15-1.15,7.47,7.47,0,0,1,7.46,7.46V70.4h0Zm28.88-33A3.56,3.56,0,0,0,399.93,41v18.9a.36.36,0,1,1-.71,0V41a3.52,3.52,0,1,0-7,0v19a.36.36,0,1,1-.71,0V41a3.56,3.56,0,0,0-3.29-3.58A3.52,3.52,0,0,0,384.43,41V64.63c0,3.32.09,5.5,1.68,8.26.4.72.79,1.39,1.16,2,2,3.4,3.29,5.64,3.25,9.61l-1,33.72v0c0,3.61-.23,7.27-.57,10.87a6.8,6.8,0,1,0,13.55,0c-.34-3.6-.54-7.25-.57-10.87v0l-1-33.72c0-4,1.28-6.27,3.27-9.7.31-.54.63-1.09,1-1.68a1.58,1.58,0,0,0,.17-.24c1.6-2.77,1.69-4.94,1.69-8.23V41A3.52,3.52,0,0,0,403.21,37.45Zm.59,27.13v0c0,3.14-.11,4.58-1.13,6.46a1.58,1.58,0,0,0-.18.26c-.37.67-.74,1.3-1.09,1.9-2.09,3.6-3.74,6.45-3.7,11.33v0l1,33.72c0,3.7.24,7.44.59,11.12a3.64,3.64,0,1,1-7.25,0c.35-3.68.55-7.42.59-11.12l1-33.72v0c0-4.85-1.6-7.67-3.68-11.25-.37-.63-.75-1.28-1.15-2-1.15-2-1.26-3.43-1.27-6.7V41a.36.36,0,0,1,.36-.36h0a.41.41,0,0,1,.33.42v18.9a3.52,3.52,0,0,0,7,0V41a.36.36,0,0,1,.71,0v19a3.52,3.52,0,1,0,7,0V41a.41.41,0,0,1,.33-.42h0a.36.36,0,0,1,.36.36V64.58h0ZM429.23,36c-9.58,0-15.51,10.89-15.51,21a24.86,24.86,0,0,0,4.84,14.63,36.73,36.73,0,0,1,2.68,4c1.72,3,2.85,5.24,2.82,8.93l-1,33.72v0c0,3.61-.23,7.27-.57,10.87,0,0,0,.1,0,.15v.52a6.78,6.78,0,0,0,13.56,0v-.52q0-.08,0-.15c-.34-3.6-.54-7.25-.57-10.87v0l-1-33.72c0-3.69,1.1-5.93,2.82-8.93a36.73,36.73,0,0,1,2.68-4A24.86,24.86,0,0,0,444.74,57C444.74,46.93,438.81,36,429.23,36Zm8.16,33.69a39.79,39.79,0,0,0-2.91,4.3c-1.86,3.24-3.29,6.07-3.25,10.55v0l1,33.72c0,3.67.24,7.39.58,11v.44a3.62,3.62,0,0,1-7.24,0v-.44c.35-3.66.54-7.37.58-11l1-33.72v0c0-4.48-1.38-7.31-3.25-10.55a39.87,39.87,0,0,0-2.91-4.3A21.6,21.6,0,0,1,416.88,57a23.51,23.51,0,0,1,3.44-12.23c3-4.62,6.48-5.58,8.91-5.58s5.94,1,8.91,5.58A23.51,23.51,0,0,1,441.58,57,21.6,21.6,0,0,1,437.39,69.73Z"/><path class="cls-7" d="M204.83,75.93a9.28,9.28,0,0,1,2.11,7.51h0s0,.05,0,.08a49,49,0,0,1-42.49,40.63,8.84,8.84,0,0,1-4.54,4.31l-26.1,11a3.4,3.4,0,0,1-2.2,0,2.87,2.87,0,0,1-1.56-1.54,20,20,0,0,1-.56-14.08A49,49,0,0,1,88.39,75.51V59.38a7.78,7.78,0,0,1,.25-1.93h-5A14.79,14.79,0,0,1,68.82,42.66V38.72a2.87,2.87,0,0,1,2.87-2.87h8.62a18.83,18.83,0,0,1,15.51,8.24,18.82,18.82,0,0,1,15.5-8.24h8.62a2.87,2.87,0,0,1,2.87,2.87v3.95A14.79,14.79,0,0,1,108,57.44h-4.56c0,.17.09.34.12.52a18.06,18.06,0,0,0,17.74,14.67h76.33A9.37,9.37,0,0,1,204.83,75.93ZM201,80.61a3.6,3.6,0,0,0-.59-1,3.65,3.65,0,0,0-2.78-1.29H121.34A23.8,23.8,0,0,1,98,59a1.94,1.94,0,0,0-1.9-1.59,1.93,1.93,0,0,0-1.93,1.93V75.51a43.23,43.23,0,0,0,38.07,42.94,20,20,0,0,1,8.54-6.85,2.87,2.87,0,0,1,2.23,5.29,14.39,14.39,0,0,0-8.5,16.06l23.19-9.78a3.1,3.1,0,0,0,1.83-2.18l0-.1A51.65,51.65,0,0,1,201,80.61Zm-11.89,25.47a42.91,42.91,0,0,0,11.24-19.5,45.92,45.92,0,0,0-34.26,31.51A43.24,43.24,0,0,0,189.16,106.09ZM117.08,42.66V41.59h-5.75A13,13,0,0,0,98.65,51.7H108A9,9,0,0,0,117.08,42.66Zm-33.48,9H93A13,13,0,0,0,80.32,41.59H74.56v1.08A9,9,0,0,0,83.6,51.7Z"/><path class="cls-8" d="M200.46,79.66a3.59,3.59,0,0,1,.59,1,51.65,51.65,0,0,0-41.54,40.27l0,.1a3.1,3.1,0,0,1-1.83,2.18l-23.19,9.78a14.39,14.39,0,0,1,8.5-16.06,2.87,2.87,0,1,0-2.23-5.29,20,20,0,0,0-8.54,6.85A43.23,43.23,0,0,1,94.13,75.51V59.37a1.93,1.93,0,0,1,1.93-1.93A1.94,1.94,0,0,1,98,59a23.8,23.8,0,0,0,23.38,19.34h76.33A3.65,3.65,0,0,1,200.46,79.66ZM165.73,88a3.41,3.41,0,1,0-3.41,3.41A3.42,3.42,0,0,0,165.73,88Zm-38.19,18.74A2.87,2.87,0,0,0,126,103a29.86,29.86,0,0,1-15.19-14.1,2.87,2.87,0,1,0-5.12,2.59,35.58,35.58,0,0,0,18.12,16.82,2.87,2.87,0,0,0,3.75-1.56Z"/><path class="cls-9" d="M200.4,86.58a43.34,43.34,0,0,1-34.26,31.51A45.92,45.92,0,0,1,200.4,86.58Z"/><path class="cls-7" d="M196.13,55a2.87,2.87,0,0,1-5.74,0,5.37,5.37,0,0,0-10.74,0h0v9.89a2.87,2.87,0,1,1-5.74,0s0-10.13,0-10.25h0a5.37,5.37,0,0,0-10.73.36,2.87,2.87,0,1,1-5.74,0,11.11,11.11,0,0,1,19.35-7.44A11.1,11.1,0,0,1,196.13,55Z"/><path class="cls-7" d="M162.32,84.61A3.41,3.41,0,1,1,158.9,88,3.42,3.42,0,0,1,162.32,84.61Z"/><path class="cls-7" d="M126,103a2.87,2.87,0,1,1-2.19,5.31A35.58,35.58,0,0,1,105.67,91.5a2.87,2.87,0,1,1,5.12-2.59A29.86,29.86,0,0,0,126,103Z"/><path class="cls-8" d="M117.08,41.59v1.08a9,9,0,0,1-9,9H98.65a13,13,0,0,1,12.67-10.11Z"/><path class="cls-8" d="M93,51.7H83.6a9,9,0,0,1-9-9V41.59h5.75A13,13,0,0,1,93,51.7Z"/><text class="cls-10" transform="translate(250.52 119.26)">+</text><text class="cls-10" transform="translate(491.55 119.26)">=</text><text class="cls-11" transform="translate(102.87 164.03)">Happy Giant <tspan x="24.13" y="19.79">Whale</tspan></text><text class="cls-11" transform="translate(377.27 164.03)">Plastic <tspan x="-0.35" y="19.79">Debris</tspan></text><path d="M642.23,48.42v.06c0,4.14-.17,6-1.79,8.52a2.13,2.13,0,0,0-.29.35c-.59.88-1.17,1.71-1.72,2.51-3.31,4.75-5.92,8.5-5.85,14.94v0l1.64,44.48a146.36,146.36,0,0,0,.93,14.67,4.28,4.28,0,0,1-1.47,3.69,6.57,6.57,0,0,1-8.53,0,4.28,4.28,0,0,1-1.47-3.69,146.55,146.55,0,0,0,.93-14.67l1.64-44.48v0c.07-6.39-2.53-10.12-5.83-14.84-.58-.83-1.18-1.69-1.82-2.64-1.83-2.64-2-4.52-2-8.84V17.26a.52.52,0,0,1,.56-.47h0a.58.58,0,0,1,.52.56V42.28c0,2.56,2.5,4.64,5.57,4.64s5.57-2.08,5.57-4.64v-25a.57.57,0,0,1,1.13,0v25c0,2.56,2.5,4.64,5.57,4.64s5.57-2.08,5.57-4.64V17.35a.58.58,0,0,1,.52-.56h0a.52.52,0,0,1,.56.47V48.42h0Z"/><text class="cls-11" transform="translate(563.61 164.03)">Choked Dead Whale</text><path class="cls-7" d="M575.34,98.4a9.28,9.28,0,0,1-2.11-7.51h0s0-.05,0-.08a49,49,0,0,1,42.49-40.63,8.84,8.84,0,0,1,4.54-4.31l26.1-11a3.4,3.4,0,0,1,2.2,0,2.87,2.87,0,0,1,1.56,1.54,20,20,0,0,1,.56,14.08,49,49,0,0,1,41.08,48.35V115a7.78,7.78,0,0,1-.25,1.93h5a14.79,14.79,0,0,1,14.78,14.78v3.95a2.87,2.87,0,0,1-2.87,2.87h-8.62a18.83,18.83,0,0,1-15.51-8.24,18.82,18.82,0,0,1-15.5,8.24h-8.62a2.87,2.87,0,0,1-2.87-2.87v-3.95a14.79,14.79,0,0,1,14.78-14.78h4.56c0-.17-.09-.34-.12-.52a18.06,18.06,0,0,0-17.74-14.67H582.49A9.37,9.37,0,0,1,575.34,98.4Zm3.78-4.68a3.6,3.6,0,0,0,.59,1A3.65,3.65,0,0,0,582.49,96h76.33a23.8,23.8,0,0,1,23.38,19.34,1.94,1.94,0,0,0,1.9,1.59A1.93,1.93,0,0,0,686,115V98.83A43.23,43.23,0,0,0,648,55.89a20,20,0,0,1-8.54,6.85,2.87,2.87,0,0,1-2.23-5.29,14.39,14.39,0,0,0,8.5-16.06l-23.19,9.78a3.1,3.1,0,0,0-1.83,2.18l0,.1A51.65,51.65,0,0,1,579.12,93.72ZM591,68.25a42.91,42.91,0,0,0-11.24,19.5A45.92,45.92,0,0,0,614,56.24,43.24,43.24,0,0,0,591,68.25Zm72.09,63.42v1.08h5.75a13,13,0,0,0,12.67-10.11h-9.39A9,9,0,0,0,663.09,131.67Zm33.48-9h-9.39a13,13,0,0,0,12.67,10.11h5.75v-1.08A9,9,0,0,0,696.57,122.63Z"/><path class="cls-12" d="M579.71,94.68a3.59,3.59,0,0,1-.59-1,51.65,51.65,0,0,0,41.54-40.27l0-.1a3.1,3.1,0,0,1,1.83-2.18l23.19-9.78a14.39,14.39,0,0,1-8.5,16.06,2.87,2.87,0,1,0,2.23,5.29A20,20,0,0,0,648,55.89,43.23,43.23,0,0,1,686,98.83V115a1.93,1.93,0,0,1-1.93,1.93,1.94,1.94,0,0,1-1.9-1.59A23.8,23.8,0,0,0,658.83,96H582.49A3.65,3.65,0,0,1,579.71,94.68Zm34.73-8.37a3.41,3.41,0,1,0,3.41-3.41A3.42,3.42,0,0,0,614.44,86.31Zm38.19-18.74a2.87,2.87,0,0,0,1.56,3.75,29.86,29.86,0,0,1,15.19,14.1,2.87,2.87,0,1,0,5.12-2.59A35.58,35.58,0,0,0,656.37,66a2.87,2.87,0,0,0-3.75,1.56Z"/><path class="cls-9" d="M579.76,87.75A43.34,43.34,0,0,1,614,56.24,45.92,45.92,0,0,1,579.76,87.75Z"/><path class="cls-7" d="M617.85,89.72a3.41,3.41,0,1,1,3.41-3.41A3.42,3.42,0,0,1,617.85,89.72Z"/><path class="cls-7" d="M654.18,71.32A2.87,2.87,0,1,1,656.37,66,35.58,35.58,0,0,1,674.5,82.83a2.87,2.87,0,1,1-5.12,2.59,29.86,29.86,0,0,0-15.19-14.1Z"/><path class="cls-13" d="M663.09,132.75v-1.08a9,9,0,0,1,9-9h9.39a13,13,0,0,1-12.67,10.11Z"/><path class="cls-13" d="M687.18,122.63h9.39a9,9,0,0,1,9,9v1.08h-5.75A13,13,0,0,1,687.18,122.63Z"/></svg>