<?xml version="1.0" encoding="iso-8859-1"?>
<!-- Generator: Adobe Illustrator 19.0.0, SVG Export Plug-In . SVG Version: 6.00 Build 0)  -->
<svg version="1.1" id="Layer_1" xmlns="http://www.w3.org/2000/svg" xmlns:xlink="http://www.w3.org/1999/xlink" x="0px" y="0px"
	 viewBox="0 0 512 512" style="enable-background:new 0 0 512 512;" xml:space="preserve">
<path style="fill:#FB7686;" d="M388.923,13.475c-43.988,0-70.144,52.186-70.144,97.704c0,24.486,8.531,50.261,22.744,68.857
	c5.087,6.655,9.887,13.53,14.066,20.79c9.021,15.672,15.47,28.377,15.285,49.094l-5.209,169.908
	c-0.197,18.503-1.175,36.99-2.93,55.411v2.613c0,14.463,11.724,26.187,26.187,26.187l0,0l0,0c14.463,0,26.188-11.724,26.188-26.187
	v-2.613c-1.755-18.421-2.732-36.908-2.931-55.411l-5.208-169.908c-0.187-20.716,6.263-33.421,15.285-49.094
	c4.179-7.26,8.98-14.135,14.066-20.79c14.212-18.595,22.744-44.371,22.744-68.857C459.068,65.659,432.911,13.475,388.923,13.475z"/>
<path style="fill:#1F84CE;" d="M120.379,178.584c0,20.55-5.052,40.717-14.223,59.107c-5.498,11.021-9.005,21.973-8.867,37.327
	l5.208,144.809c0.199,18.503,1.175,36.99,2.931,55.411l0,0c1.471,15.445-10.674,28.802-26.188,28.802l0,0
	c-15.514,0-27.659-13.357-26.187-28.802l0,0c1.755-18.421,2.732-36.907,2.931-55.411l5.208-144.809
	c0.211-23.448-0.038-200.547-0.094-253.309c-0.01-7.594,6.144-13.748,13.737-13.748l0,0c25.154,0,45.547,20.393,45.547,45.547
	v125.076H120.379z"/>
<path style="opacity:0.15;fill:#FFFFFF;enable-background:new    ;" d="M111.913,27.076L61.16,77.827
	c0.052,44.942,0.111,102.231,0.113,143.933l59.106-59.106V53.508C120.379,43.649,117.236,34.53,111.913,27.076z"/>
<path style="opacity:0.3;fill:#145587;enable-background:new    ;" d="M432.176,112.542c0-37.453-19.365-66.619-43.253-66.619
	c-23.887,0-43.252,29.166-43.252,66.619c0,37.452,19.365,67.813,43.252,67.813C412.812,180.355,432.176,149.994,432.176,112.542z"/>
<path style="opacity:0.1;fill:#FFFFFF;enable-background:new    ;" d="M388.923,13.475c-1.398,0-2.779,0.054-4.141,0.157
	l-60.472,60.472c-3.631,12.076-5.532,24.817-5.532,37.075c0,24.486,8.531,50.262,22.744,68.857
	c3.035,3.971,5.945,8.033,8.705,12.196L456.502,85.957C448.926,48.356,424.886,13.475,388.923,13.475z"/>
<path style="fill:#89BBE4;" d="M258.402,20.533c-5.185,0.335-9.107,4.872-9.107,10.068v95.192c0,5.388-4.368,9.756-9.756,9.756l0,0
	c-5.388,0-9.756-4.368-9.756-9.756V30.268c0-5.388-4.368-9.755-9.755-9.755l0,0c-5.388,0-9.755,4.368-9.755,9.755v95.525
	c0,5.388-4.368,9.756-9.756,9.756l0,0c-5.388,0-9.756-4.368-9.756-9.756V30.601c0-5.196-3.921-9.733-9.107-10.068
	c-5.682-0.368-10.405,4.131-10.405,9.734v119.225h0.002c0.019,16.599,0.45,25.602,7.455,37.748
	c12.851,22.972,23.509,36.358,23.272,62.678l-5.208,169.908c-0.199,18.503-1.175,36.99-2.93,55.411l0,0
	c-1.471,15.445,10.673,28.801,26.187,28.801l0,0c15.514,0,27.66-13.356,26.187-28.801l0,0c-1.755-18.421-2.732-36.908-2.93-55.411
	l-5.208-169.908c-0.237-26.32,10.238-39.707,23.089-62.678h0.183c7.005-12.146,7.437-21.149,7.455-37.748h0.003V30.267
	C268.807,24.664,264.084,20.164,258.402,20.533z"/>
<path style="opacity:0.15;fill:#FFFFFF;enable-background:new    ;" d="M267.865,26.102l-18.57,18.57v81.119
	c0,5.388-4.368,9.756-9.756,9.756l0,0c-5.388,0-9.756-4.368-9.756-9.756V64.185l-19.512,19.512v42.096
	c0,5.388-4.368,9.756-9.756,9.756l0,0c-5.388,0-9.756-4.368-9.756-9.756v-22.584l-19.512,19.512v26.772h0.002
	c0.018,16.599,0.45,25.602,7.455,37.748c10.551,18.862,19.62,31.267,22.398,49.67l66.528-66.527
	c1.041-5.939,1.164-12.426,1.173-20.891h0.003V30.267C268.807,28.775,268.464,27.367,267.865,26.102z"/>
<path d="M74.833,0C69.03,0,63.577,2.26,59.478,6.364c-4.097,4.102-6.35,9.554-6.344,15.353l0.032,27.764
	c0.086,71.604,0.245,204.779,0.064,225.358l-5.203,144.701c-0.002,0.067-0.004,0.134-0.004,0.201
	c-0.195,18.205-1.169,36.622-2.896,54.741c-0.913,9.59,2.28,19.176,8.761,26.304c6.48,7.126,15.721,11.214,25.353,11.214
	s18.874-4.088,25.354-11.215c6.48-7.127,9.673-16.714,8.76-26.304c-1.726-18.119-2.7-36.536-2.896-54.741
	c0-0.068-0.002-0.134-0.004-0.201l-5.205-144.697c-0.118-15.138,3.789-25.094,8.03-33.597c9.853-19.754,15.061-41.421,15.061-62.66
	V53.508C128.34,24.004,104.337,0,74.833,0z M112.417,178.584c0,18.785-4.629,37.996-13.387,55.552
	c-4.891,9.807-9.871,22.342-9.703,40.953c0.001,0.071,0.002,0.143,0.004,0.214l5.205,144.711c0.202,18.617,1.2,37.45,2.965,55.977
	c0.496,5.21-1.17,10.211-4.69,14.082c-3.52,3.872-8.34,6.004-13.573,6.004c-5.233,0-10.052-2.132-13.572-6.003
	c-3.52-3.871-5.185-8.873-4.69-14.082c1.765-18.529,2.763-37.361,2.965-55.978l5.203-144.711c0.003-0.071,0.004-0.143,0.004-0.214
	c0.184-20.296,0.023-153.868-0.063-225.627l-0.032-27.763c-0.002-1.542,0.598-2.992,1.687-4.083
	c1.093-1.092,2.547-1.694,4.092-1.694c20.725,0,37.586,16.861,37.586,37.586v125.076H112.417z M257.888,12.587
	c-9.283,0.6-16.554,8.512-16.554,18.013v95.192c0,0.99-0.805,1.795-1.795,1.795c-0.99,0-1.795-0.805-1.795-1.795V30.267
	c0-9.769-7.947-17.717-17.717-17.717c-9.769,0-17.717,7.947-17.717,17.717v95.525c0,0.99-0.806,1.795-1.795,1.795
	c-0.989,0-1.795-0.805-1.795-1.795v-95.19c0-9.5-7.271-17.413-16.553-18.013c-10.305-0.668-18.881,7.525-18.881,17.679
	l0.002,119.235c0.019,16.738,0.441,27.707,8.469,41.626c2.031,3.628,3.98,6.977,5.866,10.216
	c9.966,17.114,16.555,28.428,16.394,48.421l-5.206,169.819c-0.002,0.053-0.003,0.106-0.003,0.159
	c-0.195,18.202-1.169,36.62-2.895,54.741c-0.913,9.59,2.279,19.176,8.76,26.303c6.48,7.127,15.722,11.214,25.354,11.214
	c9.633,0,18.874-4.088,25.354-11.214c6.48-7.127,9.672-16.714,8.758-26.303c-1.726-18.122-2.699-36.539-2.895-54.741
	c0-0.053-0.001-0.106-0.003-0.159l-5.206-169.819c-0.162-20.171,6.455-31.581,16.464-48.836c1.573-2.714,3.195-5.508,4.872-8.482
	c0.325-0.377,0.618-0.787,0.871-1.227c8.041-13.943,8.496-24.873,8.52-41.474c0.002-0.084,0.003-0.167,0.003-0.251V30.267
	C276.768,20.113,268.186,11.921,257.888,12.587z M260.845,149.251c-0.002,0.077-0.003,0.155-0.003,0.232
	c-0.017,15.827-0.529,23.087-5.7,32.551c-0.348,0.402-0.659,0.844-0.925,1.319c-1.882,3.364-3.716,6.526-5.49,9.584
	c-10.522,18.14-18.833,32.467-18.611,57.052c0.001,0.057,0.002,0.115,0.003,0.173l5.206,169.829c0.201,18.621,1.198,37.463,2.964,56
	c0.497,5.209-1.169,10.21-4.689,14.081s-8.34,6.004-13.573,6.004c-5.233,0-10.054-2.133-13.573-6.004
	c-3.52-3.871-5.185-8.872-4.689-14.082c1.765-18.537,2.763-37.379,2.965-56l5.206-169.829c0.001-0.057,0.002-0.115,0.003-0.173
	c0.22-24.419-8.065-38.647-18.555-56.659c-1.852-3.18-3.766-6.469-5.781-10.067c-5.816-10.084-6.371-17.273-6.392-33.771V30.267
	c0-0.989,0.805-1.794,1.794-1.794l0.136,0.004c0.884,0.057,1.659,1.05,1.659,2.123v95.192c0,9.77,7.947,17.718,17.718,17.718
	c9.77,0,17.718-7.947,17.718-17.718V30.267c0-0.989,0.805-1.794,1.794-1.794c0.989,0,1.794,0.805,1.794,1.794v95.525
	c0,9.77,7.947,17.718,17.718,17.718c9.77,0,17.718-7.947,17.718-17.718v-95.19c0-1.074,0.775-2.067,1.659-2.123l0.135-0.004
	c0.989,0,1.794,0.805,1.794,1.794v118.983H260.845z M388.923,5.513c-48.243,0-78.106,54.848-78.106,105.665
	c0,26.169,9.114,53.717,24.38,73.692c5.509,7.209,9.923,13.726,13.492,19.926c8.687,15.092,14.374,26.384,14.224,44.966
	l-5.206,169.819c-0.001,0.053-0.002,0.106-0.003,0.159c-0.194,18.195-1.169,36.612-2.895,54.741
	c-0.023,0.251-0.036,0.503-0.036,0.755v2.613c0,18.83,15.32,34.149,34.149,34.149c18.83,0,34.15-15.32,34.15-34.149v-2.613
	c0-0.252-0.012-0.504-0.036-0.755c-1.726-18.119-2.701-36.537-2.896-54.741c-0.001-0.053-0.001-0.106-0.003-0.159l-5.206-169.819
	c-0.151-18.585,5.536-29.874,14.224-44.966c3.569-6.2,7.983-12.718,13.492-19.927c15.266-19.973,24.38-47.521,24.38-73.691
	C467.029,60.361,437.167,5.513,388.923,5.513z M429.998,175.201c-5.934,7.764-10.723,14.846-14.641,21.653
	c-9.386,16.305-16.549,30.57-16.345,53.137c0.001,0.057,0.001,0.115,0.003,0.173l5.206,169.829
	c0.201,18.497,1.186,37.208,2.929,55.622v2.237c0,10.05-8.177,18.226-18.227,18.226s-18.226-8.177-18.226-18.226v-2.236
	c1.744-18.422,2.729-37.135,2.929-55.622l5.207-169.829c0.001-0.057,0.003-0.115,0.003-0.173
	c0.203-22.565-6.96-36.831-16.345-53.137c-3.918-6.806-8.708-13.889-14.64-21.653c-13.218-17.293-21.108-41.227-21.108-64.023
	c0-21.71,6.472-44.745,17.313-61.618c14.934-23.245,32.644-28.125,44.87-28.125c12.225,0,29.935,4.88,44.87,28.125
	c10.841,16.874,17.313,39.909,17.313,61.618C451.106,133.975,443.215,157.908,429.998,175.201z"/>
<g>
</g>
<g>
</g>
<g>
</g>
<g>
</g>
<g>
</g>
<g>
</g>
<g>
</g>
<g>
</g>
<g>
</g>
<g>
</g>
<g>
</g>
<g>
</g>
<g>
</g>
<g>
</g>
<g>
</g>
</svg>
