<?xml version="1.0" encoding="iso-8859-1"?>
<!-- Generator: Adobe Illustrator 19.0.0, SVG Export Plug-In . SVG Version: 6.00 Build 0)  -->
<svg version="1.1" id="Capa_1" xmlns="http://www.w3.org/2000/svg" xmlns:xlink="http://www.w3.org/1999/xlink" x="0px" y="0px"
	 viewBox="0 0 512 512" style="enable-background:new 0 0 512 512;" xml:space="preserve">
<path style="fill:#D9996F;" d="M25.255,501.993H10v-224h45.255l15.553,174.198C73.198,478.949,52.119,501.993,25.255,501.993z"/>
<g>
	<path style="fill:#82C8D7;" d="M10,277.993V11.826l0,0c50.013,33.679,80,90.026,80,150.321v115.846H10z"/>
	<ellipse style="fill:#82C8D7;" cx="256" cy="102.13" rx="70" ry="92"/>
	<path style="fill:#82C8D7;" d="M502,126.007v5.239c0,20.302-16.458,36.761-36.761,36.761H422.76
		c-20.302,0-36.761-16.458-36.761-36.761v-5.239H502z"/>
</g>
<rect x="428.75" y="168.01" style="fill:#F0F0FA;" width="32" height="109.99"/>
<path style="fill:#D9996F;" d="M444,501.993L444,501.993c-26.864,0-47.942-23.044-45.553-49.802L414,277.993h60l15.553,174.198
	C491.942,478.949,470.864,501.993,444,501.993z"/>
<rect x="240.75" y="194.13" style="fill:#F0F0FA;" width="32" height="83.86"/>
<path style="fill:#D9996F;" d="M256,501.993L256,501.993c-26.864,0-47.942-23.044-45.553-49.802L226,277.993h60l15.553,174.198
	C303.942,478.949,282.864,501.993,256,501.993z"/>
<path d="M512,131.246V10.007c0-5.522-4.477-10-10-10s-10,4.478-10,10v106h-18V10.134c0-5.522-4.477-10-10-10s-10,4.478-10,10
	v105.873h-20V10.134c0-5.522-4.477-10-10-10s-10,4.478-10,10v105.873h-18v-106c0-5.522-4.477-10-10-10s-10,4.478-10,10v121.239
	c0,24.43,18.835,44.532,42.745,46.577v90.17H414c-5.178,0-9.5,3.953-9.96,9.11l-15.553,174.198
	c-1.388,15.542,3.856,31.06,14.388,42.574s25.521,18.117,41.125,18.117s30.594-6.604,41.125-18.117
	c10.532-11.515,15.776-27.032,14.388-42.574L483.96,277.104c-0.46-5.157-4.782-9.11-9.96-9.11h-3.255v-90.321
	C493.942,174.937,512,155.167,512,131.246z M396.433,136.007h95.135c-2.253,12.491-13.198,22-26.328,22h-42.479
	C409.63,158.007,398.686,148.498,396.433,136.007z M479.593,453.081c0.903,10.111-2.374,19.805-9.225,27.296
	S454.152,491.993,444,491.993s-19.516-4.125-26.368-11.616s-10.128-17.185-9.225-27.296l14.74-165.088h41.706L479.593,453.081z
	 M438.745,267.993v-89.986h12v89.986H438.745z"/>
<path d="M199.106,47.36c1.763,1.26,3.794,1.866,5.808,1.866c3.119,0,6.191-1.455,8.143-4.186l0.442-0.613
	c3.241-4.473,2.243-10.725-2.229-13.966c-4.473-3.238-10.725-2.241-13.965,2.229l-0.517,0.719
	C193.575,37.902,194.613,44.148,199.106,47.36z"/>
<path d="M256,0.134c-8.281,0-16.444,1.596-24.262,4.743c-5.124,2.063-7.604,7.888-5.542,13.011
	c2.062,5.123,7.887,7.606,13.011,5.542c5.433-2.187,11.083-3.296,16.793-3.296c33.084,0,60,36.785,60,82s-26.916,82-60,82
	s-60-36.785-60-82c0-8.385,0.931-16.653,2.767-24.576c1.246-5.38-2.105-10.752-7.485-11.999c-5.38-1.246-10.752,2.104-11.999,7.485
	c-2.178,9.401-3.282,19.188-3.282,29.09c0,26.749,8.006,52.002,22.544,71.109c9.109,11.972,20.116,20.706,32.201,25.774v68.976H226
	c-5.178,0-9.5,3.953-9.96,9.11l-15.553,174.198c-1.388,15.542,3.856,31.06,14.388,42.574s25.521,18.117,41.125,18.117
	s30.594-6.604,41.125-18.117c10.532-11.515,15.776-27.032,14.388-42.574L295.96,277.104c-0.46-5.157-4.782-9.11-9.96-9.11h-3.255
	V198.37c11.5-5.149,21.978-13.648,30.711-25.126C327.994,154.136,336,128.883,336,102.134c0-26.748-8.006-52.002-22.544-71.108
	C298.299,11.104,277.894,0.134,256,0.134z M291.593,453.081c0.903,10.111-2.374,19.805-9.225,27.296S266.152,491.993,256,491.993
	s-19.516-4.125-26.368-11.616s-10.128-17.185-9.225-27.296l14.74-165.088h5.598h32h4.108L291.593,453.081z M262.745,267.993h-12
	v-64.079c1.741,0.141,3.493,0.22,5.255,0.22c2.266,0,4.515-0.124,6.745-0.357V267.993z"/>
<path d="M15.586,3.53c-3.067-2.063-7.02-2.268-10.284-0.533C2.039,4.734,0,8.129,0,11.825v490.168c0,5.522,4.477,10,10,10h15.255
	c15.604,0,30.594-6.604,41.125-18.117c10.532-11.515,15.776-27.032,14.388-42.574l-14.58-163.309H90c5.523,0,10-4.478,10-10V162.146
	C100,98.422,68.443,39.126,15.586,3.53z M60.848,453.081c0.903,10.111-2.374,19.805-9.225,27.296s-16.216,11.616-26.368,11.616H20
	v-204h26.108L60.848,453.081z M80,267.993H53v-62.454c0-5.522-4.477-10-10-10s-10,4.478-10,10v62.454H20V31.955
	c37.878,32.324,60,79.707,60,130.191V267.993z"/>
<path d="M256,438.01c-2.63,0-5.21,1.06-7.07,2.93c-1.86,1.86-2.93,4.431-2.93,7.07c0,2.63,1.07,5.21,2.93,7.07
	c1.86,1.859,4.44,2.93,7.07,2.93s5.21-1.07,7.07-2.93c1.86-1.86,2.93-4.44,2.93-7.07c0-2.64-1.07-5.21-2.93-7.07
	C261.21,439.069,258.63,438.01,256,438.01z"/>
<path d="M445.17,440.84c-2.63,0-5.21,1.07-7.08,2.93c-1.86,1.86-2.92,4.44-2.92,7.07s1.06,5.21,2.92,7.07
	c1.87,1.859,4.45,2.93,7.08,2.93s5.21-1.07,7.07-2.93c1.86-1.86,2.93-4.44,2.93-7.07s-1.07-5.21-2.93-7.07
	C450.38,441.91,447.8,440.84,445.17,440.84z"/>
<path d="M296,102.134c0-5.522-4.477-10-10-10s-10,4.478-10,10c0,22.115-10.54,37.526-20,37.526c-5.523,0-10,4.478-10,10
	s4.477,10,10,10C278.43,159.66,296,134.392,296,102.134z"/>
<path d="M43,178.01c2.63,0,5.21-1.07,7.07-2.93c1.86-1.86,2.93-4.44,2.93-7.07c0-2.64-1.07-5.22-2.93-7.07
	c-1.86-1.87-4.44-2.93-7.07-2.93s-5.21,1.06-7.07,2.93c-1.86,1.86-2.93,4.431-2.93,7.07c0,2.63,1.07,5.2,2.93,7.07
	C37.79,176.939,40.37,178.01,43,178.01z"/>
<g>
</g>
<g>
</g>
<g>
</g>
<g>
</g>
<g>
</g>
<g>
</g>
<g>
</g>
<g>
</g>
<g>
</g>
<g>
</g>
<g>
</g>
<g>
</g>
<g>
</g>
<g>
</g>
<g>
</g>
</svg>
