<?xml version="1.0" encoding="utf-8"?>
<!-- Generator: Adobe Illustrator 21.1.0, SVG Export Plug-In . SVG Version: 6.00 Build 0)  -->
<svg version="1.1" id="Layer_1" xmlns="http://www.w3.org/2000/svg" xmlns:xlink="http://www.w3.org/1999/xlink" x="0px" y="0px"
	 viewBox="0 0 666 278" style="enable-background:new 0 0 666 278;" xml:space="preserve">
<style type="text/css">
	.st0{fill:#545454;}
	.st1{fill:#8C8C8C;}
	.st2{fill:#FF6F6F;}
	.st3{fill:#4D7EF7;}
	.st4{font-family:'FuturaHandwritten';}
	.st5{font-size:48px;}
	.st6{font-size:23px;}
</style>
<title>Artboard 1</title>
<g id="Layer_2">
	<path class="st0" d="M171.8,165.6h-19.4l-3.4-22.2c-0.5-3.1-3.1-5.4-6.3-5.5h-0.1c-3.5,0-6.4,2.8-6.4,6.3c0,0.3,0,0.6,0,0.8
		l3.2,27.6c0.4,3.2,3.1,5.6,6.3,5.6h26c3.5,0,6.4-2.9,6.4-6.4C178.2,168.4,175.3,165.6,171.8,165.6L171.8,165.6z M171.8,174.1h-26
		c-1.1,0-2-0.8-2.1-1.9l-3.3-27.7c0-0.1,0-0.2,0-0.3c0-1.2,1-2.1,2.2-2.1c0,0,0,0,0,0l0,0c1.1,0,2,0.8,2.1,1.8l3.7,24
		c0.2,1,1.1,1.8,2.1,1.8h21.3c1.2,0.1,2.1,1.1,2,2.3C173.7,173.1,172.9,174,171.8,174.1L171.8,174.1z"/>
	
		<rect x="135.2" y="183.6" transform="matrix(0.3165 -0.9486 0.9486 0.3165 -76.9473 264.7567)" class="st0" width="20.2" height="4.2"/>
	
		<rect x="168.6" y="175.7" transform="matrix(0.9487 -0.3161 0.3161 0.9487 -49.971 63.5131)" class="st0" width="4.2" height="20.2"/>
	<path class="st1" d="M225.5,146.4H166c-1.2,0-2.1,1-2.1,2.1c0,0,0,0,0,0v8.5c0,1.2,1,2.1,2.1,2.1c0,0,0,0,0,0h59.6
		c1.2,0,2.1-0.9,2.1-2.1c0,0,0,0,0,0v-8.5C227.7,147.3,226.7,146.4,225.5,146.4C225.5,146.4,225.5,146.4,225.5,146.4z M223.4,154.9
		h-55.3v-4.2h55.3L223.4,154.9L223.4,154.9z"/>
	<path class="st1" d="M200,154.9h-8.5c-1.2,0-2.1,1-2.1,2.1c0,0,0,0,0,0v38.3c0,1.2,1,2.1,2.1,2.1c0,0,0,0,0,0h8.5
		c1.2,0,2.1-0.9,2.1-2.1c0,0,0,0,0,0V157C202.1,155.8,201.2,154.9,200,154.9z M197.9,193.2h-4.2v-34h4.2V193.2z"/>
	<path class="st2" d="M187.2,86.8h-17c-1.2,0-2.1,0.9-2.1,2.1c0,0,0,0,0,0v6.4c0,5.9,4.8,10.6,10.6,10.6c5.9,0,10.6-4.8,10.6-10.6
		l0,0V89C189.4,87.8,188.4,86.9,187.2,86.8C187.3,86.9,187.3,86.8,187.2,86.8z M185.1,95.4c0,3.5-2.9,6.4-6.4,6.4
		c-3.5,0-6.4-2.9-6.4-6.4v-4.2h12.8V95.4z"/>
	<path class="st2" d="M153.2,86.8h-17c-1.2,0-2.1,0.9-2.1,2.1c0,0,0,0,0,0v6.4c0,5.9,4.8,10.6,10.6,10.6c5.9,0,10.6-4.8,10.6-10.6
		l0,0V89C155.4,87.8,154.4,86.9,153.2,86.8C153.2,86.9,153.2,86.9,153.2,86.8z M151.1,95.4c0,3.5-2.9,6.4-6.4,6.4
		c-3.5,0-6.4-2.9-6.4-6.4v-4.2h12.8L151.1,95.4z"/>
	<path class="st3" d="M170.2,86.8h-17c-1.2,0-2.1,0.9-2.1,2.1c0,0,0,0,0,0v6.4c0,5.9,4.8,10.6,10.6,10.6c5.9,0,10.6-4.8,10.6-10.6
		l0,0V89C172.4,87.8,171.4,86.9,170.2,86.8C170.3,86.9,170.2,86.8,170.2,86.8z M168.1,95.4c0,3.5-2.9,6.4-6.4,6.4s-6.4-2.9-6.4-6.4
		c0,0,0,0,0,0v-4.2h12.8V95.4z"/>
	<path class="st2" d="M221.3,86.8h-17c-1.2,0-2.1,0.9-2.1,2.1c0,0,0,0,0,0v6.4c0,5.9,4.8,10.6,10.6,10.6c5.9,0,10.6-4.8,10.6-10.6
		l0,0V89C223.4,87.8,222.5,86.9,221.3,86.8C221.3,86.9,221.3,86.8,221.3,86.8z M219.1,95.4c0,3.5-2.9,6.4-6.4,6.4
		c-3.5,0-6.4-2.9-6.4-6.4v-4.2h12.8V95.4z"/>
	<path class="st2" d="M255.3,86.8h-17c-1.2,0-2.1,0.9-2.1,2.1c0,0,0,0,0,0v6.4c0,5.9,4.8,10.6,10.6,10.6c5.9,0,10.6-4.8,10.6-10.6
		l0,0V89C257.5,87.8,256.5,86.9,255.3,86.8C255.3,86.9,255.3,86.8,255.3,86.8z M253.2,95.4c0,3.5-2.9,6.4-6.4,6.4
		c-3.5,0-6.4-2.9-6.4-6.4v-4.2h12.8V95.4z"/>
	<path class="st3" d="M204.3,86.8h-17c-1.2,0-2.1,0.9-2.1,2.1c0,0,0,0,0,0v6.4c0,5.9,4.8,10.6,10.6,10.6c5.9,0,10.6-4.8,10.6-10.6
		l0,0V89C206.4,87.8,205.5,86.9,204.3,86.8C204.3,86.9,204.3,86.8,204.3,86.8z M202.1,95.4c0,3.5-2.9,6.4-6.4,6.4
		c-3.5,0-6.4-2.9-6.4-6.4v-4.2h12.8V95.4z"/>
	<path class="st3" d="M238.3,86.8h-17c-1.2,0-2.1,0.9-2.1,2.1c0,0,0,0,0,0v6.4c0,5.9,4.8,10.6,10.6,10.6c5.9,0,10.6-4.8,10.6-10.6
		l0,0V89C240.4,87.8,239.5,86.9,238.3,86.8C238.3,86.9,238.3,86.8,238.3,86.8z M236.2,95.4c0,3.5-2.9,6.4-6.4,6.4
		c-3.5,0-6.4-2.9-6.4-6.4v-4.2h12.8V95.4z"/>
	<rect x="185.1" y="72" class="st2" width="4.2" height="17"/>
	<rect x="202.1" y="72" class="st2" width="4.2" height="17"/>
	<rect x="168.1" y="72" class="st2" width="4.2" height="17"/>
	<rect x="219.1" y="72" class="st2" width="4.2" height="17"/>
	
		<rect x="145.7" y="78.3" transform="matrix(0.1239 -0.9923 0.9923 0.1239 55.3119 223.5797)" class="st2" width="17.1" height="4.2"/>
	
		<rect x="235.1" y="71.9" transform="matrix(0.9923 -0.1239 0.1239 0.9923 -8.1466 30.0248)" class="st2" width="4.2" height="17.1"/>
	<path class="st0" d="M249,137.9h-0.1c-3.2,0-5.8,2.3-6.3,5.4l-3.4,22.2h-19.4c-3.5,0-6.4,2.9-6.4,6.4s2.9,6.4,6.4,6.4c0,0,0,0,0,0
		h26c3.2,0,6-2.4,6.3-5.6l3.2-27.6c0-0.3,0-0.6,0-0.8C255.2,140.7,252.4,137.9,249,137.9z M251.1,144.6l-3.2,27.6
		c-0.1,1.1-1,1.9-2.1,1.9h-26c-1.2,0.1-2.2-0.8-2.3-2c-0.1-1.2,0.8-2.2,2-2.3c0.1,0,0.2,0,0.3,0h21.3c1,0,1.9-0.8,2.1-1.8l3.7-24
		c0.2-1.1,1.1-1.8,2.1-1.8l0,0c1.2,0,2.1,0.9,2.1,2.1C251.1,144.4,251.1,144.5,251.1,144.6L251.1,144.6z"/>
	
		<rect x="244.1" y="175.7" transform="matrix(0.9487 -0.3161 0.3161 0.9487 -46.0991 87.3814)" class="st0" width="4.2" height="20.2"/>
	
		<rect x="210.7" y="183.6" transform="matrix(0.3165 -0.9486 0.9486 0.3165 -25.2912 336.3563)" class="st0" width="20.2" height="4.2"/>
	<rect x="132" y="193.2" width="127.6" height="4.2"/>
	<text transform="matrix(1 0 0 1 22.54 96.42)" class="st4 st5">A</text>
	<path d="M125.7,22.6c-4.5-4.4-11.6-2.6-16.9-0.9c-6.1,2-12.4,6.9-14.6,13.1c-1.5,4.3-2,8.8-3.6,13.1c-1.5,4.1-1.9,8.5-3,12.7
		c-1.3,4.7-3.9,9-7.5,12.3C77,75.9,73.1,78,70,81c-0.6,0.6-0.6,1.5,0,2.1c0.1,0.1,0.2,0.2,0.3,0.2c2.4,1.3,5.6,0.6,7.9,2.2
		c2.8,2,4.9,5.8,6.5,8.7c3.5,6.9,6.1,13.8,6.5,21.6c0.3,7.3-1.5,14.6-1.7,21.9c-0.2,8,0,16.1,0,24.1c0,15.2-0.3,29.9,4,44.7
		c3.4,11.8,6.8,27.6,16.6,36c2.4,2,5,2.7,8,3.3c3.8,0.8,7.4,2.1,10.7,4c6,3.1,13.6,1.9,20.2,1.9c0.8,0,1.5-0.7,1.5-1.5
		s-0.7-1.5-1.5-1.5c-6.9,0-14.1,1.1-20.3-2.5c-5.7-3.3-13.4-2.5-18.1-7.4c-5.1-5.3-7.9-13-10.2-19.8c-2.5-6.9-4.5-14-6.1-21.2
		c-3.3-15.7-1.8-32.2-1.8-48.1c0-8.2-0.2-16.2,1-24.3c0.9-5.7,0.8-11.5-0.3-17.2c-1.4-6.8-4.1-13.2-7.9-19c-1.5-2.4-3.3-4.5-5.4-6.4
		c-2.6-2.2-5.2-0.8-8-2.3l0.3,2.4c4.8-4.6,10.3-7.4,14.3-12.8c4.4-5.8,4.4-12.8,6.4-19.5c1-3.5,2.4-6.8,3.1-10.5
		c0.9-4.4,2.3-7.7,5.6-10.8c4.3-4.1,16.5-10.3,22.1-4.9C125.1,26,127.2,23.9,125.7,22.6L125.7,22.6z"/>
	<path d="M122.2,23.5c2.7,0.4,3.9,2.2,6.9,2.1c2.8-0.1,5.4-1,8.2-1.2c3.7-0.3,7.4,0.1,11.1-0.2c4.2-0.3,7.9-0.8,12.1-0.4
		c15.5,1.2,30.7-2.1,46.1-1.6c7.2,0.2,14.3,1.6,21.5,1.5c7.8-0.1,15.5,0,23.3,0.4c7.1,0.3,14.9,1.4,21.9-0.1c4.4-0.9,9-1.4,13.5-1.4
		c2.4,0,5.2,0.6,7.3-0.7c1.6-1,0.1-3.6-1.5-2.6c-2.1,1.4-7.5,0.2-10,0.3c-3.8,0.1-7.1,1.1-10.9,1.7c-7.4,1.2-15.6,0.1-23-0.4
		c-7.7-0.5-15.4,0.2-23-0.2c-6.9-0.3-13.8-1.4-20.8-1.5c-14.6-0.3-28.9,2.9-43.5,1.7c-3.4-0.4-6.9-0.5-10.3-0.2
		c-4,0.5-7.9,0.1-11.9,0.4c-2.5,0.1-5,0.5-7.4,1.1c-1.7,0.6-3.6,0.6-5.3,0.1c-1.3-0.5-1.9-1.4-3.4-1.6
		C121.2,20.3,120.4,23.1,122.2,23.5L122.2,23.5z"/>
	<path d="M292.9,22c6.9-0.7,13.4,0.1,20.2,1c3.4,0.4,6.8-0.1,10.2,0c3.8,0.1,7.6,0.8,11.5,1.2c13.1,1.1,27.8,3.3,40.7,0.1
		c4-1,8.5-0.9,12.6-1.3c4.1-0.4,8.3-0.4,12.4,0c7.5,0.7,15.1,0.4,22.4-1.1c7.4-1.7,16-3.5,23.4-2.1c3.1,0.6,6.2,1.1,9.4,1.5
		c3.7,0.3,7.3,0.3,11-0.1c1.9-0.1,1.9-3.1,0-3c-3.8,0.2-7.2,0.6-11,0.1s-7.4-1.8-11.1-2.1c-3-0.3-6.3,0.3-9.2,0.6
		c-3.4,0.2-6.7,0.7-10,1.4c-15.6,3.8-31.8,0.6-47.6,2.8c-3.7,0.5-7,1.7-10.8,1.7c-3.6,0-7.2,0-10.8,0c-7.1,0-14.3-0.7-21.4-1.4
		c-3.8-0.4-7.6-1.1-11.5-1.1c-4.2,0-7.9,0.2-12-0.4c-6.1-1-12.3-1.2-18.4-0.6C291,19.2,291,22.2,292.9,22z"/>
	<text transform="matrix(1 0 0 1 306.18 107.25)" class="st4 st6">Distance: 3 km</text>
	<text transform="matrix(1 0 0 1 306.18 138.25)" class="st4 st6">Estimated Time: 50min</text>
	<text transform="matrix(1 0 0 1 306.18 169.25)" class="st4 st6">Total Price: 17.5 RMB</text>
	<text transform="matrix(1 0 0 1 137.37 227.48)" class="st4 st6">Ultra Cheap</text>
	<path d="M465,20.8c9.6-0.5,19.4-2.7,29-1c9.2,1.7,18.8,1.8,28.1,2.9c4.2,0.5,8.5,0.4,12.7,0.9c4,0.5,8,1.1,12,1.5
		c3.7,0.4,8.7,1.1,12.2,0c4.2-1.3,8.1-3.9,12.8-2.5c5.3,1.6,8.4,5.7,12.1,9.5c4.6,4.8,6.1,8.9,6.2,15.6c0,9.6,1.2,18.9,1.3,28.5
		c0.1,4.1-1.8,7.8-1.4,11.8c0.5,5.1,2.6,9.6,2.6,14.8c0.1,9.5,3,18,0.8,27.6c-1.1,5.6-2.6,11.1-4.3,16.6c-1.5,4.5-0.9,8.6-0.2,13.3
		s0,9.6,0.6,14.4c0.4,2.9,0.9,5.8,1.3,8.7c0.3,2.6-0.2,4.9-0.2,7.4c0,0.8,0.7,1.5,1.5,1.5s1.5-0.7,1.5-1.5c0-1.9,0.8-3.4,0.7-5.2
		c-0.2-2.5-1-5.3-1.3-7.8c-0.7-5.2-0.2-10.3-0.7-15.4c-0.5-5-1.9-9.5-0.3-14.4c1.8-5.5,3-11,4.3-16.6c1.1-4.2,1.5-8.6,1.2-12.9
		c-0.5-4.9-1.7-9.8-1.9-14.7c-0.1-4.3-0.8-8.5-1.9-12.6c-1.4-5.2,0.8-9.6,0.7-14.8c-0.1-4.6,0.2-9.1-0.7-13.6
		c-1-5.5-0.6-10.9-0.7-16.4c-0.2-9.5-5.7-15.9-12.6-22.1c-2.6-2.2-5.7-3.8-9.1-4.7c-3.6-1-7,0.4-10.5,1.6c-4.6,1.7-9.2,1.8-14.1,1.2
		c-5.3-0.5-10.5-1.2-15.9-1.8C526,19.6,521,19.3,516,19c-2.8-0.2-5.7-0.9-8.5-1.1c-3.2-0.3-6.4,0.2-9.5-0.3
		c-5.1-0.9-10.2-1.3-15.3-1.4c-5.9,0-11.8,1.2-17.7,1.5C463,17.8,463,20.8,465,20.8L465,20.8z"/>
	<path d="M148.4,252c6.5-2.4,14.6-1.2,21.4-1.2c3.5,0,6.9,0.8,10.4,0.9s7.1-0.2,10.6-0.2c7.7-0.1,15.6-0.5,23.2,0.6
		c6.5,0.9,13.1,1.3,19.7,1.4c13.9,0.2,27.3-3,41.1-2.7c6.6,0.2,13.3,0.5,19.9,0.1c3.8-0.3,7.5-0.9,11.3-1.2
		c4.3-0.3,8.4,0.3,12.6,0.6c1.9,0.1,1.9-2.9,0-3c-7.2-0.6-14.4-0.6-21.5,0.2c-7.3,0.9-14.9,0.5-22.2,0.4
		c-14.4-0.3-28.4,2.7-42.8,2.7c-7.2,0-13.9-1.1-21.1-1.8c-7.5-0.7-15.3-0.3-22.9-0.1c-7.1,0.2-14-0.7-21.1-0.7
		c-6.4,0-13.4-0.9-19.4,1.3C145.8,249.8,146.6,252.7,148.4,252L148.4,252z"/>
	<path d="M318,250.8c3.3-0.3,6-1.4,9.4-1.3c4.4,0.1,8.9,0,13.3,0c8.8,0,17.5-0.3,26.2,0.6c3.8,0.4,7.5,0.1,11.3,0.4
		c3.2,0.3,6.4,1,9.6,1c7,0,14.5-1.7,21.3-3c3.9-0.8,7.6-0.6,11.2-2.1c4.1-1.8,8.6-2.4,13-1.9c7.9,0.8,15.7,2.6,23.5,3.1
		c7.5,0.5,13.7,4.8,21.1,5c3.9,0.1,7.8-0.9,11.6-0.7c4.6,0.2,9,0.7,13.7,0.7c0.8,0,1.5-0.7,1.5-1.5s-0.7-1.5-1.5-1.5
		c-4.6,0-9.1-0.4-13.7-0.7c-3.9-0.2-7.7,0.8-11.6,0.7c-7.1-0.2-13.1-4.6-20.3-5.1c-8.1-0.5-16.2-2.2-24.3-3.1s-14.4,2.7-22.1,3.6
		s-15.7,3.5-23.4,3.4c-3.1,0-6.5-0.7-9.6-1c-4.3-0.4-8.4-0.3-12.7-0.9c-8-1.1-16.7-0.2-24.8-0.2c-4.4,0-8.9,0.1-13.3,0
		c-3.5-0.1-6.1,1-9.4,1.3C316.1,248,316.1,251,318,250.8L318,250.8z"/>
	<path d="M592.5,200.5c1.4-1.4,0.8-2.8,1.1-4.5c0.3-0.9,0.5-1.8,0.7-2.7c0.1-1.4,0-2.7-0.1-4.1c0-1.9-3-1.9-3,0
		c0.2,1.8,0.1,3.6-0.3,5.3c-0.2,0.5-0.3,1.1-0.4,1.7c0,0.6,0.3,1.7-0.2,2.1C589,199.8,591.2,201.9,592.5,200.5z"/>
	<path d="M500.7,252.7c2.8-0.1,5.5-0.8,8.4-0.8c2.6,0,5.2,0.7,7.8,0.8c4.9,0.1,9.8,0.6,14.8,0.6c5.9,0,11.9-0.4,17.7,0.6
		c5.4,1,10.9,1.1,16.3,0.5c4.1-0.5,9.2-1.1,13-2.9c3.4-1.6,5.7-5.4,7.4-8.6c2-4,3-8.3,4-12.6c0.5-2.4,1.7-4.6,2.1-7
		c0.3-3,0.4-6.1,0.2-9.2c0-0.8-0.7-1.5-1.5-1.5s-1.5,0.7-1.5,1.5c0.1,2.4,0.1,4.9,0,7.3c-0.3,2.8-1.5,5.3-2.2,8
		c-1.2,4.3-1.9,8.6-4,12.5c-2.8,5.2-6.4,7.1-11.9,8.4c-5.3,1.2-10.8,1.6-16.3,1.2c-4.7-0.3-9-1.3-13.8-1.3c-4.5,0-9.1,0.3-13.6-0.1
		c-4.7-0.4-9.5-0.4-14.1-1c-4.4-0.6-8.4,0.2-12.7,0.5C498.9,249.8,498.9,252.8,500.7,252.7L500.7,252.7z"/>
	<path d="M591.3,215.2c1.8-2.3,0.5-4,0.3-6.7c-0.2-3.4,2.1-6.2,2-9.7c0-1.9-3-1.9-3,0c0.1,2.9-1.7,5.2-2,8c-0.1,1-0.1,2.1,0.1,3.1
		c0.1,0.8,0.9,2.5,0.4,3.1C587.9,214.6,590,216.7,591.3,215.2L591.3,215.2z"/>
	<path class="st2" d="M257.4,88.5l-4.2-17c-0.2-0.9-1.1-1.6-2.1-1.6H140.5c-1,0-1.8,0.7-2.1,1.6l-4.2,17c-0.3,1.1,0.4,2.3,1.6,2.6
		c0.2,0,0.3,0.1,0.5,0.1h119.1c1.2,0,2.1-1,2.1-2.1C257.4,88.8,257.4,88.6,257.4,88.5z M138.9,86.8l3.2-12.8h107.3l3.2,12.8H138.9z"
		/>
</g>
</svg>
