<?xml version="1.0" encoding="utf-8"?>
<!-- Generator: Adobe Illustrator 21.1.0, SVG Export Plug-In . SVG Version: 6.00 Build 0)  -->
<svg version="1.1" id="Layer_1" xmlns="http://www.w3.org/2000/svg" xmlns:xlink="http://www.w3.org/1999/xlink" x="0px" y="0px"
	 viewBox="0 0 666 278" style="enable-background:new 0 0 666 278;" xml:space="preserve">
<style type="text/css">
	.st0{font-family:'FuturaHandwritten';}
	.st1{font-size:48px;}
	.st2{font-size:23px;}
</style>
<title>Artboard 1</title>
<g id="Layer_2">
	<text transform="matrix(1 0 0 1 22.54 96.42)" class="st0 st1">A</text>
	<path d="M125.7,22.6c-4.5-4.4-11.6-2.6-16.9-0.9c-6.1,2-12.4,6.9-14.6,13.1c-1.5,4.3-2,8.8-3.6,13.1c-1.5,4.1-1.9,8.5-3,12.7
		c-1.3,4.7-3.9,9-7.5,12.3c-3.1,3-7,5.1-10.1,8.1c-0.6,0.6-0.6,1.5,0,2.1c0.1,0.1,0.2,0.2,0.3,0.2c2.4,1.3,5.6,0.6,7.9,2.2
		c2.8,2,4.9,5.8,6.5,8.7c3.5,6.9,6.1,13.8,6.5,21.6c0.3,7.3-1.5,14.6-1.7,21.9c-0.2,8,0,16.1,0,24.1c0,15.2-0.3,29.9,4,44.7
		c3.4,11.8,6.8,27.6,16.6,36c2.4,2,5,2.7,8,3.3c3.8,0.8,7.4,2.1,10.7,4c6,3.1,13.6,1.9,20.2,1.9c0.8,0,1.5-0.7,1.5-1.5
		s-0.7-1.5-1.5-1.5c-6.9,0-14.1,1.1-20.3-2.5c-5.7-3.3-13.4-2.5-18.1-7.4c-5.1-5.3-7.9-13-10.2-19.8c-2.5-6.9-4.5-14-6.1-21.2
		c-3.3-15.7-1.8-32.2-1.8-48.1c0-8.2-0.2-16.2,1-24.3c0.9-5.7,0.8-11.5-0.3-17.2c-1.4-6.8-4.1-13.2-7.9-19c-1.5-2.4-3.3-4.5-5.4-6.4
		c-2.6-2.2-5.2-0.8-8-2.3l0.3,2.4c4.8-4.6,10.3-7.4,14.3-12.8c4.4-5.8,4.4-12.8,6.4-19.5c1-3.5,2.4-6.8,3.1-10.5
		c0.9-4.4,2.3-7.7,5.6-10.8c4.3-4.1,16.5-10.3,22.1-4.9C125.1,26,127.2,23.9,125.7,22.6L125.7,22.6z"/>
	<path d="M122.2,23.5c2.7,0.4,3.9,2.2,6.9,2.1c2.8-0.1,5.4-1,8.2-1.2c3.7-0.3,7.4,0.1,11.1-0.2c4.2-0.3,7.9-0.8,12.1-0.4
		c15.5,1.2,30.7-2.1,46.1-1.6c7.2,0.2,14.3,1.6,21.5,1.5c7.8-0.1,15.5,0,23.3,0.4c7.1,0.3,14.9,1.4,21.9-0.1c4.4-0.9,9-1.4,13.5-1.4
		c2.4,0,5.2,0.6,7.3-0.7c1.6-1,0.1-3.6-1.5-2.6c-2.1,1.4-7.5,0.2-10,0.3c-3.8,0.1-7.1,1.1-10.9,1.7c-7.4,1.2-15.6,0.1-23-0.4
		c-7.7-0.5-15.4,0.2-23-0.2c-6.9-0.3-13.8-1.4-20.8-1.5c-14.6-0.3-28.9,2.9-43.5,1.7c-3.4-0.4-6.9-0.5-10.3-0.2
		c-4,0.5-7.9,0.1-11.9,0.4c-2.5,0.1-5,0.5-7.4,1.1c-1.7,0.6-3.6,0.6-5.3,0.1c-1.3-0.5-1.9-1.4-3.4-1.6
		C121.2,20.3,120.4,23.1,122.2,23.5L122.2,23.5z"/>
	<path d="M292.9,22c6.9-0.7,13.4,0.1,20.2,1c3.4,0.4,6.8-0.1,10.2,0c3.8,0.1,7.6,0.8,11.5,1.2c13.1,1.1,27.8,3.3,40.7,0.1
		c4-1,8.5-0.9,12.6-1.3s8.3-0.4,12.4,0c7.5,0.7,15.1,0.4,22.4-1.1c7.4-1.7,16-3.5,23.4-2.1c3.1,0.6,6.2,1.1,9.4,1.5
		c3.7,0.3,7.3,0.3,11-0.1c1.9-0.1,1.9-3.1,0-3c-3.8,0.2-7.2,0.6-11,0.1s-7.4-1.8-11.1-2.1c-3-0.3-6.3,0.3-9.2,0.6
		c-3.4,0.2-6.7,0.7-10,1.4c-15.6,3.8-31.8,0.6-47.6,2.8c-3.7,0.5-7,1.7-10.8,1.7c-3.6,0-7.2,0-10.8,0c-7.1,0-14.3-0.7-21.4-1.4
		c-3.8-0.4-7.6-1.1-11.5-1.1c-4.2,0-7.9,0.2-12-0.4c-6.1-1-12.3-1.2-18.4-0.6C291,19.2,291,22.2,292.9,22z"/>
	<text transform="matrix(1 0 0 1 306.18 107.25)" class="st0 st2">Distance: 3 km</text>
	<text transform="matrix(1 0 0 1 306.18 138.25)" class="st0 st2">Estimated Time: 50min</text>
	<text transform="matrix(1 0 0 1 306.18 169.25)" class="st0 st2">Total Price: 17.5 RMB</text>
	<text transform="matrix(1 0 0 1 137.37 227.48)" class="st0 st2">Ultra Cheap</text>
	<path d="M465,20.8c9.6-0.5,19.4-2.7,29-1c9.2,1.7,18.8,1.8,28.1,2.9c4.2,0.5,8.5,0.4,12.7,0.9c4,0.5,8,1.1,12,1.5
		c3.7,0.4,8.7,1.1,12.2,0c4.2-1.3,8.1-3.9,12.8-2.5c5.3,1.6,8.4,5.7,12.1,9.5c4.6,4.8,6.1,8.9,6.2,15.6c0,9.6,1.2,18.9,1.3,28.5
		c0.1,4.1-1.8,7.8-1.4,11.8c0.5,5.1,2.6,9.6,2.6,14.8c0.1,9.5,3,18,0.8,27.6c-1.1,5.6-2.6,11.1-4.3,16.6c-1.5,4.5-0.9,8.6-0.2,13.3
		s0,9.6,0.6,14.4c0.4,2.9,0.9,5.8,1.3,8.7c0.3,2.6-0.2,4.9-0.2,7.4c0,0.8,0.7,1.5,1.5,1.5s1.5-0.7,1.5-1.5c0-1.9,0.8-3.4,0.7-5.2
		c-0.2-2.5-1-5.3-1.3-7.8c-0.7-5.2-0.2-10.3-0.7-15.4c-0.5-5-1.9-9.5-0.3-14.4c1.8-5.5,3-11,4.3-16.6c1.1-4.2,1.5-8.6,1.2-12.9
		c-0.5-4.9-1.7-9.8-1.9-14.7c-0.1-4.3-0.8-8.5-1.9-12.6c-1.4-5.2,0.8-9.6,0.7-14.8c-0.1-4.6,0.2-9.1-0.7-13.6
		c-1-5.5-0.6-10.9-0.7-16.4c-0.2-9.5-5.7-15.9-12.6-22.1c-2.6-2.2-5.7-3.8-9.1-4.7c-3.6-1-7,0.4-10.5,1.6c-4.6,1.7-9.2,1.8-14.1,1.2
		c-5.3-0.5-10.5-1.2-15.9-1.8c-4.8-1-9.8-1.3-14.8-1.6c-2.8-0.2-5.7-0.9-8.5-1.1c-3.2-0.3-6.4,0.2-9.5-0.3
		c-5.1-0.9-10.2-1.3-15.3-1.4c-5.9,0-11.8,1.2-17.7,1.5C463,17.8,463,20.8,465,20.8L465,20.8z"/>
	<path d="M148.4,252c6.5-2.4,14.6-1.2,21.4-1.2c3.5,0,6.9,0.8,10.4,0.9s7.1-0.2,10.6-0.2c7.7-0.1,15.6-0.5,23.2,0.6
		c6.5,0.9,13.1,1.3,19.7,1.4c13.9,0.2,27.3-3,41.1-2.7c6.6,0.2,13.3,0.5,19.9,0.1c3.8-0.3,7.5-0.9,11.3-1.2
		c4.3-0.3,8.4,0.3,12.6,0.6c1.9,0.1,1.9-2.9,0-3c-7.2-0.6-14.4-0.6-21.5,0.2c-7.3,0.9-14.9,0.5-22.2,0.4
		c-14.4-0.3-28.4,2.7-42.8,2.7c-7.2,0-13.9-1.1-21.1-1.8c-7.5-0.7-15.3-0.3-22.9-0.1c-7.1,0.2-14-0.7-21.1-0.7
		c-6.4,0-13.4-0.9-19.4,1.3C145.8,249.8,146.6,252.7,148.4,252L148.4,252z"/>
	<path d="M318,250.8c3.3-0.3,6-1.4,9.4-1.3c4.4,0.1,8.9,0,13.3,0c8.8,0,17.5-0.3,26.2,0.6c3.8,0.4,7.5,0.1,11.3,0.4
		c3.2,0.3,6.4,1,9.6,1c7,0,14.5-1.7,21.3-3c3.9-0.8,7.6-0.6,11.2-2.1c4.1-1.8,8.6-2.4,13-1.9c7.9,0.8,15.7,2.6,23.5,3.1
		c7.5,0.5,13.7,4.8,21.1,5c3.9,0.1,7.8-0.9,11.6-0.7c4.6,0.2,9,0.7,13.7,0.7c0.8,0,1.5-0.7,1.5-1.5s-0.7-1.5-1.5-1.5
		c-4.6,0-9.1-0.4-13.7-0.7c-3.9-0.2-7.7,0.8-11.6,0.7c-7.1-0.2-13.1-4.6-20.3-5.1c-8.1-0.5-16.2-2.2-24.3-3.1s-14.4,2.7-22.1,3.6
		s-15.7,3.5-23.4,3.4c-3.1,0-6.5-0.7-9.6-1c-4.3-0.4-8.4-0.3-12.7-0.9c-8-1.1-16.7-0.2-24.8-0.2c-4.4,0-8.9,0.1-13.3,0
		c-3.5-0.1-6.1,1-9.4,1.3C316.1,248,316.1,251,318,250.8L318,250.8z"/>
	<path d="M592.5,200.5c1.4-1.4,0.8-2.8,1.1-4.5c0.3-0.9,0.5-1.8,0.7-2.7c0.1-1.4,0-2.7-0.1-4.1c0-1.9-3-1.9-3,0
		c0.2,1.8,0.1,3.6-0.3,5.3c-0.2,0.5-0.3,1.1-0.4,1.7c0,0.6,0.3,1.7-0.2,2.1C589,199.8,591.2,201.9,592.5,200.5z"/>
	<path d="M500.7,252.7c2.8-0.1,5.5-0.8,8.4-0.8c2.6,0,5.2,0.7,7.8,0.8c4.9,0.1,9.8,0.6,14.8,0.6c5.9,0,11.9-0.4,17.7,0.6
		c5.4,1,10.9,1.1,16.3,0.5c4.1-0.5,9.2-1.1,13-2.9c3.4-1.6,5.7-5.4,7.4-8.6c2-4,3-8.3,4-12.6c0.5-2.4,1.7-4.6,2.1-7
		c0.3-3,0.4-6.1,0.2-9.2c0-0.8-0.7-1.5-1.5-1.5s-1.5,0.7-1.5,1.5c0.1,2.4,0.1,4.9,0,7.3c-0.3,2.8-1.5,5.3-2.2,8
		c-1.2,4.3-1.9,8.6-4,12.5c-2.8,5.2-6.4,7.1-11.9,8.4c-5.3,1.2-10.8,1.6-16.3,1.2c-4.7-0.3-9-1.3-13.8-1.3c-4.5,0-9.1,0.3-13.6-0.1
		c-4.7-0.4-9.5-0.4-14.1-1c-4.4-0.6-8.4,0.2-12.7,0.5C498.9,249.8,498.9,252.8,500.7,252.7L500.7,252.7z"/>
	<path d="M591.3,215.2c1.8-2.3,0.5-4,0.3-6.7c-0.2-3.4,2.1-6.2,2-9.7c0-1.9-3-1.9-3,0c0.1,2.9-1.7,5.2-2,8c-0.1,1-0.1,2.1,0.1,3.1
		c0.1,0.8,0.9,2.5,0.4,3.1C587.9,214.6,590,216.7,591.3,215.2L591.3,215.2z"/>
	<g>
		<g>
			<path d="M177.3,162.4l-19.5,0l-3.4-22.2c-0.5-3.1-3.2-5.5-6.3-5.5c0,0-0.1,0-0.1,0c-3.5,0-6.4,2.8-6.4,6.3c0,0.3,0,0.6,0,0.8
				l3.3,27.7c0.4,3.2,3.1,5.7,6.3,5.7c0,0,0,0,0,0h26c3.5,0,6.4-2.9,6.4-6.4S180.9,162.4,177.3,162.4z M177.3,171h-26.1c0,0,0,0,0,0
				c-1.1,0-2-0.8-2.1-1.9l-3.3-27.7c0-0.1,0-0.2,0-0.3c0-1.2,1-2.1,2.2-2.1c0,0,0,0,0,0c1.1,0,2,0.8,2.1,1.8l3.7,24.1
				c0.2,1,1.1,1.8,2.1,1.8l21.3,0c1.2,0,2.1,1,2.1,2.1C179.5,170,178.5,171,177.3,171z"/>
		</g>
	</g>
	<g>
		<g>
			<rect x="140.6" y="180.5" transform="matrix(0.3164 -0.9486 0.9486 0.3164 -70.2674 267.8)" width="20.2" height="4.3"/>
		</g>
	</g>
	<g>
		<g>
			<rect x="174.1" y="172.5" transform="matrix(0.9487 -0.3162 0.3162 0.9487 -48.7102 65.1053)" width="4.3" height="20.2"/>
		</g>
	</g>
	<g>
		<g>
			<path d="M231.1,143.2h-59.7c-1.2,0-2.1,1-2.1,2.1v8.5c0,1.2,1,2.1,2.1,2.1h59.7c1.2,0,2.1-1,2.1-2.1v-8.5
				C233.3,144.2,232.3,143.2,231.1,143.2z M229,151.7h-55.4v-4.3H229L229,151.7L229,151.7z"/>
		</g>
	</g>
	<g>
		<g>
			<path d="M205.6,151.7H197c-1.2,0-2.1,1-2.1,2.1v38.4c0,1.2,1,2.1,2.1,2.1h8.5c1.2,0,2.1-1,2.1-2.1v-38.4
				C207.7,152.7,206.7,151.7,205.6,151.7z M203.4,190.1h-4.3V156h4.3V190.1z"/>
		</g>
	</g>
	<g>
		<g>
			<path d="M263.1,85.2l-4.3-17c-0.2-0.9-1.1-1.6-2.1-1.6H145.9c-1,0-1.8,0.7-2.1,1.6l-4.3,17c-0.2,0.6,0,1.3,0.4,1.8
				c0.4,0.5,1,0.8,1.7,0.8H261c0.7,0,1.3-0.3,1.7-0.8C263.1,86.5,263.2,85.8,263.1,85.2z M144.4,83.5l3.2-12.8h107.5l3.2,12.8H144.4
				z"/>
		</g>
	</g>
	<g>
		<g>
			<path d="M209.8,83.5h-17.1c-1.2,0-2.1,1-2.1,2.1v6.4c0,5.9,4.8,10.7,10.7,10.7c5.9,0,10.7-4.8,10.7-10.7v-6.4
				C212,84.5,211,83.5,209.8,83.5z M207.7,92.1c0,3.5-2.9,6.4-6.4,6.4c-3.5,0-6.4-2.9-6.4-6.4v-4.3h12.8V92.1z"/>
		</g>
	</g>
	<g>
		<g>
			<path d="M192.8,83.5h-17.1c-1.2,0-2.1,1-2.1,2.1v6.4c0,5.9,4.8,10.7,10.7,10.7c5.9,0,10.7-4.8,10.7-10.7v-6.4
				C194.9,84.5,194,83.5,192.8,83.5z M190.7,92.1c0,3.5-2.9,6.4-6.4,6.4s-6.4-2.9-6.4-6.4v-4.3h12.8V92.1L190.7,92.1z"/>
		</g>
	</g>
	<g>
		<g>
			<path d="M175.7,83.5h-17.1c-1.2,0-2.1,1-2.1,2.1v6.4c0,5.9,4.8,10.7,10.7,10.7s10.7-4.8,10.7-10.7v-6.4
				C177.9,84.5,176.9,83.5,175.7,83.5z M173.6,92.1c0,3.5-2.9,6.4-6.4,6.4s-6.4-2.9-6.4-6.4v-4.3h12.8V92.1z"/>
		</g>
	</g>
	<g>
		<g>
			<path d="M158.7,83.5h-17c-1.2,0-2.1,1-2.1,2.1v6.4c0,5.9,4.8,10.7,10.7,10.7c5.9,0,10.7-4.8,10.7-10.7v-6.4
				C160.8,84.5,159.9,83.5,158.7,83.5z M156.6,92.1c0,3.5-2.9,6.4-6.4,6.4c-3.5,0-6.4-2.9-6.4-6.4v-4.3h12.8V92.1z"/>
		</g>
	</g>
	<g>
		<g>
			<path d="M226.9,83.5h-17.1c-1.2,0-2.1,1-2.1,2.1v6.4c0,5.9,4.8,10.7,10.7,10.7c5.9,0,10.7-4.8,10.7-10.7v-6.4
				C229,84.5,228.1,83.5,226.9,83.5z M224.8,92.1c0,3.5-2.9,6.4-6.4,6.4s-6.4-2.9-6.4-6.4v-4.3h12.8V92.1z"/>
		</g>
	</g>
	<g>
		<g>
			<path d="M243.9,83.5h-17.1c-1.2,0-2.1,1-2.1,2.1v6.4c0,5.9,4.8,10.7,10.7,10.7c5.9,0,10.7-4.8,10.7-10.7v-6.4
				C246.1,84.5,245.1,83.5,243.9,83.5z M241.8,92.1c0,3.5-2.9,6.4-6.4,6.4s-6.4-2.9-6.4-6.4v-4.3h12.8V92.1z"/>
		</g>
	</g>
	<g>
		<g>
			<path d="M261,83.5h-17.1c-1.2,0-2.1,1-2.1,2.1v6.4c0,5.9,4.8,10.7,10.7,10.7c5.9,0,10.7-4.8,10.7-10.7v-6.4
				C263.1,84.5,262.2,83.5,261,83.5z M258.9,92.1c0,3.5-2.9,6.4-6.4,6.4c-3.5,0-6.4-2.9-6.4-6.4v-4.3h12.8V92.1z"/>
		</g>
	</g>
	<g>
		<g>
			<rect x="190.7" y="68.6" width="4.3" height="17.1"/>
		</g>
	</g>
	<g>
		<g>
			<rect x="207.7" y="68.6" width="4.3" height="17.1"/>
		</g>
	</g>
	<g>
		<g>
			<rect x="173.6" y="68.6" width="4.3" height="17.1"/>
		</g>
	</g>
	<g>
		<g>
			<rect x="224.8" y="68.6" width="4.3" height="17.1"/>
		</g>
	</g>
	<g>
		<g>
			<rect x="151.2" y="75" transform="matrix(0.124 -0.9923 0.9923 0.124 63.3839 226.0978)" width="17.2" height="4.3"/>
		</g>
	</g>
	<g>
		<g>
			<rect x="240.7" y="68.6" transform="matrix(0.9923 -0.124 0.124 0.9923 -7.6921 30.7108)" width="4.3" height="17.2"/>
		</g>
	</g>
	<g>
		<g>
			<path d="M254.7,134.7c0,0-0.1,0-0.1,0c-3.2,0-5.9,2.3-6.3,5.4l-3.5,22.3l-19.5,0c-3.5,0-6.4,2.9-6.4,6.4s2.9,6.4,6.4,6.4h26
				c0,0,0,0,0,0c3.3,0,6-2.4,6.4-5.7l3.3-27.7c0-0.3,0.1-0.6,0-0.8C261,137.5,258.1,134.7,254.7,134.7z M256.7,141.4l-3.3,27.7
				c-0.1,1.1-1,1.9-2.1,1.9c0,0,0,0,0,0h-26c-1.2,0-2.1-1-2.1-2.1c0-1.2,1-2.1,2.1-2.1l21.3,0c1,0,1.9-0.8,2.1-1.8l3.7-24.1
				c0.2-1,1.1-1.8,2.1-1.8c0,0,0,0,0,0c1.2,0,2.1,0.9,2.1,2.1C256.8,141.2,256.7,141.3,256.7,141.4z"/>
		</g>
	</g>
	<g>
		<g>
			<rect x="249.8" y="172.5" transform="matrix(0.9487 -0.3162 0.3162 0.9487 -44.829 89.0292)" width="4.3" height="20.2"/>
		</g>
	</g>
	<g>
		<g>
			<rect x="216.2" y="180.5" transform="matrix(0.3165 -0.9486 0.9486 0.3165 -18.5297 339.5523)" width="20.2" height="4.3"/>
		</g>
	</g>
	<g>
		<g>
			<rect x="137.4" y="190.1" width="127.9" height="4.3"/>
		</g>
	</g>
</g>
</svg>
