<?xml version="1.0" encoding="utf-8"?>
<!-- Generator: Adobe Illustrator 21.1.0, SVG Export Plug-In . SVG Version: 6.00 Build 0)  -->
<svg version="1.1" id="Layer_1" xmlns="http://www.w3.org/2000/svg" xmlns:xlink="http://www.w3.org/1999/xlink" x="0px" y="0px"
	 viewBox="0 0 800 200" style="enable-background:new 0 0 800 200;" xml:space="preserve">
<style type="text/css">
	.st0{font-family:'FuturaHandwritten';}
	.st1{font-size:102.62px;}
	.st2{font-size:19px;}
	.st3{font-size:18px;}
	.st4{fill:#6E6E6E;}
	.st5{fill:#A8A89E;}
	.st6{fill:#E6E6E6;}
	.st7{fill:#383856;}
	.st8{fill:#FFD33F;}
	.st9{fill:#EA3836;}
	.st10{fill:#91CECE;}
	.st11{fill:#FFAC3E;}
	.st12{fill:#83B2B7;}
	.st13{fill:#D62121;}
	.st14{fill:#202033;}
</style>
<title>Artboard 1</title>
<text transform="matrix(1 0 0 1 214.9 124.77)" class="st0 st1">+</text>
<text transform="matrix(1 0 0 1 524.79 123.19)" class="st0 st1">=</text>
<text transform="matrix(1 0 0 1 611.69 169.7)" class="st0 st2">1g Aluminum Foil</text>
<text transform="matrix(1 0 0 1 30.0999 169.7001)" class="st0 st3">You, the couch potato</text>
<path d="M680.8,37.4l-2.5,10.7h-1.1l2.5-10.7H680.8z M681.1,37.4l-2.5,10.7h0.5l2.5-10.7H681.1z M677.9,37.3L675.3,48h0.5l2.5-10.7
	H677.9z M683.3,37.5l-2.5,10.7h0.5l2.5-10.7H683.3z M675.3,37.3L672.8,48h1l2.5-10.7L675.3,37.3z M689.1,37.6l-2.5,10.7h0.5
	l2.5-10.7H689.1z M691.2,48.5h0.5l2.5-10.7h-0.5L691.2,48.5z M718.9,116.2l0.8,2.5c0,9.4-19,14.4-36.1,14.4s-36.1-5.1-36.1-14.4
	l0.8-2.8V44.3l-0.8-1.9c0-9.4,19-14.5,36.1-14.5s36.1,5.1,36.1,14.5l-0.8,1.5L718.9,116.2z M714.1,82.4c0,0-3.3,3.7-14.5,5.6
	c0,0.2,0,0.4,0,0.6c0,8.3-6.7,15.1-15.1,15.1s-15.1-6.7-15.1-15.1c0,0,0,0,0,0c0-0.2,0-0.3,0-0.5c-12-1.9-16.3-5.6-16.3-5.6v36.3
	c0,4,11.6,9.6,30.5,9.6s30.5-5.6,30.5-9.6L714.1,82.4L714.1,82.4z M684.5,101.6c7.2,0,13-5.8,13-13c0-0.2,0-0.4,0-0.6
	c-0.7-7.2-7.1-12.4-14.3-11.7c-6.2,0.6-11,5.4-11.7,11.6V88c0,0.2,0,0.4,0,0.6C671.5,95.7,677.3,101.6,684.5,101.6L684.5,101.6z
	 M714.1,42.4c0-4-11.6-9.6-30.5-9.6s-30.5,5.6-30.5,9.6s11.6,9.6,30.5,9.6S714.1,46.4,714.1,42.4L714.1,42.4z M692.4,37.8l-2.5,10.7
	h1.1l2.5-10.7H692.4z M685.9,37.6l-2.5,10.7h0.5l2.5-10.7L685.9,37.6z M684.3,37.6l-2.5,10.7h1.1l2.5-10.7H684.3z M690.5,37.8
	L688,48.4h0.5l2.5-10.7L690.5,37.8z M687.6,37.7l-2.5,10.7h1.1l2.5-10.7H687.6z M671.8,112.2c-1.5-0.6-2.1-1-2.1-1.8
	c0-0.6,0.5-1.3,1.8-1.3c0.8,0,1.5,0.2,2.2,0.5l0.5-1.6c-0.8-0.4-1.7-0.6-2.6-0.6c-2.4,0-3.8,1.4-3.8,3.1c0,1.6,1.1,2.5,2.9,3.2
	c1.4,0.5,1.9,1,1.9,1.8s-0.7,1.5-2,1.5c-0.9,0-1.8-0.2-2.6-0.7l-0.4,1.6c0.9,0.5,1.9,0.7,2.9,0.7c2.8,0,4.1-1.5,4.1-3.3
	C674.6,113.8,673.7,112.9,671.8,112.2L671.8,112.2z M685.2,113c0,3.6-2.2,5.7-5.2,5.7s-5-2.3-5-5.5s2.1-5.7,5.2-5.7
	S685.2,109.8,685.2,113L685.2,113z M683.1,113.1c0-2-1-4-3-4s-3,1.8-3,4.1s1.1,4,3,4S683.1,115.3,683.1,113.1L683.1,113.1z
	 M692.6,114c0,2.1-0.8,3.1-2.3,3.1s-2.2-1-2.2-3.1v-6.3h-2v6.2c0,3.4,1.6,4.8,4.1,4.8s4.3-1.5,4.3-4.8v-6.2h-2L692.6,114L692.6,114z
	 M702.3,108.5c0.7,0.6,1.1,1.5,1.1,2.4c0,0.9-0.3,1.8-0.9,2.5c-0.9,0.8-2.2,1.2-3.4,1.2c-0.3,0-0.7,0-1-0.1v4.1h-2v-10.8
	c1-0.2,2-0.2,3-0.2C700.2,107.4,701.4,107.8,702.3,108.5L702.3,108.5z M701.4,111c0-1.2-0.8-1.8-2.2-1.8c-0.4,0-0.8,0-1.1,0.1v3.7
	c0.3,0.1,0.7,0.1,1,0.1C700.5,112.9,701.4,112.2,701.4,111L701.4,111z"/>
<g>
	<polygon class="st4" points="394,52.8 386.6,58 366.9,30 374.4,24.7 	"/>
	<g>
		<path class="st5" d="M453.4,116.5L453.4,116.5c0-2.5-2-4.6-4.6-4.6h-15.7c-2.5,0-4.6,2-4.6,4.6l0,0c0,2.5,2,4.6,4.6,4.6h15.7
			C451.4,121,453.4,119,453.4,116.5z"/>
		<path class="st5" d="M430,97.6L430,97.6c0-2.5-2-4.6-4.6-4.6h-15.7c-2.5,0-4.6,2-4.6,4.6l0,0c0,2.5,2,4.6,4.6,4.6h15.7
			C427.9,102.1,430,100.1,430,97.6z"/>
	</g>
	<path class="st6" d="M382.6,52.4L375.3,89l-0.1,0H368c-0.7,0-1.3,0.1-1.9,0.2l9.3-47.1L382.6,52.4z"/>
	<path class="st4" d="M409.5,119.2v17.4h-44.5c-5.4,0-9.6-4.6-9.1-9.9l3-29.3c0.3-4.1,3.3-7.3,7.2-8.2c0.6-0.1,1.3-0.2,1.9-0.2h7.3
		l0.1,0l31.3,23.7C408.5,114.4,409.5,116.7,409.5,119.2z"/>
	<path d="M463.2,134.2c-1.3,0-2.3,1-2.3,2.3c0,1.3,1,2.3,2.3,2.3c1.3,0,2.3-1,2.3-2.3C465.5,135.2,464.5,134.2,463.2,134.2z"/>
	<path d="M454.1,134.3h-10.9v-10.9h5.7c3.8,0,6.8-3.1,6.8-6.8s-3.1-6.8-6.8-6.8h-5.7V89c0-6.2-2-11.4-6-15.3
		c-8-7.9-21.1-7.8-21.9-7.8h-33l1.6-7.9l0.9,1.3c0.3,0.5,0.9,0.8,1.5,0.9c0.1,0,0.3,0,0.4,0c0.5,0,0.9-0.1,1.3-0.4l7.5-5.2
		c0.3-0.2,0.6-0.5,0.7-0.9c0.6-0.6,1.8-1.8,4-4c4.3-4.3,2-10.1,0.2-12.6l-10-14.1c-0.7-1-2.1-1.3-3.2-0.5c-1,0.7-1.3,2.1-0.5,3.2
		l10,14.1c0.1,0.2,2.8,4.1,0.2,6.7c-1.1,1.1-1.9,1.9-2.6,2.6l-18.1-25.8c-0.3-0.5-0.9-0.8-1.5-0.9c-0.6-0.1-1.2,0-1.7,0.4l-7.5,5.2
		c-1,0.7-1.3,2.1-0.6,3.2l7.9,11.3l-8.9,44.8c-1.4,0.5-2.7,1.3-3.8,2.3c-2.1,1.9-3.4,4.6-3.6,7.4l-3,29.3c0,0,0,0.1,0,0.1
		c-0.2,2.8,0.6,5.6,2.3,7.9h-4.7c-1.3,0-2.3,1-2.3,2.3c0,1.3,1,2.3,2.3,2.3h103c1.3,0,2.3-1,2.3-2.3
		C456.4,135.3,455.4,134.3,454.1,134.3z M443.2,114.3h5.7c1.3,0,2.3,1,2.3,2.3s-1,2.3-2.3,2.3h-5.7V114.3z M370.1,30.5l3.7-2.6
		l17.1,24.4l-3.7,2.6L370.1,30.5z M376.5,47.7l3.6,5.2l-6.7,33.8h-4.6L376.5,47.7z M407.2,134.3h-42.2c-1.9,0-3.7-0.8-5.1-2.3
		c-1.3-1.4-1.9-3.3-1.8-5.2l3-29.3c0,0,0,0,0,0c0.3-3.5,3.3-6.3,6.8-6.3h6.5l30.7,23.2c1.3,1.3,2,3,2,4.8L407.2,134.3L407.2,134.3
		L407.2,134.3z M438.6,134.3h-26.9v-5.1l26.9-5.4V134.3z M438.6,118.8h-5.5c-1.3,0-2.3-1-2.3-2.3c0-1.3,1-2.3,2.3-2.3h5.5V118.8z
		 M438.6,109.7h-5.5c-3.8,0-6.8,3-6.8,6.8c0,1.9,0.8,3.5,2,4.8l-16.5,3.3v-5.4c0-2.3-0.7-4.5-2-6.4l8.8-8.4h6.8
		c3.8,0,6.8-3.1,6.8-6.8c0-3.8-3.1-6.8-6.8-6.8h-15.7c-3.8,0-6.8,3.1-6.8,6.8c0,3.8,3.1,6.8,6.8,6.8h2.3l-5.5,5.2L377.9,88l3.5-17.6
		h33.9c0,0,0,0,0,0c0.1,0,11.9-0.1,18.7,6.5c3.1,3,4.6,7.1,4.6,12.1L438.6,109.7L438.6,109.7z M409.7,99.9c-1.3,0-2.3-1-2.3-2.3
		c0-1.3,1-2.3,2.3-2.3h15.7c1.3,0,2.3,1,2.3,2.3s-1,2.3-2.3,2.3H409.7z"/>
	<path d="M366.7,124.1c-0.1,0-0.2,0-0.2,0c-1.2,0-2.1,0.9-2.3,2c-0.1,1.2,0.8,2.4,2,2.5c0.1,0,0.2,0,0.2,0c1.2,0,2.1-0.9,2.3-2
		c0.1-0.6-0.1-1.2-0.5-1.7C367.8,124.4,367.3,124.1,366.7,124.1z"/>
	<path d="M369.6,96.9c-0.1,0-0.2,0-0.2,0c-1.2,0-2.1,0.9-2.3,2l-1.9,18.1c-0.1,1.2,0.8,2.4,2,2.5c0.1,0,0.2,0,0.2,0
		c1.2,0,2.1-0.9,2.3-2l1.9-18.1C371.8,98.2,370.9,97,369.6,96.9z"/>
	<path d="M397.8,122.1l-16-11.6c-1-0.7-2.4-0.5-3.2,0.5c-0.7,1-0.5,2.4,0.5,3.2l16,11.6c0.4,0.3,0.9,0.4,1.3,0.4
		c0.7,0,1.4-0.3,1.8-0.9C399.1,124.3,398.8,122.9,397.8,122.1z"/>
</g>
<text transform="matrix(1 0 0 1 333.6034 169.6999)" class="st0 st3">Extensive Running</text>
<g>
	<rect x="64.2" y="45.4" width="26.4" height="4.1"/>
	<rect x="56.1" y="45.4" width="4.1" height="4.1"/>
	<rect x="72.3" y="61.6" width="4.1" height="4.1"/>
	<rect x="52" y="61.6" width="16.2" height="4.1"/>
	<rect x="62.2" y="77.8" width="20.3" height="4.1"/>
	<rect x="56.1" y="94" width="34.5" height="4.1"/>
	<rect x="60.1" y="110.2" width="16.2" height="4.1"/>
	<rect x="52" y="110.2" width="4.1" height="4.1"/>
	<rect x="56.1" y="126.4" width="14.2" height="4.1"/>
	<path class="st7" d="M144.3,35.2h9.1v6.1c-6.5,0-12.7,2.6-17.2,7.1c-0.6-1.3-1-2.7-1-4.1C135.1,39.3,139.2,35.2,144.3,35.2z"/>
	<path class="st8" d="M153.4,44.3c0,5-4,9.1-9.1,9.1c-3.5,0-6.6-1.9-8.2-5c4.6-4.6,10.8-7.1,17.2-7.1V44.3z"/>
	<path class="st9" d="M98.7,106.2l-16.8,15.1c-2,1.8-2.3,4.8-0.7,7l0,0c1.7,2.3,5,2.8,7.3,1c0.1,0,0.1-0.1,0.2-0.1l18.1-14.8
		l12.2-12.2l16.2,12.2l-3.2,22.7c-0.4,2.7,1.5,5.2,4.2,5.6c0.2,0,0.5,0.1,0.7,0.1h0.1c2.5,0,4.6-1.7,5.1-4.2
		c1.6-8.8,5.3-28.3,5.3-28.3L131.1,96l-18.2-10.1L98.7,106.2z"/>
	<path class="st10" d="M159.2,75.9l-3.8,1.9l-12.2-16.2l-12.2-8.1l-26.4-4.1L93.4,60.7l6.1,7l9.3-8.2l14.2,4.1l-10.1,22.3L131.1,96
		l8.1-22.3L153.4,90l9.8-4.4L159.2,75.9z"/>
	<g>
		<path class="st8" d="M169.8,77.2l-0.1-0.1c-1.1-2.7-4.2-4.1-6.9-3c-0.1,0.1-0.3,0.1-0.4,0.2l-3.2,1.6l4,9.7l3.9-1.7
			C169.6,82.8,170.8,79.8,169.8,77.2z"/>
		<path class="st8" d="M89.6,64.5c-1.8,1.7-1.8,4.5-0.1,6.3c1.7,1.7,4.4,1.8,6.2,0.2l3.8-3.3l-6.1-7L89.6,64.5z"/>
	</g>
	<path class="st11" d="M89.9,71c1.7,1.5,4.2,1.5,5.9,0l3.8-3.3L97.1,65L89.9,71z"/>
	<g>
		<polygon class="st12" points="108.8,55.5 97.1,65 99.5,67.7 108.8,59.6 123,63.6 125,59.6 		"/>
		<polygon class="st12" points="154.6,85 141.2,69.7 139.2,73.7 153.4,90 163.2,85.6 161.7,81.9 		"/>
	</g>
	<path class="st11" d="M161.7,81.8l1.6,3.7l3.9-1.7c2.2-1,3.5-3.4,3-5.8L161.7,81.8z"/>
	<polygon class="st12" points="121.8,90.9 131.1,96 139.2,73.7 141.2,69.7 	"/>
	<g>
		<path class="st9" d="M132.6,140.3c-0.1-0.1-0.2-0.3-0.2-0.4C132.4,140,132.5,140.2,132.6,140.3z"/>
		<path class="st9" d="M133.9,141.7c-0.1-0.1-0.3-0.2-0.4-0.3C133.7,141.5,133.8,141.6,133.9,141.7z"/>
		<path class="st9" d="M133.2,141.1c-0.1-0.1-0.2-0.2-0.3-0.4C133,140.8,133.1,140.9,133.2,141.1z"/>
		<path class="st9" d="M132.2,139.4c0-0.1-0.1-0.3-0.1-0.4C132.1,139.1,132.1,139.2,132.2,139.4z"/>
		<path class="st9" d="M131.9,138.3c0-0.1,0-0.2,0-0.3C131.9,138.1,131.9,138.2,131.9,138.3z"/>
		<path class="st9" d="M135.6,142.5c-0.5-0.1-0.9-0.3-1.4-0.6C134.7,142.2,135.1,142.4,135.6,142.5z"/>
	</g>
	<g>
		<path class="st13" d="M132.4,139.9c-0.1-0.2-0.2-0.3-0.2-0.5C132.2,139.6,132.3,139.7,132.4,139.9z"/>
		<path class="st13" d="M133.5,141.4c-0.1-0.1-0.2-0.2-0.3-0.3C133.3,141.2,133.4,141.3,133.5,141.4z"/>
		<path class="st13" d="M134.3,141.9c-0.1-0.1-0.2-0.1-0.3-0.2C134,141.8,134.1,141.8,134.3,141.9z"/>
		<path class="st13" d="M132,139c-0.1-0.2-0.1-0.4-0.1-0.6C131.9,138.6,132,138.8,132,139z"/>
		<path class="st13" d="M131.9,138c0-0.3,0-0.7,0-1C131.8,137.3,131.8,137.7,131.9,138z"/>
		<path class="st13" d="M132.9,140.7c-0.1-0.1-0.2-0.3-0.3-0.4C132.7,140.4,132.8,140.6,132.9,140.7z"/>
		<polygon class="st13" points="135.6,142.5 135.6,142.5 135.6,142.5 		"/>
		<path class="st13" d="M131.1,96L122,91l21.3,21.3l-7.1,30.3c0.2,0,0.4,0.1,0.7,0.1h0.1c2.5,0,4.6-1.7,5.1-4.2
			c1.6-8.8,5.3-28.3,5.3-28.3L131.1,96z"/>
		<path class="st13" d="M102.7,112.3l-21.2,16.2c1.8,2.1,5,2.4,7.2,0.6l18.1-14.8l12.2-12.2l-4.1-2L102.7,112.3z"/>
	</g>
	<path class="st11" d="M151.4,41.4v0.9c0,5-4.1,9.1-9.1,9.1c-1.9,0-3.8-0.6-5.3-1.8c2.9,4.1,8.6,5,12.7,2.1c2.4-1.7,3.8-4.5,3.8-7.4
		v-3C152.7,41.3,152,41.4,151.4,41.4z"/>
	<path class="st14" d="M153.4,35.2c0.1,2.2-0.6,4.4-2,6.2c0.7-0.1,1.3-0.1,2-0.1V35.2z"/>
	<path d="M171.6,76.4c-1.5-3.8-5.8-5.6-9.6-4.1c-0.2,0.1-0.4,0.2-0.6,0.3l-5.5,2.7l-11.1-14.9c-0.1-0.2-0.3-0.3-0.5-0.5l-12.2-8.1
		c-0.2-0.2-0.5-0.3-0.8-0.3L105,47.4c-0.6-0.1-1.3,0.1-1.7,0.6L88.2,63c-2.5,2.5-2.5,6.6,0,9.2c0,0,0,0,0,0c2.4,2.4,6.3,2.5,8.9,0.3
		l12.2-10.7l10.9,3.1l-9.1,20l-13.9,19.9l-16.6,14.9c-3,2.6-3.4,7.1-0.8,10.2c2.6,3,7.1,3.4,10.2,0.8l18.3-15l10.9-10.9l13.8,10.4
		l-3.1,21.5c-0.3,2,0.3,4,1.6,5.6c1.4,1.6,3.4,2.4,5.4,2.4c3.4,0,6.4-2.4,7-5.8l5.3-28.3c0.1-0.7-0.1-1.4-0.7-1.9l-15.2-13.3
		l6.5-17.8l11.9,13.6c0.6,0.7,1.5,0.9,2.3,0.5l13.7-6.1C171.5,84.2,173.1,80,171.6,76.4z M166.2,82l-12.3,5.4l-13.2-15.1
		c-0.7-0.8-2-0.9-2.9-0.2c-0.3,0.2-0.5,0.5-0.6,0.8l-8.1,22.3c-0.3,0.8-0.1,1.7,0.6,2.2l15.3,13.4l-5.1,27.1
		c-0.3,1.5-1.6,2.6-3.2,2.5c-1.6,0-3-1.3-3-3c0-0.1,0-0.3,0-0.4l3.2-22.7c0.1-0.7-0.2-1.5-0.8-1.9l-16.2-12.2
		c-0.8-0.6-1.9-0.5-2.6,0.2l-12,12l-18.1,14.8c-1.3,1.1-3.3,0.9-4.4-0.4c-1.1-1.3-0.9-3.2,0.3-4.4l16.8-15.1
		c0.1-0.1,0.2-0.2,0.3-0.3l14.2-20.3c0.1-0.1,0.1-0.2,0.2-0.3l10.1-22.3c0.5-1,0-2.2-1-2.7c-0.1,0-0.2-0.1-0.3-0.1l-14.2-4.1
		c-0.7-0.2-1.4,0-1.9,0.4L94.4,69.5c-1,0.9-2.5,0.9-3.4-0.1c-0.9-1-0.9-2.5,0.1-3.4l14.4-14.3l24.9,3.8l11.5,7.7l12,15.9
		c0.6,0.8,1.7,1,2.5,0.6l7-3.5c0.8-0.4,1.8-0.5,2.6-0.1c0.9,0.4,1.6,1.1,2,2C168.5,79.6,167.8,81.4,166.2,82z"/>
	<path d="M155.4,44.3v-9.1c0-1.1-0.9-2-2-2h-9.1c-6.2,0-11.1,5-11.1,11.1s5,11.1,11.1,11.1C150.4,55.5,155.4,50.5,155.4,44.3z
		 M144.3,37.3h7.1v2.1c-5.2,0.1-10.2,2-14.2,5.3c0-0.1,0-0.2,0-0.3C137.2,40.4,140.3,37.3,144.3,37.3z M138.7,48.7
		c3.4-3.3,7.9-5.3,12.6-5.4v1c0,3.9-3.1,7.1-7,7.1C142.1,51.5,140.1,50.4,138.7,48.7z"/>
</g>
</svg>
