<svg xmlns="http://www.w3.org/2000/svg" viewBox="0 0 800 200"><defs><style>.cls-1{font-size:102.62px;}.cls-1,.cls-2,.cls-3{font-family:FuturaHandwritten, FuturaHandwritten;}.cls-2{font-size:19px;}.cls-3{font-size:18px;}.cls-4,.cls-5,.cls-6{stroke:#000;stroke-miterlimit:10;}.cls-4{stroke-width:2.66px;}.cls-5{stroke-width:3px;}.cls-6{stroke-width:0.75px;}</style></defs><title>Artboard 1</title><g id="Layer_2" data-name="Layer 2"><text class="cls-1" transform="translate(214.9 124.77)">+</text><text class="cls-1" transform="translate(524.79 123.19)">=</text><text class="cls-2" transform="translate(611.69 169.7)">1g Aluminum Foil</text><text class="cls-2" transform="translate(323.85 169.7)">12g CO</text><text class="cls-2" transform="translate(391.37 176.03) scale(0.58)">2</text><text class="cls-2" transform="translate(397.93 169.7)"><tspan xml:space="preserve"> Emission</tspan></text><text class="cls-3" transform="translate(38.1 157.33)">170 British Thermal <tspan x="2.38" y="21.6">Units (1055 Joules) </tspan></text><path d="M680.76,37.42l-2.55,10.72-1.06,0,2.55-10.72Zm.35,0-2.55,10.72h.53l2.55-10.72Zm-3.25-.09-2.55,10.72h.52l2.54-10.72Zm5.49.16-2.54,10.72h.52l2.55-10.72Zm-8-.23L672.81,48l1.05,0L676.4,37.3Zm13.75.39-2.55,10.72h.53l2.55-10.72Zm2.11,10.85h.53l2.55-10.72h-.53Zm27.72,67.74.8,2.49c0,9.39-19,14.45-36.13,14.45s-36.13-5.07-36.13-14.45l.8-2.76V44.26l-.8-1.87c0-9.39,19-14.45,36.13-14.45S719.74,33,719.74,42.39l-.8,1.47ZM714.12,82.4s-3.31,3.68-14.51,5.6c0,.18,0,.37,0,.56a15.11,15.11,0,1,1-30.22,0c0-.17,0-.34,0-.5-11.95-1.9-16.33-5.61-16.33-5.61v36.3c0,4,11.61,9.63,30.51,9.63s30.51-5.61,30.51-9.63V82.4Zm-29.6,19.2a13.06,13.06,0,0,0,13-13c0-.19,0-.38,0-.57a13.07,13.07,0,0,0-26-.15V88c0,.18,0,.37,0,.56A13.06,13.06,0,0,0,684.52,101.61Zm29.6-59.22c0-4-11.61-9.63-30.51-9.63s-30.51,5.61-30.51,9.63S664.71,52,683.61,52,714.12,46.41,714.12,42.39Zm-21.76-4.63-2.55,10.72,1.06,0,2.54-10.72Zm-6.42-.18L683.4,48.29h.53l2.55-10.72Zm-1.63,0-2.55,10.72,1.06,0,2.54-10.72Zm6.2.18L688,48.42h.53L691,37.72Zm-2.9-.08-2.54,10.72,1.06,0,2.54-10.72Zm-15.8,74.56c-1.45-.56-2.08-1-2.08-1.79,0-.63.55-1.3,1.8-1.3a4.57,4.57,0,0,1,2.16.52l.48-1.6a5.7,5.7,0,0,0-2.6-.55c-2.36,0-3.84,1.36-3.84,3.13,0,1.56,1.14,2.51,2.93,3.16,1.39.5,1.93,1,1.93,1.8s-.71,1.48-2,1.48a5.51,5.51,0,0,1-2.63-.69l-.44,1.64a6.46,6.46,0,0,0,2.93.68c2.81,0,4.12-1.52,4.12-3.26C674.61,113.83,673.69,112.88,671.81,112.18Zm13.43.77c0,3.64-2.21,5.72-5.21,5.72s-5-2.34-5-5.53,2.09-5.69,5.16-5.69S685.24,109.85,685.24,112.95Zm-2.1.08c0-2-1-4-3-4s-3,1.82-3,4.06,1.11,4,3,4S683.14,115.3,683.14,113Zm9.48.93c0,2.13-.85,3.11-2.29,3.11s-2.22-1-2.22-3.11v-6.33h-2v6.22c0,3.42,1.63,4.82,4.14,4.82s4.33-1.48,4.33-4.83v-6.2h-2V114Zm9.7-5.53a3.07,3.07,0,0,1,1.06,2.4,3.29,3.29,0,0,1-.93,2.47,4.79,4.79,0,0,1-3.43,1.16,5.56,5.56,0,0,1-1-.06v4.09h-2V107.78a17.1,17.1,0,0,1,3-.23A4.91,4.91,0,0,1,702.32,108.44Zm-.92,2.48c0-1.21-.84-1.85-2.21-1.85a5.64,5.64,0,0,0-1.14.09v3.68a4,4,0,0,0,1,.08C700.49,112.92,701.4,112.19,701.4,110.92Z"/><path d="M460.25,77.07a33.37,33.37,0,0,0,1.15-9.26,37.92,37.92,0,0,0-74.13-11.28c-.08.25-.35.83-1.43.65l-.3,0c-.36,0-.74,0-1.14,0a29.57,29.57,0,0,0-27.71,20,.66.66,0,0,1-.77.5l-.16,0A29.19,29.19,0,1,0,350,135.41H451.86a29.19,29.19,0,0,0,9-57C460.55,78.35,459.94,78.14,460.25,77.07ZM451.86,130H350a23.76,23.76,0,1,1,4.79-47,7.6,7.6,0,0,0,1.53.16,5.33,5.33,0,0,0,5.3-3.72A24.17,24.17,0,0,1,384.4,62.54c.33,0,.69,0,1.07.05s.85.06,1.31.06h.1c3.15,0,5-1.45,5.54-4.31,0-.08,0-.16,0-.21A32.49,32.49,0,0,1,456,67.8,33.19,33.19,0,0,1,454.63,77a5,5,0,0,0,.29,3.94,5.21,5.21,0,0,0,3.41,2.36l.13,0a23.76,23.76,0,0,1-6.6,46.59Z"/><path class="cls-4" d="M397.27,82.64q-2.16-2.61-6.92-2.7A12.35,12.35,0,0,0,382,82.82a15.89,15.89,0,0,0-4.94,7.55,14.84,14.84,0,0,0-.67,4.36,13.69,13.69,0,0,0,.63,4.18,10.74,10.74,0,0,0,2.07,3.68,11.27,11.27,0,0,0,3.55,2.79A16.38,16.38,0,0,0,390,107a7.64,7.64,0,0,0,1-.07,8,8,0,0,0,.85-.16,6.11,6.11,0,0,0,.92-.34l.83-.38q.27-.13.9-.54c.42-.27.7-.46.83-.56l1-.7q.76-.54,1-.72a1.57,1.57,0,0,1,2.18.4,1.5,1.5,0,0,1,.27,1.17,1.61,1.61,0,0,1-.65,1,12.42,12.42,0,0,0-1,.72l-1.17.85q-.31.22-1.12.72a10.34,10.34,0,0,1-1.35.72l-1.33.52a6.69,6.69,0,0,1-1.55.38,13.51,13.51,0,0,1-1.57.09,19.37,19.37,0,0,1-8.85-2,14.68,14.68,0,0,1-4.54-3.57,13.44,13.44,0,0,1-2.63-4.7,16.79,16.79,0,0,1-.76-5.19,18.49,18.49,0,0,1,.81-5.26,19.35,19.35,0,0,1,5.8-8.94,15,15,0,0,1,4.79-2.76,16.26,16.26,0,0,1,5.8-.94q6.16.13,9.26,3.86a1.58,1.58,0,0,1,.36,1.15,1.41,1.41,0,0,1-.56,1.06,1.65,1.65,0,0,1-1.17.36A1.39,1.39,0,0,1,397.27,82.64Z"/><path class="cls-4" d="M418.39,76.58a1.53,1.53,0,0,1,1.21-.9q9.12-1.17,14.6,3.73a14.57,14.57,0,0,1,3.73,5.17A18.41,18.41,0,0,1,439.42,91a21.34,21.34,0,0,1-.36,5.17,19,19,0,0,1-4.61,9.17,14,14,0,0,1-4.2,3.1,14.59,14.59,0,0,1-5.35,1.44,18.63,18.63,0,0,1-6.69-.65,16.19,16.19,0,0,1-5.41-2.67,17.92,17.92,0,0,1-3.91-4.18,17.29,17.29,0,0,1-2.38-5.12,18.2,18.2,0,0,1-.63-5.57A16.28,16.28,0,0,1,407,86.17a15.21,15.21,0,0,1,3.17-4.83,16.38,16.38,0,0,1,5.23-3.64A19.17,19.17,0,0,1,418.39,76.58Zm6.07,2.65a14.65,14.65,0,0,0-7.77,1.35,13,13,0,0,0-4.11,2.9A12.23,12.23,0,0,0,410,87.38a13.64,13.64,0,0,0-.94,4.43,15,15,0,0,0,.47,4.56,13.77,13.77,0,0,0,1.91,4.2,14.59,14.59,0,0,0,3.17,3.41,13.14,13.14,0,0,0,4.45,2.2,16.19,16.19,0,0,0,5.57.49,11.07,11.07,0,0,0,6.47-2.61,13.81,13.81,0,0,0,4.09-5.75,17,17,0,0,0,1.08-7.19,13,13,0,0,0-4.18-9.39,12.35,12.35,0,0,0-6.38-2.92A1.5,1.5,0,0,1,424.45,79.23Z"/><path class="cls-4" d="M445.27,110.56l.24-1.18c.05-.26.16-.65.31-1.15a4.74,4.74,0,0,1,.64-1.34,4.25,4.25,0,0,1,1-1,2.5,2.5,0,0,1,.88-.43,4,4,0,0,1,.73-.16l.72,0a5.67,5.67,0,0,1,4,1.39A6.69,6.69,0,0,1,456,110.3a9.09,9.09,0,0,1-.27,5.3,13.07,13.07,0,0,1-2.95,4.7q-1.28,1.31-2.57,2.52.58,0,1.39,0l2.63,0,1.64,0a.92.92,0,0,1,0,1.83l-1.65,0-2.62,0q-1.6,0-2.51-.08a8,8,0,0,1-.94-.13,2.38,2.38,0,0,1-.42-.13,1,1,0,0,1-.58-.65,1,1,0,0,1,.24-1.1,1.62,1.62,0,0,1,.52-.34l.34-.16q1.62-1.39,3.22-3a11.12,11.12,0,0,0,2.5-4,7.49,7.49,0,0,0,.25-4.35,4.87,4.87,0,0,0-1.65-2.62,4,4,0,0,0-2.75-1,2.46,2.46,0,0,0-1.28.26,2.68,2.68,0,0,0-.92,1.28,13.6,13.6,0,0,0-.52,2.23.94.94,0,0,1-.39.59.87.87,0,0,1-.68.16.89.89,0,0,1-.59-.38A.91.91,0,0,1,445.27,110.56Z"/><path class="cls-5" d="M137.13,124.5H98.2A22.93,22.93,0,0,1,75.29,101.6V73.79a6.88,6.88,0,0,1,6.87-6.87h71A6.88,6.88,0,0,1,160,73.79V101.6A22.93,22.93,0,0,1,137.13,124.5Zm-55-54.33a3.62,3.62,0,0,0-3.61,3.61v27.81A19.67,19.67,0,0,0,98.2,121.24h38.93a19.67,19.67,0,0,0,19.65-19.65V73.79a3.61,3.61,0,0,0-3.61-3.61Z"/><path class="cls-5" d="M98.8,70.18a1.63,1.63,0,0,1-1.63-1.63V38a4.9,4.9,0,0,0-4.89-4.89h-.54A4.9,4.9,0,0,0,86.85,38V68.54a1.63,1.63,0,0,1-3.26,0V38a8.16,8.16,0,0,1,8.15-8.15h.53A8.16,8.16,0,0,1,100.43,38V68.54A1.63,1.63,0,0,1,98.8,70.18Z"/><path class="cls-5" d="M150.11,70.18a1.63,1.63,0,0,1-1.63-1.63V38a4.9,4.9,0,0,0-4.89-4.89h-.53A4.9,4.9,0,0,0,138.16,38V68.54a1.63,1.63,0,1,1-3.26,0V38a8.16,8.16,0,0,1,8.15-8.15h.53A8.16,8.16,0,0,1,151.74,38V68.54A1.63,1.63,0,0,1,150.11,70.18Z"/><path class="cls-5" d="M129.9,135.41H105.43a1.63,1.63,0,0,1-1.63-1.63V122.87a1.63,1.63,0,0,1,1.63-1.63H129.9a1.63,1.63,0,0,1,1.63,1.63v10.91A1.63,1.63,0,0,1,129.9,135.41Zm-22.85-3.26h21.21V124.5H107.06Z"/><polygon class="cls-6" points="112.92 106.26 116.88 95.37 111.88 93.94 121.26 82.8 118.45 92.53 123.46 93.96 112.92 106.26"/><path class="cls-6" d="M112.92,107.89a1.61,1.61,0,0,1-.82-.22,1.63,1.63,0,0,1-.71-2l3.36-9.25-3.32-.95a1.63,1.63,0,0,1-.8-2.62L120,81.74a1.63,1.63,0,0,1,2.81,1.5l-2.35,8.17,3.43,1a1.63,1.63,0,0,1,.79,2.63l-10.54,12.3A1.63,1.63,0,0,1,112.92,107.89ZM117.82,94a1.63,1.63,0,0,1,.59,1.89l-.89,2.46,3-3.56L118,94.1Zm-3.08-1,2.58.74.19.07a1.64,1.64,0,0,1-.62-1.78l.68-2.37Z"/></g></svg>