<svg id="Layer_1" data-name="Layer 1" xmlns="http://www.w3.org/2000/svg" viewBox="0 0 800 220"><defs><style>.cls-1{font-size:108.66px;}.cls-1,.cls-9{font-family:FuturaHandwritten, FuturaHandwritten;}.cls-2{fill:#edae78;}.cls-3{fill:#f9c095;}.cls-4{fill:#d69365;}.cls-5{fill:#24ba73;}.cls-6{fill:#1ca35f;}.cls-7{fill:#36ce82;}.cls-8{fill:#3a271e;}.cls-9{font-size:22.12px;}</style></defs><title>Artboard 1</title><path d="M488.33,115.94V72.67a2.71,2.71,0,0,0,0-.39v-.07a2.75,2.75,0,0,0-.08-.35h0c0-.08-.06-.17-.09-.25l0-.07,0-.09a2.7,2.7,0,0,0-.15-.27l0,0a2.7,2.7,0,0,0-.22-.28l0,0-.23-.22,0,0-.29-.2-.07,0-.28-.15,0,0L422.61,43.27h0l-.08,0a2.7,2.7,0,0,0-1.19-.17h0a2.73,2.73,0,0,0-.53.1h0l-.22.08h0l-18.79,7.88a2.71,2.71,0,0,0,0,5l17.12,7.19V87.28L370,107.77l-.1,0-.1,0-.22.13,0,0h0l-.26.19,0,0-.2.19-.05.06-.14.18-.05.07-.14.22,0,0a2.77,2.77,0,0,0-.13.27l0,.08c0,.07,0,.14-.07.21l0,.09q0,.11,0,.23V110a2.71,2.71,0,0,0,0,.32v23.17A2.72,2.72,0,0,0,370,136l64,26.87a2.68,2.68,0,0,0,.53.16h.05l.21,0h.54l.21,0h.05a2.68,2.68,0,0,0,.53-.16l50.48-21.18a2.71,2.71,0,0,0,1.66-2.5v-23.2ZM458,124.61l-17.14-7.19a2.71,2.71,0,0,0-2.1,5L451,127.55l-15.85,6.65L405.7,121.86l15.85-6.65,9.64,4a2.71,2.71,0,0,0,2.1-5l-9-3.79V93.17L478.59,116Zm-39.14-14.15-20.16,8.46-20.61-8.65,40.76-17.1v17.29Zm2.71-61.74,57,23.93-11.77,4.94L422.63,59h0l-12.82-5.38ZM465.75,83a2.72,2.72,0,0,0,2.12,0l15-6.3v35.14l-58.62-24.6V65.63Zm-92,31.32,58.62,24.6v17.29l-58.62-24.6Zm109.12,23-45.07,18.91V138.95L482.9,120Z"/><text class="cls-1" transform="translate(550.67 138.85)">=</text><rect class="cls-2" x="160.47" y="118.35" width="7.53" height="17.41"/><rect class="cls-3" x="160.47" y="118.35" width="2.8" height="17.41"/><rect class="cls-4" x="164.85" y="118.35" width="2.98" height="17.41"/><polygon class="cls-5" points="131.76 118.34 145.42 100.18 135.62 100.18 151.02 77.53 141.22 77.53 155.57 58.8 146.82 58.8 164.15 37.27 181.48 58.8 172.73 58.8 187.08 77.53 177.28 77.53 192.68 100.18 182.88 100.18 196.53 118.34 131.76 118.34"/><polygon class="cls-6" points="172.73 58.8 163.97 58.8 178.33 77.53 187.08 77.53 172.73 58.8 181.48 58.8 164.15 37.27 159.77 42.7 172.73 58.8"/><polygon class="cls-6" points="182.88 100.18 174.13 100.18 187.78 118.34 196.53 118.34 182.88 100.18"/><polygon class="cls-6" points="168.53 77.53 183.93 100.18 192.68 100.18 177.28 77.53 168.53 77.53"/><polygon class="cls-7" points="167.3 41.2 164.15 37.27 146.82 58.8 152.94 58.8 167.3 41.2"/><polygon class="cls-7" points="145.42 100.18 131.76 118.34 137.89 118.34 151.54 100.18 145.42 100.18"/><polygon class="cls-7" points="141.74 100.18 157.15 77.53 147.34 77.53 161.7 58.8 155.57 58.8 141.22 77.53 151.02 77.53 135.62 100.18 141.74 100.18"/><path class="cls-8" d="M186.56,102.06h6.13a1.71,1.71,0,0,0,1.75-1.87,1.76,1.76,0,0,0-.53-1.31L180.78,79.59h6.3a1.71,1.71,0,0,0,1.75-1.87,2.21,2.21,0,0,0-.53-1.5L176.4,60.68h5.08a1.71,1.71,0,0,0,1.75-1.87,1.75,1.75,0,0,0-.7-1.5l-17-21.16A1.63,1.63,0,0,0,163.1,36l-.18.19L145.59,57.49a1.9,1.9,0,0,0,.18,2.62,1.41,1.41,0,0,0,1.23.37h4.9L140,76.22a2.09,2.09,0,0,0,.18,2.62,2.38,2.38,0,0,0,1.05.37h6.3L134,98.87a2.11,2.11,0,0,0,.35,2.62,2.38,2.38,0,0,0,1.05.37h6.13L130.19,117a2.09,2.09,0,0,0,.18,2.62,2.38,2.38,0,0,0,1.05.37h27v15.54a1.71,1.71,0,0,0,1.75,1.87h7.53a1.71,1.71,0,0,0,1.75-1.87V120.22h27a1.71,1.71,0,0,0,1.75-1.87,2.1,2.1,0,0,0-.35-1.12Zm-20.48,31.83h-4V120.22h4Zm1.75-17.41H135.44l11.38-15.17a2.09,2.09,0,0,0-.18-2.62,2.38,2.38,0,0,0-1.05-.37h-6.3l13.3-19.66a2.11,2.11,0,0,0-.35-2.62,2.38,2.38,0,0,0-1.05-.37h-6.3l11.9-15.73a2.09,2.09,0,0,0-.18-2.62,2.38,2.38,0,0,0-1.05-.37h-4.73l13.3-16.66,13.48,16.66h-4.9A1.71,1.71,0,0,0,171,58.8a2.1,2.1,0,0,0,.35,1.12l11.9,15.73H177.1a1.71,1.71,0,0,0-1.75,1.87,2.79,2.79,0,0,0,.35,1.12L189,98.31h-6.48a1.71,1.71,0,0,0-1.75,1.87,2.1,2.1,0,0,0,.35,1.12l11.38,15.17Z"/><rect class="cls-2" x="132.77" y="81.65" width="4.16" height="9.62"/><rect class="cls-3" x="132.77" y="81.65" width="1.55" height="9.62"/><rect class="cls-4" x="135.19" y="81.65" width="1.64" height="9.62"/><polygon class="cls-5" points="116.9 81.65 124.45 71.61 119.03 71.61 127.55 59.09 122.13 59.09 130.06 48.75 125.22 48.75 134.8 36.85 144.38 48.75 139.54 48.75 147.47 59.09 142.06 59.09 150.57 71.61 145.15 71.61 152.7 81.65 116.9 81.65"/><polygon class="cls-6" points="139.54 48.75 134.71 48.75 142.64 59.09 147.47 59.09 139.54 48.75 144.38 48.75 134.8 36.85 132.38 39.85 139.54 48.75"/><polygon class="cls-6" points="145.15 71.61 140.32 71.61 147.86 81.65 152.7 81.65 145.15 71.61"/><polygon class="cls-6" points="137.22 59.09 145.73 71.61 150.57 71.61 142.06 59.09 137.22 59.09"/><polygon class="cls-7" points="136.54 39.02 134.8 36.85 125.22 48.75 128.61 48.75 136.54 39.02"/><polygon class="cls-7" points="124.45 71.61 116.9 81.65 120.29 81.65 127.84 71.61 124.45 71.61"/><polygon class="cls-7" points="122.42 71.61 130.93 59.09 125.51 59.09 133.45 48.75 130.06 48.75 122.13 59.09 127.55 59.09 119.03 71.61 122.42 71.61"/><path class="cls-8" d="M147.18,72.65h3.39a1,1,0,0,0,1-1,1,1,0,0,0-.29-.72L144,60.23h3.48a1,1,0,0,0,1-1,1.22,1.22,0,0,0-.29-.83l-6.58-8.59h2.81a1,1,0,0,0,1-1,1,1,0,0,0-.39-.83l-9.38-11.69a.9.9,0,0,0-1.35-.1l-.1.1L124.55,48a1,1,0,0,0,.1,1.45.78.78,0,0,0,.68.21H128l-6.58,8.69a1.16,1.16,0,0,0,.1,1.45,1.31,1.31,0,0,0,.58.21h3.48l-7.45,10.86a1.17,1.17,0,0,0,.19,1.45,1.31,1.31,0,0,0,.58.21h3.39L116,80.93a1.16,1.16,0,0,0,.1,1.45,1.31,1.31,0,0,0,.58.21h14.9v8.59a1,1,0,0,0,1,1h4.16a1,1,0,0,0,1-1V82.69h14.9a1,1,0,0,0,1-1,1.16,1.16,0,0,0-.19-.62ZM135.87,90.24h-2.23V82.69h2.23Zm1-9.62h-17.9l6.29-8.38a1.16,1.16,0,0,0-.1-1.45,1.31,1.31,0,0,0-.58-.21h-3.48l7.35-10.86a1.17,1.17,0,0,0-.19-1.45,1.31,1.31,0,0,0-.58-.21h-3.48l6.58-8.69a1.16,1.16,0,0,0-.1-1.45,1.31,1.31,0,0,0-.58-.21h-2.61l7.35-9.21,7.45,9.21h-2.71a1,1,0,0,0-1,1,1.16,1.16,0,0,0,.19.62l6.58,8.69H142a1,1,0,0,0-1,1,1.54,1.54,0,0,0,.19.62l7.35,10.86H145a1,1,0,0,0-1,1,1.16,1.16,0,0,0,.19.62l6.29,8.38Z"/><rect class="cls-2" x="107.65" y="75.74" width="5.17" height="11.96"/><rect class="cls-3" x="107.65" y="75.74" width="1.92" height="11.96"/><rect class="cls-4" x="110.66" y="75.74" width="2.04" height="11.96"/><polygon class="cls-5" points="87.93 75.74 97.31 63.27 90.58 63.27 101.16 47.71 94.42 47.71 104.28 34.85 98.27 34.85 110.17 20.06 122.08 34.85 116.06 34.85 125.92 47.71 119.19 47.71 129.77 63.27 123.04 63.27 132.41 75.74 87.93 75.74"/><polygon class="cls-6" points="116.06 34.85 110.05 34.85 119.91 47.71 125.92 47.71 116.06 34.85 122.08 34.85 110.17 20.06 107.17 23.79 116.06 34.85"/><polygon class="cls-6" points="123.04 63.27 117.03 63.27 126.4 75.74 132.41 75.74 123.04 63.27"/><polygon class="cls-6" points="113.18 47.71 123.76 63.27 129.77 63.27 119.19 47.71 113.18 47.71"/><polygon class="cls-7" points="112.34 22.76 110.17 20.06 98.27 34.85 102.48 34.85 112.34 22.76"/><polygon class="cls-7" points="97.31 63.27 87.93 75.74 92.14 75.74 101.52 63.27 97.31 63.27"/><polygon class="cls-7" points="94.79 63.27 105.37 47.71 98.63 47.71 108.49 34.85 104.28 34.85 94.42 47.71 101.16 47.71 90.58 63.27 94.79 63.27"/><path class="cls-8" d="M125.56,64.55h4.21a1.18,1.18,0,0,0,1.2-1.29,1.21,1.21,0,0,0-.36-.9l-9-13.24h4.33a1.18,1.18,0,0,0,1.2-1.29,1.52,1.52,0,0,0-.36-1l-8.18-10.67h3.49a1.18,1.18,0,0,0,1.2-1.29,1.2,1.2,0,0,0-.48-1L111.14,19.29a1.12,1.12,0,0,0-1.68-.13l-.12.13L97.43,33.95a1.3,1.3,0,0,0,.12,1.8,1,1,0,0,0,.84.26h3.37l-8.18,10.8a1.44,1.44,0,0,0,.12,1.8,1.63,1.63,0,0,0,.72.26h4.33L89.5,62.37a1.45,1.45,0,0,0,.24,1.8,1.63,1.63,0,0,0,.72.26h4.21L86.85,74.84a1.44,1.44,0,0,0,.12,1.8,1.63,1.63,0,0,0,.72.26h18.51V87.57a1.18,1.18,0,0,0,1.2,1.29h5.17a1.18,1.18,0,0,0,1.2-1.29V77H132.3a1.18,1.18,0,0,0,1.2-1.29,1.44,1.44,0,0,0-.24-.77ZM111.5,86.41h-2.77V77h2.77Zm1.2-12H90.46L98.27,64a1.44,1.44,0,0,0-.12-1.8,1.63,1.63,0,0,0-.72-.26H93.1l9.14-13.5a1.45,1.45,0,0,0-.24-1.8,1.63,1.63,0,0,0-.72-.26H97l8.18-10.8a1.44,1.44,0,0,0-.12-1.8,1.63,1.63,0,0,0-.72-.26H101l9.14-11.44,9.26,11.44h-3.37a1.18,1.18,0,0,0-1.2,1.29,1.44,1.44,0,0,0,.24.77l8.18,10.8h-4.21a1.18,1.18,0,0,0-1.2,1.29,1.92,1.92,0,0,0,.24.77L127.25,62H122.8a1.18,1.18,0,0,0-1.2,1.29,1.44,1.44,0,0,0,.24.77l7.81,10.42Z"/><rect class="cls-2" x="73.11" y="102.16" width="6.41" height="14.83"/><rect class="cls-3" x="73.11" y="102.16" width="2.39" height="14.83"/><rect class="cls-4" x="76.84" y="102.16" width="2.53" height="14.83"/><polygon class="cls-5" points="48.66 102.16 60.28 86.69 51.94 86.69 65.06 67.39 56.71 67.39 68.93 51.44 61.48 51.44 76.24 33.1 91 51.44 83.55 51.44 95.77 67.39 87.42 67.39 100.54 86.69 92.19 86.69 103.82 102.16 48.66 102.16"/><polygon class="cls-6" points="83.55 51.44 76.09 51.44 88.32 67.39 95.77 67.39 83.55 51.44 91 51.44 76.24 33.1 72.51 37.73 83.55 51.44"/><polygon class="cls-6" points="92.19 86.69 84.74 86.69 96.37 102.16 103.82 102.16 92.19 86.69"/><polygon class="cls-6" points="79.97 67.39 93.09 86.69 100.54 86.69 87.42 67.39 79.97 67.39"/><polygon class="cls-7" points="78.92 36.45 76.24 33.1 61.48 51.44 66.7 51.44 78.92 36.45"/><polygon class="cls-7" points="60.28 86.69 48.66 102.16 53.87 102.16 65.5 86.69 60.28 86.69"/><polygon class="cls-7" points="57.15 86.69 70.28 67.39 61.92 67.39 74.15 51.44 68.93 51.44 56.71 67.39 65.06 67.39 51.94 86.69 57.15 86.69"/><path class="cls-8" d="M95.32,88.28h5.22A1.46,1.46,0,0,0,102,86.69a1.5,1.5,0,0,0-.45-1.12L90.4,69.15h5.37a1.46,1.46,0,0,0,1.49-1.59,1.88,1.88,0,0,0-.45-1.28L86.68,53H91a1.46,1.46,0,0,0,1.49-1.59,1.49,1.49,0,0,0-.6-1.28l-14.46-18A1.39,1.39,0,0,0,75.34,32l-.15.16L60.43,50.33a1.61,1.61,0,0,0,.15,2.23,1.2,1.2,0,0,0,1,.32H65.8L55.66,66.28a1.78,1.78,0,0,0,.15,2.23,2,2,0,0,0,.89.32h5.37L50.59,85.57a1.8,1.8,0,0,0,.3,2.23,2,2,0,0,0,.89.32H57L47.31,101a1.78,1.78,0,0,0,.15,2.23,2,2,0,0,0,.89.32h23v13.24a1.46,1.46,0,0,0,1.49,1.59h6.41a1.46,1.46,0,0,0,1.49-1.59V103.75h23a1.46,1.46,0,0,0,1.49-1.59,1.79,1.79,0,0,0-.3-1ZM77.88,115.39H74.45V103.75h3.43Zm1.49-14.83H51.79l9.69-12.92a1.78,1.78,0,0,0-.15-2.23,2,2,0,0,0-.89-.32H55.07L66.4,68.35a1.8,1.8,0,0,0-.3-2.23,2,2,0,0,0-.89-.32H59.84L70,52.4a1.78,1.78,0,0,0-.15-2.23,2,2,0,0,0-.89-.32h-4L76.24,35.66,87.72,49.85H83.54a1.46,1.46,0,0,0-1.49,1.59,1.79,1.79,0,0,0,.3,1L92.49,65.8H87.27a1.46,1.46,0,0,0-1.49,1.59,2.38,2.38,0,0,0,.3,1L97.41,85.09H91.89a1.46,1.46,0,0,0-1.49,1.59,1.79,1.79,0,0,0,.3,1l9.69,12.92Z"/><rect class="cls-2" x="124.08" y="109.79" width="3.98" height="9.21"/><rect class="cls-3" x="124.08" y="109.79" width="1.48" height="9.21"/><rect class="cls-4" x="126.39" y="109.79" width="1.57" height="9.21"/><polygon class="cls-5" points="108.89 109.79 116.11 100.19 110.93 100.19 119.08 88.2 113.89 88.2 121.48 78.3 116.86 78.3 126.02 66.91 135.19 78.3 130.56 78.3 138.15 88.2 132.97 88.2 141.12 100.19 135.93 100.19 143.15 109.79 108.89 109.79"/><polygon class="cls-6" points="130.56 78.3 125.93 78.3 133.52 88.2 138.15 88.2 130.56 78.3 135.19 78.3 126.02 66.91 123.71 69.78 130.56 78.3"/><polygon class="cls-6" points="135.93 100.19 131.3 100.19 138.52 109.79 143.15 109.79 135.93 100.19"/><polygon class="cls-6" points="128.34 88.2 136.49 100.19 141.12 100.19 132.97 88.2 128.34 88.2"/><polygon class="cls-7" points="127.69 68.99 126.02 66.91 116.86 78.3 120.1 78.3 127.69 68.99"/><polygon class="cls-7" points="116.11 100.19 108.89 109.79 112.13 109.79 119.36 100.19 116.11 100.19"/><polygon class="cls-7" points="114.17 100.19 122.32 88.2 117.13 88.2 124.73 78.3 121.48 78.3 113.89 88.2 119.08 88.2 110.93 100.19 114.17 100.19"/><path class="cls-8" d="M137.87,101.18h3.24a.91.91,0,0,0,.93-1,.93.93,0,0,0-.28-.69l-6.94-10.2h3.33a.91.91,0,0,0,.93-1,1.17,1.17,0,0,0-.28-.79l-6.3-8.22h2.69a.91.91,0,0,0,.93-1,.92.92,0,0,0-.37-.79l-9-11.19a.86.86,0,0,0-1.3-.1l-.09.1-9.17,11.29A1,1,0,0,0,116.3,79a.75.75,0,0,0,.65.2h2.59l-6.3,8.32a1.11,1.11,0,0,0,.09,1.39,1.26,1.26,0,0,0,.56.2h3.33l-7.13,10.4a1.12,1.12,0,0,0,.19,1.39,1.26,1.26,0,0,0,.56.2h3.24l-6,8a1.11,1.11,0,0,0,.09,1.39,1.26,1.26,0,0,0,.56.2H123v8.22a.91.91,0,0,0,.93,1h4a.91.91,0,0,0,.93-1v-8.12h14.26a.91.91,0,0,0,.93-1,1.11,1.11,0,0,0-.19-.59ZM127,118h-2.13v-7.23H127Zm.93-9.21H110.84l6-8a1.11,1.11,0,0,0-.09-1.39,1.26,1.26,0,0,0-.56-.2h-3.33l7-10.4a1.12,1.12,0,0,0-.19-1.39,1.26,1.26,0,0,0-.56-.2h-3.33l6.3-8.32a1.11,1.11,0,0,0-.09-1.39,1.26,1.26,0,0,0-.56-.2H119l7-8.81,7.13,8.81h-2.59a.91.91,0,0,0-.93,1,1.11,1.11,0,0,0,.19.59l6.3,8.32h-3.24a.91.91,0,0,0-.93,1,1.48,1.48,0,0,0,.19.59l7,10.4h-3.43a.91.91,0,0,0-.93,1,1.11,1.11,0,0,0,.19.59l6,8Z"/><rect class="cls-2" x="104.11" y="126.65" width="3.98" height="9.21"/><rect class="cls-3" x="104.11" y="126.65" width="1.48" height="9.21"/><rect class="cls-4" x="106.43" y="126.65" width="1.57" height="9.21"/><polygon class="cls-5" points="88.93 126.66 96.15 117.05 90.97 117.05 99.11 105.06 93.93 105.06 101.52 95.16 96.89 95.16 106.06 83.77 115.22 95.16 110.59 95.16 118.19 105.06 113 105.06 121.15 117.05 115.97 117.05 123.19 126.66 88.93 126.66"/><polygon class="cls-6" points="110.59 95.16 105.97 95.16 113.56 105.06 118.19 105.06 110.59 95.16 115.22 95.16 106.06 83.77 103.74 86.64 110.59 95.16"/><polygon class="cls-6" points="115.97 117.05 111.33 117.05 118.56 126.66 123.19 126.66 115.97 117.05"/><polygon class="cls-6" points="108.37 105.06 116.52 117.05 121.15 117.05 113 105.06 108.37 105.06"/><polygon class="cls-7" points="107.72 85.85 106.06 83.77 96.89 95.16 100.13 95.16 107.72 85.85"/><polygon class="cls-7" points="96.15 117.05 88.93 126.66 92.17 126.66 99.39 117.05 96.15 117.05"/><polygon class="cls-7" points="94.21 117.05 102.35 105.06 97.17 105.06 104.76 95.16 101.52 95.16 93.93 105.06 99.11 105.06 90.97 117.05 94.21 117.05"/><path class="cls-8" d="M117.91,118h3.24a.91.91,0,0,0,.93-1,.93.93,0,0,0-.28-.69l-6.94-10.2h3.33a.91.91,0,0,0,.93-1,1.17,1.17,0,0,0-.28-.79l-6.3-8.22h2.69a.91.91,0,0,0,.93-1,.92.92,0,0,0-.37-.79l-9-11.19a.86.86,0,0,0-1.3-.1l-.09.1L96.24,94.47a1,1,0,0,0,.09,1.39.75.75,0,0,0,.65.2h2.59l-6.3,8.32a1.11,1.11,0,0,0,.09,1.39,1.26,1.26,0,0,0,.56.2h3.33l-7.13,10.4a1.12,1.12,0,0,0,.19,1.39,1.26,1.26,0,0,0,.56.2h3.24l-6,8a1.11,1.11,0,0,0,.09,1.39,1.26,1.26,0,0,0,.56.2H103v8.22a.91.91,0,0,0,.93,1h4a.91.91,0,0,0,.93-1v-8.12h14.26a.91.91,0,0,0,.93-1,1.11,1.11,0,0,0-.19-.59Zm-10.83,16.84h-2.13v-7.23h2.13Zm.93-9.21H90.87l6-8a1.11,1.11,0,0,0-.09-1.39,1.26,1.26,0,0,0-.56-.2H92.91l7-10.4a1.12,1.12,0,0,0-.19-1.39,1.26,1.26,0,0,0-.56-.2H95.87l6.3-8.32a1.11,1.11,0,0,0-.09-1.39,1.26,1.26,0,0,0-.56-.2H99l7-8.81,7.13,8.81h-2.59a.91.91,0,0,0-.93,1,1.11,1.11,0,0,0,.19.59l6.3,8.32h-3.24a.91.91,0,0,0-.93,1,1.48,1.48,0,0,0,.19.59l7,10.4h-3.43a.91.91,0,0,0-.93,1,1.11,1.11,0,0,0,.19.59l6,8Z"/><rect class="cls-2" x="79.02" y="152.81" width="6.41" height="14.83"/><rect class="cls-3" x="79.02" y="152.81" width="2.39" height="14.83"/><rect class="cls-4" x="82.75" y="152.81" width="2.53" height="14.83"/><polygon class="cls-5" points="54.56 152.81 66.19 137.34 57.84 137.34 70.97 118.05 62.62 118.05 74.84 102.1 67.39 102.1 82.15 83.76 96.91 102.1 89.45 102.1 101.68 118.05 93.33 118.05 106.45 137.34 98.1 137.34 109.73 152.81 54.56 152.81"/><polygon class="cls-6" points="89.45 102.1 82 102.1 94.23 118.05 101.68 118.05 89.45 102.1 96.91 102.1 82.15 83.76 78.42 88.38 89.45 102.1"/><polygon class="cls-6" points="98.1 137.34 90.65 137.34 102.28 152.81 109.73 152.81 98.1 137.34"/><polygon class="cls-6" points="85.88 118.05 99 137.34 106.45 137.34 93.33 118.05 85.88 118.05"/><polygon class="cls-7" points="84.83 87.11 82.15 83.76 67.39 102.1 72.61 102.1 84.83 87.11"/><polygon class="cls-7" points="66.19 137.34 54.56 152.81 59.78 152.81 71.41 137.34 66.19 137.34"/><polygon class="cls-7" points="63.06 137.34 76.19 118.05 67.83 118.05 80.06 102.1 74.84 102.1 62.62 118.05 70.97 118.05 57.84 137.34 63.06 137.34"/><path class="cls-8" d="M101.23,138.94h5.22a1.46,1.46,0,0,0,1.49-1.59,1.5,1.5,0,0,0-.45-1.12L96.31,119.8h5.37a1.46,1.46,0,0,0,1.49-1.59,1.88,1.88,0,0,0-.45-1.28L92.59,103.69h4.32a1.46,1.46,0,0,0,1.49-1.59,1.49,1.49,0,0,0-.6-1.28l-14.46-18a1.39,1.39,0,0,0-2.09-.16l-.15.16L66.34,101a1.61,1.61,0,0,0,.15,2.23,1.2,1.2,0,0,0,1,.32h4.17l-10.14,13.4a1.78,1.78,0,0,0,.15,2.23,2,2,0,0,0,.89.32H68L56.5,136.23a1.8,1.8,0,0,0,.3,2.23,2,2,0,0,0,.89.32h5.22L53.22,151.7a1.78,1.78,0,0,0,.15,2.23,2,2,0,0,0,.89.32h23v13.24a1.46,1.46,0,0,0,1.49,1.59h6.41a1.46,1.46,0,0,0,1.49-1.59V154.41h23a1.46,1.46,0,0,0,1.49-1.59,1.79,1.79,0,0,0-.3-1ZM83.79,166H80.36V154.41h3.43Zm1.49-14.83H57.7l9.69-12.92a1.78,1.78,0,0,0-.15-2.23,2,2,0,0,0-.89-.32H61L72.31,119a1.8,1.8,0,0,0-.3-2.23,2,2,0,0,0-.89-.32H65.75l10.14-13.4a1.78,1.78,0,0,0-.15-2.23,2,2,0,0,0-.89-.32h-4L82.15,86.31,93.63,100.5H89.45A1.46,1.46,0,0,0,88,102.1a1.79,1.79,0,0,0,.3,1l10.14,13.4H93.18A1.46,1.46,0,0,0,91.69,118a2.38,2.38,0,0,0,.3,1l11.33,16.75H97.8a1.46,1.46,0,0,0-1.49,1.59,1.79,1.79,0,0,0,.3,1l9.69,12.92Z"/><rect class="cls-2" x="135.94" y="154.74" width="4.77" height="10.37"/><rect class="cls-3" x="135.94" y="154.74" width="1.77" height="10.37"/><rect class="cls-4" x="138.71" y="154.74" width="1.89" height="10.37"/><polygon class="cls-5" points="117.76 154.74 126.41 143.93 120.2 143.93 129.95 130.44 123.75 130.44 132.84 119.29 127.29 119.29 138.27 106.47 149.25 119.29 143.7 119.29 152.8 130.44 146.59 130.44 156.34 143.93 150.13 143.93 158.78 154.74 117.76 154.74"/><polygon class="cls-6" points="143.7 119.29 138.16 119.29 147.25 130.44 152.8 130.44 143.7 119.29 149.25 119.29 138.27 106.47 135.5 109.7 143.7 119.29"/><polygon class="cls-6" points="150.13 143.93 144.59 143.93 153.24 154.74 158.78 154.74 150.13 143.93"/><polygon class="cls-6" points="141.04 130.44 150.8 143.93 156.34 143.93 146.59 130.44 141.04 130.44"/><polygon class="cls-7" points="140.27 108.81 138.27 106.47 127.29 119.29 131.17 119.29 140.27 108.81"/><polygon class="cls-7" points="126.41 143.93 117.76 154.74 121.64 154.74 130.29 143.93 126.41 143.93"/><polygon class="cls-7" points="124.08 143.93 133.84 130.44 127.63 130.44 136.72 119.29 132.84 119.29 123.75 130.44 129.95 130.44 120.2 143.93 124.08 143.93"/><path class="cls-8" d="M152.46,145h3.88a1.05,1.05,0,0,0,1.11-1.11,1,1,0,0,0-.33-.78l-8.32-11.48h4a1.05,1.05,0,0,0,1.11-1.11,1.27,1.27,0,0,0-.33-.89L146,120.4h3.22a1.05,1.05,0,0,0,1.11-1.11,1,1,0,0,0-.44-.89l-10.76-12.6a1.07,1.07,0,0,0-1.55-.11l-.11.11-11,12.71a1.08,1.08,0,0,0,.11,1.56.93.93,0,0,0,.78.22h3.1L123,129.66a1.19,1.19,0,0,0,.11,1.56,1.57,1.57,0,0,0,.67.22h4l-8.54,11.71a1.2,1.2,0,0,0,.22,1.56,1.57,1.57,0,0,0,.67.22H124l-7.21,9a1.19,1.19,0,0,0,.11,1.56,1.57,1.57,0,0,0,.67.22h17.08V165a1.05,1.05,0,0,0,1.11,1.11h4.77A1.05,1.05,0,0,0,141.6,165v-9.14h17.08a1.05,1.05,0,0,0,1.11-1.11,1.2,1.2,0,0,0-.22-.67Zm-13,19h-2.55v-8.14h2.55Zm1.11-10.37H120.09l7.21-9a1.19,1.19,0,0,0-.11-1.56,1.57,1.57,0,0,0-.67-.22h-4L131,131.11a1.2,1.2,0,0,0-.22-1.56,1.57,1.57,0,0,0-.67-.22h-4l7.54-9.37a1.19,1.19,0,0,0-.11-1.56,1.57,1.57,0,0,0-.67-.22h-3l8.43-9.92,8.54,9.92h-3.1a1.05,1.05,0,0,0-1.11,1.11,1.2,1.2,0,0,0,.22.67l7.54,9.37h-3.88a1.05,1.05,0,0,0-1.11,1.11,1.59,1.59,0,0,0,.22.67L154,142.81h-4.1a1.05,1.05,0,0,0-1.11,1.11,1.2,1.2,0,0,0,.22.67l7.21,9Z"/><text class="cls-1" transform="translate(253.11 135.76) scale(1.67 1)">-</text><rect class="cls-2" x="697.9" y="138.43" width="9.66" height="20.89"/><rect class="cls-3" x="697.9" y="138.43" width="3.59" height="20.89"/><rect class="cls-4" x="703.52" y="138.43" width="3.82" height="20.89"/><polygon class="cls-5" points="661.07 138.43 678.59 116.64 666.01 116.64 685.77 89.46 673.2 89.46 691.62 67 680.38 67 702.62 41.17 724.86 67 713.63 67 732.05 89.46 719.47 89.46 739.23 116.64 726.66 116.64 744.18 138.43 661.07 138.43"/><polygon class="cls-6" points="713.63 67 702.4 67 720.82 89.46 732.05 89.46 713.63 67 724.86 67 702.62 41.17 697.01 47.68 713.63 67"/><polygon class="cls-6" points="726.66 116.64 715.42 116.64 732.95 138.43 744.18 138.43 726.66 116.64"/><polygon class="cls-6" points="708.24 89.46 728 116.64 739.23 116.64 719.47 89.46 708.24 89.46"/><polygon class="cls-7" points="706.66 45.89 702.62 41.17 680.38 67 688.25 67 706.66 45.89"/><polygon class="cls-7" points="678.59 116.64 661.07 138.43 668.93 138.43 686.45 116.64 678.59 116.64"/><polygon class="cls-7" points="673.87 116.64 693.64 89.46 681.06 89.46 699.48 67 691.62 67 673.2 89.46 685.77 89.46 666.01 116.64 673.87 116.64"/><path class="cls-8" d="M731.37,118.89h7.86a2.12,2.12,0,0,0,2.25-2.25,2,2,0,0,0-.67-1.57L724,91.93H732a2.12,2.12,0,0,0,2.25-2.25,2.55,2.55,0,0,0-.67-1.8L718.34,69.25h6.51A2.12,2.12,0,0,0,727.1,67a2,2,0,0,0-.9-1.8L704.42,39.82a2.18,2.18,0,0,0-3.14-.22l-.22.22L678.81,65.43a2.17,2.17,0,0,0,.22,3.14,1.9,1.9,0,0,0,1.57.45h6.29L671.62,87.89a2.39,2.39,0,0,0,.22,3.14,3.19,3.19,0,0,0,1.35.45h8.09L664,115.07a2.42,2.42,0,0,0,.45,3.14,3.19,3.19,0,0,0,1.35.45h7.86L659,136.86a2.39,2.39,0,0,0,.22,3.14,3.19,3.19,0,0,0,1.35.45h34.59v18.64a2.12,2.12,0,0,0,2.25,2.25h9.66a2.12,2.12,0,0,0,2.25-2.25V140.68H744a2.12,2.12,0,0,0,2.25-2.25,2.41,2.41,0,0,0-.45-1.35Zm-26.28,38.19h-5.17v-16.4h5.17Zm2.25-20.89H665.78L680.38,118a2.39,2.39,0,0,0-.22-3.14,3.19,3.19,0,0,0-1.35-.45h-8.09L687.8,90.81a2.42,2.42,0,0,0-.45-3.14,3.19,3.19,0,0,0-1.35-.45h-8.09l15.27-18.87A2.39,2.39,0,0,0,693,65.2a3.19,3.19,0,0,0-1.35-.45h-6.06l17.07-20,17.3,20h-6.29A2.12,2.12,0,0,0,711.38,67a2.41,2.41,0,0,0,.45,1.35L727.1,87.22h-7.86A2.12,2.12,0,0,0,717,89.46a3.19,3.19,0,0,0,.45,1.35l17.07,23.59h-8.31a2.12,2.12,0,0,0-2.25,2.25,2.41,2.41,0,0,0,.45,1.35L739,136.18Z"/><text class="cls-9" transform="translate(87.38 206.1)">A Forest</text><text class="cls-9" transform="translate(343.13 206.1)">Your Delivery Box</text><text class="cls-9" transform="translate(673.44 206.1)">A Tree</text></svg>