<svg id="Layer_1" data-name="Layer 1" xmlns="http://www.w3.org/2000/svg" viewBox="0 0 800 214"><defs><style>.cls-1{fill:#67c7a2;}.cls-2{fill:#38a287;}.cls-3{font-size:102.62px;}.cls-3,.cls-4{font-family:FuturaHandwritten, FuturaHandwritten;}.cls-4{font-size:20.89px;}</style></defs><title>Artboard 1</title><polygon class="cls-1" points="134.28 71.11 122.36 145.43 76.09 145.43 66.56 71.11 134.28 71.11"/><path class="cls-2" d="M137.82,36.92V141.81a3.63,3.63,0,0,1-3.62,3.62H122.36V36.92Z"/><path class="cls-2" d="M76.09,71.11v74.32H64.26a3.63,3.63,0,0,1-3.62-3.62V36.92H76.09Z"/><path d="M100.78,90.14a1.79,1.79,0,0,0-3.1,0L84.56,112.87a1.79,1.79,0,0,0,1.55,2.68H97l-1.1,1.15a1.79,1.79,0,0,0,2.58,2.48l4-4.17,0,0,.06-.07,0-.07.05-.07,0-.07,0-.07,0-.08,0-.08,0-.08,0-.08,0-.08,0-.08,0-.1v-.07a1.78,1.78,0,0,0,0-.35v-.07s0-.07,0-.1l0-.08,0-.08,0-.08,0-.08,0-.08,0-.08,0-.07,0-.07-.05-.07,0-.07-.06-.07,0,0-4-4.17a1.79,1.79,0,0,0-2.58,2.48L97,112H89.21l10-17.36,10,17.36h-1.47a1.79,1.79,0,0,0,0,3.58h4.57a1.79,1.79,0,0,0,1.55-2.68Z"/><path d="M122.36,76.72a1.79,1.79,0,0,0-1.79,1.79v59.11a1.79,1.79,0,1,0,3.58,0V78.51A1.79,1.79,0,0,0,122.36,76.72Z"/><path d="M76.09,76.72a1.79,1.79,0,0,0-1.79,1.79v7.15a1.79,1.79,0,0,0,3.58,0V78.51A1.79,1.79,0,0,0,76.09,76.72Z"/><path d="M76.09,91a1.79,1.79,0,0,0-1.79,1.79v44.8a1.79,1.79,0,1,0,3.58,0V92.82A1.79,1.79,0,0,0,76.09,91Z"/><path d="M137.82,35.13H122.36a1.79,1.79,0,0,0-1.79,1.79v32.4H77.88V36.92a1.79,1.79,0,0,0-1.79-1.79H60.64a1.79,1.79,0,0,0-1.79,1.79V141.81a5.42,5.42,0,0,0,5.41,5.41H134.2a5.42,5.42,0,0,0,5.41-5.41V36.92A1.79,1.79,0,0,0,137.82,35.13ZM136,141.81a1.83,1.83,0,0,1-1.83,1.83H64.26a1.83,1.83,0,0,1-1.83-1.83V38.71H74.31v32.4a1.79,1.79,0,0,0,1.79,1.79h46.27a1.79,1.79,0,0,0,1.79-1.79V38.71H136Z"/><text class="cls-3" transform="translate(194.46 132.49)">+</text><path d="M463.71,93a2.61,2.61,0,0,0-1.29-1.82c-1.46-.82-35.25-19.61-60.07-20.77a53,53,0,0,0-5.75-11c-6-8.65-13.61-13.23-22.11-13.23a2.61,2.61,0,0,0-2.61,2.61V73.13c-7.15,1.43-15.45,3.46-22.92,5.34L335.13,66.89a2.61,2.61,0,0,0-4.26,2.36l1.86,13.34c-2.25.56-4,1-5.41,1.31-2.89-.32-18-7.26-31.25-13.9a2.61,2.61,0,0,0-3.44,3.63L304.27,94l-2.35,15.29a2.61,2.61,0,0,0,3.82,2.69c6.87-3.71,17.7-8.9,20.82-9.12a50.19,50.19,0,0,0,6,3.43L328,122.4a2.61,2.61,0,0,0,2.51,3.32c7.4,0,16.35-5.75,20.16-12.58a27.71,27.71,0,0,0,5.51,1.08l-1.44,7.38a2.61,2.61,0,0,0,1.82,3,8.33,8.33,0,0,0,2.37.34c5.55,0,10.52-5.34,13.42-9.26,8.94.71,11.36,1,14.93,1.32l.26,0-5.72,19a2.61,2.61,0,0,0,2.5,3.36c15,0,22.75-16.09,25-21.6,1.35,0,3.27.08,5.27.13,3,.08,6.07.17,7.75.17h0a10.87,10.87,0,0,0,1.47-.06c22.14-3.1,38.69-22.07,39.38-22.87A2.61,2.61,0,0,0,463.71,93Zm-16.35,9.24H422.57a2.61,2.61,0,0,0,0,5.22H439a49.16,49.16,0,0,1-15.95,5.39h-.79c-1.61,0-4.66-.08-7.61-.16-2.73-.07-5.31-.15-6.6-.15h-.77a2.62,2.62,0,0,0-2.34,1.79c-.06.18-5.54,16.38-17,19.35l5.48-18.23a2.61,2.61,0,0,0-2.24-3.35l-3.4-.34c-3.8-.39-6.31-.64-16.53-1.44H371a2.61,2.61,0,0,0-2.15,1.13c-2.2,3.21-5.53,6.87-8.44,7.94l1.36-7a2.61,2.61,0,0,0-2.31-3.1c-5.43-.54-6.46-.89-8-1.41l-1-.33a2.61,2.61,0,0,0-3.8,1.65c-1.83,4.62-7.39,9.13-12.64,10.68l3.26-11.54,1.27.52a2.61,2.61,0,0,0,2-4.83l-3.92-1.61a48.3,48.3,0,0,1-7.52-4.18,4.11,4.11,0,0,0-2.42-.69c-3.79,0-13,4.37-18.89,7.35l1.71-11.08a2.61,2.61,0,0,0-.31-1.69l-7.86-13.73c2.15,1,4.58,2.2,7,3.35,15.63,7.3,17.89,7.34,19,7.34a3.27,3.27,0,0,0,.87-.09c2-.45,4.44-1.06,8-2a2.61,2.61,0,0,0,1.95-2.89L337,75.25l9.3,7.78a2.61,2.61,0,0,0,2.62.85h.06c8.45-2.14,18.15-4.52,26-6l9.75-1.52a2.61,2.61,0,1,0-.8-5.16l-6.79,1.06V51.58c14.54,2.17,20.81,22,20.87,22.16a2.61,2.61,0,0,0,2.47,1.85c19.61.21,47.39,13.84,56.44,18.57A81.88,81.88,0,0,1,447.35,102.25Zm-18-12.09a2.1,2.1,0,1,1,2.1,2.1A2.1,2.1,0,0,1,429.38,90.16Zm-20.79,15A16.27,16.27,0,0,1,408.38,86l.18-.26a2.61,2.61,0,0,1,4.26,3l-.18.26a11.06,11.06,0,0,0,.15,13,2.61,2.61,0,0,1-4.19,3.12ZM403,85.12a2.61,2.61,0,0,1,.62,3.64l-.18.26a11.06,11.06,0,0,0,.15,13,2.61,2.61,0,0,1-4.19,3.12A16.27,16.27,0,0,1,399.2,86l.18-.26A2.61,2.61,0,0,1,403,85.12ZM394.29,89a11.06,11.06,0,0,0,.15,13,2.61,2.61,0,0,1-4.19,3.12A16.27,16.27,0,0,1,390,86l.18-.26a2.61,2.61,0,1,1,4.26,3Z"/><text class="cls-3" transform="translate(499.76 132.49)">=</text><path d="M604.92,87.22A2.61,2.61,0,0,0,606.22,89c1.46.82,35.25,19.61,60.07,20.77a53,53,0,0,0,5.75,11c6,8.65,13.61,13.23,22.11,13.23a2.61,2.61,0,0,0,2.61-2.61V107.11c7.15-1.43,15.45-3.46,22.92-5.34l13.83,11.58a2.61,2.61,0,0,0,4.26-2.36l-1.86-13.34c2.25-.56,4-1,5.41-1.31,2.89.32,18,7.26,31.25,13.9a2.61,2.61,0,0,0,3.44-3.63L764.37,86.26,766.72,71a2.61,2.61,0,0,0-3.82-2.69C756,72,745.2,77.18,742.08,77.4a50.19,50.19,0,0,0-6-3.43l4.55-16.13a2.61,2.61,0,0,0-2.51-3.32c-7.4,0-16.35,5.75-20.16,12.58A27.71,27.71,0,0,0,712.48,66l1.44-7.38a2.61,2.61,0,0,0-1.82-3,8.33,8.33,0,0,0-2.37-.34c-5.55,0-10.52,5.34-13.42,9.26-8.94-.71-11.36-1-14.93-1.32l-.26,0,5.72-19a2.61,2.61,0,0,0-2.5-3.36c-15,0-22.75,16.09-25,21.6-1.35,0-3.27-.08-5.27-.13-3-.08-6.07-.17-7.75-.17h0a10.87,10.87,0,0,0-1.47.06c-22.14,3.1-38.69,22.07-39.38,22.87A2.61,2.61,0,0,0,604.92,87.22ZM621.28,78h24.78a2.61,2.61,0,1,0,0-5.22H629.63a49.16,49.16,0,0,1,15.95-5.39h.79c1.61,0,4.66.08,7.61.16,2.73.07,5.31.15,6.6.15h.77a2.62,2.62,0,0,0,2.34-1.79c.06-.18,5.54-16.38,17-19.35l-5.48,18.23a2.61,2.61,0,0,0,2.24,3.35l3.4.34c3.8.39,6.31.64,16.53,1.44h.2a2.61,2.61,0,0,0,2.15-1.13c2.2-3.21,5.53-6.87,8.44-7.94l-1.36,7a2.61,2.61,0,0,0,2.31,3.1c5.43.54,6.46.89,8,1.41l1,.33A2.61,2.61,0,0,0,721.9,71c1.83-4.62,7.39-9.13,12.64-10.68l-3.26,11.54L730,71.33a2.61,2.61,0,0,0-2,4.83L732,77.77a48.3,48.3,0,0,1,7.52,4.18,4.11,4.11,0,0,0,2.42.69c3.79,0,13-4.37,18.89-7.35l-1.71,11.08a2.61,2.61,0,0,0,.31,1.69l7.86,13.73c-2.15-1-4.58-2.2-7-3.35-15.63-7.3-17.89-7.34-19-7.34a3.27,3.27,0,0,0-.87.09c-2,.45-4.44,1.06-8,2A2.61,2.61,0,0,0,730.41,96l1.25,8.95-9.3-7.78a2.61,2.61,0,0,0-2.62-.85h-.06c-8.45,2.14-18.15,4.52-26,6l-9.75,1.52a2.61,2.61,0,1,0,.8,5.16l6.79-1.06v20.65c-14.54-2.17-20.81-22-20.87-22.16a2.61,2.61,0,0,0-2.47-1.85c-19.61-.21-47.39-13.84-56.44-18.57A81.88,81.88,0,0,1,621.28,78Zm18,12.09a2.1,2.1,0,1,1-2.1-2.1A2.1,2.1,0,0,1,639.25,90.08Zm20.79-15a16.27,16.27,0,0,1,.22,19.17l-.18.26a2.61,2.61,0,1,1-4.26-3l.18-.26a11.06,11.06,0,0,0-.15-13A2.61,2.61,0,0,1,660,75.07Zm5.57,20.05a2.61,2.61,0,0,1-.62-3.64l.18-.26a11.06,11.06,0,0,0-.15-13,2.61,2.61,0,0,1,4.19-3.12,16.27,16.27,0,0,1,.22,19.17l-.18.26A2.61,2.61,0,0,1,665.6,95.12Zm8.74-3.9a11.06,11.06,0,0,0-.15-13,2.61,2.61,0,0,1,4.19-3.12,16.27,16.27,0,0,1,.22,19.17l-.18.26a2.61,2.61,0,0,1-4.26-3Z"/><polygon class="cls-1" points="623.4 104.38 577.53 97.02 577.53 68.47 623.4 62.58 623.4 104.38"/><path class="cls-2" d="M644.5,106.56H579.76a2.24,2.24,0,0,1-2.23-2.23V97h67Z"/><path class="cls-2" d="M623.4,68.47H577.53v-7.3a2.24,2.24,0,0,1,2.23-2.23H644.5v9.54Z"/><path d="M611.65,83.7a1.1,1.1,0,0,0,0-1.91l-14-8.1a1.1,1.1,0,0,0-1.66,1v6.74l-.71-.68a1.1,1.1,0,0,0-1.53,1.59l2.58,2.47,0,0,0,0,0,0,0,0,0,0,0,0,0,0,0,0,0,0,.05,0h.63l.05,0,0,0,0,0,0,0,0,0,0,0,0,0,0,0,0,0,0,0,2.58-2.47a1.1,1.1,0,0,0-1.53-1.59l-.71.68V76.56l10.71,6.19-10.71,6.19V88A1.1,1.1,0,1,0,596,88v2.82a1.1,1.1,0,0,0,1.66,1Z"/><path d="M619.94,97a1.1,1.1,0,0,0-1.1-1.1H582.35a1.1,1.1,0,0,0,0,2.21h36.48A1.1,1.1,0,0,0,619.94,97Z"/><path d="M619.94,68.47a1.1,1.1,0,0,0-1.1-1.1h-4.42a1.1,1.1,0,1,0,0,2.21h4.42A1.1,1.1,0,0,0,619.94,68.47Z"/><path d="M611.1,68.47a1.1,1.1,0,0,0-1.1-1.1H582.35a1.1,1.1,0,1,0,0,2.21H610A1.1,1.1,0,0,0,611.1,68.47Z"/><path d="M645.6,106.56V97a1.1,1.1,0,0,0-1.1-1.1h-20V69.57h20a1.1,1.1,0,0,0,1.1-1.1V58.93a1.1,1.1,0,0,0-1.1-1.1H579.76a3.34,3.34,0,0,0-3.34,3.34v43.16a3.34,3.34,0,0,0,3.34,3.34H644.5A1.1,1.1,0,0,0,645.6,106.56Zm-65.84-1.1a1.13,1.13,0,0,1-1.13-1.13V61.16A1.13,1.13,0,0,1,579.76,60H643.4v7.33h-20a1.1,1.1,0,0,0-1.1,1.1V97a1.1,1.1,0,0,0,1.1,1.1h20v7.33Z"/><text class="cls-4" transform="translate(13.25 189.19)">Poisonous Plastic</text><text class="cls-4" transform="translate(323.61 189.19)">Fierce Shark</text><text class="cls-4" transform="translate(585.07 189.19)">Poisoned Dead Shark</text></svg>