<?xml version="1.0" encoding="utf-8"?>
<!-- Generator: Adobe Illustrator 21.1.0, SVG Export Plug-In . SVG Version: 6.00 Build 0)  -->
<svg version="1.1" id="Layer_1" xmlns="http://www.w3.org/2000/svg" xmlns:xlink="http://www.w3.org/1999/xlink" x="0px" y="0px"
	 viewBox="0 0 800 220" style="enable-background:new 0 0 800 220;" xml:space="preserve">
<style type="text/css">
	.st0{fill:#67C7A2;}
	.st1{fill:#38A287;}
	.st2{font-family:'FuturaHandwritten';}
	.st3{font-size:102.62px;}
	.st4{font-size:20.89px;}
</style>
<title>Artboard 1</title>
<polygon class="st0" points="134.3,71.1 122.4,145.4 76.1,145.4 66.6,71.1 "/>
<path class="st1" d="M137.8,36.9v104.9c0,2-1.6,3.6-3.6,3.6h-11.8V36.9H137.8z"/>
<path class="st1" d="M76.1,71.1v74.3H64.3c-2,0-3.6-1.6-3.6-3.6V36.9h15.4V71.1z"/>
<path d="M100.8,90.1c-0.5-0.9-1.6-1.1-2.4-0.7c-0.3,0.2-0.5,0.4-0.7,0.7l-13.1,22.7c-0.5,0.9-0.2,2,0.7,2.4c0.3,0.2,0.6,0.2,0.9,0.2
	H97l-1.1,1.2c-0.7,0.7-0.6,1.9,0.1,2.5c0.7,0.6,1.8,0.6,2.5,0l4-4.2l0,0l0.1-0.1v-0.1l0.1-0.1v-0.1v-0.1v-0.1v-0.1v-0.1v-0.1v-0.1
	v-0.1v-0.1V114c0-0.1,0-0.2,0-0.3v-0.1c0,0,0-0.1,0-0.1v-0.1v-0.1v-0.1v-0.1v-0.1V113v-0.1v-0.1l-0.1-0.1v-0.1l-0.1-0.1l0,0l-4-4.2
	c-0.7-0.7-1.8-0.7-2.5,0c-0.7,0.7-0.7,1.8,0,2.5l1.1,1h-7.8l10-17.4l10,17.4h-1.5c-1,0-1.8,0.8-1.8,1.8s0.8,1.8,1.8,1.8l0,0h4.6
	c1,0,1.8-0.8,1.8-1.8c0-0.3-0.1-0.6-0.2-0.9L100.8,90.1z"/>
<path d="M122.4,76.7c-1,0-1.8,0.8-1.8,1.8l0,0v59.1c0,1,0.8,1.8,1.8,1.8s1.8-0.8,1.8-1.8V78.5C124.2,77.5,123.3,76.7,122.4,76.7
	L122.4,76.7z"/>
<path d="M76.1,76.7c-1,0-1.8,0.8-1.8,1.8l0,0v7.2c0,1,0.8,1.8,1.8,1.8s1.8-0.8,1.8-1.8v-7.2C77.9,77.5,77.1,76.7,76.1,76.7
	L76.1,76.7z"/>
<path d="M76.1,91c-1,0-1.8,0.8-1.8,1.8l0,0v44.8c0,1,0.8,1.8,1.8,1.8s1.8-0.8,1.8-1.8V92.8C77.9,91.8,77.1,91,76.1,91
	C76.1,91,76.1,91,76.1,91z"/>
<path d="M137.8,35.1h-15.5c-1,0-1.8,0.8-1.8,1.8l0,0v32.4H77.9V36.9c0-1-0.8-1.8-1.8-1.8l0,0H60.6c-1,0-1.8,0.8-1.8,1.8l0,0v104.9
	c0,3,2.4,5.4,5.4,5.4h69.9c3,0,5.4-2.4,5.4-5.4V36.9C139.6,35.9,138.8,35.1,137.8,35.1z M136,141.8c0,1-0.8,1.8-1.8,1.8l0,0H64.3
	c-1,0-1.8-0.8-1.8-1.8l0,0V38.7h11.9v32.4c0,1,0.8,1.8,1.8,1.8l0,0h46.3c1,0,1.8-0.8,1.8-1.8l0,0V38.7H136V141.8z"/>
<text transform="matrix(1 0 0 1 194.46 132.49)" class="st2 st3">+</text>
<path d="M463.7,93c-0.1-0.8-0.6-1.4-1.3-1.8c-1.5-0.8-35.2-19.6-60.1-20.8c-1.5-3.9-3.4-7.6-5.8-11c-6-8.7-13.6-13.2-22.1-13.2
	c-1.4,0-2.6,1.2-2.6,2.6v24.3c-7.1,1.4-15.5,3.5-22.9,5.3l-13.8-11.6c-1.1-0.9-2.8-0.8-3.7,0.3c-0.5,0.6-0.7,1.3-0.6,2l1.9,13.3
	c-2.2,0.6-4,1-5.4,1.3c-2.9-0.3-18-7.3-31.2-13.9c-1.3-0.7-2.9-0.1-3.5,1.2c-0.4,0.8-0.4,1.7,0.1,2.5L304.3,94l-2.4,15.3
	c-0.2,1.4,0.8,2.8,2.2,3c0.6,0.1,1.1,0,1.6-0.3c6.9-3.7,17.7-8.9,20.8-9.1c1.9,1.3,3.9,2.4,6,3.4l-4.6,16.1
	c-0.4,1.4,0.4,2.8,1.8,3.2c0.2,0.1,0.5,0.1,0.7,0.1c7.4,0,16.4-5.8,20.2-12.6c1.8,0.5,3.6,0.9,5.5,1.1l-1.4,7.4
	c-0.3,1.3,0.5,2.6,1.8,3c0.8,0.2,1.6,0.3,2.4,0.3c5.5,0,10.5-5.3,13.4-9.3c8.9,0.7,11.4,1,14.9,1.3h0.3l-5.7,19
	c-0.4,1.4,0.4,2.8,1.7,3.2c0.2,0.1,0.5,0.1,0.8,0.1c15,0,22.8-16.1,25-21.6c1.4,0,3.3,0.1,5.3,0.1c3,0.1,6.1,0.2,7.8,0.2l0,0
	c0.5,0,1,0,1.5-0.1c22.1-3.1,38.7-22.1,39.4-22.9C463.7,94.5,463.9,93.8,463.7,93z M447.4,102.2h-24.8c-1.4,0-2.6,1.2-2.6,2.6
	s1.2,2.6,2.6,2.6H439c-5,2.7-10.4,4.5-16,5.4h-0.8c-1.6,0-4.7-0.1-7.6-0.2c-2.7-0.1-5.3-0.2-6.6-0.2h-0.8c-1.1,0.1-2,0.8-2.3,1.8
	c-0.1,0.2-5.5,16.4-17,19.3l5.5-18.2c0.4-1.4-0.4-2.8-1.7-3.3c-0.2,0-0.3-0.1-0.5-0.1l-3.4-0.3c-3.8-0.4-6.3-0.6-16.5-1.4H371
	c-0.9,0-1.7,0.4-2.1,1.1c-2.2,3.2-5.5,6.9-8.4,7.9l1.4-7c0.3-1.4-0.6-2.8-2.1-3.1c-0.1,0-0.2,0-0.3,0c-5.4-0.5-6.5-0.9-8-1.4l-1-0.3
	c-1.3-0.7-2.8-0.2-3.5,1c-0.1,0.2-0.2,0.4-0.3,0.6c-1.8,4.6-7.4,9.1-12.6,10.7l3.3-11.5l1.3,0.5c1.3,0.6,2.9-0.1,3.4-1.4
	c0.6-1.3-0.1-2.9-1.4-3.4l-3.9-1.6c-2.6-1.2-5.1-2.6-7.5-4.2c-0.7-0.5-1.6-0.7-2.4-0.7c-3.8,0-13,4.4-18.9,7.3l1.7-11.1
	c0.1-0.6,0-1.2-0.3-1.7l-7.9-13.7c2.1,1,4.6,2.2,7,3.3c15.6,7.3,17.9,7.3,19,7.3c0.3,0,0.6,0,0.9-0.1c2-0.4,4.4-1.1,8-2
	c1.3-0.3,2.1-1.6,2-2.9l-1.2-8.9l9.3,7.8c0.6,0.8,1.7,1.1,2.6,0.8h0.1c8.5-2.1,18.1-4.5,26-6l9.8-1.5c1.4-0.2,2.4-1.6,2.2-3
	c-0.2-1.4-1.6-2.4-3-2.2l-6.8,1.1V51.6c14.5,2.2,20.8,22,20.9,22.2c0.3,1.1,1.3,1.8,2.5,1.8c19.6,0.2,47.4,13.8,56.4,18.6
	C453.9,97.1,450.7,99.8,447.4,102.2L447.4,102.2z M429.4,90.1c0-1.2,0.9-2.1,2.1-2.1c1.2,0,2.1,0.9,2.1,2.1c0,1.2-0.9,2.1-2.1,2.1
	C430.3,92.2,429.4,91.3,429.4,90.1L429.4,90.1z M408.6,105.1c-4.2-5.7-4.3-13.4-0.2-19.1l0.2-0.3c0.9-1.1,2.5-1.3,3.7-0.4
	c1,0.8,1.3,2.3,0.6,3.4l-0.2,0.3c-2.8,3.9-2.7,9.2,0.1,13c0.9,1.2,0.6,2.8-0.5,3.7C411.1,106.5,409.5,106.3,408.6,105.1L408.6,105.1
	L408.6,105.1z M403,85.1c1.2,0.8,1.5,2.5,0.6,3.6c0,0,0,0,0,0l-0.2,0.3c-2.8,3.9-2.7,9.2,0.1,13c0.9,1.2,0.6,2.8-0.5,3.7
	c-1.2,0.9-2.8,0.6-3.7-0.5c-4.2-5.7-4.3-13.4-0.2-19.1l0.2-0.3C400.2,84.6,401.8,84.3,403,85.1z M394.3,89c-2.8,3.9-2.7,9.2,0.1,13
	c0.9,1.2,0.6,2.8-0.5,3.7c-1.2,0.9-2.8,0.6-3.7-0.5l0,0c-4.2-5.6-4.3-13.4-0.2-19.1l0.2-0.3c0.8-1.2,2.4-1.6,3.6-0.9
	c1.2,0.8,1.6,2.4,0.9,3.6c-0.1,0.1-0.1,0.2-0.2,0.3L394.3,89z"/>
<text transform="matrix(1 0 0 1 499.76 132.49)" class="st2 st3">=</text>
<path d="M604.9,87.2c0.1,0.8,0.6,1.4,1.3,1.8c1.5,0.8,35.2,19.6,60.1,20.8c1.5,3.9,3.4,7.6,5.8,11c6,8.6,13.6,13.2,22.1,13.2
	c1.4,0,2.6-1.2,2.6-2.6v-24.3c7.2-1.4,15.5-3.5,22.9-5.3l13.8,11.6c1.1,0.9,2.8,0.8,3.7-0.3c0.5-0.6,0.7-1.3,0.6-2l-1.9-13.3
	c2.2-0.6,4-1,5.4-1.3c2.9,0.3,18,7.3,31.2,13.9c1.3,0.7,2.9,0.1,3.5-1.2c0.4-0.8,0.4-1.7-0.1-2.5l-11.6-20.4l2.3-15.3
	c0.2-1.4-0.8-2.8-2.2-3c-0.6-0.1-1.1,0-1.6,0.3c-6.9,3.7-17.7,8.9-20.8,9.1c-1.9-1.3-3.9-2.4-6-3.4l4.5-16.1
	c0.4-1.4-0.4-2.8-1.8-3.2c-0.2-0.1-0.5-0.1-0.7-0.1c-7.4,0-16.3,5.8-20.2,12.6c-1.8-0.6-3.6-0.9-5.5-1.1l1.4-7.4
	c0.3-1.3-0.5-2.6-1.8-3c-0.8-0.2-1.6-0.3-2.4-0.3c-5.5,0-10.5,5.3-13.4,9.3c-8.9-0.7-11.4-1-14.9-1.3h-0.3l5.7-19
	c0.4-1.4-0.4-2.8-1.7-3.2c-0.2-0.1-0.5-0.1-0.8-0.1c-15,0-22.8,16.1-25,21.6c-1.3,0-3.3-0.1-5.3-0.1c-3-0.1-6.1-0.2-7.8-0.2l0,0
	c-0.5,0-1,0-1.5,0.1c-22.1,3.1-38.7,22.1-39.4,22.9C605,85.7,604.8,86.5,604.9,87.2z M621.3,78h24.8c1.4,0,2.6-1.2,2.6-2.6
	s-1.2-2.6-2.6-2.6l0,0h-16.4c5-2.7,10.4-4.5,16-5.4h0.8c1.6,0,4.7,0.1,7.6,0.2c2.7,0.1,5.3,0.2,6.6,0.2h0.8c1.1-0.1,2-0.8,2.3-1.8
	c0.1-0.2,5.5-16.4,17-19.3l-5.5,18.2c-0.4,1.4,0.4,2.8,1.7,3.3c0.2,0,0.3,0.1,0.5,0.1l3.4,0.3c3.8,0.4,6.3,0.6,16.5,1.4h0.2
	c0.9,0,1.7-0.4,2.2-1.1c2.2-3.2,5.5-6.9,8.4-7.9l-1.4,7c-0.3,1.4,0.6,2.8,2.1,3.1c0.1,0,0.2,0,0.3,0c5.4,0.5,6.5,0.9,8,1.4l1,0.3
	c1.3,0.7,2.9,0.2,3.5-1.1c0.1-0.2,0.2-0.4,0.2-0.6c1.8-4.6,7.4-9.1,12.6-10.7l-3.3,11.5l-1.3-0.5c-1.3-0.6-2.9,0.1-3.4,1.4
	c-0.6,1.3,0.1,2.9,1.4,3.4l4,1.6c2.6,1.2,5.1,2.6,7.5,4.2c0.7,0.5,1.6,0.7,2.4,0.7c3.8,0,13-4.4,18.9-7.3l-1.7,11.1
	c-0.1,0.6,0,1.2,0.3,1.7l7.9,13.7c-2.2-1-4.6-2.2-7-3.3c-15.6-7.3-17.9-7.3-19-7.3c-0.3,0-0.6,0-0.9,0.1c-2,0.4-4.4,1.1-8,2
	c-1.3,0.3-2.1,1.5-2,2.8l1.2,8.9l-9.3-7.8c-0.6-0.8-1.7-1.1-2.6-0.8h-0.1c-8.5,2.1-18.2,4.5-26,6l-9.8,1.5c-1.4,0.2-2.4,1.6-2.2,3
	c0.2,1.4,1.6,2.4,3,2.2l6.8-1.1v20.6c-14.5-2.2-20.8-22-20.9-22.2c-0.3-1.1-1.3-1.8-2.5-1.8c-19.6-0.2-47.4-13.8-56.4-18.6
	C614.7,83.1,617.9,80.4,621.3,78z M639.3,90.1c0,1.2-0.9,2.1-2.1,2.1c-1.2,0-2.1-0.9-2.1-2.1s0.9-2.1,2.1-2.1l0,0
	C638.3,88,639.2,88.9,639.3,90.1L639.3,90.1z M660.1,75.1c4.2,5.7,4.3,13.4,0.2,19.2l-0.2,0.3c-0.8,1.2-2.4,1.6-3.6,0.9
	c-1.2-0.8-1.6-2.4-0.9-3.6c0.1-0.1,0.1-0.2,0.2-0.3l0.2-0.3c2.8-3.9,2.7-9.2-0.2-13c-0.8-1.2-0.5-2.8,0.7-3.6
	C657.7,73.9,659.1,74.1,660.1,75.1L660.1,75.1z M665.6,95.1c-1.2-0.8-1.5-2.5-0.6-3.6c0,0,0,0,0,0l0.2-0.3c2.8-3.9,2.7-9.2-0.2-13
	c-0.9-1.2-0.6-2.8,0.5-3.7c1.2-0.9,2.8-0.6,3.7,0.5c4.2,5.7,4.3,13.4,0.2,19.2l-0.2,0.3C668.4,95.7,666.8,96,665.6,95.1
	C665.6,95.1,665.6,95.1,665.6,95.1L665.6,95.1z M674.4,91.2c2.8-3.9,2.7-9.2-0.2-13c-0.9-1.2-0.6-2.8,0.5-3.7
	c1.2-0.9,2.8-0.6,3.7,0.5c4.2,5.7,4.3,13.4,0.2,19.2l-0.2,0.3c-0.9,1.1-2.5,1.3-3.7,0.4c-1-0.8-1.3-2.3-0.6-3.4L674.4,91.2z"/>
<polygon class="st0" points="623.4,104.4 577.5,97 577.5,68.5 623.4,62.6 "/>
<path class="st1" d="M644.5,106.6h-64.7c-1.2,0-2.2-1-2.2-2.2V97h67L644.5,106.6z"/>
<path class="st1" d="M623.4,68.5h-45.9v-7.3c0-1.2,1-2.2,2.2-2.2h64.7v9.5L623.4,68.5z"/>
<path d="M611.7,83.7c0.5-0.3,0.7-1,0.4-1.5c-0.1-0.2-0.2-0.3-0.4-0.4l-14-8.1c-0.5-0.3-1.2-0.1-1.5,0.4c-0.1,0.2-0.2,0.4-0.2,0.6
	v6.7l-0.7-0.7c-0.4-0.4-1.1-0.4-1.6,0c-0.4,0.4-0.4,1.1,0,1.6l2.6,2.5l0,0l0,0l0,0l0,0l0,0l0,0l0,0l0,0l0,0h0h0.6h0l0,0l0,0l0,0l0,0
	l0,0l0,0l0,0l0,0l0,0l2.6-2.5c0.4-0.4,0.5-1.1,0-1.6c-0.4-0.4-1.1-0.5-1.6,0l-0.7,0.7v-4.9l10.7,6.2l-10.7,6.2V88
	c0.5-0.4,0.5-1.1,0.1-1.5c-0.4-0.5-1.1-0.5-1.5-0.1s-0.5,1.1-0.1,1.5c0,0.1,0.1,0.1,0.1,0.1v2.8c0,0.6,0.4,1.1,1,1.2
	c0.2,0,0.4,0,0.6-0.2L611.7,83.7z"/>
<path d="M619.9,97c0-0.6-0.5-1.1-1.1-1.1h-36.5c-0.6,0-1.1,0.5-1.1,1.1c0,0.6,0.5,1.1,1.1,1.1h36.5C619.4,98.1,619.9,97.6,619.9,97
	C619.9,97,619.9,97,619.9,97z"/>
<path d="M619.9,68.5c0-0.6-0.5-1.1-1.1-1.1h-4.4c-0.6,0-1.1,0.5-1.1,1.1c0,0.6,0.5,1.1,1.1,1.1h4.4
	C619.4,69.6,619.9,69.1,619.9,68.5C619.9,68.5,619.9,68.5,619.9,68.5z"/>
<path d="M611.1,68.5c0-0.6-0.5-1.1-1.1-1.1h-27.7c-0.6,0-1.1,0.5-1.1,1.1c0,0.6,0.5,1.1,1.1,1.1H610
	C610.6,69.6,611.1,69.1,611.1,68.5C611.1,68.5,611.1,68.5,611.1,68.5z"/>
<path d="M645.6,106.6V97c0-0.6-0.5-1.1-1.1-1.1h-20V69.6h20c0.6,0,1.1-0.5,1.1-1.1v-9.5c0-0.6-0.5-1.1-1.1-1.1h-64.7
	c-1.8,0-3.3,1.5-3.3,3.3c0,0,0,0,0,0v43.2c0,1.8,1.5,3.3,3.3,3.3l0,0h64.7C645.1,107.7,645.6,107.2,645.6,106.6
	C645.6,106.6,645.6,106.6,645.6,106.6z M579.8,105.5c-0.6,0-1.1-0.5-1.1-1.1l0,0V61.2c0-0.6,0.5-1.1,1.1-1.2c0,0,0,0,0,0h63.6v7.3
	h-20c-0.6,0-1.1,0.5-1.1,1.1V97c0,0.6,0.5,1.1,1.1,1.1h20v7.3L579.8,105.5z"/>
<text transform="matrix(1 0 0 1 13.25 189.19)" class="st2 st4">Poisonous Plastic</text>
<text transform="matrix(1 0 0 1 323.61 189.19)" class="st2 st4">Fierce Shark</text>
<text transform="matrix(1 0 0 1 585.07 189.19)" class="st2 st4">Poisoned Dead Shark</text>
</svg>
