<svg id="Layer_1" data-name="Layer 1" xmlns="http://www.w3.org/2000/svg" viewBox="0 0 567.69 317.4"><defs><style>.cls-1{fill:#fffbee;}.cls-2{fill:#f4d99d;}.cls-3{fill:#fba761;}.cls-4{fill:#fa892d;}.cls-5{fill:#f56c6c;}.cls-6{fill:#db4d4d;}.cls-7{fill:#a27e77;}.cls-8{fill:#956b64;}.cls-9{fill:#fbdc40;}.cls-10{fill:#fad000;}.cls-11{fill:#e4dad8;}.cls-12{fill:#b9cc29;}.cls-13{fill:#a4ba29;}.cls-14{fill:#feda44;}.cls-15{fill:#f91;}.cls-16{fill:#fff;}.cls-17{fill:#e0e0e2;}.cls-18{fill:#ff5023;}.cls-19{fill:#d80029;}.cls-20{fill:#c3fb3a;}.cls-21{fill:#e6bb00;}.cls-22{fill:#f9545b;}.cls-23{fill:#fedd00;}.cls-24{fill:#fece00;}.cls-25{fill:#65c27c;}.cls-26{font-size:17.5px;font-family:FuturaHandwritten, FuturaHandwritten;}.cls-27{fill:#3c92ca;}</style></defs><title>Artboard 1</title><path class="cls-1" d="M48,29.86h4.65V28.12a1.75,1.75,0,0,0-1.74-1.74H49.77A1.75,1.75,0,0,0,48,28.12v1.74Z"/><path class="cls-2" d="M34.19,43.65H30.11a1.84,1.84,0,1,0,0,3.68h4.09Z"/><path class="cls-2" d="M66.52,43.65v3.68H70.6a1.84,1.84,0,0,0,0-3.68Z"/><path class="cls-2" d="M33.44,37.75H67.27a1.44,1.44,0,0,0,0-2.87h-.79a5.71,5.71,0,0,0-5.65-5H39.88a5.71,5.71,0,0,0-5.65,5h-.79a1.44,1.44,0,1,0,0,2.87Z"/><path class="cls-1" d="M67.27,37.75H33.44a1.44,1.44,0,0,0,0,2.87h.75v18a3.6,3.6,0,0,0,3.59,3.59H62.93a3.6,3.6,0,0,0,3.59-3.59v-18h.75a1.44,1.44,0,0,0,0-2.87Z"/><path d="M70.6,42.75H67.42V41.52a2.33,2.33,0,0,0,1.69-3.77A2.33,2.33,0,0,0,67.27,34h0a6.59,6.59,0,0,0-6.4-5H53.58v-.84a2.64,2.64,0,0,0-2.64-2.64H49.77a2.64,2.64,0,0,0-2.64,2.64V29H39.88a6.59,6.59,0,0,0-6.4,5h0a2.33,2.33,0,0,0-1.84,3.77,2.33,2.33,0,0,0,1.69,3.77v1.23H30.11a2.74,2.74,0,1,0,0,5.48H33.3V58.58a4.49,4.49,0,0,0,4.49,4.49H62.93a4.49,4.49,0,0,0,4.49-4.49V48.23H70.6a2.74,2.74,0,0,0,0-5.48ZM48.93,28.12a.84.84,0,0,1,.84-.84h1.16a.84.84,0,0,1,.84.84V29H48.93v-.84ZM33.44,35.78h.79a.9.9,0,0,0,.89-.79,4.79,4.79,0,0,1,4.76-4.22H60.83A4.79,4.79,0,0,1,65.59,35a.9.9,0,0,0,.89.79h.79a.54.54,0,1,1,0,1.08H33.44a.54.54,0,1,1,0-1.08ZM30.11,46.43a.94.94,0,1,1,0-1.89H33.3v1.89ZM65.62,58.58a2.7,2.7,0,0,1-2.69,2.69H37.78a2.7,2.7,0,0,1-2.69-2.69v-18a.9.9,0,0,0-.9-.9h-.75a.54.54,0,0,1,0-1.08H67.27a.54.54,0,0,1,0,1.08h-.75a.9.9,0,0,0-.9.9v18Zm5-12.15H67.42V44.55H70.6a.94.94,0,0,1,0,1.89Z"/><path d="M49.45,23a.9.9,0,1,0,1.65.7,4.24,4.24,0,0,0,.1-3.66A2.61,2.61,0,0,1,51,18.32a.9.9,0,0,0-1.75-.4,4.35,4.35,0,0,0,.25,2.8A2.5,2.5,0,0,1,49.45,23Z"/><path d="M39.2,23a.9.9,0,1,0,1.65.7,4.24,4.24,0,0,0,.1-3.66,2.6,2.6,0,0,1-.18-1.77.9.9,0,1,0-1.75-.4,4.35,4.35,0,0,0,.25,2.8A2.5,2.5,0,0,1,39.2,23Z"/><path d="M59.7,23a.9.9,0,1,0,1.65.7,4.24,4.24,0,0,0,.1-3.66,2.6,2.6,0,0,1-.18-1.77.9.9,0,1,0-1.75-.4,4.35,4.35,0,0,0,.25,2.8A2.5,2.5,0,0,1,59.7,23Z"/><path d="M41,39.73H37.36a.9.9,0,0,0,0,1.8H41a.9.9,0,0,0,0-1.8Z"/><path d="M43.65,39.73h0a.9.9,0,1,0,0,1.8h0a.9.9,0,1,0,0-1.8Z"/><path class="cls-3" d="M66.61,125.38H39.41a4.53,4.53,0,0,1-4.53-4.53v-3H71.15v3A4.53,4.53,0,0,1,66.61,125.38Z"/><path class="cls-4" d="M37.9,120.84v-3h-3v3a4.53,4.53,0,0,0,4.53,4.53h3A4.53,4.53,0,0,1,37.9,120.84Z"/><path class="cls-3" d="M71.15,101.95H34.87V99.68a6,6,0,0,1,6-6H65.1a6,6,0,0,1,6,6v2.27Z"/><path class="cls-4" d="M43.94,93.64h-3a6,6,0,0,0-6,6v2.27h3V99.68A6,6,0,0,1,43.94,93.64Z"/><path class="cls-5" d="M70.39,113.28H35.63A2.27,2.27,0,0,1,33.36,111h0a2.27,2.27,0,0,1,2.27-2.27H70.39A2.27,2.27,0,0,1,72.66,111h0A2.27,2.27,0,0,1,70.39,113.28Z"/><path class="cls-6" d="M36.38,111h0a2.27,2.27,0,0,1,2.27-2.27h-3A2.27,2.27,0,0,0,33.36,111h0a2.27,2.27,0,0,0,2.27,2.27h3A2.27,2.27,0,0,1,36.38,111Z"/><path class="cls-7" d="M70.39,106.48H35.63a2.27,2.27,0,0,1-2.27-2.27h0a2.27,2.27,0,0,1,2.27-2.27H70.39a2.27,2.27,0,0,1,2.27,2.27h0A2.27,2.27,0,0,1,70.39,106.48Z"/><path class="cls-8" d="M36.38,104.22h0a2.27,2.27,0,0,1,2.27-2.27h-3a2.27,2.27,0,0,0-2.27,2.27h0a2.27,2.27,0,0,0,2.27,2.27h3A2.27,2.27,0,0,1,36.38,104.22Z"/><path class="cls-7" d="M70.39,117.82H35.63a2.27,2.27,0,0,1-2.27-2.27h0a2.27,2.27,0,0,1,2.27-2.27H70.39a2.27,2.27,0,0,1,2.27,2.27h0A2.27,2.27,0,0,1,70.39,117.82Z"/><path class="cls-8" d="M36.38,115.55h0a2.27,2.27,0,0,1,2.27-2.27h-3a2.27,2.27,0,0,0-2.27,2.27h0a2.27,2.27,0,0,0,2.27,2.27h3A2.27,2.27,0,0,1,36.38,115.55Z"/><polygon class="cls-9" points="53.01 120.08 68.88 113.28 37.14 113.28 53.01 120.08"/><polygon class="cls-10" points="42.43 113.28 37.14 113.28 53.01 120.08 55.66 118.95 42.43 113.28"/><polygon class="cls-11" points="53.01 80.79 40.92 80.79 43.19 84.57 40.92 88.34 53.01 88.34 53.01 80.79"/><path class="cls-12" d="M37.14,106.48v2.27c2,0,2,2.27,4,2.27s2-1.51,4-1.51,2,1.51,4,1.51,2-1.51,4-1.51,2,1.51,4,1.51,2-1.51,4-1.51,2,1.51,4,1.51,2.27-2.27,4.28-2.27v-2.27Z"/><rect class="cls-13" x="37.14" y="106.48" width="32.5" height="2.27"/><path d="M71.15,118.81a.71.71,0,0,0-.71.71v1.32a3.83,3.83,0,0,1-3.83,3.83H39.41a3.83,3.83,0,0,1-3.83-3.83v-1.32a.71.71,0,1,0-1.42,0v1.32a5.25,5.25,0,0,0,5.24,5.24H66.61a5.25,5.25,0,0,0,5.24-5.24v-1.32A.71.71,0,0,0,71.15,118.81Z"/><path d="M34.87,100.86a.71.71,0,0,0,.71-.71v-.47a5.34,5.34,0,0,1,5.34-5.34H65.1a5.34,5.34,0,0,1,5.34,5.34v.47a.71.71,0,0,0,1.42,0v-.47a6.76,6.76,0,0,0-6.75-6.75H53.72V78.52a.71.71,0,0,0-1.42,0v1.56H40.92a.72.72,0,0,0-.61,1.07l2,3.41-2,3.41a.72.72,0,0,0,.61,1.07H52.3v3.87H40.92a6.76,6.76,0,0,0-6.75,6.75v.47A.71.71,0,0,0,34.87,100.86Zm7.3-13.22,1.62-2.71a.71.71,0,0,0,0-.73L42.17,81.5H52.3v6.14Z"/><path d="M73.37,111a3,3,0,0,0-3-3h0v-.85h0a3,3,0,1,0,0-6h-6a.71.71,0,1,0,0,1.42h6a1.56,1.56,0,1,1,0,3.12H35.63a1.56,1.56,0,0,1,0-3.12H60.95a.71.71,0,1,0,0-1.42H35.63a3,3,0,0,0,0,6h.8V108h-.8a3,3,0,0,0-1.92,5.24,3,3,0,0,0,1.92,5.24H47.56l5.17,2.21a.71.71,0,0,0,.56,0l5.16-2.21H70.39a3,3,0,0,0,1.92-5.24A3,3,0,0,0,73.37,111Zm-4.44-3.83v.93A4,4,0,0,0,67,109.38c-.59.59-1,.93-1.64.93a2.28,2.28,0,0,1-1.59-.61,3.77,3.77,0,0,0-4.88,0,2.37,2.37,0,0,1-3.18,0,3.77,3.77,0,0,0-4.88,0,2.37,2.37,0,0,1-3.18,0,3.77,3.77,0,0,0-4.88,0,2.28,2.28,0,0,1-1.59.61c-.66,0-1-.32-1.49-.9a3.56,3.56,0,0,0-1.84-1.29v-.93H68.93Zm-33.3,9.92a1.56,1.56,0,0,1,0-3.12H37l7.27,3.12H35.63ZM53,119.31,40.59,114H65.43ZM72,115.55a1.56,1.56,0,0,1-1.56,1.56H61.75L69,114h1.37A1.56,1.56,0,0,1,72,115.55Zm-36.32-3a1.56,1.56,0,0,1,0-3.12h1.51c.66,0,1,.32,1.49.9a3.21,3.21,0,0,0,2.54,1.37,3.67,3.67,0,0,0,2.44-.9,2.37,2.37,0,0,1,3.18,0,3.77,3.77,0,0,0,4.88,0,2.37,2.37,0,0,1,3.18,0,3.77,3.77,0,0,0,4.88,0,2.37,2.37,0,0,1,3.18,0,3.67,3.67,0,0,0,2.44.9A3.57,3.57,0,0,0,68,110.38c.59-.59,1-.93,1.64-.93h.76a1.56,1.56,0,1,1,0,3.12Z"/><circle cx="53.01" cy="96.61" r="0.71"/><circle cx="57.59" cy="98.88" r="0.71"/><circle cx="39.45" cy="98.88" r="0.71"/><circle cx="48.52" cy="98.88" r="0.71"/><circle cx="43.89" cy="96.61" r="0.71"/><circle class="cls-14" cx="50.78" cy="170.67" r="22.31"/><path class="cls-15" d="M32.74,170.67a22.31,22.31,0,0,1,20.18-22.21c-.7-.07-1.42-.1-2.14-.1a22.31,22.31,0,0,0,0,44.63c.72,0,1.43,0,2.14-.1A22.31,22.31,0,0,1,32.74,170.67Z"/><path class="cls-16" d="M67.52,170.18a1.64,1.64,0,0,1,.24.79c.07,1.47.65,3,.29,4.33s-1.81,2.56-2.56,3.86-1,3.08-2.06,4.15-2.83,1.3-4.15,2.06-2.37,2.17-3.86,2.56-2.86-.21-4.33-.29a1.64,1.64,0,0,1-.79-.24c-.89-.56,0-1.28,0-2.81,0-1.74,1.08-1.74,1.08-3.48s-1.08-1.74-1.08-3.48,1.08-1.74,1.08-3.48-.24-2.26.22-2.72,1-.22,2.72-.22,1.74-1.08,3.48-1.08,1.74,1.08,3.48,1.08,1.74-1.08,3.48-1.08C66.24,170.13,67,169.29,67.52,170.18Z"/><path class="cls-17" d="M53.93,187.65a1.64,1.64,0,0,1-.79-.24c-.89-.56,0-1.28,0-2.81,0-1.74,1.08-1.74,1.08-3.48s-1.08-1.74-1.08-3.48,1.08-1.74,1.08-3.48-.24-2.26.22-2.72,1-.22,2.72-.22a3.44,3.44,0,0,0,2.06-.73,2.73,2.73,0,0,0-1.43-.35c-1.74,0-1.74,1.08-3.48,1.08s-2.26-.24-2.72.22-.22,1-.22,2.72-1.08,1.74-1.08,3.48,1.08,1.74,1.08,3.48-1.08,1.74-1.08,3.48c0,1.52-.84,2.25,0,2.81a1.64,1.64,0,0,0,.79.24c1.47.07,3,.65,4.33.29l.21-.06A14.84,14.84,0,0,0,53.93,187.65Z"/><path class="cls-18" d="M53.14,187.93a20.26,20.26,0,0,0-2.06-.28,1.64,1.64,0,0,1-.79-.24c-.89-.56,0-1.28,0-2.81,0-1.74,1.08-1.74,1.08-3.48s-1.08-1.74-1.08-3.48,1.08-1.74,1.08-3.48-.23-2.27.22-2.72,1-.22,2.72-.22,1.74-1.08,3.48-1.08,1.74,1.08,3.48,1.08,1.74-1.08,3.48-1.08c1.52,0,2.25-.84,2.81,0a1.64,1.64,0,0,1,.24.79A20.25,20.25,0,0,0,68,173a17.4,17.4,0,1,0-14.9,14.9Z"/><path class="cls-19" d="M36.53,170.67a17.42,17.42,0,0,1,15.83-17.35c-.52,0-1.05-.07-1.58-.07a17.42,17.42,0,1,0,0,34.84q.8,0,1.59-.07A17.42,17.42,0,0,1,36.53,170.67Z"/><rect class="cls-20" x="41.36" y="167.31" width="2.96" height="2.96"/><rect class="cls-20" x="44.32" y="177.72" width="2.96" height="2.96"/><rect class="cls-20" x="53.28" y="164" width="2.96" height="2.96"/><circle class="cls-14" cx="46.78" cy="161.94" r="1.77"/><circle class="cls-14" cx="56.24" cy="159.53" r="1.77"/><circle class="cls-14" cx="39.09" cy="174.99" r="1.77"/><rect x="55.94" y="173.58" width="1.35" height="1.35" transform="translate(-8.73 3.08) rotate(-2.89)"/><rect x="52.74" y="177.85" width="1.35" height="1.35" transform="translate(-8.95 2.93) rotate(-2.89)"/><rect x="46.11" y="172.54" width="1.35" height="1.35" transform="translate(-8.67 2.58) rotate(-2.89)"/><rect x="47.28" y="166.29" width="1.35" height="1.35" transform="translate(-8.35 2.63) rotate(-2.89)"/><rect x="50.11" y="156.56" width="1.35" height="1.35" transform="translate(-7.86 2.76) rotate(-2.89)"/><rect x="36.34" y="168.08" width="1.35" height="1.35" transform="translate(-8.46 2.08) rotate(-2.89)"/><rect x="59.58" y="177.81" width="1.35" height="1.35" transform="translate(-8.94 3.27) rotate(-2.89)"/><rect x="57.79" y="182.4" width="1.35" height="1.35" transform="translate(-9.15 3.18) rotate(-2.89)"/><rect x="64.99" y="174.28" width="1.35" height="1.35" transform="translate(-8.73 3.53) rotate(-2.89)"/><rect x="53.41" y="182.33" width="1.35" height="1.35" transform="translate(-9.16 2.96) rotate(-2.89)"/><path d="M67,154.42a23,23,0,1,0,6.73,16.25A22.84,22.84,0,0,0,67,154.42Zm-1.71,32.26-1.12-1.12-1,1,1,1a21.64,21.64,0,1,1,1-.88Z"/><path class="cls-16" d="M48.66,157l-.2-1.33a15.12,15.12,0,0,0-8.12,4l.92,1A13.78,13.78,0,0,1,48.66,157Z"/><path class="cls-16" d="M40.42,161.45l-1-.9a15.26,15.26,0,0,0-2.16,3.14l1.2.62A13.91,13.91,0,0,1,40.42,161.45Z"/><path class="cls-16" d="M64.38,167.93l1.32-.26A15.26,15.26,0,0,0,63,161.53l-1.08.81A13.9,13.9,0,0,1,64.38,167.93Z"/><path class="cls-16" d="M61.14,161.45l1-.9a15.37,15.37,0,0,0-1.08-1.1l-.91,1A14,14,0,0,1,61.14,161.45Z"/><path d="M50.78,189.93a19.25,19.25,0,0,1-17-10.16l-1.19.64a20.59,20.59,0,0,0,18.16,10.87l.84,0-.05-1.35Z"/><path class="cls-16" d="M66.75,159.9l1.12-.75a20.54,20.54,0,0,0-12.52-8.58l-.3,1.31A19.19,19.19,0,0,1,66.75,159.9Z"/><path class="cls-16" d="M53.94,150.31a20.83,20.83,0,0,0-3.15-.24v1.35a19.48,19.48,0,0,1,2.95.22Z"/><path d="M68.87,170.67a18.09,18.09,0,0,0-35.93-3H30.67V169h2.1c-.05.55-.08,1.1-.08,1.66a18.11,18.11,0,0,0,18.09,18.09,18.33,18.33,0,0,0,2.35-.15,8.75,8.75,0,0,0,1.3.11,4.44,4.44,0,0,0,1.15-.14A7.22,7.22,0,0,0,58.26,187a10.22,10.22,0,0,1,1.34-1,10.46,10.46,0,0,1,1.57-.68,7.22,7.22,0,0,0,2.72-1.49,7.22,7.22,0,0,0,1.49-2.72,10.46,10.46,0,0,1,.68-1.57,10.23,10.23,0,0,1,1-1.34,7.22,7.22,0,0,0,1.63-2.68,6,6,0,0,0,0-2.45A18.37,18.37,0,0,0,68.87,170.67Zm-34.84,0a16.75,16.75,0,0,1,33.43-1.44,2.14,2.14,0,0,0-1.48,0,4.71,4.71,0,0,1-1.27.2,3.56,3.56,0,0,0-2.1.64,2.42,2.42,0,0,1-2.78,0,3.76,3.76,0,0,0-4.19,0,2.23,2.23,0,0,1-1.39.44c-.51,0-.91,0-1.24,0-.83,0-1.42-.07-2,.46s-.5,1.13-.46,2c0,.33,0,.73,0,1.24a2.23,2.23,0,0,1-.44,1.39,3.76,3.76,0,0,0,0,4.19,2.42,2.42,0,0,1,0,2.78,3.56,3.56,0,0,0-.64,2.1,4.71,4.71,0,0,1-.2,1.27,2.14,2.14,0,0,0,0,1.48A16.77,16.77,0,0,1,34,170.67Zm33.36,4.45A6.14,6.14,0,0,1,66,177.29a11.37,11.37,0,0,0-1.13,1.53,11.61,11.61,0,0,0-.78,1.77,6.16,6.16,0,0,1-1.18,2.24A6.16,6.16,0,0,1,60.7,184a11.62,11.62,0,0,0-1.77.78,11.37,11.37,0,0,0-1.53,1.13,6.14,6.14,0,0,1-2.17,1.36,6.11,6.11,0,0,1-2.49-.1,14.19,14.19,0,0,0-1.64-.21,1,1,0,0,1-.47-.14l-.09-.07a2.39,2.39,0,0,1,.11-.55,6,6,0,0,0,.25-1.62,2.23,2.23,0,0,1,.44-1.39,3.76,3.76,0,0,0,0-4.19,2.42,2.42,0,0,1,0-2.78,3.56,3.56,0,0,0,.64-2.1c0-.54,0-1,0-1.31,0-.72,0-.84.07-.93s.22-.1.93-.07c.34,0,.77,0,1.31,0a3.56,3.56,0,0,0,2.1-.64,2.42,2.42,0,0,1,2.78,0,3.76,3.76,0,0,0,4.19,0,2.23,2.23,0,0,1,1.39-.44,6,6,0,0,0,1.61-.25,2.38,2.38,0,0,1,.55-.11.42.42,0,0,1,.07.09,1,1,0,0,1,.14.47,14.19,14.19,0,0,0,.21,1.64A6.12,6.12,0,0,1,67.39,175.12Z"/><path d="M40.68,170.94H45v-4.31H40.68ZM42,168h1.61v1.61H42Z"/><path d="M43.64,181.36H48V177H43.64Zm1.35-3h1.61V180H45Z"/><path d="M56.91,163.32H52.6v4.31h4.31Zm-1.35,3H54v-1.61h1.61Z"/><path d="M46.78,159.49a2.45,2.45,0,1,0,2.45,2.45A2.45,2.45,0,0,0,46.78,159.49Zm0,3.55a1.1,1.1,0,1,1,1.1-1.1A1.1,1.1,0,0,1,46.78,163Z"/><path d="M56.24,162a2.45,2.45,0,1,0-2.45-2.45A2.45,2.45,0,0,0,56.24,162Zm0-3.55a1.1,1.1,0,1,1-1.1,1.1A1.1,1.1,0,0,1,56.24,158.43Z"/><path d="M39.09,172.54A2.45,2.45,0,1,0,41.53,175,2.45,2.45,0,0,0,39.09,172.54Zm0,3.55a1.1,1.1,0,1,1,1.1-1.1A1.1,1.1,0,0,1,39.09,176.09Z"/><path class="cls-21" d="M63.27,232.36,46.93,213.28h6.85a19.09,19.09,0,0,1,18.86,16.13,2.55,2.55,0,0,1-2.51,3Z"/><path class="cls-22" d="M63.27,232.36h7.19a1.74,1.74,0,0,0-.73-3.2,1.74,1.74,0,0,0-1.29-3h0a1.74,1.74,0,0,0-1.81-2.74h0A1.74,1.74,0,0,0,64.36,221h0a1.74,1.74,0,0,0-2.35-2.1l-.37-.53a1.7,1.7,0,0,0-.62-.88h0a1.73,1.73,0,0,0-2.1,0Z"/><path class="cls-23" d="M65.79,229.41a19.09,19.09,0,0,0-37.71,0,2.55,2.55,0,0,0,2.51,3H63.27A2.55,2.55,0,0,0,65.79,229.41Z"/><path class="cls-24" d="M31.66,229.41a19.09,19.09,0,0,1,17.06-16q-.89-.08-1.8-.08a19.09,19.09,0,0,0-18.86,16.13,2.55,2.55,0,0,0,2.51,3h3.59A2.55,2.55,0,0,1,31.66,229.41Z"/><path d="M41.29,223.94V222.8a.67.67,0,1,0-1.35,0v1.14a.67.67,0,1,0,1.35,0Z"/><path d="M53.91,223.94V222.8a.67.67,0,1,0-1.35,0v1.14a.67.67,0,1,0,1.35,0Z"/><path d="M46.93,225.46a3.21,3.21,0,0,0,2.42-1.08.67.67,0,0,0-1-.89,1.91,1.91,0,0,1-2.81,0,.67.67,0,1,0-1,.89A3.21,3.21,0,0,0,46.93,225.46Z"/><path d="M30.59,233H70.46a3.14,3.14,0,0,0,2.11-1.12,3.24,3.24,0,0,0,.74-2.61,19.76,19.76,0,0,0-19.52-16.7H46.93a19.61,19.61,0,0,0-14.08,5.9.67.67,0,1,0,1,.94A18.41,18.41,0,0,1,58.5,218a18.52,18.52,0,0,1,6.09,9.1c.33,1.13,1,2.85.1,3.9a1.86,1.86,0,0,1-1.42.65H30.59a1.89,1.89,0,0,1-1.85-2.18,18.41,18.41,0,0,1,3.37-8.08.67.67,0,1,0-1.08-.8,19.76,19.76,0,0,0-3.62,8.67A3.25,3.25,0,0,0,30.59,233Zm29.85-15.09.18.11a1,1,0,0,1,.31.37l-.49-.47Zm5.45,13.74,0,0a3.28,3.28,0,0,0,.53-1.28,5.22,5.22,0,0,0-.15-2A19.67,19.67,0,0,0,62,219.6a.67.67,0,0,0,.27-.06,1.05,1.05,0,0,1,1.12.19,1,1,0,0,1,.31,1.1.68.68,0,0,0,.92.81A1.07,1.07,0,0,1,66,223.09a.68.68,0,0,0,.76,1,1.07,1.07,0,0,1,1.11,1.68.68.68,0,0,0,.58,1.08,1.07,1.07,0,0,1,.79,1.85.68.68,0,0,0,.38,1.17,1.07,1.07,0,0,1,.59,1.86ZM54.11,214A18.41,18.41,0,0,1,72,229.51a1.9,1.9,0,0,1-.08.9v-.06a2.39,2.39,0,0,0-1.1-1.53,2.43,2.43,0,0,0-1.37-3.2,2.43,2.43,0,0,0-1.92-2.91,2.43,2.43,0,0,0-2.41-2.52,2.43,2.43,0,0,0-2.8-2.05l0-.05a2.37,2.37,0,0,0-.83-1.12A2.4,2.4,0,0,0,59,216.7a19.76,19.76,0,0,0-4.41-2.56l-.4-.16Z"/><path class="cls-16" d="M30.18,271.37a6.34,6.34,0,0,1,.17-2.65c.5-1.21,1.94-1.92,2.66-3s.84-2.68,1.76-3.6,2.52-1,3.6-1.76,1.79-2.16,3-2.66,2.71,0,4-.24,2.46-1.3,3.79-1.3,2.53,1.06,3.79,1.3,2.81-.25,4,.24,1.92,1.94,3,2.66,2.68.84,3.6,1.76,1,2.52,1.76,3.6,2.16,1.79,2.66,3a6.34,6.34,0,0,1,.17,2.65Z"/><path class="cls-17" d="M35.24,268.73c.5-1.21,1.94-1.92,2.66-3s.84-2.68,1.76-3.6,2.52-1,3.6-1.76,1.79-2.16,3-2.66,2.71,0,4-.24A5.89,5.89,0,0,0,51.6,257a6,6,0,0,0-2.44-.81c-1.33,0-2.53,1.06-3.79,1.3s-2.81-.25-4,.24-1.92,1.94-3,2.66-2.68.84-3.6,1.76-1,2.52-1.76,3.6-2.16,1.79-2.66,3a6.34,6.34,0,0,0-.17,2.65h4.89A6.34,6.34,0,0,1,35.24,268.73Z"/><path class="cls-20" d="M71.87,255l-.48-.24a.87.87,0,0,0-1.17.41l-4.95,10.53v0a8,8,0,0,0,1.35,1.39l5.63-10.94A.87.87,0,0,0,71.87,255Z"/><path class="cls-20" d="M63.53,262.13a2.72,2.72,0,0,1,.34.42l4-8.42a.87.87,0,0,0-.43-1.16l-.49-.22a.87.87,0,0,0-1.15.45l-3.48,8.15A3.71,3.71,0,0,1,63.53,262.13Z"/><path class="cls-25" d="M63.52,261.36,67,253.21a.86.86,0,0,1,.23-.31l-.32-.14a.87.87,0,0,0-1.15.45l-3.48,8.15a3.71,3.71,0,0,1,1.26.77,2.72,2.72,0,0,1,.34.42l.39-.82A5,5,0,0,0,63.52,261.36Z"/><path class="cls-25" d="M66.53,265.73v0l4.95-10.53a.86.86,0,0,1,.2-.27l-.28-.14a.87.87,0,0,0-1.17.41l-4.95,10.53v0a8,8,0,0,0,1.35,1.39l.4-.78A4.31,4.31,0,0,1,66.53,265.73Z"/><path class="cls-18" d="M27.79,271.37v6.87a17.25,17.25,0,0,0,12.77,16.63v4.21H57.74v-4.21a17.25,17.25,0,0,0,12.77-16.63v-6.87H27.79Z"/><path class="cls-19" d="M31.77,278.25v-6.87h-4v6.87a17.25,17.25,0,0,0,12.77,16.63v4.21h4v-4.21A17.25,17.25,0,0,1,31.77,278.25Z"/><rect class="cls-14" x="44.59" y="277.78" width="9.13" height="9.13" transform="translate(-185.25 117.45) rotate(-45)"/><polygon class="cls-15" points="46.29 282.34 50.95 277.68 49.15 275.89 42.7 282.34 49.15 288.8 50.95 287 46.29 282.34"/><rect class="cls-16" x="67.43" y="273.63" width="1.4" height="2.12"/><path class="cls-16" d="M59.05,291.13l.59,1.27a15.68,15.68,0,0,0,9.19-14.31V277h-1.4v1.05A14.29,14.29,0,0,1,59.05,291.13Z"/><rect class="cls-16" x="53.66" y="296.29" width="2.08" height="1.4"/><rect class="cls-16" x="42.55" y="296.29" width="10.19" height="1.4"/><path d="M61.46,267.26l1.16-.78a5.13,5.13,0,0,1-.49-1.12,4.75,4.75,0,0,0-1-1.86l-1,1a3.64,3.64,0,0,1,.67,1.34A6.22,6.22,0,0,0,61.46,267.26Z"/><path d="M53.62,261a3.61,3.61,0,0,1,1.48.1,3.64,3.64,0,0,1,1.14,1,4.73,4.73,0,0,0,2.56,1.71l.3.11.48-1.32-.32-.11a3.43,3.43,0,0,1-2-1.33,4.76,4.76,0,0,0-1.65-1.35,4.65,4.65,0,0,0-2.09-.21,5.21,5.21,0,0,1-1.23,0L52,261A6.31,6.31,0,0,0,53.62,261Z"/><path d="M73,255.29a1.56,1.56,0,0,0-.8-.92l-.48-.24a1.57,1.57,0,0,0-2.11.74L65.29,264l0-.14a9.78,9.78,0,0,0-.57-1.39l3.79-8.08a1.57,1.57,0,0,0-.78-2.1l-.49-.22a1.57,1.57,0,0,0-2.08.82l-3.21,7.54-.13,0a4.45,4.45,0,0,1-2.56-1.71,5.73,5.73,0,0,0-2-1.65,5.7,5.7,0,0,0-2.54-.25,6.63,6.63,0,0,1-1.59,0,6.39,6.39,0,0,1-1.43-.56,5.77,5.77,0,0,0-2.5-.76,5.77,5.77,0,0,0-2.5.76,6.39,6.39,0,0,1-1.43.56,6.64,6.64,0,0,1-1.59,0,5.69,5.69,0,0,0-2.54.25,5.73,5.73,0,0,0-2,1.65A6.49,6.49,0,0,1,38,259.79a6.54,6.54,0,0,1-1.44.63,5.73,5.73,0,0,0-2.27,1.21,5.73,5.73,0,0,0-1.21,2.27,6.54,6.54,0,0,1-.63,1.44,6.49,6.49,0,0,1-1.08,1.12,5.73,5.73,0,0,0-1.65,2,5.06,5.06,0,0,0-.26,2.22H27.09v7.57a17.9,17.9,0,0,0,12.77,17.16v4.39H58.44v-4.39a17.9,17.9,0,0,0,12.77-17.16v-7.57H68.86a5.06,5.06,0,0,0-.26-2.22A4.48,4.48,0,0,0,67.5,267l5.39-10.47A1.56,1.56,0,0,0,73,255.29ZM63.19,261l3.21-7.53a.17.17,0,0,1,.22-.09l.49.22a.17.17,0,0,1,.08.22l-3.52,7.49h0l0,0-.1-.07,0,0-.07,0-.07,0,0,0-.1-.06ZM31,269a4.66,4.66,0,0,1,1.28-1.49,7.6,7.6,0,0,0,1.31-1.39,7.66,7.66,0,0,0,.79-1.75,4.66,4.66,0,0,1,.88-1.74,4.66,4.66,0,0,1,1.74-.88,7.66,7.66,0,0,0,1.75-.79,7.6,7.6,0,0,0,1.39-1.31,4.66,4.66,0,0,1,1.49-1.28,3,3,0,0,1,1.12-.17l.81,0a7.75,7.75,0,0,0,1.94-.06,7.49,7.49,0,0,0,1.76-.67,4.69,4.69,0,0,1,1.89-.62,4.69,4.69,0,0,1,1.89.62,7.49,7.49,0,0,0,1.76.67,7.76,7.76,0,0,0,1.94.06,4.64,4.64,0,0,1,1.93.14,4.66,4.66,0,0,1,1.49,1.28,5.76,5.76,0,0,0,3.14,2.1L62,262l.16.07h0l.13.06h0l.25.14,0,0,.06,0,.05,0,.05,0,0,0,.05,0,0,0,.08.08.07.07a2.2,2.2,0,0,1,.19.24l0,.06a7.08,7.08,0,0,1,.59,1.36,9.84,9.84,0,0,0,.57,1.38v0l.21.32,0,0h0l.16.22A8.83,8.83,0,0,0,66,267.51l.23.21a3.91,3.91,0,0,1,1,1.28,4,4,0,0,1,.16,1.68H34.67a2.81,2.81,0,0,1,.12-1.15,3.64,3.64,0,0,1,1-1.14,6.18,6.18,0,0,0,1.07-1.13l-1.16-.78a5.09,5.09,0,0,1-.84.87A4.76,4.76,0,0,0,33.49,269a3.92,3.92,0,0,0-.23,1.68H30.85A4,4,0,0,1,31,269Zm38.81,9.25a16.53,16.53,0,0,1-12.26,16l-.51.14v4H41.26v-2.81h12v-1.4H40.66a16.79,16.79,0,0,1-10.08-7.87H36v-1.4H29.88a16.45,16.45,0,0,1-1.39-6.66V275H33v-1.4h-4.5v-1.54H61.26v3.16h1.4v-3.16h7.15v6.17Zm1.83-22.39L66.43,266l0,0-.12-.12,0,0-.15-.17,4.77-10.15a.17.17,0,0,1,.23-.08l.48.24a.17.17,0,0,1,.08.23Z"/><path d="M41.71,282.34l7.44,7.44,7.44-7.44-7.44-7.44Zm7.44,5.46-5.46-5.46,5.46-5.46,5.46,5.46Z"/><path class="cls-1" d="M109.81,29.46h4.65V27.72A1.75,1.75,0,0,0,112.71,26h-1.16a1.75,1.75,0,0,0-1.74,1.74v1.74Z"/><path class="cls-2" d="M96,43.25H91.88a1.84,1.84,0,1,0,0,3.68H96Z"/><path class="cls-2" d="M128.29,43.25v3.68h4.09a1.84,1.84,0,1,0,0-3.68Z"/><path class="cls-2" d="M95.22,37.35H129a1.44,1.44,0,0,0,0-2.87h-.79a5.71,5.71,0,0,0-5.65-5H101.66a5.71,5.71,0,0,0-5.65,5h-.79a1.44,1.44,0,1,0,0,2.87Z"/><path class="cls-1" d="M129,37.35H95.22a1.44,1.44,0,0,0,0,2.87H96v18a3.6,3.6,0,0,0,3.59,3.59H124.7a3.6,3.6,0,0,0,3.59-3.59v-18H129a1.44,1.44,0,0,0,0-2.87Z"/><path d="M132.38,42.35h-3.19V41.12a2.33,2.33,0,0,0,1.69-3.77A2.33,2.33,0,0,0,129,33.58h0a6.59,6.59,0,0,0-6.4-5h-7.25v-.84a2.64,2.64,0,0,0-2.64-2.64h-1.16a2.64,2.64,0,0,0-2.64,2.64v.84h-7.25a6.59,6.59,0,0,0-6.4,5h0a2.33,2.33,0,0,0-1.84,3.77,2.33,2.33,0,0,0,1.69,3.77v1.23H91.88a2.74,2.74,0,1,0,0,5.48h3.19V58.18a4.49,4.49,0,0,0,4.49,4.49H124.7a4.49,4.49,0,0,0,4.49-4.49V47.82h3.19a2.74,2.74,0,0,0,0-5.48ZM110.71,27.72a.84.84,0,0,1,.84-.84h1.16a.84.84,0,0,1,.84.84v.84h-2.85v-.84ZM95.22,35.37H96a.9.9,0,0,0,.89-.79,4.79,4.79,0,0,1,4.76-4.22H122.6a4.79,4.79,0,0,1,4.76,4.22.9.9,0,0,0,.89.79H129a.54.54,0,1,1,0,1.08H95.22a.54.54,0,0,1,0-1.08ZM91.88,46a.94.94,0,0,1,0-1.89h3.19V46ZM127.4,58.18a2.7,2.7,0,0,1-2.69,2.69H99.56a2.7,2.7,0,0,1-2.69-2.69v-18a.9.9,0,0,0-.9-.9h-.75a.54.54,0,0,1,0-1.08H129a.54.54,0,0,1,0,1.08h-.75a.9.9,0,0,0-.9.9v18Zm5-12.15h-3.19V44.14h3.19a.94.94,0,0,1,0,1.89Z"/><path d="M111.22,22.64a.9.9,0,1,0,1.65.7,4.24,4.24,0,0,0,.1-3.66,2.61,2.61,0,0,1-.18-1.77.9.9,0,0,0-1.75-.4,4.35,4.35,0,0,0,.25,2.8A2.5,2.5,0,0,1,111.22,22.64Z"/><path d="M101,22.64a.9.9,0,1,0,1.65.7,4.24,4.24,0,0,0,.1-3.66,2.6,2.6,0,0,1-.18-1.77.9.9,0,1,0-1.75-.4,4.35,4.35,0,0,0,.25,2.8A2.5,2.5,0,0,1,101,22.64Z"/><path d="M121.47,22.64a.9.9,0,1,0,1.65.7,4.24,4.24,0,0,0,.1-3.66,2.6,2.6,0,0,1-.18-1.77.9.9,0,1,0-1.75-.4,4.35,4.35,0,0,0,.25,2.8A2.5,2.5,0,0,1,121.47,22.64Z"/><path d="M102.82,39.33H99.14a.9.9,0,1,0,0,1.8h3.68a.9.9,0,0,0,0-1.8Z"/><path d="M105.42,39.33h0a.9.9,0,1,0,0,1.8h0a.9.9,0,1,0,0-1.8Z"/><path class="cls-3" d="M127.16,125H100a4.53,4.53,0,0,1-4.53-4.53v-3h36.27v3A4.53,4.53,0,0,1,127.16,125Z"/><path class="cls-4" d="M98.44,120.48v-3h-3v3A4.53,4.53,0,0,0,100,125h3A4.53,4.53,0,0,1,98.44,120.48Z"/><path class="cls-3" d="M131.69,101.59H95.42V99.32a6,6,0,0,1,6-6h24.18a6,6,0,0,1,6,6v2.27Z"/><path class="cls-4" d="M104.49,93.28h-3a6,6,0,0,0-6,6v2.27h3V99.32A6,6,0,0,1,104.49,93.28Z"/><path class="cls-5" d="M130.94,112.93H96.18a2.27,2.27,0,0,1-2.27-2.27h0a2.27,2.27,0,0,1,2.27-2.27h34.76a2.27,2.27,0,0,1,2.27,2.27h0A2.27,2.27,0,0,1,130.94,112.93Z"/><path class="cls-6" d="M96.93,110.66h0a2.27,2.27,0,0,1,2.27-2.27h-3a2.27,2.27,0,0,0-2.27,2.27h0a2.27,2.27,0,0,0,2.27,2.27h3A2.27,2.27,0,0,1,96.93,110.66Z"/><path class="cls-7" d="M130.94,106.13H96.18a2.27,2.27,0,0,1-2.27-2.27h0a2.27,2.27,0,0,1,2.27-2.27h34.76a2.27,2.27,0,0,1,2.27,2.27h0A2.27,2.27,0,0,1,130.94,106.13Z"/><path class="cls-8" d="M96.93,103.86h0a2.27,2.27,0,0,1,2.27-2.27h-3a2.27,2.27,0,0,0-2.27,2.27h0a2.27,2.27,0,0,0,2.27,2.27h3A2.27,2.27,0,0,1,96.93,103.86Z"/><path class="cls-7" d="M130.94,117.46H96.18a2.27,2.27,0,0,1-2.27-2.27h0a2.27,2.27,0,0,1,2.27-2.27h34.76a2.27,2.27,0,0,1,2.27,2.27h0A2.27,2.27,0,0,1,130.94,117.46Z"/><path class="cls-8" d="M96.93,115.19h0a2.27,2.27,0,0,1,2.27-2.27h-3a2.27,2.27,0,0,0-2.27,2.27h0a2.27,2.27,0,0,0,2.27,2.27h3A2.27,2.27,0,0,1,96.93,115.19Z"/><polygon class="cls-9" points="113.56 119.73 129.43 112.93 97.69 112.93 113.56 119.73"/><polygon class="cls-10" points="102.98 112.93 97.69 112.93 113.56 119.73 116.2 118.59 102.98 112.93"/><polygon class="cls-11" points="113.56 80.43 101.47 80.43 103.73 84.21 101.47 87.99 113.56 87.99 113.56 80.43"/><path class="cls-12" d="M97.69,106.13v2.27c2,0,2,2.27,4,2.27s2-1.51,4-1.51,2,1.51,4,1.51,2-1.51,4-1.51,2,1.51,4,1.51,2-1.51,4-1.51,2,1.51,4,1.51,2.27-2.27,4.28-2.27v-2.27Z"/><rect class="cls-13" x="97.69" y="106.13" width="32.5" height="2.27"/><path d="M131.69,118.45a.71.71,0,0,0-.71.71v1.32a3.83,3.83,0,0,1-3.83,3.83H100a3.83,3.83,0,0,1-3.83-3.83v-1.32a.71.71,0,1,0-1.42,0v1.32a5.25,5.25,0,0,0,5.24,5.24h27.21a5.25,5.25,0,0,0,5.24-5.24v-1.32A.71.71,0,0,0,131.69,118.45Z"/><path d="M95.42,100.51a.71.71,0,0,0,.71-.71v-.47A5.34,5.34,0,0,1,101.47,94h24.18A5.34,5.34,0,0,1,131,99.32v.47a.71.71,0,0,0,1.42,0v-.47a6.76,6.76,0,0,0-6.75-6.75H114.27V78.16a.71.71,0,0,0-1.42,0v1.56H101.47a.72.72,0,0,0-.61,1.07l2,3.41-2,3.41a.72.72,0,0,0,.61,1.07h11.38v3.87H101.47a6.76,6.76,0,0,0-6.75,6.75v.47A.71.71,0,0,0,95.42,100.51Zm7.3-13.22,1.62-2.71a.71.71,0,0,0,0-.73l-1.62-2.71h10.13v6.14Z"/><path d="M133.91,110.66a3,3,0,0,0-3-3h0v-.85h0a3,3,0,1,0,0-6h-6a.71.71,0,1,0,0,1.42h6a1.56,1.56,0,0,1,0,3.12H96.18a1.56,1.56,0,0,1,0-3.12h25.32a.71.71,0,1,0,0-1.42H96.18a3,3,0,0,0,0,6H97v.85h-.8a3,3,0,0,0-1.92,5.24,3,3,0,0,0,1.92,5.24h11.94l5.17,2.21a.71.71,0,0,0,.56,0l5.16-2.21h11.94a3,3,0,0,0,1.92-5.24A3,3,0,0,0,133.91,110.66Zm-4.44-3.83v.93a4,4,0,0,0-1.93,1.26c-.59.59-1,.93-1.64.93a2.28,2.28,0,0,1-1.59-.61,3.77,3.77,0,0,0-4.88,0,2.37,2.37,0,0,1-3.18,0,3.77,3.77,0,0,0-4.88,0,2.37,2.37,0,0,1-3.18,0,3.77,3.77,0,0,0-4.88,0,2.28,2.28,0,0,1-1.59.61c-.66,0-1-.32-1.49-.9a3.56,3.56,0,0,0-1.84-1.29v-.93h31.08Zm-33.3,9.92a1.56,1.56,0,0,1,0-3.12h1.37l7.27,3.12H96.18Zm17.38,2.2-12.42-5.32H126Zm18.94-3.76a1.56,1.56,0,0,1-1.56,1.56H122.3l7.27-3.12h1.37A1.56,1.56,0,0,1,132.5,115.19Zm-36.32-3a1.56,1.56,0,0,1,0-3.12h1.51c.66,0,1,.32,1.49.9a3.21,3.21,0,0,0,2.54,1.37,3.67,3.67,0,0,0,2.44-.9,2.37,2.37,0,0,1,3.18,0,3.77,3.77,0,0,0,4.88,0,2.37,2.37,0,0,1,3.18,0,3.77,3.77,0,0,0,4.88,0,2.37,2.37,0,0,1,3.18,0,3.67,3.67,0,0,0,2.44.9,3.57,3.57,0,0,0,2.64-1.34c.59-.59,1-.93,1.64-.93h.76a1.56,1.56,0,1,1,0,3.12Z"/><circle cx="113.56" cy="96.25" r="0.71"/><circle cx="118.14" cy="98.52" r="0.71"/><circle cx="100" cy="98.52" r="0.71"/><circle cx="109.07" cy="98.52" r="0.71"/><circle cx="104.44" cy="96.25" r="0.71"/><circle class="cls-14" cx="112.56" cy="170.27" r="22.31"/><path class="cls-15" d="M94.52,170.27a22.31,22.31,0,0,1,20.18-22.21c-.7-.07-1.42-.1-2.14-.1a22.31,22.31,0,0,0,0,44.63c.72,0,1.43,0,2.14-.1A22.31,22.31,0,0,1,94.52,170.27Z"/><path class="cls-16" d="M129.3,169.78a1.64,1.64,0,0,1,.24.79c.07,1.47.65,3,.29,4.33s-1.81,2.56-2.56,3.86-1,3.08-2.06,4.15-2.83,1.3-4.15,2.06-2.37,2.17-3.86,2.56-2.86-.21-4.33-.29a1.64,1.64,0,0,1-.79-.24c-.89-.56,0-1.28,0-2.81,0-1.74,1.08-1.74,1.08-3.48S112,179,112,177.24s1.08-1.74,1.08-3.48-.24-2.26.22-2.72,1-.22,2.72-.22,1.74-1.08,3.48-1.08,1.74,1.08,3.48,1.08,1.74-1.08,3.48-1.08C128,169.73,128.74,168.89,129.3,169.78Z"/><path class="cls-17" d="M115.71,187.25a1.64,1.64,0,0,1-.79-.24c-.89-.56,0-1.28,0-2.81,0-1.74,1.08-1.74,1.08-3.48s-1.08-1.74-1.08-3.48,1.08-1.74,1.08-3.48-.24-2.26.22-2.72,1-.22,2.72-.22a3.44,3.44,0,0,0,2.06-.73,2.73,2.73,0,0,0-1.43-.35c-1.74,0-1.74,1.08-3.48,1.08s-2.26-.24-2.72.22-.22,1-.22,2.72S112,175.5,112,177.24s1.08,1.74,1.08,3.48S112,182.46,112,184.2c0,1.52-.84,2.25,0,2.81a1.64,1.64,0,0,0,.79.24c1.47.07,3,.65,4.33.29l.21-.06A14.84,14.84,0,0,0,115.71,187.25Z"/><path class="cls-18" d="M114.92,187.53a20.26,20.26,0,0,0-2.06-.28,1.64,1.64,0,0,1-.79-.24c-.89-.56,0-1.28,0-2.81,0-1.74,1.08-1.74,1.08-3.48S112,179,112,177.24s1.08-1.74,1.08-3.48-.23-2.27.22-2.72,1-.22,2.72-.22,1.74-1.08,3.48-1.08,1.74,1.08,3.48,1.08,1.74-1.08,3.48-1.08c1.52,0,2.25-.84,2.81,0a1.64,1.64,0,0,1,.24.79,20.25,20.25,0,0,0,.28,2.06,17.4,17.4,0,1,0-14.9,14.9Z"/><path class="cls-19" d="M98.31,170.27a17.42,17.42,0,0,1,15.83-17.35c-.52,0-1.05-.07-1.58-.07a17.42,17.42,0,0,0,0,34.84q.8,0,1.59-.07A17.42,17.42,0,0,1,98.31,170.27Z"/><rect class="cls-20" x="103.13" y="166.9" width="2.96" height="2.96"/><rect class="cls-20" x="106.1" y="177.32" width="2.96" height="2.96"/><rect class="cls-20" x="115.05" y="163.6" width="2.96" height="2.96"/><circle class="cls-14" cx="108.56" cy="161.54" r="1.77"/><circle class="cls-14" cx="118.01" cy="159.13" r="1.77"/><circle class="cls-14" cx="100.86" cy="174.59" r="1.77"/><rect x="117.72" y="173.17" width="1.35" height="1.35" transform="translate(-8.63 6.2) rotate(-2.89)"/><rect x="114.52" y="177.44" width="1.35" height="1.35" transform="translate(-8.85 6.04) rotate(-2.89)"/><rect x="107.89" y="172.14" width="1.35" height="1.35" transform="translate(-8.57 5.69) rotate(-2.89)"/><rect x="109.06" y="165.88" width="1.35" height="1.35" transform="translate(-8.26 5.74) rotate(-2.89)"/><rect x="111.88" y="156.16" width="1.35" height="1.35" transform="translate(-7.76 5.87) rotate(-2.89)"/><rect x="98.12" y="167.68" width="1.35" height="1.35" transform="translate(-8.36 5.19) rotate(-2.89)"/><rect x="121.36" y="177.41" width="1.35" height="1.35" transform="translate(-8.84 6.39) rotate(-2.89)"/><rect x="119.56" y="182" width="1.35" height="1.35" transform="translate(-9.05 6.29) rotate(-2.89)"/><rect x="126.76" y="173.88" width="1.35" height="1.35" transform="translate(-8.64 6.64) rotate(-2.89)"/><rect x="115.19" y="181.93" width="1.35" height="1.35" transform="translate(-9.06 6.07) rotate(-2.89)"/><path d="M128.81,154a23,23,0,1,0,6.73,16.25A22.84,22.84,0,0,0,128.81,154Zm-1.71,32.26L126,185.16l-1,1,1,1a21.64,21.64,0,1,1,1-.88Z"/><path class="cls-16" d="M110.44,156.56l-.2-1.33a15.12,15.12,0,0,0-8.12,4l.92,1A13.78,13.78,0,0,1,110.44,156.56Z"/><path class="cls-16" d="M102.2,161l-1-.9A15.26,15.26,0,0,0,99,163.29l1.2.62A13.91,13.91,0,0,1,102.2,161Z"/><path class="cls-16" d="M126.16,167.53l1.32-.26a15.25,15.25,0,0,0-2.75-6.14l-1.08.81A13.9,13.9,0,0,1,126.16,167.53Z"/><path class="cls-16" d="M122.92,161l1-.9a15.37,15.37,0,0,0-1.08-1.1l-.91,1A14,14,0,0,1,122.92,161Z"/><path d="M112.56,189.53a19.25,19.25,0,0,1-17-10.16l-1.19.64a20.59,20.59,0,0,0,18.16,10.87l.84,0-.05-1.35Z"/><path class="cls-16" d="M128.53,159.5l1.12-.75a20.54,20.54,0,0,0-12.52-8.58l-.3,1.31A19.19,19.19,0,0,1,128.53,159.5Z"/><path class="cls-16" d="M115.71,149.9a20.83,20.83,0,0,0-3.15-.24V151a19.48,19.48,0,0,1,2.95.22Z"/><path d="M130.65,170.27a18.09,18.09,0,0,0-35.93-3H92.45v1.35h2.1c-.05.55-.08,1.1-.08,1.66a18.11,18.11,0,0,0,18.09,18.09,18.33,18.33,0,0,0,2.35-.15,8.75,8.75,0,0,0,1.3.11,4.44,4.44,0,0,0,1.15-.14,7.22,7.22,0,0,0,2.68-1.63,10.22,10.22,0,0,1,1.34-1,10.46,10.46,0,0,1,1.57-.68,5.53,5.53,0,0,0,4.21-4.21,10.46,10.46,0,0,1,.68-1.57,10.23,10.23,0,0,1,1-1.34,7.22,7.22,0,0,0,1.63-2.68,6,6,0,0,0,0-2.45A18.37,18.37,0,0,0,130.65,170.27Zm-34.84,0a16.75,16.75,0,0,1,33.43-1.44,2.14,2.14,0,0,0-1.48,0,4.71,4.71,0,0,1-1.27.2,3.56,3.56,0,0,0-2.1.64,2.42,2.42,0,0,1-2.78,0,3.76,3.76,0,0,0-4.19,0,2.23,2.23,0,0,1-1.39.44c-.51,0-.91,0-1.24,0-.83,0-1.42-.07-2,.46s-.5,1.13-.46,2c0,.33,0,.73,0,1.24a2.23,2.23,0,0,1-.44,1.39,3.76,3.76,0,0,0,0,4.19,2.42,2.42,0,0,1,0,2.78,3.56,3.56,0,0,0-.64,2.1,4.71,4.71,0,0,1-.2,1.27,2.14,2.14,0,0,0,0,1.48A16.77,16.77,0,0,1,95.81,170.27Zm33.36,4.45a6.14,6.14,0,0,1-1.36,2.17,11.37,11.37,0,0,0-1.13,1.53,11.61,11.61,0,0,0-.78,1.77,4.28,4.28,0,0,1-3.42,3.42,11.62,11.62,0,0,0-1.77.78,11.37,11.37,0,0,0-1.53,1.13,4.26,4.26,0,0,1-4.65,1.27,14.19,14.19,0,0,0-1.64-.21,1,1,0,0,1-.47-.14l-.09-.07a2.39,2.39,0,0,1,.11-.55,6,6,0,0,0,.25-1.62,2.23,2.23,0,0,1,.44-1.39,3.76,3.76,0,0,0,0-4.19,2.42,2.42,0,0,1,0-2.78,3.56,3.56,0,0,0,.64-2.1c0-.54,0-1,0-1.31,0-.72,0-.84.07-.93s.22-.1.93-.07c.34,0,.77,0,1.31,0a3.56,3.56,0,0,0,2.1-.64,2.42,2.42,0,0,1,2.78,0,3.76,3.76,0,0,0,4.19,0,2.23,2.23,0,0,1,1.39-.44,6,6,0,0,0,1.61-.25,2.38,2.38,0,0,1,.55-.11.42.42,0,0,1,.07.09,1,1,0,0,1,.14.47,14.19,14.19,0,0,0,.21,1.64A6.12,6.12,0,0,1,129.17,174.72Z"/><path d="M102.46,170.54h4.31v-4.31h-4.31Zm1.35-3h1.61v1.61h-1.61Z"/><path d="M105.42,181h4.31v-4.31h-4.31Zm1.35-3h1.61v1.61h-1.61Z"/><path d="M118.69,162.92h-4.31v4.31h4.31Zm-1.35,3h-1.61v-1.61h1.61Z"/><path d="M108.56,159.09a2.45,2.45,0,1,0,2.45,2.45A2.45,2.45,0,0,0,108.56,159.09Zm0,3.55a1.1,1.1,0,1,1,1.1-1.1A1.1,1.1,0,0,1,108.56,162.63Z"/><path d="M118,161.57a2.45,2.45,0,1,0-2.45-2.45A2.45,2.45,0,0,0,118,161.57Zm0-3.55a1.1,1.1,0,1,1-1.1,1.1A1.1,1.1,0,0,1,118,158Z"/><path d="M100.86,172.14a2.45,2.45,0,1,0,2.45,2.45A2.45,2.45,0,0,0,100.86,172.14Zm0,3.55a1.1,1.1,0,1,1,1.1-1.1A1.1,1.1,0,0,1,100.86,175.69Z"/><path class="cls-21" d="M125,232l-16.34-19.08h6.85A19.09,19.09,0,0,1,134.41,229a2.55,2.55,0,0,1-2.51,3Z"/><path class="cls-22" d="M125,232h7.19a1.74,1.74,0,0,0-.73-3.2,1.74,1.74,0,0,0-1.29-3h0A1.74,1.74,0,0,0,128.4,223h0a1.74,1.74,0,0,0-2.27-2.37h0a1.74,1.74,0,0,0-2.35-2.1l-.37-.53a1.7,1.7,0,0,0-.62-.88h0a1.73,1.73,0,0,0-2.1,0Z"/><path class="cls-23" d="M127.56,229a19.09,19.09,0,0,0-37.71,0,2.55,2.55,0,0,0,2.51,3H125A2.55,2.55,0,0,0,127.56,229Z"/><path class="cls-24" d="M93.44,229a19.09,19.09,0,0,1,17.06-16q-.89-.08-1.8-.08A19.09,19.09,0,0,0,89.85,229a2.55,2.55,0,0,0,2.51,3H96A2.55,2.55,0,0,1,93.44,229Z"/><path d="M103.07,223.54V222.4a.67.67,0,0,0-1.35,0v1.14a.67.67,0,0,0,1.35,0Z"/><path d="M115.69,223.54V222.4a.67.67,0,0,0-1.35,0v1.14a.67.67,0,0,0,1.35,0Z"/><path d="M108.71,225.06a3.21,3.21,0,0,0,2.42-1.08.67.67,0,0,0-1-.89,1.91,1.91,0,0,1-2.81,0,.67.67,0,1,0-1,.89A3.21,3.21,0,0,0,108.71,225.06Z"/><path d="M92.36,232.63h39.87a3.14,3.14,0,0,0,2.11-1.12,3.24,3.24,0,0,0,.74-2.61,19.76,19.76,0,0,0-19.52-16.7h-6.85a19.61,19.61,0,0,0-14.08,5.9.67.67,0,1,0,1,.94,18.41,18.41,0,0,1,24.7-1.41,18.52,18.52,0,0,1,6.09,9.1c.33,1.13,1,2.85.1,3.9a1.86,1.86,0,0,1-1.42.65H92.36a1.89,1.89,0,0,1-1.85-2.18A18.41,18.41,0,0,1,93.89,221a.67.67,0,1,0-1.08-.8,19.76,19.76,0,0,0-3.62,8.67A3.25,3.25,0,0,0,92.36,232.63Zm29.85-15.09.18.11a1,1,0,0,1,.31.37l-.49-.47Zm5.45,13.74,0,0a3.28,3.28,0,0,0,.53-1.28,5.22,5.22,0,0,0-.15-2,19.67,19.67,0,0,0-4.28-8.81.67.67,0,0,0,.27-.06,1.05,1.05,0,0,1,1.12.19,1,1,0,0,1,.31,1.1.68.68,0,0,0,.92.81,1.07,1.07,0,0,1,1.39,1.46.68.68,0,0,0,.76,1,1.07,1.07,0,0,1,1.11,1.68.68.68,0,0,0,.58,1.08,1.07,1.07,0,0,1,.79,1.85.68.68,0,0,0,.38,1.17,1.07,1.07,0,0,1,.59,1.86Zm-11.78-17.73a18.41,18.41,0,0,1,17.86,15.56,1.9,1.9,0,0,1-.08.9v-.06a2.39,2.39,0,0,0-1.1-1.53,2.43,2.43,0,0,0-1.37-3.2,2.43,2.43,0,0,0-1.92-2.91,2.43,2.43,0,0,0-2.41-2.52,2.43,2.43,0,0,0-2.8-2.05l0-.05a2.37,2.37,0,0,0-.83-1.12,2.4,2.4,0,0,0-2.45-.27,19.76,19.76,0,0,0-4.41-2.56l-.4-.16Z"/><path class="cls-1" d="M174.07,29.3h4.65V27.56A1.75,1.75,0,0,0,177,25.82h-1.16a1.75,1.75,0,0,0-1.74,1.74V29.3Z"/><path class="cls-2" d="M160.23,43.08h-4.09a1.84,1.84,0,1,0,0,3.68h4.09Z"/><path class="cls-2" d="M192.55,43.08v3.68h4.09a1.84,1.84,0,0,0,0-3.68Z"/><path class="cls-2" d="M159.47,37.19H193.3a1.44,1.44,0,0,0,0-2.87h-.79a5.71,5.71,0,0,0-5.65-5H165.92a5.71,5.71,0,0,0-5.65,5h-.79a1.44,1.44,0,1,0,0,2.87Z"/><path class="cls-1" d="M193.3,37.19H159.47a1.44,1.44,0,0,0,0,2.87h.75V58a3.6,3.6,0,0,0,3.59,3.59H189A3.6,3.6,0,0,0,192.55,58v-18h.75a1.44,1.44,0,0,0,0-2.87Z"/><path d="M196.64,42.18h-3.19V41a2.33,2.33,0,0,0,1.69-3.77,2.33,2.33,0,0,0-1.84-3.77h0a6.59,6.59,0,0,0-6.4-5h-7.25v-.84A2.64,2.64,0,0,0,177,24.92h-1.16a2.64,2.64,0,0,0-2.64,2.64v.84h-7.25a6.59,6.59,0,0,0-6.4,5h0a2.33,2.33,0,0,0-1.84,3.77A2.33,2.33,0,0,0,159.33,41v1.23h-3.19a2.74,2.74,0,0,0,0,5.48h3.19V58a4.49,4.49,0,0,0,4.49,4.49H189A4.49,4.49,0,0,0,193.45,58V47.66h3.19a2.74,2.74,0,0,0,0-5.48ZM175,27.56a.84.84,0,0,1,.84-.84H177a.84.84,0,0,1,.84.84v.84H175v-.84Zm-15.49,7.66h.79a.9.9,0,0,0,.89-.79,4.79,4.79,0,0,1,4.76-4.22h20.94a4.79,4.79,0,0,1,4.76,4.22.9.9,0,0,0,.89.79h.79a.54.54,0,0,1,0,1.08H159.47a.54.54,0,0,1,0-1.08Zm-3.33,10.65a.94.94,0,0,1,0-1.89h3.19v1.89ZM191.65,58A2.7,2.7,0,0,1,189,60.71H163.82A2.7,2.7,0,0,1,161.12,58v-18a.9.9,0,0,0-.9-.9h-.75a.54.54,0,0,1,0-1.08H193.3a.54.54,0,0,1,0,1.08h-.75a.9.9,0,0,0-.9.9V58Zm5-12.15h-3.19V44h3.19a.94.94,0,0,1,0,1.89Z"/><path d="M175.48,22.48a.9.9,0,1,0,1.65.7,4.24,4.24,0,0,0,.1-3.66,2.61,2.61,0,0,1-.18-1.77.9.9,0,1,0-1.75-.4,4.35,4.35,0,0,0,.25,2.8A2.5,2.5,0,0,1,175.48,22.48Z"/><path d="M165.23,22.48a.9.9,0,1,0,1.65.7,4.24,4.24,0,0,0,.1-3.66,2.6,2.6,0,0,1-.18-1.77.9.9,0,0,0-1.75-.4,4.35,4.35,0,0,0,.25,2.8A2.5,2.5,0,0,1,165.23,22.48Z"/><path d="M185.73,22.48a.9.9,0,1,0,1.65.7,4.24,4.24,0,0,0,.1-3.66,2.6,2.6,0,0,1-.18-1.77.9.9,0,1,0-1.75-.4,4.35,4.35,0,0,0,.25,2.8A2.5,2.5,0,0,1,185.73,22.48Z"/><path d="M167.08,39.16h-3.68a.9.9,0,0,0,0,1.8h3.68a.9.9,0,0,0,0-1.8Z"/><path d="M169.68,39.16h0a.9.9,0,1,0,0,1.8h0a.9.9,0,1,0,0-1.8Z"/><path class="cls-3" d="M189.9,124.87H162.7a4.53,4.53,0,0,1-4.53-4.53v-3h36.27v3A4.53,4.53,0,0,1,189.9,124.87Z"/><path class="cls-4" d="M161.18,120.34v-3h-3v3a4.53,4.53,0,0,0,4.53,4.53h3A4.53,4.53,0,0,1,161.18,120.34Z"/><path class="cls-3" d="M194.44,101.45H158.16V99.18a6,6,0,0,1,6-6h24.18a6,6,0,0,1,6,6v2.27Z"/><path class="cls-4" d="M167.23,93.13h-3a6,6,0,0,0-6,6v2.27h3V99.18A6,6,0,0,1,167.23,93.13Z"/><path class="cls-5" d="M193.68,112.78H158.92a2.27,2.27,0,0,1-2.27-2.27h0a2.27,2.27,0,0,1,2.27-2.27h34.76a2.27,2.27,0,0,1,2.27,2.27h0A2.27,2.27,0,0,1,193.68,112.78Z"/><path class="cls-6" d="M159.67,110.52h0a2.27,2.27,0,0,1,2.27-2.27h-3a2.27,2.27,0,0,0-2.27,2.27h0a2.27,2.27,0,0,0,2.27,2.27h3A2.27,2.27,0,0,1,159.67,110.52Z"/><path class="cls-7" d="M193.68,106H158.92a2.27,2.27,0,0,1-2.27-2.27h0a2.27,2.27,0,0,1,2.27-2.27h34.76a2.27,2.27,0,0,1,2.27,2.27h0A2.27,2.27,0,0,1,193.68,106Z"/><path class="cls-8" d="M159.67,103.71h0a2.27,2.27,0,0,1,2.27-2.27h-3a2.27,2.27,0,0,0-2.27,2.27h0a2.27,2.27,0,0,0,2.27,2.27h3A2.27,2.27,0,0,1,159.67,103.71Z"/><path class="cls-7" d="M193.68,117.32H158.92a2.27,2.27,0,0,1-2.27-2.27h0a2.27,2.27,0,0,1,2.27-2.27h34.76a2.27,2.27,0,0,1,2.27,2.27h0A2.27,2.27,0,0,1,193.68,117.32Z"/><path class="cls-8" d="M159.67,115.05h0a2.27,2.27,0,0,1,2.27-2.27h-3a2.27,2.27,0,0,0-2.27,2.27h0a2.27,2.27,0,0,0,2.27,2.27h3A2.27,2.27,0,0,1,159.67,115.05Z"/><polygon class="cls-9" points="176.3 119.58 192.17 112.78 160.43 112.78 176.3 119.58"/><polygon class="cls-10" points="165.72 112.78 160.43 112.78 176.3 119.58 178.94 118.45 165.72 112.78"/><polygon class="cls-11" points="176.3 80.29 164.21 80.29 166.47 84.07 164.21 87.84 176.3 87.84 176.3 80.29"/><path class="cls-12" d="M160.43,106v2.27c2,0,2,2.27,4,2.27s2-1.51,4-1.51,2,1.51,4,1.51,2-1.51,4-1.51,2,1.51,4,1.51,2-1.51,4-1.51,2,1.51,4,1.51,2.27-2.27,4.28-2.27V106Z"/><rect class="cls-13" x="160.43" y="105.98" width="32.5" height="2.27"/><path d="M194.44,118.31a.71.71,0,0,0-.71.71v1.32a3.83,3.83,0,0,1-3.83,3.83H162.7a3.83,3.83,0,0,1-3.83-3.83V119a.71.71,0,1,0-1.42,0v1.32a5.25,5.25,0,0,0,5.24,5.24H189.9a5.25,5.25,0,0,0,5.24-5.24V119A.71.71,0,0,0,194.44,118.31Z"/><path d="M158.16,100.36a.71.71,0,0,0,.71-.71v-.47a5.34,5.34,0,0,1,5.34-5.34h24.18a5.34,5.34,0,0,1,5.34,5.34v.47a.71.71,0,0,0,1.42,0v-.47a6.76,6.76,0,0,0-6.75-6.75H177V78a.71.71,0,0,0-1.42,0v1.56H164.21a.72.72,0,0,0-.61,1.07l2,3.41-2,3.41a.72.72,0,0,0,.61,1.07h11.38v3.87H164.21a6.76,6.76,0,0,0-6.75,6.75v.47A.71.71,0,0,0,158.16,100.36Zm7.3-13.22,1.62-2.71a.71.71,0,0,0,0-.73L165.46,81h10.13v6.14Z"/><path d="M196.66,110.52a3,3,0,0,0-3-3h0v-.85h0a3,3,0,1,0,0-6h-6a.71.71,0,1,0,0,1.42h6a1.56,1.56,0,0,1,0,3.12H158.92a1.56,1.56,0,0,1,0-3.12h25.32a.71.71,0,1,0,0-1.42H158.92a3,3,0,0,0,0,6h.8v.85h-.8a3,3,0,0,0-1.92,5.24,3,3,0,0,0,1.92,5.24h11.94l5.17,2.21a.71.71,0,0,0,.56,0l5.16-2.21h11.94a3,3,0,0,0,1.92-5.24A3,3,0,0,0,196.66,110.52Zm-4.44-3.83v.93a4,4,0,0,0-1.93,1.26c-.59.59-1,.93-1.64.93a2.28,2.28,0,0,1-1.59-.61,3.77,3.77,0,0,0-4.88,0,2.37,2.37,0,0,1-3.18,0,3.77,3.77,0,0,0-4.88,0,2.37,2.37,0,0,1-3.18,0,3.77,3.77,0,0,0-4.88,0,2.28,2.28,0,0,1-1.59.61c-.66,0-1-.32-1.49-.9a3.56,3.56,0,0,0-1.84-1.29v-.93h31.08Zm-33.3,9.92a1.56,1.56,0,0,1,0-3.12h1.37l7.27,3.12h-8.64Zm17.38,2.2-12.42-5.32h24.84Zm18.94-3.76a1.56,1.56,0,0,1-1.56,1.56H185l7.27-3.12h1.37A1.56,1.56,0,0,1,195.24,115.05Zm-36.32-3a1.56,1.56,0,0,1,0-3.12h1.51c.66,0,1,.32,1.49.9a3.21,3.21,0,0,0,2.54,1.37,3.67,3.67,0,0,0,2.44-.9,2.37,2.37,0,0,1,3.18,0,3.77,3.77,0,0,0,4.88,0,2.37,2.37,0,0,1,3.18,0,3.77,3.77,0,0,0,4.88,0,2.37,2.37,0,0,1,3.18,0,3.67,3.67,0,0,0,2.44.9,3.57,3.57,0,0,0,2.64-1.34c.59-.59,1-.93,1.64-.93h.76a1.56,1.56,0,1,1,0,3.12Z"/><circle cx="176.3" cy="96.11" r="0.71"/><circle cx="180.88" cy="98.38" r="0.71"/><circle cx="162.74" cy="98.38" r="0.71"/><circle cx="171.81" cy="98.38" r="0.71"/><circle cx="167.18" cy="96.11" r="0.71"/><circle class="cls-14" cx="176.81" cy="170.11" r="22.31"/><path class="cls-15" d="M158.77,170.11A22.31,22.31,0,0,1,179,147.9c-.7-.07-1.42-.1-2.14-.1a22.31,22.31,0,0,0,0,44.63c.72,0,1.43,0,2.14-.1A22.31,22.31,0,0,1,158.77,170.11Z"/><path class="cls-16" d="M193.56,169.61a1.64,1.64,0,0,1,.24.79c.07,1.47.65,3,.29,4.33s-1.81,2.56-2.56,3.86-1,3.08-2.06,4.15-2.83,1.3-4.15,2.06-2.37,2.17-3.86,2.56-2.86-.21-4.33-.29a1.64,1.64,0,0,1-.79-.24c-.89-.56,0-1.28,0-2.81,0-1.74,1.08-1.74,1.08-3.48s-1.08-1.74-1.08-3.48,1.08-1.74,1.08-3.48-.24-2.26.22-2.72,1-.22,2.72-.22,1.74-1.08,3.48-1.08,1.74,1.08,3.48,1.08,1.74-1.08,3.48-1.08C192.27,169.57,193,168.73,193.56,169.61Z"/><path class="cls-17" d="M180,187.08a1.64,1.64,0,0,1-.79-.24c-.89-.56,0-1.28,0-2.81,0-1.74,1.08-1.74,1.08-3.48s-1.08-1.74-1.08-3.48,1.08-1.74,1.08-3.48-.24-2.26.22-2.72,1-.22,2.72-.22a3.44,3.44,0,0,0,2.06-.73,2.73,2.73,0,0,0-1.43-.35c-1.74,0-1.74,1.08-3.48,1.08s-2.26-.24-2.72.22-.22,1-.22,2.72-1.08,1.74-1.08,3.48,1.08,1.74,1.08,3.48-1.08,1.74-1.08,3.48c0,1.52-.84,2.25,0,2.81a1.64,1.64,0,0,0,.79.24c1.47.07,3,.65,4.33.29l.21-.06A14.84,14.84,0,0,0,180,187.08Z"/><path class="cls-18" d="M179.17,187.37a20.26,20.26,0,0,0-2.06-.28,1.64,1.64,0,0,1-.79-.24c-.89-.56,0-1.28,0-2.81,0-1.74,1.08-1.74,1.08-3.48s-1.08-1.74-1.08-3.48,1.08-1.74,1.08-3.48-.23-2.27.22-2.72,1-.22,2.72-.22,1.74-1.08,3.48-1.08,1.74,1.08,3.48,1.08,1.74-1.08,3.48-1.08c1.52,0,2.25-.84,2.81,0a1.64,1.64,0,0,1,.24.79,20.25,20.25,0,0,0,.28,2.06,17.4,17.4,0,1,0-14.9,14.9Z"/><path class="cls-19" d="M162.56,170.11a17.42,17.42,0,0,1,15.83-17.35c-.52,0-1.05-.07-1.58-.07a17.42,17.42,0,0,0,0,34.84q.8,0,1.59-.07A17.42,17.42,0,0,1,162.56,170.11Z"/><rect class="cls-20" x="167.39" y="166.74" width="2.96" height="2.96"/><rect class="cls-20" x="170.35" y="177.16" width="2.96" height="2.96"/><rect class="cls-20" x="179.31" y="163.43" width="2.96" height="2.96"/><circle class="cls-14" cx="172.82" cy="161.37" r="1.77"/><circle class="cls-14" cx="182.27" cy="158.96" r="1.77"/><circle class="cls-14" cx="165.12" cy="174.42" r="1.77"/><rect x="181.98" y="173.01" width="1.35" height="1.35" transform="translate(-8.54 9.45) rotate(-2.89)"/><rect x="178.77" y="177.28" width="1.35" height="1.35" transform="translate(-8.76 9.29) rotate(-2.89)"/><rect x="172.14" y="171.98" width="1.35" height="1.35" transform="translate(-8.48 8.93) rotate(-2.89)"/><rect x="173.31" y="165.72" width="1.35" height="1.35" transform="translate(-8.17 8.98) rotate(-2.89)"/><rect x="176.14" y="156" width="1.35" height="1.35" transform="translate(-7.67 9.11) rotate(-2.89)"/><rect x="162.38" y="167.51" width="1.35" height="1.35" transform="translate(-8.27 8.43) rotate(-2.89)"/><rect x="185.61" y="177.25" width="1.35" height="1.35" transform="translate(-8.75 9.63) rotate(-2.89)"/><rect x="183.82" y="181.84" width="1.35" height="1.35" transform="translate(-8.96 9.53) rotate(-2.89)"/><rect x="191.02" y="173.72" width="1.35" height="1.35" transform="translate(-8.55 9.88) rotate(-2.89)"/><rect x="179.44" y="181.77" width="1.35" height="1.35" transform="translate(-8.97 9.31) rotate(-2.89)"/><path d="M193.07,153.85a23,23,0,1,0,6.73,16.25A22.84,22.84,0,0,0,193.07,153.85Zm-1.71,32.26L190.24,185l-1,1,1,1a21.64,21.64,0,1,1,1-.88Z"/><path class="cls-16" d="M174.69,156.4l-.2-1.33a15.12,15.12,0,0,0-8.12,4l.92,1A13.78,13.78,0,0,1,174.69,156.4Z"/><path class="cls-16" d="M166.45,160.88l-1-.9a15.26,15.26,0,0,0-2.16,3.14l1.2.62A13.91,13.91,0,0,1,166.45,160.88Z"/><path class="cls-16" d="M190.42,167.37l1.32-.26A15.26,15.26,0,0,0,189,161l-1.08.81A13.9,13.9,0,0,1,190.42,167.37Z"/><path class="cls-16" d="M187.17,160.88l1-.9a15.37,15.37,0,0,0-1.08-1.1l-.91,1A14,14,0,0,1,187.17,160.88Z"/><path d="M176.81,189.37a19.25,19.25,0,0,1-17-10.16l-1.19.64a20.59,20.59,0,0,0,18.16,10.87l.84,0-.05-1.35Z"/><path class="cls-16" d="M192.79,159.34l1.12-.75A20.54,20.54,0,0,0,181.38,150l-.3,1.31A19.19,19.19,0,0,1,192.79,159.34Z"/><path class="cls-16" d="M180,149.74a20.83,20.83,0,0,0-3.15-.24v1.35a19.48,19.48,0,0,1,2.95.22Z"/><path d="M194.91,170.11a18.09,18.09,0,0,0-35.93-3H156.7v1.35h2.1c-.05.55-.08,1.1-.08,1.66a18.11,18.11,0,0,0,18.09,18.09,18.33,18.33,0,0,0,2.35-.15,8.75,8.75,0,0,0,1.3.11,4.44,4.44,0,0,0,1.15-.14,7.22,7.22,0,0,0,2.68-1.63,10.22,10.22,0,0,1,1.34-1,10.46,10.46,0,0,1,1.57-.68,5.53,5.53,0,0,0,4.21-4.21,10.46,10.46,0,0,1,.68-1.57,10.23,10.23,0,0,1,1-1.34,7.22,7.22,0,0,0,1.63-2.68,6,6,0,0,0,0-2.45A18.37,18.37,0,0,0,194.91,170.11Zm-34.84,0a16.75,16.75,0,0,1,33.43-1.44,2.14,2.14,0,0,0-1.48,0,4.71,4.71,0,0,1-1.27.2,3.56,3.56,0,0,0-2.1.64,2.42,2.42,0,0,1-2.78,0,3.76,3.76,0,0,0-4.19,0,2.23,2.23,0,0,1-1.39.44c-.51,0-.91,0-1.24,0-.83,0-1.42-.07-2,.46s-.5,1.13-.46,2c0,.33,0,.73,0,1.24a2.23,2.23,0,0,1-.44,1.39,3.76,3.76,0,0,0,0,4.19,2.42,2.42,0,0,1,0,2.78,3.56,3.56,0,0,0-.64,2.1,4.71,4.71,0,0,1-.2,1.27,2.14,2.14,0,0,0,0,1.48A16.77,16.77,0,0,1,160.07,170.11Zm33.36,4.45a6.14,6.14,0,0,1-1.36,2.17,11.37,11.37,0,0,0-1.13,1.53,11.61,11.61,0,0,0-.78,1.77,4.28,4.28,0,0,1-3.42,3.42,11.62,11.62,0,0,0-1.77.78,11.37,11.37,0,0,0-1.53,1.13,4.26,4.26,0,0,1-4.65,1.27,14.19,14.19,0,0,0-1.64-.21,1,1,0,0,1-.47-.14l-.09-.07a2.39,2.39,0,0,1,.11-.55,6,6,0,0,0,.25-1.62,2.23,2.23,0,0,1,.44-1.39,3.76,3.76,0,0,0,0-4.19,2.42,2.42,0,0,1,0-2.78,3.56,3.56,0,0,0,.64-2.1c0-.54,0-1,0-1.31,0-.72,0-.84.07-.93s.22-.1.93-.07c.34,0,.77,0,1.31,0a3.56,3.56,0,0,0,2.1-.64,2.42,2.42,0,0,1,2.78,0,3.76,3.76,0,0,0,4.19,0,2.23,2.23,0,0,1,1.39-.44,6,6,0,0,0,1.61-.25,2.38,2.38,0,0,1,.55-.11.42.42,0,0,1,.07.09,1,1,0,0,1,.14.47,14.19,14.19,0,0,0,.21,1.64A6.12,6.12,0,0,1,193.43,174.56Z"/><path d="M166.72,170.37H171v-4.31h-4.31Zm1.35-3h1.61V169h-1.61Z"/><path d="M169.68,180.79H174v-4.31h-4.31Zm1.35-3h1.61v1.61H171Z"/><path d="M182.94,162.76h-4.31v4.31h4.31Zm-1.35,3H180v-1.61h1.61Z"/><path d="M172.82,158.93a2.45,2.45,0,1,0,2.45,2.45A2.45,2.45,0,0,0,172.82,158.93Zm0,3.55a1.1,1.1,0,1,1,1.1-1.1A1.1,1.1,0,0,1,172.82,162.47Z"/><path d="M182.27,161.41a2.45,2.45,0,1,0-2.45-2.45A2.45,2.45,0,0,0,182.27,161.41Zm0-3.55a1.1,1.1,0,1,1-1.1,1.1A1.1,1.1,0,0,1,182.27,157.86Z"/><path d="M165.12,172a2.45,2.45,0,1,0,2.45,2.45A2.45,2.45,0,0,0,165.12,172Zm0,3.55a1.1,1.1,0,1,1,1.1-1.1A1.1,1.1,0,0,1,165.12,175.52Z"/><path class="cls-1" d="M237,28.59h4.65V26.85a1.75,1.75,0,0,0-1.74-1.74h-1.16A1.75,1.75,0,0,0,237,26.85v1.74Z"/><path class="cls-2" d="M223.2,42.38h-4.09a1.84,1.84,0,1,0,0,3.68h4.09Z"/><path class="cls-2" d="M255.52,42.38v3.68h4.09a1.84,1.84,0,1,0,0-3.68Z"/><path class="cls-2" d="M222.45,36.48h33.83a1.44,1.44,0,0,0,0-2.87h-.79a5.71,5.71,0,0,0-5.65-5H228.89a5.71,5.71,0,0,0-5.65,5h-.79a1.44,1.44,0,1,0,0,2.87Z"/><path class="cls-1" d="M256.28,36.48H222.45a1.44,1.44,0,0,0,0,2.87h.75v18a3.6,3.6,0,0,0,3.59,3.59h25.14a3.6,3.6,0,0,0,3.59-3.59v-18h.75a1.44,1.44,0,0,0,0-2.87Z"/><path d="M259.61,41.48h-3.19V40.25a2.33,2.33,0,0,0,1.69-3.77,2.33,2.33,0,0,0-1.84-3.77h0a6.59,6.59,0,0,0-6.4-5h-7.25v-.84a2.64,2.64,0,0,0-2.64-2.64h-1.16a2.64,2.64,0,0,0-2.64,2.64v.84h-7.25a6.59,6.59,0,0,0-6.4,5h0a2.33,2.33,0,0,0-1.84,3.77,2.33,2.33,0,0,0,1.69,3.77v1.23h-3.19a2.74,2.74,0,0,0,0,5.48h3.19V57.31a4.49,4.49,0,0,0,4.49,4.49h25.14a4.49,4.49,0,0,0,4.49-4.49V47h3.19a2.74,2.74,0,0,0,0-5.48ZM237.94,26.85a.84.84,0,0,1,.84-.84h1.16a.84.84,0,0,1,.84.84v.84h-2.85v-.84Zm-15.49,7.66h.79a.9.9,0,0,0,.89-.79,4.79,4.79,0,0,1,4.76-4.22h20.94a4.79,4.79,0,0,1,4.76,4.22.9.9,0,0,0,.89.79h.79a.54.54,0,1,1,0,1.08H222.45a.54.54,0,1,1,0-1.08Zm-3.33,10.65a.94.94,0,1,1,0-1.89h3.19v1.89Zm35.51,12.15A2.7,2.7,0,0,1,251.93,60H226.79a2.7,2.7,0,0,1-2.69-2.69v-18a.9.9,0,0,0-.9-.9h-.75a.54.54,0,0,1,0-1.08h33.83a.54.54,0,0,1,0,1.08h-.75a.9.9,0,0,0-.9.9v18Zm5-12.15h-3.19V43.27h3.19a.94.94,0,1,1,0,1.89Z"/><path d="M238.45,21.77a.9.9,0,1,0,1.65.7,4.24,4.24,0,0,0,.1-3.66A2.61,2.61,0,0,1,240,17a.9.9,0,0,0-1.75-.4,4.35,4.35,0,0,0,.25,2.8A2.5,2.5,0,0,1,238.45,21.77Z"/><path d="M228.2,21.77a.9.9,0,1,0,1.65.7,4.24,4.24,0,0,0,.1-3.66,2.6,2.6,0,0,1-.18-1.77.9.9,0,0,0-1.75-.4,4.35,4.35,0,0,0,.25,2.8A2.5,2.5,0,0,1,228.2,21.77Z"/><path d="M248.7,21.77a.9.9,0,1,0,1.65.7,4.24,4.24,0,0,0,.1-3.66,2.6,2.6,0,0,1-.18-1.77.9.9,0,1,0-1.75-.4,4.35,4.35,0,0,0,.25,2.8A2.5,2.5,0,0,1,248.7,21.77Z"/><path d="M230,38.46h-3.68a.9.9,0,0,0,0,1.8H230a.9.9,0,0,0,0-1.8Z"/><path d="M232.65,38.46h0a.9.9,0,1,0,0,1.8h0a.9.9,0,1,0,0-1.8Z"/><path class="cls-3" d="M256,125.38H228.82a4.53,4.53,0,0,1-4.53-4.53v-3h36.27v3A4.53,4.53,0,0,1,256,125.38Z"/><path class="cls-4" d="M227.31,120.84v-3h-3v3a4.53,4.53,0,0,0,4.53,4.53h3A4.53,4.53,0,0,1,227.31,120.84Z"/><path class="cls-3" d="M260.56,101.95H224.28V99.68a6,6,0,0,1,6-6h24.18a6,6,0,0,1,6,6v2.27Z"/><path class="cls-4" d="M233.35,93.64h-3a6,6,0,0,0-6,6v2.27h3V99.68A6,6,0,0,1,233.35,93.64Z"/><path class="cls-5" d="M259.8,113.28H225a2.27,2.27,0,0,1-2.27-2.27h0a2.27,2.27,0,0,1,2.27-2.27H259.8a2.27,2.27,0,0,1,2.27,2.27h0A2.27,2.27,0,0,1,259.8,113.28Z"/><path class="cls-6" d="M225.79,111h0a2.27,2.27,0,0,1,2.27-2.27h-3a2.27,2.27,0,0,0-2.27,2.27h0a2.27,2.27,0,0,0,2.27,2.27h3A2.27,2.27,0,0,1,225.79,111Z"/><path class="cls-7" d="M259.8,106.48H225a2.27,2.27,0,0,1-2.27-2.27h0a2.27,2.27,0,0,1,2.27-2.27H259.8a2.27,2.27,0,0,1,2.27,2.27h0A2.27,2.27,0,0,1,259.8,106.48Z"/><path class="cls-8" d="M225.79,104.22h0a2.27,2.27,0,0,1,2.27-2.27h-3a2.27,2.27,0,0,0-2.27,2.27h0a2.27,2.27,0,0,0,2.27,2.27h3A2.27,2.27,0,0,1,225.79,104.22Z"/><path class="cls-7" d="M259.8,117.82H225a2.27,2.27,0,0,1-2.27-2.27h0a2.27,2.27,0,0,1,2.27-2.27H259.8a2.27,2.27,0,0,1,2.27,2.27h0A2.27,2.27,0,0,1,259.8,117.82Z"/><path class="cls-8" d="M225.79,115.55h0a2.27,2.27,0,0,1,2.27-2.27h-3a2.27,2.27,0,0,0-2.27,2.27h0a2.27,2.27,0,0,0,2.27,2.27h3A2.27,2.27,0,0,1,225.79,115.55Z"/><polygon class="cls-9" points="242.42 120.08 258.29 113.28 226.55 113.28 242.42 120.08"/><polygon class="cls-10" points="231.84 113.28 226.55 113.28 242.42 120.08 245.06 118.95 231.84 113.28"/><polygon class="cls-11" points="242.42 80.79 230.33 80.79 232.6 84.57 230.33 88.34 242.42 88.34 242.42 80.79"/><path class="cls-12" d="M226.55,106.48v2.27c2,0,2,2.27,4,2.27s2-1.51,4-1.51,2,1.51,4,1.51,2-1.51,4-1.51,2,1.51,4,1.51,2-1.51,4-1.51,2,1.51,4,1.51,2.27-2.27,4.28-2.27v-2.27Z"/><rect class="cls-13" x="226.55" y="106.48" width="32.5" height="2.27"/><path d="M260.56,118.81a.71.71,0,0,0-.71.71v1.32a3.83,3.83,0,0,1-3.83,3.83H228.82a3.83,3.83,0,0,1-3.83-3.83v-1.32a.71.71,0,1,0-1.42,0v1.32a5.25,5.25,0,0,0,5.24,5.24H256a5.25,5.25,0,0,0,5.24-5.24v-1.32A.71.71,0,0,0,260.56,118.81Z"/><path d="M224.28,100.86a.71.71,0,0,0,.71-.71v-.47a5.34,5.34,0,0,1,5.34-5.34h24.18a5.34,5.34,0,0,1,5.34,5.34v.47a.71.71,0,0,0,1.42,0v-.47a6.76,6.76,0,0,0-6.75-6.75H243.13V78.52a.71.71,0,0,0-1.42,0v1.56H230.33a.72.72,0,0,0-.61,1.07l2,3.41-2,3.41a.72.72,0,0,0,.61,1.07h11.38v3.87H230.33a6.76,6.76,0,0,0-6.75,6.75v.47A.71.71,0,0,0,224.28,100.86Zm7.3-13.22,1.62-2.71a.71.71,0,0,0,0-.73l-1.62-2.71h10.13v6.14Z"/><path d="M262.78,111a3,3,0,0,0-3-3h0v-.85h0a3,3,0,1,0,0-6h-6a.71.71,0,1,0,0,1.42h6a1.56,1.56,0,0,1,0,3.12H225a1.56,1.56,0,0,1,0-3.12h25.32a.71.71,0,1,0,0-1.42H225a3,3,0,0,0,0,6h.8V108H225a3,3,0,0,0-1.92,5.24,3,3,0,0,0,1.92,5.24H237l5.17,2.21a.71.71,0,0,0,.56,0l5.16-2.21H259.8a3,3,0,0,0,1.92-5.24A3,3,0,0,0,262.78,111Zm-4.44-3.83v.93a4,4,0,0,0-1.93,1.26c-.59.59-1,.93-1.64.93a2.28,2.28,0,0,1-1.59-.61,3.77,3.77,0,0,0-4.88,0,2.37,2.37,0,0,1-3.18,0,3.77,3.77,0,0,0-4.88,0,2.37,2.37,0,0,1-3.18,0,3.77,3.77,0,0,0-4.88,0,2.28,2.28,0,0,1-1.59.61c-.66,0-1-.32-1.49-.9a3.56,3.56,0,0,0-1.84-1.29v-.93h31.08ZM225,117.11a1.56,1.56,0,0,1,0-3.12h1.37l7.27,3.12H225Zm17.38,2.2L230,114h24.84Zm18.94-3.76a1.56,1.56,0,0,1-1.56,1.56h-8.64l7.27-3.12h1.37A1.56,1.56,0,0,1,261.36,115.55Zm-36.32-3a1.56,1.56,0,0,1,0-3.12h1.51c.66,0,1,.32,1.49.9a3.21,3.21,0,0,0,2.54,1.37,3.67,3.67,0,0,0,2.44-.9,2.37,2.37,0,0,1,3.18,0,3.77,3.77,0,0,0,4.88,0,2.37,2.37,0,0,1,3.18,0,3.77,3.77,0,0,0,4.88,0,2.37,2.37,0,0,1,3.18,0,3.67,3.67,0,0,0,2.44.9,3.57,3.57,0,0,0,2.64-1.34c.59-.59,1-.93,1.64-.93h.76a1.56,1.56,0,0,1,0,3.12Z"/><circle cx="242.42" cy="96.61" r="0.71"/><circle cx="247" cy="98.88" r="0.71"/><circle cx="228.86" cy="98.88" r="0.71"/><circle cx="237.93" cy="98.88" r="0.71"/><circle cx="233.3" cy="96.61" r="0.71"/><path class="cls-1" d="M298.54,27.88h4.65V26.14a1.75,1.75,0,0,0-1.74-1.74h-1.16a1.75,1.75,0,0,0-1.74,1.74v1.74Z"/><path class="cls-2" d="M284.7,41.67h-4.09a1.84,1.84,0,1,0,0,3.68h4.09Z"/><path class="cls-2" d="M317,41.67v3.68h4.09a1.84,1.84,0,1,0,0-3.68Z"/><path class="cls-2" d="M283.95,35.77h33.83a1.44,1.44,0,1,0,0-2.87H317a5.71,5.71,0,0,0-5.65-5H290.39a5.71,5.71,0,0,0-5.65,5h-.79a1.44,1.44,0,1,0,0,2.87Z"/><path class="cls-1" d="M317.77,35.77H283.95a1.44,1.44,0,0,0,0,2.87h.75v18a3.6,3.6,0,0,0,3.59,3.59h25.14A3.6,3.6,0,0,0,317,56.61v-18h.75a1.44,1.44,0,0,0,0-2.87Z"/><path d="M321.11,40.77h-3.19V39.54a2.33,2.33,0,0,0,1.69-3.77A2.33,2.33,0,0,0,317.77,32h0a6.59,6.59,0,0,0-6.4-5h-7.25v-.84a2.64,2.64,0,0,0-2.64-2.64h-1.16a2.64,2.64,0,0,0-2.64,2.64V27h-7.25a6.59,6.59,0,0,0-6.4,5h0a2.33,2.33,0,0,0-1.84,3.77,2.33,2.33,0,0,0,1.69,3.77v1.23h-3.19a2.74,2.74,0,0,0,0,5.48h3.19V56.61a4.49,4.49,0,0,0,4.49,4.49h25.14a4.49,4.49,0,0,0,4.49-4.49V46.25h3.19a2.74,2.74,0,1,0,0-5.48ZM299.44,26.14a.84.84,0,0,1,.84-.84h1.16a.84.84,0,0,1,.84.84V27h-2.85v-.84ZM283.95,33.8h.79a.9.9,0,0,0,.89-.79,4.79,4.79,0,0,1,4.76-4.22h20.94A4.79,4.79,0,0,1,316.09,33a.9.9,0,0,0,.89.79h.79a.54.54,0,1,1,0,1.08H283.95a.54.54,0,1,1,0-1.08Zm-3.33,10.65a.94.94,0,1,1,0-1.89h3.19v1.89Zm35.51,12.15a2.7,2.7,0,0,1-2.69,2.69H288.29a2.7,2.7,0,0,1-2.69-2.69v-18a.9.9,0,0,0-.9-.9h-.75a.54.54,0,0,1,0-1.08h33.83a.54.54,0,0,1,0,1.08H317a.9.9,0,0,0-.9.9v18Zm5-12.15h-3.19V42.57h3.19a.94.94,0,1,1,0,1.89Z"/><path d="M300,21.07a.9.9,0,1,0,1.65.7,4.24,4.24,0,0,0,.1-3.66,2.61,2.61,0,0,1-.18-1.77.9.9,0,0,0-1.75-.4,4.35,4.35,0,0,0,.25,2.8A2.5,2.5,0,0,1,300,21.07Z"/><path d="M289.7,21.07a.9.9,0,1,0,1.65.7,4.24,4.24,0,0,0,.1-3.66,2.6,2.6,0,0,1-.18-1.77.9.9,0,0,0-1.75-.4,4.35,4.35,0,0,0,.25,2.8A2.5,2.5,0,0,1,289.7,21.07Z"/><path d="M310.2,21.07a.9.9,0,1,0,1.65.7,4.24,4.24,0,0,0,.1-3.66,2.6,2.6,0,0,1-.18-1.77.9.9,0,1,0-1.75-.4,4.35,4.35,0,0,0,.25,2.8A2.5,2.5,0,0,1,310.2,21.07Z"/><path d="M291.55,37.75h-3.68a.9.9,0,1,0,0,1.8h3.68a.9.9,0,0,0,0-1.8Z"/><path d="M294.15,37.75h0a.9.9,0,1,0,0,1.8h0a.9.9,0,1,0,0-1.8Z"/><text class="cls-26" transform="translate(459.21 49.87)">18 million </text><text class="cls-26" transform="translate(459.21 111.43)">17 million </text><text class="cls-26" transform="translate(459.21 171.05)">8 million </text><text class="cls-26" transform="translate(456.94 228.64)">5.1 million </text><text class="cls-26" transform="translate(456.94 290.85)">5 million </text><path id="_Path_" data-name="&lt;Path&gt;" class="cls-27" d="M432.31,53.74h-4.4a.18.18,0,0,1-.18-.18V42.22a.18.18,0,0,1,.18-.18h4.4a.18.18,0,0,1,.18.18V53.57A.18.18,0,0,1,432.31,53.74Z"/><path d="M440.32,33.66a3.88,3.88,0,0,0-3.14-.38.41.41,0,0,0-.29.39v3.92A4,4,0,0,1,435,40.94a7.25,7.25,0,0,1-2,1h0l-.23.08a.77.77,0,0,0-.66-.37h-4a.77.77,0,0,0-.77.77v11a.77.77,0,0,0,.77.77h4a.77.77,0,0,0,.75-.59,3,3,0,0,0,2.17.95h9.59a3.23,3.23,0,0,0,3.57-2.92l1.22-7.78a3,3,0,0,0-1.18-2.91,2.94,2.94,0,0,0-1.73-.56h-5V36.71A3.55,3.55,0,0,0,440.32,33.66Zm-8.24,19.67h-3.93V42.45h3.93Zm14.45-12.16a2.11,2.11,0,0,1,1.25.4,2.18,2.18,0,0,1,.84,2.11l-1.22,7.78h0a2.44,2.44,0,0,1-2.75,2.2h-9.59a2.15,2.15,0,0,1-2.15-2.15V42.84l.38-.13a7.77,7.77,0,0,0,2.18-1.08,4.86,4.86,0,0,0,2.24-4V34a2.82,2.82,0,0,1,2.12.32,2.79,2.79,0,0,1,.88,2.38v4.05a.42.42,0,0,0,.42.42h5.4Z"/><path id="_Path_2" data-name="&lt;Path&gt;" class="cls-27" d="M432.31,116.19h-4.4a.18.18,0,0,1-.18-.18V104.66a.18.18,0,0,1,.18-.18h4.4a.18.18,0,0,1,.18.18V116A.18.18,0,0,1,432.31,116.19Z"/><path d="M440.32,96.11a3.88,3.88,0,0,0-3.14-.38.41.41,0,0,0-.29.39V100a4,4,0,0,1-1.88,3.34,7.25,7.25,0,0,1-2,1h0l-.23.08a.77.77,0,0,0-.66-.37h-4a.77.77,0,0,0-.77.77v11a.77.77,0,0,0,.77.77h4a.77.77,0,0,0,.75-.59,3,3,0,0,0,2.17.95h9.59a3.23,3.23,0,0,0,3.57-2.92l1.22-7.78a3,3,0,0,0-1.18-2.91,2.94,2.94,0,0,0-1.73-.56h-5V99.15A3.55,3.55,0,0,0,440.32,96.11Zm-8.24,19.67h-3.93V104.9h3.93Zm14.45-12.16a2.11,2.11,0,0,1,1.25.4,2.18,2.18,0,0,1,.84,2.11l-1.22,7.78h0a2.44,2.44,0,0,1-2.75,2.2h-9.59a2.15,2.15,0,0,1-2.15-2.15v-8.69l.38-.13a7.77,7.77,0,0,0,2.18-1.08,4.86,4.86,0,0,0,2.24-4V96.45a2.82,2.82,0,0,1,2.12.32,2.79,2.79,0,0,1,.88,2.38v4.05a.42.42,0,0,0,.42.42h5.4Z"/><path id="_Path_3" data-name="&lt;Path&gt;" class="cls-27" d="M432.31,174.77h-4.4a.18.18,0,0,1-.18-.18V163.25a.18.18,0,0,1,.18-.18h4.4a.18.18,0,0,1,.18.18V174.6A.18.18,0,0,1,432.31,174.77Z"/><path d="M440.32,154.69a3.88,3.88,0,0,0-3.14-.38.41.41,0,0,0-.29.39v3.92A4,4,0,0,1,435,162a7.25,7.25,0,0,1-2,1h0l-.23.08a.77.77,0,0,0-.66-.37h-4a.77.77,0,0,0-.77.77v11a.77.77,0,0,0,.77.77h4a.77.77,0,0,0,.75-.59,3,3,0,0,0,2.17.95h9.59a3.23,3.23,0,0,0,3.57-2.92l1.22-7.78a3,3,0,0,0-1.18-2.91,2.94,2.94,0,0,0-1.73-.56h-5v-3.64A3.55,3.55,0,0,0,440.32,154.69Zm-8.24,19.67h-3.93V163.48h3.93Zm14.45-12.16a2.11,2.11,0,0,1,1.25.4,2.18,2.18,0,0,1,.84,2.11l-1.22,7.78h0a2.44,2.44,0,0,1-2.75,2.2h-9.59a2.15,2.15,0,0,1-2.15-2.15v-8.69l.38-.13a7.77,7.77,0,0,0,2.18-1.08,4.86,4.86,0,0,0,2.24-4V155a2.82,2.82,0,0,1,2.12.32,2.79,2.79,0,0,1,.88,2.38v4.05a.42.42,0,0,0,.42.42h5.4Z"/><path id="_Path_4" data-name="&lt;Path&gt;" class="cls-27" d="M432.31,231.52h-4.4a.18.18,0,0,1-.18-.18V220a.18.18,0,0,1,.18-.18h4.4a.18.18,0,0,1,.18.18v11.35A.18.18,0,0,1,432.31,231.52Z"/><path d="M440.32,211.44a3.88,3.88,0,0,0-3.14-.38.41.41,0,0,0-.29.39v3.92a4,4,0,0,1-1.88,3.34,7.25,7.25,0,0,1-2,1h0l-.23.08a.77.77,0,0,0-.66-.37h-4a.77.77,0,0,0-.77.77v11a.77.77,0,0,0,.77.77h4a.77.77,0,0,0,.75-.59,3,3,0,0,0,2.17.95h9.59a3.23,3.23,0,0,0,3.57-2.92l1.22-7.78a3,3,0,0,0-1.18-2.91,2.94,2.94,0,0,0-1.73-.56h-5v-3.64A3.55,3.55,0,0,0,440.32,211.44Zm-8.24,19.67h-3.93V220.23h3.93ZM446.53,219a2.11,2.11,0,0,1,1.25.4,2.18,2.18,0,0,1,.84,2.11l-1.22,7.78h0a2.44,2.44,0,0,1-2.75,2.2h-9.59a2.15,2.15,0,0,1-2.15-2.15v-8.69l.38-.13a7.77,7.77,0,0,0,2.18-1.08,4.86,4.86,0,0,0,2.24-4v-3.59a2.82,2.82,0,0,1,2.12.32,2.79,2.79,0,0,1,.88,2.38v4.05a.42.42,0,0,0,.42.42h5.4Z"/><path id="_Path_5" data-name="&lt;Path&gt;" class="cls-27" d="M432.31,292.88h-4.4a.18.18,0,0,1-.18-.18V281.35a.18.18,0,0,1,.18-.18h4.4a.18.18,0,0,1,.18.18V292.7A.18.18,0,0,1,432.31,292.88Z"/><path d="M440.32,272.79a3.88,3.88,0,0,0-3.14-.38.41.41,0,0,0-.29.39v3.92a4,4,0,0,1-1.88,3.34,7.25,7.25,0,0,1-2,1h0l-.23.08a.77.77,0,0,0-.66-.37h-4a.77.77,0,0,0-.77.77v11a.77.77,0,0,0,.77.77h4a.77.77,0,0,0,.75-.59,3,3,0,0,0,2.17.95h9.59a3.23,3.23,0,0,0,3.57-2.92l1.22-7.78a3,3,0,0,0-1.18-2.91,2.94,2.94,0,0,0-1.73-.56h-5v-3.64A3.55,3.55,0,0,0,440.32,272.79Zm-8.24,19.67h-3.93V281.59h3.93Zm14.45-12.16a2.11,2.11,0,0,1,1.25.4,2.18,2.18,0,0,1,.84,2.11l-1.22,7.78h0a2.44,2.44,0,0,1-2.75,2.2h-9.59a2.15,2.15,0,0,1-2.15-2.15V282l.38-.13a7.77,7.77,0,0,0,2.18-1.08,4.86,4.86,0,0,0,2.24-4v-3.59a2.82,2.82,0,0,1,2.12.32,2.79,2.79,0,0,1,.88,2.38v4.05a.42.42,0,0,0,.42.42h5.4Z"/></svg>