<?xml version="1.0" encoding="iso-8859-1"?>
<!-- Generator: Adobe Illustrator 19.0.0, SVG Export Plug-In . SVG Version: 6.00 Build 0)  -->
<svg version="1.1" id="Capa_1" xmlns="http://www.w3.org/2000/svg" xmlns:xlink="http://www.w3.org/1999/xlink" x="0px" y="0px"
	 viewBox="0 0 512 512" style="enable-background:new 0 0 512 512;" xml:space="preserve">
<path style="fill:#81C784;" d="M99.083,130.843v30.371h25.309v91.113l26.322,23.284v198.424c0,16.774,13.597,30.371,30.371,30.371
	h171.09V130.843H99.083z"/>
<path style="fill:#4CAF50;" d="M281.309,453.789c0,10.867,2.475,21.161,6.868,30.371H181.085c-16.774,0-30.371-13.598-30.371-30.371
	v20.247c0,16.774,13.597,30.371,30.371,30.371h171.09V382.923C313.1,382.923,281.309,414.713,281.309,453.789z"/>
<rect x="382.543" y="130.849" style="fill:#81C784;" width="30.371" height="202.474"/>
<polygon style="fill:#F4511E;" points="325.702,81.015 337.82,106.962 329.133,130.843 253.732,130.843 271.216,82.746 
	297.163,70.628 314.464,23.057 343.003,33.433 "/>
<polygon style="fill:#FDD844;" points="188.082,69.871 153.731,10.372 127.429,25.557 154.469,72.391 "/>
<polygon style="fill:#FFA733;" points="212.319,90.747 240.814,85.834 264.313,101.73 271.216,82.743 284.102,76.728 
	278.272,57.487 245.876,39.265 208.419,39.265 192.124,70.551 "/>
<polygon style="fill:#CE93D8;" points="211.456,90.895 199.307,114.18 207.639,130.843 131.236,130.843 120.343,106.081 
	150.714,72.673 191.208,69.636 212.316,90.744 "/>
<polygon style="fill:#616161;" points="264.312,101.728 253.732,130.843 207.639,130.843 199.307,114.18 211.456,90.895 
	240.814,85.834 "/>
<circle style="fill:#B39A7C;" cx="352.172" cy="453.794" r="50.618"/>
<path style="fill:#D8D7DA;" d="M352.175,474.036c-11.164,0-20.247-9.083-20.247-20.247s9.083-20.247,20.247-20.247
	c11.164,0,20.247,9.083,20.247,20.247S363.339,474.036,352.175,474.036z"/>
<polygon style="fill:#FDAB08;" points="176.846,50.409 143.232,52.93 154.469,72.391 188.082,69.871 "/>
<polygon style="fill:#EE8700;" points="278.272,57.487 277.9,57.279 255.052,67.941 254.153,70.413 245.408,64.496 219.217,69.011 
	201.929,51.724 192.124,70.551 212.319,90.747 240.814,85.834 264.313,101.73 271.216,82.743 284.102,76.728 "/>
<polygon style="fill:#BA68C8;" points="212.316,90.744 196.797,75.224 178.339,110.596 122.329,110.596 131.236,130.843 
	207.639,130.843 199.307,114.18 211.456,90.895 "/>
<polygon style="fill:#424242;" points="247.02,90.035 239.542,110.596 201.177,110.596 199.307,114.18 207.639,130.843 
	253.732,130.843 264.312,101.728 "/>
<polygon style="fill:#D84315;" points="261.092,110.596 253.732,130.843 329.133,130.843 336.497,110.596 "/>
<g>
	<rect x="382.543" y="313.075" style="fill:#4CAF50;" width="30.371" height="20.247"/>
	<path style="fill:#4CAF50;" d="M276.247,330.28v-20.247c0-16.774,13.597-30.371,30.371-30.371h20.247L276.247,330.28z"/>
	<path style="fill:#4CAF50;" d="M214.493,279.662c-13.978,0-25.309,11.331-25.309,25.309v20.247
		c0-13.978,11.331-25.309,25.309-25.309c13.978,0,25.309,11.331,25.309,25.309v-20.247
		C239.802,290.993,228.471,279.662,214.493,279.662z"/>
</g>
<path d="M352.175,395.578c-32.098,0-58.211,26.113-58.211,58.211S320.077,512,352.175,512s58.211-26.113,58.211-58.211
	S384.273,395.578,352.175,395.578z M352.175,496.814c-23.725,0-43.026-19.301-43.026-43.026c0-23.725,19.301-43.026,43.026-43.026
	c23.725,0,43.026,19.301,43.026,43.026C395.201,477.514,375.899,496.814,352.175,496.814z"/>
<path d="M352.175,425.949c-15.351,0-27.84,12.49-27.84,27.84s12.49,27.84,27.84,27.84s27.84-12.49,27.84-27.84
	S367.525,425.949,352.175,425.949z M352.175,466.443c-6.978,0-12.655-5.676-12.655-12.655c0-6.978,5.676-12.655,12.655-12.655
	c6.978,0,12.655,5.676,12.655,12.655C364.83,460.767,359.152,466.443,352.175,466.443z"/>
<path d="M158.307,474.036V272.191l-26.322-23.284v-95.285h-25.309v-15.186h237.906v239.425h15.186V123.251h-19.794l6.056-16.65
	l-12.119-25.947l18.822-51.76l-42.81-15.566l-18.822,51.751l-2.274,1.062l-4.174-13.775l-36.788-20.693h-44.052l-13.765,26.419
	L156.51,0l-39.452,22.778l26.705,46.253l-32.356,35.593l8.194,18.627H91.49v45.557h25.309v86.941l26.322,23.284v195.003
	c0,20.934,17.03,37.964,37.964,37.964h114.549v-15.186H181.085C168.524,496.814,158.307,486.596,158.307,474.036z M207.833,114.253
	l8.616-16.515l22.644-3.903l16.064,10.866l-6.743,18.55h-36.082L207.833,114.253z M319.005,32.788l14.268,5.187L317.49,81.377
	l12.119,25.947l-5.793,15.927h-59.245l12.706-34.955l25.947-12.119L319.005,32.788z M213.024,46.857h30.863L271.89,62.61
	l3.037,10.023l-9.772,4.565l-4.65,12.79l-17.969-12.156l-27.63,4.764l-13.481-13.48L213.024,46.857z M150.951,20.743l24.513,42.459
	l-16.804,1.26l-20.859-36.126L150.951,20.743z M129.279,107.539l25.019-27.52l34.005-2.551l14.191,14.191l-11.712,22.448
	l4.572,9.144H136.19L129.279,107.539z"/>
<path d="M374.953,123.251V340.91h45.557V123.251C420.51,123.251,374.953,123.251,374.953,123.251z M405.324,325.724h-15.186V138.436
	h15.186V325.724z"/>
<path d="M247.395,421.393V304.971c0-18.143-14.76-32.902-32.902-32.902s-32.902,14.759-32.902,32.902v136.67h15.186v-136.67
	c0-9.768,7.948-17.716,17.716-17.716c9.768,0,17.716,7.948,17.716,17.716v116.422H247.395z"/>
<path d="M268.655,310.033v70.866h15.186v-70.866c0-12.559,10.219-22.778,22.778-22.778h21.26v-15.186h-21.26
	C285.685,272.069,268.655,289.099,268.655,310.033z"/>
<g>
	<path style="fill:#FFFFFF;" d="M262.074,481.629h-40.495v-15.186h40.495V481.629z M206.394,481.629h-15.186v-15.186h15.186V481.629
		z"/>
	<rect x="147.167" y="230.061" style="fill:#FFFFFF;" width="15.186" height="15.186"/>
	<rect x="314.208" y="237.147" style="fill:#FFFFFF;" width="15.186" height="15.186"/>
	<path style="fill:#FFFFFF;" d="M329.397,383.935h-15.186V368.75h15.186V383.935z M329.397,353.564h-15.186v-30.371h15.186V353.564z
		"/>
	<path style="fill:#FFFFFF;" d="M325.853,168.807h-15.186v-15.186h15.186V168.807z M295.482,168.807H234.74v-15.186h60.742V168.807z
		 M219.555,168.807h-35.433v-15.186h35.433V168.807z M168.936,168.807h-15.186v-15.186h15.186V168.807z"/>
	<path style="fill:#FFFFFF;" d="M276.247,252.834h-15.186v-15.186h15.186V252.834z M245.876,252.834h-15.186v-15.186h15.186V252.834
		z M215.505,252.834H200.32v-15.186h15.186V252.834z"/>
	<rect x="158.81" y="92.885" style="fill:#FFFFFF;" width="15.186" height="15.186"/>
	<rect x="291.43" y="96.934" style="fill:#FFFFFF;" width="15.186" height="15.186"/>
</g>
<g>
</g>
<g>
</g>
<g>
</g>
<g>
</g>
<g>
</g>
<g>
</g>
<g>
</g>
<g>
</g>
<g>
</g>
<g>
</g>
<g>
</g>
<g>
</g>
<g>
</g>
<g>
</g>
<g>
</g>
</svg>
